G04 #@! TF.GenerationSoftware,KiCad,Pcbnew,(5.0.1)-3*
G04 #@! TF.CreationDate,2018-12-09T17:04:29+00:00*
G04 #@! TF.ProjectId,8 Bit Computer,382042697420436F6D70757465722E6B,rev?*
G04 #@! TF.SameCoordinates,Original*
G04 #@! TF.FileFunction,Legend,Bot*
G04 #@! TF.FilePolarity,Positive*
%FSLAX46Y46*%
G04 Gerber Fmt 4.6, Leading zero omitted, Abs format (unit mm)*
G04 Created by KiCad (PCBNEW (5.0.1)-3) date 09/12/2018 17:04:29*
%MOMM*%
%LPD*%
G01*
G04 APERTURE LIST*
%ADD10C,0.150000*%
%ADD11C,0.120000*%
G04 APERTURE END LIST*
D10*
G04 #@! TO.C,J1*
X53340000Y-39040000D02*
X53940000Y-38440000D01*
X52740000Y-38440000D02*
X53340000Y-39040000D01*
X53940000Y-38440000D02*
X52740000Y-38440000D01*
X47500000Y-37990000D02*
X47500000Y-38490000D01*
X47400000Y-38490000D02*
X47600000Y-38490000D01*
X47400000Y-37990000D02*
X47400000Y-38490000D01*
X47600000Y-37990000D02*
X47400000Y-37990000D01*
X47500000Y-103750000D02*
X47500000Y-104250000D01*
X47400000Y-104250000D02*
X47600000Y-104250000D01*
X47400000Y-103750000D02*
X47400000Y-104250000D01*
X47600000Y-103750000D02*
X47400000Y-103750000D01*
X47500000Y-70870000D02*
X47500000Y-71370000D01*
X47400000Y-71370000D02*
X47600000Y-71370000D01*
X47400000Y-70870000D02*
X47400000Y-71370000D01*
X47600000Y-70870000D02*
X47400000Y-70870000D01*
X55240000Y-73345000D02*
X56540000Y-73345000D01*
X55240000Y-105470000D02*
X55240000Y-73345000D01*
X48900000Y-105470000D02*
X55240000Y-105470000D01*
X48900000Y-36770000D02*
X48900000Y-105470000D01*
X55240000Y-36770000D02*
X48900000Y-36770000D01*
X55240000Y-68895000D02*
X55240000Y-36770000D01*
X56540000Y-68895000D02*
X55240000Y-68895000D01*
X56540000Y-106670000D02*
X56540000Y-35570000D01*
X47600000Y-106670000D02*
X56540000Y-106670000D01*
X47600000Y-35570000D02*
X47600000Y-106670000D01*
X56540000Y-35570000D02*
X47600000Y-35570000D01*
G04 #@! TO.C,J7*
X233680000Y-39040000D02*
X234280000Y-38440000D01*
X233080000Y-38440000D02*
X233680000Y-39040000D01*
X234280000Y-38440000D02*
X233080000Y-38440000D01*
X227840000Y-37990000D02*
X227840000Y-38490000D01*
X227740000Y-38490000D02*
X227940000Y-38490000D01*
X227740000Y-37990000D02*
X227740000Y-38490000D01*
X227940000Y-37990000D02*
X227740000Y-37990000D01*
X227840000Y-103750000D02*
X227840000Y-104250000D01*
X227740000Y-104250000D02*
X227940000Y-104250000D01*
X227740000Y-103750000D02*
X227740000Y-104250000D01*
X227940000Y-103750000D02*
X227740000Y-103750000D01*
X227840000Y-70870000D02*
X227840000Y-71370000D01*
X227740000Y-71370000D02*
X227940000Y-71370000D01*
X227740000Y-70870000D02*
X227740000Y-71370000D01*
X227940000Y-70870000D02*
X227740000Y-70870000D01*
X235580000Y-73345000D02*
X236880000Y-73345000D01*
X235580000Y-105470000D02*
X235580000Y-73345000D01*
X229240000Y-105470000D02*
X235580000Y-105470000D01*
X229240000Y-36770000D02*
X229240000Y-105470000D01*
X235580000Y-36770000D02*
X229240000Y-36770000D01*
X235580000Y-68895000D02*
X235580000Y-36770000D01*
X236880000Y-68895000D02*
X235580000Y-68895000D01*
X236880000Y-106670000D02*
X236880000Y-35570000D01*
X227940000Y-106670000D02*
X236880000Y-106670000D01*
X227940000Y-35570000D02*
X227940000Y-106670000D01*
X236880000Y-35570000D02*
X227940000Y-35570000D01*
D11*
G04 #@! TO.C,J8*
X132080000Y-34290000D02*
X132080000Y-26670000D01*
X152400000Y-26670000D02*
X152400000Y-34290000D01*
X152400000Y-27940000D02*
X132080000Y-27940000D01*
X132080000Y-34290000D02*
X152400000Y-34290000D01*
X132080000Y-26670000D02*
X152400000Y-26670000D01*
G04 #@! TO.C,J1*
D10*
X45792380Y-37306666D02*
X46506666Y-37306666D01*
X46649523Y-37259047D01*
X46744761Y-37163809D01*
X46792380Y-37020952D01*
X46792380Y-36925714D01*
X46792380Y-38306666D02*
X46792380Y-37735238D01*
X46792380Y-38020952D02*
X45792380Y-38020952D01*
X45935238Y-37925714D01*
X46030476Y-37830476D01*
X46078095Y-37735238D01*
G04 #@! TO.C,J7*
X226132380Y-37306666D02*
X226846666Y-37306666D01*
X226989523Y-37259047D01*
X227084761Y-37163809D01*
X227132380Y-37020952D01*
X227132380Y-36925714D01*
X226132380Y-37687619D02*
X226132380Y-38354285D01*
X227132380Y-37925714D01*
G04 #@! TO.C,J8*
X142553333Y-34732380D02*
X142553333Y-35446666D01*
X142600952Y-35589523D01*
X142696190Y-35684761D01*
X142839047Y-35732380D01*
X142934285Y-35732380D01*
X141934285Y-35160952D02*
X142029523Y-35113333D01*
X142077142Y-35065714D01*
X142124761Y-34970476D01*
X142124761Y-34922857D01*
X142077142Y-34827619D01*
X142029523Y-34780000D01*
X141934285Y-34732380D01*
X141743809Y-34732380D01*
X141648571Y-34780000D01*
X141600952Y-34827619D01*
X141553333Y-34922857D01*
X141553333Y-34970476D01*
X141600952Y-35065714D01*
X141648571Y-35113333D01*
X141743809Y-35160952D01*
X141934285Y-35160952D01*
X142029523Y-35208571D01*
X142077142Y-35256190D01*
X142124761Y-35351428D01*
X142124761Y-35541904D01*
X142077142Y-35637142D01*
X142029523Y-35684761D01*
X141934285Y-35732380D01*
X141743809Y-35732380D01*
X141648571Y-35684761D01*
X141600952Y-35637142D01*
X141553333Y-35541904D01*
X141553333Y-35351428D01*
X141600952Y-35256190D01*
X141648571Y-35208571D01*
X141743809Y-35160952D01*
G04 #@! TD*
M02*
