M48
;DRILL file {KiCad (5.0.1)-3} date 09/12/2018 17:00:12
;FORMAT={-:-/ absolute / inch / decimal}
FMAT,2
INCH,TZ
T1C0.0315
T2C0.0394
T3C0.0472
T4C0.0598
T5C0.1260
%
G90
G05
M72
T1
X6.15Y-4.3
X6.15Y-4.4
X6.15Y-4.5
X6.15Y-4.6
X6.15Y-4.7
X6.15Y-4.8
X6.15Y-4.9
X6.15Y-5.
X6.45Y-4.3
X6.45Y-4.4
X6.45Y-4.5
X6.45Y-4.6
X6.45Y-4.7
X6.45Y-4.8
X6.45Y-4.9
X6.45Y-5.
X7.55Y-4.3
X7.55Y-4.4
X7.55Y-4.5
X7.55Y-4.6
X7.55Y-4.7
X7.55Y-4.8
X7.55Y-4.9
X7.55Y-5.
X7.85Y-4.3
X7.85Y-4.4
X7.85Y-4.5
X7.85Y-4.6
X7.85Y-4.7
X7.85Y-4.8
X7.85Y-4.9
X7.85Y-5.
X4.75Y-4.3
X4.75Y-4.4
X4.75Y-4.5
X4.75Y-4.6
X4.75Y-4.7
X4.75Y-4.8
X4.75Y-4.9
X4.75Y-5.
X5.05Y-4.3
X5.05Y-4.4
X5.05Y-4.5
X5.05Y-4.6
X5.05Y-4.7
X5.05Y-4.8
X5.05Y-4.9
X5.05Y-5.
X3.35Y-4.3
X3.35Y-4.4
X3.35Y-4.5
X3.35Y-4.6
X3.35Y-4.7
X3.35Y-4.8
X3.35Y-4.9
X3.35Y-5.
X3.65Y-4.3
X3.65Y-4.4
X3.65Y-4.5
X3.65Y-4.6
X3.65Y-4.7
X3.65Y-4.8
X3.65Y-4.9
X3.65Y-5.
X1.95Y-4.3
X1.95Y-4.4
X1.95Y-4.5
X1.95Y-4.6
X1.95Y-4.7
X1.95Y-4.8
X1.95Y-4.9
X1.95Y-5.
X2.25Y-4.3
X2.25Y-4.4
X2.25Y-4.5
X2.25Y-4.6
X2.25Y-4.7
X2.25Y-4.8
X2.25Y-4.9
X2.25Y-5.
T2
X9.1Y-1.6
X9.1Y-1.7
X9.1Y-1.8
X9.1Y-1.9
X9.1Y-2.
X9.1Y-2.1
X9.1Y-2.2
X9.1Y-2.3
X9.1Y-2.4
X9.1Y-2.5
X9.1Y-2.6
X9.1Y-2.7
X9.1Y-2.8
X9.1Y-2.9
X9.1Y-3.
X9.1Y-3.1
X9.1Y-3.2
X9.1Y-3.3
X9.1Y-3.4
X9.1Y-3.5
X9.1Y-3.6
X9.1Y-3.7
X9.1Y-3.8
X9.1Y-3.9
X9.1Y-4.
X9.2Y-1.6
X9.2Y-1.7
X9.2Y-1.8
X9.2Y-1.9
X9.2Y-2.
X9.2Y-2.1
X9.2Y-2.2
X9.2Y-2.3
X9.2Y-2.4
X9.2Y-2.5
X9.2Y-2.6
X9.2Y-2.7
X9.2Y-2.8
X9.2Y-2.9
X9.2Y-3.
X9.2Y-3.1
X9.2Y-3.2
X9.2Y-3.3
X9.2Y-3.4
X9.2Y-3.5
X9.2Y-3.6
X9.2Y-3.7
X9.2Y-3.8
X9.2Y-3.9
X9.2Y-4.
X2.Y-1.6
X2.Y-1.7
X2.Y-1.8
X2.Y-1.9
X2.Y-2.
X2.Y-2.1
X2.Y-2.2
X2.Y-2.3
X2.Y-2.4
X2.Y-2.5
X2.Y-2.6
X2.Y-2.7
X2.Y-2.8
X2.Y-2.9
X2.Y-3.
X2.Y-3.1
X2.Y-3.2
X2.Y-3.3
X2.Y-3.4
X2.Y-3.5
X2.Y-3.6
X2.Y-3.7
X2.Y-3.8
X2.Y-3.9
X2.Y-4.
X2.1Y-1.6
X2.1Y-1.7
X2.1Y-1.8
X2.1Y-1.9
X2.1Y-2.
X2.1Y-2.1
X2.1Y-2.2
X2.1Y-2.3
X2.1Y-2.4
X2.1Y-2.5
X2.1Y-2.6
X2.1Y-2.7
X2.1Y-2.8
X2.1Y-2.9
X2.1Y-3.
X2.1Y-3.1
X2.1Y-3.2
X2.1Y-3.3
X2.1Y-3.4
X2.1Y-3.5
X2.1Y-3.6
X2.1Y-3.7
X2.1Y-3.8
X2.1Y-3.9
X2.1Y-4.
T3
X4.1045Y-1.5
X4.1045Y-1.6
X4.1045Y-1.7
X4.1045Y-1.8
X4.1045Y-1.9
X4.1045Y-2.
X4.1045Y-2.1
X4.1045Y-2.2
X4.1045Y-2.3
X4.1045Y-2.4
X4.1045Y-2.5
X4.1045Y-2.6
X4.1045Y-2.7
X4.1045Y-2.8
X4.1045Y-2.9
X4.1045Y-3.
X4.1045Y-3.1
X4.1045Y-3.2
X4.1045Y-3.3
X4.1045Y-3.4
X4.1045Y-3.5
X4.1045Y-3.6
X4.1045Y-3.7
X4.1045Y-3.8
X4.1045Y-3.9
X4.1045Y-4.
X4.1045Y-4.1
X4.1045Y-4.2
X4.1045Y-4.3
X4.1045Y-4.4
X4.1045Y-4.5
X4.1045Y-4.6
X4.1045Y-4.7
X4.1045Y-4.8
X4.1045Y-4.9
X4.1045Y-5.
X4.2955Y-1.5
X4.2955Y-1.6
X4.2955Y-1.7
X4.2955Y-1.8
X4.2955Y-1.9
X4.2955Y-2.
X4.2955Y-2.1
X4.2955Y-2.2
X4.2955Y-2.3
X4.2955Y-2.4
X4.2955Y-2.5
X4.2955Y-2.6
X4.2955Y-2.7
X4.2955Y-2.8
X4.2955Y-2.9
X4.2955Y-3.
X4.2955Y-3.1
X4.2955Y-3.2
X4.2955Y-3.3
X4.2955Y-3.4
X4.2955Y-3.5
X4.2955Y-3.6
X4.2955Y-3.7
X4.2955Y-3.8
X4.2955Y-3.9
X4.2955Y-4.
X4.2955Y-4.1
X4.2955Y-4.2
X4.2955Y-4.3
X4.2955Y-4.4
X4.2955Y-4.5
X4.2955Y-4.6
X4.2955Y-4.7
X4.2955Y-4.8
X4.2955Y-4.9
X4.2955Y-5.
X2.7045Y-1.5
X2.7045Y-1.6
X2.7045Y-1.7
X2.7045Y-1.8
X2.7045Y-1.9
X2.7045Y-2.
X2.7045Y-2.1
X2.7045Y-2.2
X2.7045Y-2.3
X2.7045Y-2.4
X2.7045Y-2.5
X2.7045Y-2.6
X2.7045Y-2.7
X2.7045Y-2.8
X2.7045Y-2.9
X2.7045Y-3.
X2.7045Y-3.1
X2.7045Y-3.2
X2.7045Y-3.3
X2.7045Y-3.4
X2.7045Y-3.5
X2.7045Y-3.6
X2.7045Y-3.7
X2.7045Y-3.8
X2.7045Y-3.9
X2.7045Y-4.
X2.7045Y-4.1
X2.7045Y-4.2
X2.7045Y-4.3
X2.7045Y-4.4
X2.7045Y-4.5
X2.7045Y-4.6
X2.7045Y-4.7
X2.7045Y-4.8
X2.7045Y-4.9
X2.7045Y-5.
X2.8955Y-1.5
X2.8955Y-1.6
X2.8955Y-1.7
X2.8955Y-1.8
X2.8955Y-1.9
X2.8955Y-2.
X2.8955Y-2.1
X2.8955Y-2.2
X2.8955Y-2.3
X2.8955Y-2.4
X2.8955Y-2.5
X2.8955Y-2.6
X2.8955Y-2.7
X2.8955Y-2.8
X2.8955Y-2.9
X2.8955Y-3.
X2.8955Y-3.1
X2.8955Y-3.2
X2.8955Y-3.3
X2.8955Y-3.4
X2.8955Y-3.5
X2.8955Y-3.6
X2.8955Y-3.7
X2.8955Y-3.8
X2.8955Y-3.9
X2.8955Y-4.
X2.8955Y-4.1
X2.8955Y-4.2
X2.8955Y-4.3
X2.8955Y-4.4
X2.8955Y-4.5
X2.8955Y-4.6
X2.8955Y-4.7
X2.8955Y-4.8
X2.8955Y-4.9
X2.8955Y-5.
X5.5045Y-1.5
X5.5045Y-1.6
X5.5045Y-1.7
X5.5045Y-1.8
X5.5045Y-1.9
X5.5045Y-2.
X5.5045Y-2.1
X5.5045Y-2.2
X5.5045Y-2.3
X5.5045Y-2.4
X5.5045Y-2.5
X5.5045Y-2.6
X5.5045Y-2.7
X5.5045Y-2.8
X5.5045Y-2.9
X5.5045Y-3.
X5.5045Y-3.1
X5.5045Y-3.2
X5.5045Y-3.3
X5.5045Y-3.4
X5.5045Y-3.5
X5.5045Y-3.6
X5.5045Y-3.7
X5.5045Y-3.8
X5.5045Y-3.9
X5.5045Y-4.
X5.5045Y-4.1
X5.5045Y-4.2
X5.5045Y-4.3
X5.5045Y-4.4
X5.5045Y-4.5
X5.5045Y-4.6
X5.5045Y-4.7
X5.5045Y-4.8
X5.5045Y-4.9
X5.5045Y-5.
X5.6955Y-1.5
X5.6955Y-1.6
X5.6955Y-1.7
X5.6955Y-1.8
X5.6955Y-1.9
X5.6955Y-2.
X5.6955Y-2.1
X5.6955Y-2.2
X5.6955Y-2.3
X5.6955Y-2.4
X5.6955Y-2.5
X5.6955Y-2.6
X5.6955Y-2.7
X5.6955Y-2.8
X5.6955Y-2.9
X5.6955Y-3.
X5.6955Y-3.1
X5.6955Y-3.2
X5.6955Y-3.3
X5.6955Y-3.4
X5.6955Y-3.5
X5.6955Y-3.6
X5.6955Y-3.7
X5.6955Y-3.8
X5.6955Y-3.9
X5.6955Y-4.
X5.6955Y-4.1
X5.6955Y-4.2
X5.6955Y-4.3
X5.6955Y-4.4
X5.6955Y-4.5
X5.6955Y-4.6
X5.6955Y-4.7
X5.6955Y-4.8
X5.6955Y-4.9
X5.6955Y-5.
X8.3045Y-1.5
X8.3045Y-1.6
X8.3045Y-1.7
X8.3045Y-1.8
X8.3045Y-1.9
X8.3045Y-2.
X8.3045Y-2.1
X8.3045Y-2.2
X8.3045Y-2.3
X8.3045Y-2.4
X8.3045Y-2.5
X8.3045Y-2.6
X8.3045Y-2.7
X8.3045Y-2.8
X8.3045Y-2.9
X8.3045Y-3.
X8.3045Y-3.1
X8.3045Y-3.2
X8.3045Y-3.3
X8.3045Y-3.4
X8.3045Y-3.5
X8.3045Y-3.6
X8.3045Y-3.7
X8.3045Y-3.8
X8.3045Y-3.9
X8.3045Y-4.
X8.3045Y-4.1
X8.3045Y-4.2
X8.3045Y-4.3
X8.3045Y-4.4
X8.3045Y-4.5
X8.3045Y-4.6
X8.3045Y-4.7
X8.3045Y-4.8
X8.3045Y-4.9
X8.3045Y-5.
X8.4955Y-1.5
X8.4955Y-1.6
X8.4955Y-1.7
X8.4955Y-1.8
X8.4955Y-1.9
X8.4955Y-2.
X8.4955Y-2.1
X8.4955Y-2.2
X8.4955Y-2.3
X8.4955Y-2.4
X8.4955Y-2.5
X8.4955Y-2.6
X8.4955Y-2.7
X8.4955Y-2.8
X8.4955Y-2.9
X8.4955Y-3.
X8.4955Y-3.1
X8.4955Y-3.2
X8.4955Y-3.3
X8.4955Y-3.4
X8.4955Y-3.5
X8.4955Y-3.6
X8.4955Y-3.7
X8.4955Y-3.8
X8.4955Y-3.9
X8.4955Y-4.
X8.4955Y-4.1
X8.4955Y-4.2
X8.4955Y-4.3
X8.4955Y-4.4
X8.4955Y-4.5
X8.4955Y-4.6
X8.4955Y-4.7
X8.4955Y-4.8
X8.4955Y-4.9
X8.4955Y-5.
X6.9045Y-1.5
X6.9045Y-1.6
X6.9045Y-1.7
X6.9045Y-1.8
X6.9045Y-1.9
X6.9045Y-2.
X6.9045Y-2.1
X6.9045Y-2.2
X6.9045Y-2.3
X6.9045Y-2.4
X6.9045Y-2.5
X6.9045Y-2.6
X6.9045Y-2.7
X6.9045Y-2.8
X6.9045Y-2.9
X6.9045Y-3.
X6.9045Y-3.1
X6.9045Y-3.2
X6.9045Y-3.3
X6.9045Y-3.4
X6.9045Y-3.5
X6.9045Y-3.6
X6.9045Y-3.7
X6.9045Y-3.8
X6.9045Y-3.9
X6.9045Y-4.
X6.9045Y-4.1
X6.9045Y-4.2
X6.9045Y-4.3
X6.9045Y-4.4
X6.9045Y-4.5
X6.9045Y-4.6
X6.9045Y-4.7
X6.9045Y-4.8
X6.9045Y-4.9
X6.9045Y-5.
X7.0955Y-1.5
X7.0955Y-1.6
X7.0955Y-1.7
X7.0955Y-1.8
X7.0955Y-1.9
X7.0955Y-2.
X7.0955Y-2.1
X7.0955Y-2.2
X7.0955Y-2.3
X7.0955Y-2.4
X7.0955Y-2.5
X7.0955Y-2.6
X7.0955Y-2.7
X7.0955Y-2.8
X7.0955Y-2.9
X7.0955Y-3.
X7.0955Y-3.1
X7.0955Y-3.2
X7.0955Y-3.3
X7.0955Y-3.4
X7.0955Y-3.5
X7.0955Y-3.6
X7.0955Y-3.7
X7.0955Y-3.8
X7.0955Y-3.9
X7.0955Y-4.
X7.0955Y-4.1
X7.0955Y-4.2
X7.0955Y-4.3
X7.0955Y-4.4
X7.0955Y-4.5
X7.0955Y-4.6
X7.0955Y-4.7
X7.0955Y-4.8
X7.0955Y-4.9
X7.0955Y-5.
T4
X5.3Y-1.2
X5.5Y-1.2
X5.7Y-1.2
X5.9Y-1.2
T5
X7.7Y-5.3
X9.2Y-5.3
X4.9Y-5.3
X4.9Y-1.2
X2.Y-5.3
X6.3Y-5.3
X3.5Y-5.3
X3.5Y-1.2
X2.Y-1.2
X7.7Y-1.2
X9.2Y-1.2
X6.3Y-1.2
T0
M30
