G04 #@! TF.GenerationSoftware,KiCad,Pcbnew,(5.0.1)-3*
G04 #@! TF.CreationDate,2018-12-11T20:57:09+00:00*
G04 #@! TF.ProjectId,Register (8 Bit),52656769737465722028382042697429,rev?*
G04 #@! TF.SameCoordinates,Original*
G04 #@! TF.FileFunction,Legend,Bot*
G04 #@! TF.FilePolarity,Positive*
%FSLAX46Y46*%
G04 Gerber Fmt 4.6, Leading zero omitted, Abs format (unit mm)*
G04 Created by KiCad (PCBNEW (5.0.1)-3) date 11/12/2018 20:57:09*
%MOMM*%
%LPD*%
G01*
G04 APERTURE LIST*
%ADD10C,0.150000*%
%ADD11C,0.120000*%
G04 APERTURE END LIST*
D10*
G04 #@! TO.C,J1*
X53340000Y-175260000D02*
X53340000Y-185420000D01*
X147320000Y-185420000D02*
X147320000Y-175260000D01*
X147320000Y-175260000D02*
X53340000Y-175260000D01*
D11*
G04 #@! TO.C,JP2*
X94980000Y-174073907D02*
X94980000Y-171273907D01*
X94980000Y-171273907D02*
X92980000Y-171273907D01*
X92980000Y-171273907D02*
X92980000Y-174073907D01*
X92980000Y-174073907D02*
X94980000Y-174073907D01*
G04 #@! TO.C,JP4*
X97520000Y-174073907D02*
X97520000Y-171273907D01*
X97520000Y-171273907D02*
X95520000Y-171273907D01*
X95520000Y-171273907D02*
X95520000Y-174073907D01*
X95520000Y-174073907D02*
X97520000Y-174073907D01*
G04 #@! TO.C,JP6*
X100060000Y-174073907D02*
X100060000Y-171273907D01*
X100060000Y-171273907D02*
X98060000Y-171273907D01*
X98060000Y-171273907D02*
X98060000Y-174073907D01*
X98060000Y-174073907D02*
X100060000Y-174073907D01*
G04 #@! TO.C,JP8*
X102600000Y-174073907D02*
X102600000Y-171273907D01*
X102600000Y-171273907D02*
X100600000Y-171273907D01*
X100600000Y-171273907D02*
X100600000Y-174073907D01*
X100600000Y-174073907D02*
X102600000Y-174073907D01*
G04 #@! TO.C,JP10*
X105140000Y-174073907D02*
X105140000Y-171273907D01*
X105140000Y-171273907D02*
X103140000Y-171273907D01*
X103140000Y-171273907D02*
X103140000Y-174073907D01*
X103140000Y-174073907D02*
X105140000Y-174073907D01*
G04 #@! TO.C,JP12*
X107680000Y-174073907D02*
X107680000Y-171273907D01*
X107680000Y-171273907D02*
X105680000Y-171273907D01*
X105680000Y-171273907D02*
X105680000Y-174073907D01*
X105680000Y-174073907D02*
X107680000Y-174073907D01*
G04 #@! TO.C,JP14*
X110220000Y-174073907D02*
X110220000Y-171273907D01*
X110220000Y-171273907D02*
X108220000Y-171273907D01*
X108220000Y-171273907D02*
X108220000Y-174073907D01*
X108220000Y-174073907D02*
X110220000Y-174073907D01*
G04 #@! TO.C,JP16*
X112760000Y-174073907D02*
X112760000Y-171273907D01*
X112760000Y-171273907D02*
X110760000Y-171273907D01*
X110760000Y-171273907D02*
X110760000Y-174073907D01*
X110760000Y-174073907D02*
X112760000Y-174073907D01*
G04 #@! TO.C,JP18*
X115300000Y-174073907D02*
X115300000Y-171273907D01*
X115300000Y-171273907D02*
X113300000Y-171273907D01*
X113300000Y-171273907D02*
X113300000Y-174073907D01*
X113300000Y-174073907D02*
X115300000Y-174073907D01*
G04 #@! TO.C,JP20*
X117840000Y-174073907D02*
X117840000Y-171273907D01*
X117840000Y-171273907D02*
X115840000Y-171273907D01*
X115840000Y-171273907D02*
X115840000Y-174073907D01*
X115840000Y-174073907D02*
X117840000Y-174073907D01*
G04 #@! TO.C,JP22*
X120380000Y-174073907D02*
X120380000Y-171273907D01*
X120380000Y-171273907D02*
X118380000Y-171273907D01*
X118380000Y-171273907D02*
X118380000Y-174073907D01*
X118380000Y-174073907D02*
X120380000Y-174073907D01*
G04 #@! TO.C,JP24*
X122920000Y-174073907D02*
X122920000Y-171273907D01*
X122920000Y-171273907D02*
X120920000Y-171273907D01*
X120920000Y-171273907D02*
X120920000Y-174073907D01*
X120920000Y-174073907D02*
X122920000Y-174073907D01*
G04 #@! TO.C,JP2*
D10*
X95232380Y-171840573D02*
X95946666Y-171840573D01*
X96089523Y-171792954D01*
X96184761Y-171697716D01*
X96232380Y-171554859D01*
X96232380Y-171459621D01*
X96232380Y-172316764D02*
X95232380Y-172316764D01*
X95232380Y-172697716D01*
X95280000Y-172792954D01*
X95327619Y-172840573D01*
X95422857Y-172888192D01*
X95565714Y-172888192D01*
X95660952Y-172840573D01*
X95708571Y-172792954D01*
X95756190Y-172697716D01*
X95756190Y-172316764D01*
X95327619Y-173269145D02*
X95280000Y-173316764D01*
X95232380Y-173412002D01*
X95232380Y-173650097D01*
X95280000Y-173745335D01*
X95327619Y-173792954D01*
X95422857Y-173840573D01*
X95518095Y-173840573D01*
X95660952Y-173792954D01*
X96232380Y-173221526D01*
X96232380Y-173840573D01*
G04 #@! TO.C,JP4*
X97772380Y-171840573D02*
X98486666Y-171840573D01*
X98629523Y-171792954D01*
X98724761Y-171697716D01*
X98772380Y-171554859D01*
X98772380Y-171459621D01*
X98772380Y-172316764D02*
X97772380Y-172316764D01*
X97772380Y-172697716D01*
X97820000Y-172792954D01*
X97867619Y-172840573D01*
X97962857Y-172888192D01*
X98105714Y-172888192D01*
X98200952Y-172840573D01*
X98248571Y-172792954D01*
X98296190Y-172697716D01*
X98296190Y-172316764D01*
X98105714Y-173745335D02*
X98772380Y-173745335D01*
X97724761Y-173507240D02*
X98439047Y-173269145D01*
X98439047Y-173888192D01*
G04 #@! TO.C,JP6*
X100312380Y-171840573D02*
X101026666Y-171840573D01*
X101169523Y-171792954D01*
X101264761Y-171697716D01*
X101312380Y-171554859D01*
X101312380Y-171459621D01*
X101312380Y-172316764D02*
X100312380Y-172316764D01*
X100312380Y-172697716D01*
X100360000Y-172792954D01*
X100407619Y-172840573D01*
X100502857Y-172888192D01*
X100645714Y-172888192D01*
X100740952Y-172840573D01*
X100788571Y-172792954D01*
X100836190Y-172697716D01*
X100836190Y-172316764D01*
X100312380Y-173745335D02*
X100312380Y-173554859D01*
X100360000Y-173459621D01*
X100407619Y-173412002D01*
X100550476Y-173316764D01*
X100740952Y-173269145D01*
X101121904Y-173269145D01*
X101217142Y-173316764D01*
X101264761Y-173364383D01*
X101312380Y-173459621D01*
X101312380Y-173650097D01*
X101264761Y-173745335D01*
X101217142Y-173792954D01*
X101121904Y-173840573D01*
X100883809Y-173840573D01*
X100788571Y-173792954D01*
X100740952Y-173745335D01*
X100693333Y-173650097D01*
X100693333Y-173459621D01*
X100740952Y-173364383D01*
X100788571Y-173316764D01*
X100883809Y-173269145D01*
G04 #@! TO.C,JP8*
X102852380Y-171840573D02*
X103566666Y-171840573D01*
X103709523Y-171792954D01*
X103804761Y-171697716D01*
X103852380Y-171554859D01*
X103852380Y-171459621D01*
X103852380Y-172316764D02*
X102852380Y-172316764D01*
X102852380Y-172697716D01*
X102900000Y-172792954D01*
X102947619Y-172840573D01*
X103042857Y-172888192D01*
X103185714Y-172888192D01*
X103280952Y-172840573D01*
X103328571Y-172792954D01*
X103376190Y-172697716D01*
X103376190Y-172316764D01*
X103280952Y-173459621D02*
X103233333Y-173364383D01*
X103185714Y-173316764D01*
X103090476Y-173269145D01*
X103042857Y-173269145D01*
X102947619Y-173316764D01*
X102900000Y-173364383D01*
X102852380Y-173459621D01*
X102852380Y-173650097D01*
X102900000Y-173745335D01*
X102947619Y-173792954D01*
X103042857Y-173840573D01*
X103090476Y-173840573D01*
X103185714Y-173792954D01*
X103233333Y-173745335D01*
X103280952Y-173650097D01*
X103280952Y-173459621D01*
X103328571Y-173364383D01*
X103376190Y-173316764D01*
X103471428Y-173269145D01*
X103661904Y-173269145D01*
X103757142Y-173316764D01*
X103804761Y-173364383D01*
X103852380Y-173459621D01*
X103852380Y-173650097D01*
X103804761Y-173745335D01*
X103757142Y-173792954D01*
X103661904Y-173840573D01*
X103471428Y-173840573D01*
X103376190Y-173792954D01*
X103328571Y-173745335D01*
X103280952Y-173650097D01*
G04 #@! TO.C,JP10*
X105392380Y-171364383D02*
X106106666Y-171364383D01*
X106249523Y-171316764D01*
X106344761Y-171221526D01*
X106392380Y-171078668D01*
X106392380Y-170983430D01*
X106392380Y-171840573D02*
X105392380Y-171840573D01*
X105392380Y-172221526D01*
X105440000Y-172316764D01*
X105487619Y-172364383D01*
X105582857Y-172412002D01*
X105725714Y-172412002D01*
X105820952Y-172364383D01*
X105868571Y-172316764D01*
X105916190Y-172221526D01*
X105916190Y-171840573D01*
X106392380Y-173364383D02*
X106392380Y-172792954D01*
X106392380Y-173078668D02*
X105392380Y-173078668D01*
X105535238Y-172983430D01*
X105630476Y-172888192D01*
X105678095Y-172792954D01*
X105392380Y-173983430D02*
X105392380Y-174078668D01*
X105440000Y-174173907D01*
X105487619Y-174221526D01*
X105582857Y-174269145D01*
X105773333Y-174316764D01*
X106011428Y-174316764D01*
X106201904Y-174269145D01*
X106297142Y-174221526D01*
X106344761Y-174173907D01*
X106392380Y-174078668D01*
X106392380Y-173983430D01*
X106344761Y-173888192D01*
X106297142Y-173840573D01*
X106201904Y-173792954D01*
X106011428Y-173745335D01*
X105773333Y-173745335D01*
X105582857Y-173792954D01*
X105487619Y-173840573D01*
X105440000Y-173888192D01*
X105392380Y-173983430D01*
G04 #@! TO.C,JP12*
X107932380Y-171364383D02*
X108646666Y-171364383D01*
X108789523Y-171316764D01*
X108884761Y-171221526D01*
X108932380Y-171078668D01*
X108932380Y-170983430D01*
X108932380Y-171840573D02*
X107932380Y-171840573D01*
X107932380Y-172221526D01*
X107980000Y-172316764D01*
X108027619Y-172364383D01*
X108122857Y-172412002D01*
X108265714Y-172412002D01*
X108360952Y-172364383D01*
X108408571Y-172316764D01*
X108456190Y-172221526D01*
X108456190Y-171840573D01*
X108932380Y-173364383D02*
X108932380Y-172792954D01*
X108932380Y-173078668D02*
X107932380Y-173078668D01*
X108075238Y-172983430D01*
X108170476Y-172888192D01*
X108218095Y-172792954D01*
X108027619Y-173745335D02*
X107980000Y-173792954D01*
X107932380Y-173888192D01*
X107932380Y-174126287D01*
X107980000Y-174221526D01*
X108027619Y-174269145D01*
X108122857Y-174316764D01*
X108218095Y-174316764D01*
X108360952Y-174269145D01*
X108932380Y-173697716D01*
X108932380Y-174316764D01*
G04 #@! TO.C,JP14*
X110472380Y-171364383D02*
X111186666Y-171364383D01*
X111329523Y-171316764D01*
X111424761Y-171221526D01*
X111472380Y-171078668D01*
X111472380Y-170983430D01*
X111472380Y-171840573D02*
X110472380Y-171840573D01*
X110472380Y-172221526D01*
X110520000Y-172316764D01*
X110567619Y-172364383D01*
X110662857Y-172412002D01*
X110805714Y-172412002D01*
X110900952Y-172364383D01*
X110948571Y-172316764D01*
X110996190Y-172221526D01*
X110996190Y-171840573D01*
X111472380Y-173364383D02*
X111472380Y-172792954D01*
X111472380Y-173078668D02*
X110472380Y-173078668D01*
X110615238Y-172983430D01*
X110710476Y-172888192D01*
X110758095Y-172792954D01*
X110805714Y-174221526D02*
X111472380Y-174221526D01*
X110424761Y-173983430D02*
X111139047Y-173745335D01*
X111139047Y-174364383D01*
G04 #@! TO.C,JP16*
X113012380Y-171364383D02*
X113726666Y-171364383D01*
X113869523Y-171316764D01*
X113964761Y-171221526D01*
X114012380Y-171078668D01*
X114012380Y-170983430D01*
X114012380Y-171840573D02*
X113012380Y-171840573D01*
X113012380Y-172221526D01*
X113060000Y-172316764D01*
X113107619Y-172364383D01*
X113202857Y-172412002D01*
X113345714Y-172412002D01*
X113440952Y-172364383D01*
X113488571Y-172316764D01*
X113536190Y-172221526D01*
X113536190Y-171840573D01*
X114012380Y-173364383D02*
X114012380Y-172792954D01*
X114012380Y-173078668D02*
X113012380Y-173078668D01*
X113155238Y-172983430D01*
X113250476Y-172888192D01*
X113298095Y-172792954D01*
X113012380Y-174221526D02*
X113012380Y-174031049D01*
X113060000Y-173935811D01*
X113107619Y-173888192D01*
X113250476Y-173792954D01*
X113440952Y-173745335D01*
X113821904Y-173745335D01*
X113917142Y-173792954D01*
X113964761Y-173840573D01*
X114012380Y-173935811D01*
X114012380Y-174126287D01*
X113964761Y-174221526D01*
X113917142Y-174269145D01*
X113821904Y-174316764D01*
X113583809Y-174316764D01*
X113488571Y-174269145D01*
X113440952Y-174221526D01*
X113393333Y-174126287D01*
X113393333Y-173935811D01*
X113440952Y-173840573D01*
X113488571Y-173792954D01*
X113583809Y-173745335D01*
G04 #@! TO.C,JP18*
X115552380Y-171364383D02*
X116266666Y-171364383D01*
X116409523Y-171316764D01*
X116504761Y-171221526D01*
X116552380Y-171078668D01*
X116552380Y-170983430D01*
X116552380Y-171840573D02*
X115552380Y-171840573D01*
X115552380Y-172221526D01*
X115600000Y-172316764D01*
X115647619Y-172364383D01*
X115742857Y-172412002D01*
X115885714Y-172412002D01*
X115980952Y-172364383D01*
X116028571Y-172316764D01*
X116076190Y-172221526D01*
X116076190Y-171840573D01*
X116552380Y-173364383D02*
X116552380Y-172792954D01*
X116552380Y-173078668D02*
X115552380Y-173078668D01*
X115695238Y-172983430D01*
X115790476Y-172888192D01*
X115838095Y-172792954D01*
X115980952Y-173935811D02*
X115933333Y-173840573D01*
X115885714Y-173792954D01*
X115790476Y-173745335D01*
X115742857Y-173745335D01*
X115647619Y-173792954D01*
X115600000Y-173840573D01*
X115552380Y-173935811D01*
X115552380Y-174126287D01*
X115600000Y-174221526D01*
X115647619Y-174269145D01*
X115742857Y-174316764D01*
X115790476Y-174316764D01*
X115885714Y-174269145D01*
X115933333Y-174221526D01*
X115980952Y-174126287D01*
X115980952Y-173935811D01*
X116028571Y-173840573D01*
X116076190Y-173792954D01*
X116171428Y-173745335D01*
X116361904Y-173745335D01*
X116457142Y-173792954D01*
X116504761Y-173840573D01*
X116552380Y-173935811D01*
X116552380Y-174126287D01*
X116504761Y-174221526D01*
X116457142Y-174269145D01*
X116361904Y-174316764D01*
X116171428Y-174316764D01*
X116076190Y-174269145D01*
X116028571Y-174221526D01*
X115980952Y-174126287D01*
G04 #@! TO.C,JP20*
X118092380Y-171364383D02*
X118806666Y-171364383D01*
X118949523Y-171316764D01*
X119044761Y-171221526D01*
X119092380Y-171078668D01*
X119092380Y-170983430D01*
X119092380Y-171840573D02*
X118092380Y-171840573D01*
X118092380Y-172221526D01*
X118140000Y-172316764D01*
X118187619Y-172364383D01*
X118282857Y-172412002D01*
X118425714Y-172412002D01*
X118520952Y-172364383D01*
X118568571Y-172316764D01*
X118616190Y-172221526D01*
X118616190Y-171840573D01*
X118187619Y-172792954D02*
X118140000Y-172840573D01*
X118092380Y-172935811D01*
X118092380Y-173173907D01*
X118140000Y-173269145D01*
X118187619Y-173316764D01*
X118282857Y-173364383D01*
X118378095Y-173364383D01*
X118520952Y-173316764D01*
X119092380Y-172745335D01*
X119092380Y-173364383D01*
X118092380Y-173983430D02*
X118092380Y-174078668D01*
X118140000Y-174173907D01*
X118187619Y-174221526D01*
X118282857Y-174269145D01*
X118473333Y-174316764D01*
X118711428Y-174316764D01*
X118901904Y-174269145D01*
X118997142Y-174221526D01*
X119044761Y-174173907D01*
X119092380Y-174078668D01*
X119092380Y-173983430D01*
X119044761Y-173888192D01*
X118997142Y-173840573D01*
X118901904Y-173792954D01*
X118711428Y-173745335D01*
X118473333Y-173745335D01*
X118282857Y-173792954D01*
X118187619Y-173840573D01*
X118140000Y-173888192D01*
X118092380Y-173983430D01*
G04 #@! TO.C,JP22*
X120632380Y-171364383D02*
X121346666Y-171364383D01*
X121489523Y-171316764D01*
X121584761Y-171221526D01*
X121632380Y-171078668D01*
X121632380Y-170983430D01*
X121632380Y-171840573D02*
X120632380Y-171840573D01*
X120632380Y-172221526D01*
X120680000Y-172316764D01*
X120727619Y-172364383D01*
X120822857Y-172412002D01*
X120965714Y-172412002D01*
X121060952Y-172364383D01*
X121108571Y-172316764D01*
X121156190Y-172221526D01*
X121156190Y-171840573D01*
X120727619Y-172792954D02*
X120680000Y-172840573D01*
X120632380Y-172935811D01*
X120632380Y-173173907D01*
X120680000Y-173269145D01*
X120727619Y-173316764D01*
X120822857Y-173364383D01*
X120918095Y-173364383D01*
X121060952Y-173316764D01*
X121632380Y-172745335D01*
X121632380Y-173364383D01*
X120727619Y-173745335D02*
X120680000Y-173792954D01*
X120632380Y-173888192D01*
X120632380Y-174126287D01*
X120680000Y-174221526D01*
X120727619Y-174269145D01*
X120822857Y-174316764D01*
X120918095Y-174316764D01*
X121060952Y-174269145D01*
X121632380Y-173697716D01*
X121632380Y-174316764D01*
G04 #@! TO.C,JP24*
X123172380Y-171364383D02*
X123886666Y-171364383D01*
X124029523Y-171316764D01*
X124124761Y-171221526D01*
X124172380Y-171078668D01*
X124172380Y-170983430D01*
X124172380Y-171840573D02*
X123172380Y-171840573D01*
X123172380Y-172221526D01*
X123220000Y-172316764D01*
X123267619Y-172364383D01*
X123362857Y-172412002D01*
X123505714Y-172412002D01*
X123600952Y-172364383D01*
X123648571Y-172316764D01*
X123696190Y-172221526D01*
X123696190Y-171840573D01*
X123267619Y-172792954D02*
X123220000Y-172840573D01*
X123172380Y-172935811D01*
X123172380Y-173173907D01*
X123220000Y-173269145D01*
X123267619Y-173316764D01*
X123362857Y-173364383D01*
X123458095Y-173364383D01*
X123600952Y-173316764D01*
X124172380Y-172745335D01*
X124172380Y-173364383D01*
X123505714Y-174221526D02*
X124172380Y-174221526D01*
X123124761Y-173983430D02*
X123839047Y-173745335D01*
X123839047Y-174364383D01*
G04 #@! TD*
M02*
