G04 #@! TF.GenerationSoftware,KiCad,Pcbnew,(5.0.1)-3*
G04 #@! TF.CreationDate,2018-12-11T20:57:09+00:00*
G04 #@! TF.ProjectId,Register (8 Bit),52656769737465722028382042697429,rev?*
G04 #@! TF.SameCoordinates,Original*
G04 #@! TF.FileFunction,Legend,Top*
G04 #@! TF.FilePolarity,Positive*
%FSLAX46Y46*%
G04 Gerber Fmt 4.6, Leading zero omitted, Abs format (unit mm)*
G04 Created by KiCad (PCBNEW (5.0.1)-3) date 11/12/2018 20:57:09*
%MOMM*%
%LPD*%
G01*
G04 APERTURE LIST*
%ADD10C,0.150000*%
%ADD11C,0.120000*%
G04 APERTURE END LIST*
D10*
G04 #@! TO.C,J1*
X53340000Y-175260000D02*
X53340000Y-185420000D01*
X147320000Y-185420000D02*
X147320000Y-175260000D01*
X147320000Y-175260000D02*
X53340000Y-175260000D01*
D11*
G04 #@! TO.C,D3*
X106680000Y-103060000D02*
X106680000Y-103060000D01*
X106680000Y-102930000D02*
X106680000Y-103060000D01*
X106680000Y-102930000D02*
X106680000Y-102930000D01*
X106680000Y-103060000D02*
X106680000Y-102930000D01*
X109220000Y-103060000D02*
X109220000Y-103060000D01*
X109220000Y-102930000D02*
X109220000Y-103060000D01*
X109220000Y-102930000D02*
X109220000Y-102930000D01*
X109220000Y-103060000D02*
X109220000Y-102930000D01*
X105390000Y-102930000D02*
X104990000Y-102930000D01*
X105390000Y-101810000D02*
X105390000Y-102930000D01*
X104990000Y-101810000D02*
X105390000Y-101810000D01*
X104990000Y-102930000D02*
X104990000Y-101810000D01*
X110510000Y-102930000D02*
X105390000Y-102930000D01*
X105390000Y-102930000D02*
X105390000Y-96770000D01*
X110510000Y-102930000D02*
X110510000Y-96770000D01*
X105390000Y-96770000D02*
G75*
G02X110510000Y-96770000I2560000J0D01*
G01*
G04 #@! TO.C,D8*
X144780000Y-103060000D02*
X144780000Y-103060000D01*
X144780000Y-102930000D02*
X144780000Y-103060000D01*
X144780000Y-102930000D02*
X144780000Y-102930000D01*
X144780000Y-103060000D02*
X144780000Y-102930000D01*
X147320000Y-103060000D02*
X147320000Y-103060000D01*
X147320000Y-102930000D02*
X147320000Y-103060000D01*
X147320000Y-102930000D02*
X147320000Y-102930000D01*
X147320000Y-103060000D02*
X147320000Y-102930000D01*
X143490000Y-102930000D02*
X143090000Y-102930000D01*
X143490000Y-101810000D02*
X143490000Y-102930000D01*
X143090000Y-101810000D02*
X143490000Y-101810000D01*
X143090000Y-102930000D02*
X143090000Y-101810000D01*
X148610000Y-102930000D02*
X143490000Y-102930000D01*
X143490000Y-102930000D02*
X143490000Y-96770000D01*
X148610000Y-102930000D02*
X148610000Y-96770000D01*
X143490000Y-96770000D02*
G75*
G02X148610000Y-96770000I2560000J0D01*
G01*
G04 #@! TO.C,D6*
X129540000Y-103060000D02*
X129540000Y-103060000D01*
X129540000Y-102930000D02*
X129540000Y-103060000D01*
X129540000Y-102930000D02*
X129540000Y-102930000D01*
X129540000Y-103060000D02*
X129540000Y-102930000D01*
X132080000Y-103060000D02*
X132080000Y-103060000D01*
X132080000Y-102930000D02*
X132080000Y-103060000D01*
X132080000Y-102930000D02*
X132080000Y-102930000D01*
X132080000Y-103060000D02*
X132080000Y-102930000D01*
X128250000Y-102930000D02*
X127850000Y-102930000D01*
X128250000Y-101810000D02*
X128250000Y-102930000D01*
X127850000Y-101810000D02*
X128250000Y-101810000D01*
X127850000Y-102930000D02*
X127850000Y-101810000D01*
X133370000Y-102930000D02*
X128250000Y-102930000D01*
X128250000Y-102930000D02*
X128250000Y-96770000D01*
X133370000Y-102930000D02*
X133370000Y-96770000D01*
X128250000Y-96770000D02*
G75*
G02X133370000Y-96770000I2560000J0D01*
G01*
G04 #@! TO.C,D4*
X114300000Y-103060000D02*
X114300000Y-103060000D01*
X114300000Y-102930000D02*
X114300000Y-103060000D01*
X114300000Y-102930000D02*
X114300000Y-102930000D01*
X114300000Y-103060000D02*
X114300000Y-102930000D01*
X116840000Y-103060000D02*
X116840000Y-103060000D01*
X116840000Y-102930000D02*
X116840000Y-103060000D01*
X116840000Y-102930000D02*
X116840000Y-102930000D01*
X116840000Y-103060000D02*
X116840000Y-102930000D01*
X113010000Y-102930000D02*
X112610000Y-102930000D01*
X113010000Y-101810000D02*
X113010000Y-102930000D01*
X112610000Y-101810000D02*
X113010000Y-101810000D01*
X112610000Y-102930000D02*
X112610000Y-101810000D01*
X118130000Y-102930000D02*
X113010000Y-102930000D01*
X113010000Y-102930000D02*
X113010000Y-96770000D01*
X118130000Y-102930000D02*
X118130000Y-96770000D01*
X113010000Y-96770000D02*
G75*
G02X118130000Y-96770000I2560000J0D01*
G01*
G04 #@! TO.C,D1*
X91440000Y-103060000D02*
X91440000Y-103060000D01*
X91440000Y-102930000D02*
X91440000Y-103060000D01*
X91440000Y-102930000D02*
X91440000Y-102930000D01*
X91440000Y-103060000D02*
X91440000Y-102930000D01*
X93980000Y-103060000D02*
X93980000Y-103060000D01*
X93980000Y-102930000D02*
X93980000Y-103060000D01*
X93980000Y-102930000D02*
X93980000Y-102930000D01*
X93980000Y-103060000D02*
X93980000Y-102930000D01*
X90150000Y-102930000D02*
X89750000Y-102930000D01*
X90150000Y-101810000D02*
X90150000Y-102930000D01*
X89750000Y-101810000D02*
X90150000Y-101810000D01*
X89750000Y-102930000D02*
X89750000Y-101810000D01*
X95270000Y-102930000D02*
X90150000Y-102930000D01*
X90150000Y-102930000D02*
X90150000Y-96770000D01*
X95270000Y-102930000D02*
X95270000Y-96770000D01*
X90150000Y-96770000D02*
G75*
G02X95270000Y-96770000I2560000J0D01*
G01*
G04 #@! TO.C,D5*
X121920000Y-103060000D02*
X121920000Y-103060000D01*
X121920000Y-102930000D02*
X121920000Y-103060000D01*
X121920000Y-102930000D02*
X121920000Y-102930000D01*
X121920000Y-103060000D02*
X121920000Y-102930000D01*
X124460000Y-103060000D02*
X124460000Y-103060000D01*
X124460000Y-102930000D02*
X124460000Y-103060000D01*
X124460000Y-102930000D02*
X124460000Y-102930000D01*
X124460000Y-103060000D02*
X124460000Y-102930000D01*
X120630000Y-102930000D02*
X120230000Y-102930000D01*
X120630000Y-101810000D02*
X120630000Y-102930000D01*
X120230000Y-101810000D02*
X120630000Y-101810000D01*
X120230000Y-102930000D02*
X120230000Y-101810000D01*
X125750000Y-102930000D02*
X120630000Y-102930000D01*
X120630000Y-102930000D02*
X120630000Y-96770000D01*
X125750000Y-102930000D02*
X125750000Y-96770000D01*
X120630000Y-96770000D02*
G75*
G02X125750000Y-96770000I2560000J0D01*
G01*
G04 #@! TO.C,D7*
X137160000Y-103060000D02*
X137160000Y-103060000D01*
X137160000Y-102930000D02*
X137160000Y-103060000D01*
X137160000Y-102930000D02*
X137160000Y-102930000D01*
X137160000Y-103060000D02*
X137160000Y-102930000D01*
X139700000Y-103060000D02*
X139700000Y-103060000D01*
X139700000Y-102930000D02*
X139700000Y-103060000D01*
X139700000Y-102930000D02*
X139700000Y-102930000D01*
X139700000Y-103060000D02*
X139700000Y-102930000D01*
X135870000Y-102930000D02*
X135470000Y-102930000D01*
X135870000Y-101810000D02*
X135870000Y-102930000D01*
X135470000Y-101810000D02*
X135870000Y-101810000D01*
X135470000Y-102930000D02*
X135470000Y-101810000D01*
X140990000Y-102930000D02*
X135870000Y-102930000D01*
X135870000Y-102930000D02*
X135870000Y-96770000D01*
X140990000Y-102930000D02*
X140990000Y-96770000D01*
X135870000Y-96770000D02*
G75*
G02X140990000Y-96770000I2560000J0D01*
G01*
G04 #@! TO.C,D2*
X99060000Y-103060000D02*
X99060000Y-103060000D01*
X99060000Y-102930000D02*
X99060000Y-103060000D01*
X99060000Y-102930000D02*
X99060000Y-102930000D01*
X99060000Y-103060000D02*
X99060000Y-102930000D01*
X101600000Y-103060000D02*
X101600000Y-103060000D01*
X101600000Y-102930000D02*
X101600000Y-103060000D01*
X101600000Y-102930000D02*
X101600000Y-102930000D01*
X101600000Y-103060000D02*
X101600000Y-102930000D01*
X97770000Y-102930000D02*
X97370000Y-102930000D01*
X97770000Y-101810000D02*
X97770000Y-102930000D01*
X97370000Y-101810000D02*
X97770000Y-101810000D01*
X97370000Y-102930000D02*
X97370000Y-101810000D01*
X102890000Y-102930000D02*
X97770000Y-102930000D01*
X97770000Y-102930000D02*
X97770000Y-96770000D01*
X102890000Y-102930000D02*
X102890000Y-96770000D01*
X97770000Y-96770000D02*
G75*
G02X102890000Y-96770000I2560000J0D01*
G01*
G04 #@! TO.C,U2*
X74990000Y-115450000D02*
X64710000Y-115450000D01*
X74990000Y-136010000D02*
X74990000Y-115450000D01*
X64710000Y-136010000D02*
X74990000Y-136010000D01*
X64710000Y-115450000D02*
X64710000Y-136010000D01*
X72500000Y-115510000D02*
X70850000Y-115510000D01*
X72500000Y-135950000D02*
X72500000Y-115510000D01*
X67200000Y-135950000D02*
X72500000Y-135950000D01*
X67200000Y-115510000D02*
X67200000Y-135950000D01*
X68850000Y-115510000D02*
X67200000Y-115510000D01*
X70850000Y-115510000D02*
G75*
G02X68850000Y-115510000I-1000000J0D01*
G01*
G04 #@! TO.C,U5*
X74990000Y-143390000D02*
X64710000Y-143390000D01*
X74990000Y-163950000D02*
X74990000Y-143390000D01*
X64710000Y-163950000D02*
X74990000Y-163950000D01*
X64710000Y-143390000D02*
X64710000Y-163950000D01*
X72500000Y-143450000D02*
X70850000Y-143450000D01*
X72500000Y-163890000D02*
X72500000Y-143450000D01*
X67200000Y-163890000D02*
X72500000Y-163890000D01*
X67200000Y-143450000D02*
X67200000Y-163890000D01*
X68850000Y-143450000D02*
X67200000Y-143450000D01*
X70850000Y-143450000D02*
G75*
G02X68850000Y-143450000I-1000000J0D01*
G01*
G04 #@! TO.C,U4*
X97850000Y-116720000D02*
X87570000Y-116720000D01*
X97850000Y-142360000D02*
X97850000Y-116720000D01*
X87570000Y-142360000D02*
X97850000Y-142360000D01*
X87570000Y-116720000D02*
X87570000Y-142360000D01*
X95360000Y-116780000D02*
X93710000Y-116780000D01*
X95360000Y-142300000D02*
X95360000Y-116780000D01*
X90060000Y-142300000D02*
X95360000Y-142300000D01*
X90060000Y-116780000D02*
X90060000Y-142300000D01*
X91710000Y-116780000D02*
X90060000Y-116780000D01*
X93710000Y-116780000D02*
G75*
G02X91710000Y-116780000I-1000000J0D01*
G01*
G04 #@! TO.C,R1*
X125730000Y-120980000D02*
X125730000Y-120030000D01*
X125730000Y-115240000D02*
X125730000Y-116190000D01*
X126650000Y-120030000D02*
X126650000Y-116190000D01*
X124810000Y-120030000D02*
X126650000Y-120030000D01*
X124810000Y-116190000D02*
X124810000Y-120030000D01*
X126650000Y-116190000D02*
X124810000Y-116190000D01*
G04 #@! TO.C,R2*
X128270000Y-120980000D02*
X128270000Y-120030000D01*
X128270000Y-115240000D02*
X128270000Y-116190000D01*
X129190000Y-120030000D02*
X129190000Y-116190000D01*
X127350000Y-120030000D02*
X129190000Y-120030000D01*
X127350000Y-116190000D02*
X127350000Y-120030000D01*
X129190000Y-116190000D02*
X127350000Y-116190000D01*
G04 #@! TO.C,R3*
X130810000Y-120980000D02*
X130810000Y-120030000D01*
X130810000Y-115240000D02*
X130810000Y-116190000D01*
X131730000Y-120030000D02*
X131730000Y-116190000D01*
X129890000Y-120030000D02*
X131730000Y-120030000D01*
X129890000Y-116190000D02*
X129890000Y-120030000D01*
X131730000Y-116190000D02*
X129890000Y-116190000D01*
G04 #@! TO.C,R4*
X133350000Y-120980000D02*
X133350000Y-120030000D01*
X133350000Y-115240000D02*
X133350000Y-116190000D01*
X134270000Y-120030000D02*
X134270000Y-116190000D01*
X132430000Y-120030000D02*
X134270000Y-120030000D01*
X132430000Y-116190000D02*
X132430000Y-120030000D01*
X134270000Y-116190000D02*
X132430000Y-116190000D01*
G04 #@! TO.C,R5*
X135890000Y-120980000D02*
X135890000Y-120030000D01*
X135890000Y-115240000D02*
X135890000Y-116190000D01*
X136810000Y-120030000D02*
X136810000Y-116190000D01*
X134970000Y-120030000D02*
X136810000Y-120030000D01*
X134970000Y-116190000D02*
X134970000Y-120030000D01*
X136810000Y-116190000D02*
X134970000Y-116190000D01*
G04 #@! TO.C,R6*
X138430000Y-120980000D02*
X138430000Y-120030000D01*
X138430000Y-115240000D02*
X138430000Y-116190000D01*
X139350000Y-120030000D02*
X139350000Y-116190000D01*
X137510000Y-120030000D02*
X139350000Y-120030000D01*
X137510000Y-116190000D02*
X137510000Y-120030000D01*
X139350000Y-116190000D02*
X137510000Y-116190000D01*
G04 #@! TO.C,R7*
X140970000Y-120905349D02*
X140970000Y-119955349D01*
X140970000Y-115165349D02*
X140970000Y-116115349D01*
X141890000Y-119955349D02*
X141890000Y-116115349D01*
X140050000Y-119955349D02*
X141890000Y-119955349D01*
X140050000Y-116115349D02*
X140050000Y-119955349D01*
X141890000Y-116115349D02*
X140050000Y-116115349D01*
G04 #@! TO.C,R8*
X143510000Y-120905349D02*
X143510000Y-119955349D01*
X143510000Y-115165349D02*
X143510000Y-116115349D01*
X144430000Y-119955349D02*
X144430000Y-116115349D01*
X142590000Y-119955349D02*
X144430000Y-119955349D01*
X142590000Y-116115349D02*
X142590000Y-119955349D01*
X144430000Y-116115349D02*
X142590000Y-116115349D01*
G04 #@! TO.C,U3*
X121980000Y-120530000D02*
X111700000Y-120530000D01*
X121980000Y-143630000D02*
X121980000Y-120530000D01*
X111700000Y-143630000D02*
X121980000Y-143630000D01*
X111700000Y-120530000D02*
X111700000Y-143630000D01*
X119490000Y-120590000D02*
X117840000Y-120590000D01*
X119490000Y-143570000D02*
X119490000Y-120590000D01*
X114190000Y-143570000D02*
X119490000Y-143570000D01*
X114190000Y-120590000D02*
X114190000Y-143570000D01*
X115840000Y-120590000D02*
X114190000Y-120590000D01*
X117840000Y-120590000D02*
G75*
G02X115840000Y-120590000I-1000000J0D01*
G01*
G04 #@! TO.C,C1*
X66690000Y-110835000D02*
X66690000Y-110390000D01*
X66690000Y-113130000D02*
X66690000Y-112685000D01*
X72930000Y-110835000D02*
X72930000Y-110390000D01*
X72930000Y-113130000D02*
X72930000Y-112685000D01*
X72930000Y-110390000D02*
X66690000Y-110390000D01*
X72930000Y-113130000D02*
X66690000Y-113130000D01*
G04 #@! TO.C,C2*
X66690000Y-138775000D02*
X66690000Y-138330000D01*
X66690000Y-141070000D02*
X66690000Y-140625000D01*
X72930000Y-138775000D02*
X72930000Y-138330000D01*
X72930000Y-141070000D02*
X72930000Y-140625000D01*
X72930000Y-138330000D02*
X66690000Y-138330000D01*
X72930000Y-141070000D02*
X66690000Y-141070000D01*
G04 #@! TO.C,C3*
X89550000Y-112105000D02*
X89550000Y-111660000D01*
X89550000Y-114400000D02*
X89550000Y-113955000D01*
X95790000Y-112105000D02*
X95790000Y-111660000D01*
X95790000Y-114400000D02*
X95790000Y-113955000D01*
X95790000Y-111660000D02*
X89550000Y-111660000D01*
X95790000Y-114400000D02*
X89550000Y-114400000D01*
G04 #@! TO.C,U1*
X90050000Y-151070000D02*
X90050000Y-161350000D01*
X108070000Y-151070000D02*
X90050000Y-151070000D01*
X108070000Y-161350000D02*
X108070000Y-151070000D01*
X90050000Y-161350000D02*
X108070000Y-161350000D01*
X90110000Y-153560000D02*
X90110000Y-155210000D01*
X108010000Y-153560000D02*
X90110000Y-153560000D01*
X108010000Y-158860000D02*
X108010000Y-153560000D01*
X90110000Y-158860000D02*
X108010000Y-158860000D01*
X90110000Y-157210000D02*
X90110000Y-158860000D01*
X90110000Y-155210000D02*
G75*
G02X90110000Y-157210000I0J-1000000D01*
G01*
G04 #@! TO.C,JP1*
X92980000Y-174120000D02*
X92980000Y-171320000D01*
X92980000Y-171320000D02*
X94980000Y-171320000D01*
X94980000Y-171320000D02*
X94980000Y-174120000D01*
X94980000Y-174120000D02*
X92980000Y-174120000D01*
G04 #@! TO.C,JP3*
X95520000Y-174120000D02*
X95520000Y-171320000D01*
X95520000Y-171320000D02*
X97520000Y-171320000D01*
X97520000Y-171320000D02*
X97520000Y-174120000D01*
X97520000Y-174120000D02*
X95520000Y-174120000D01*
G04 #@! TO.C,JP5*
X98060000Y-174120000D02*
X98060000Y-171320000D01*
X98060000Y-171320000D02*
X100060000Y-171320000D01*
X100060000Y-171320000D02*
X100060000Y-174120000D01*
X100060000Y-174120000D02*
X98060000Y-174120000D01*
G04 #@! TO.C,JP7*
X100600000Y-174120000D02*
X100600000Y-171320000D01*
X100600000Y-171320000D02*
X102600000Y-171320000D01*
X102600000Y-171320000D02*
X102600000Y-174120000D01*
X102600000Y-174120000D02*
X100600000Y-174120000D01*
G04 #@! TO.C,JP9*
X103140000Y-174120000D02*
X103140000Y-171320000D01*
X103140000Y-171320000D02*
X105140000Y-171320000D01*
X105140000Y-171320000D02*
X105140000Y-174120000D01*
X105140000Y-174120000D02*
X103140000Y-174120000D01*
G04 #@! TO.C,JP11*
X105680000Y-174120000D02*
X105680000Y-171320000D01*
X105680000Y-171320000D02*
X107680000Y-171320000D01*
X107680000Y-171320000D02*
X107680000Y-174120000D01*
X107680000Y-174120000D02*
X105680000Y-174120000D01*
G04 #@! TO.C,JP13*
X108220000Y-174120000D02*
X108220000Y-171320000D01*
X108220000Y-171320000D02*
X110220000Y-171320000D01*
X110220000Y-171320000D02*
X110220000Y-174120000D01*
X110220000Y-174120000D02*
X108220000Y-174120000D01*
G04 #@! TO.C,JP15*
X110760000Y-174120000D02*
X110760000Y-171320000D01*
X110760000Y-171320000D02*
X112760000Y-171320000D01*
X112760000Y-171320000D02*
X112760000Y-174120000D01*
X112760000Y-174120000D02*
X110760000Y-174120000D01*
G04 #@! TO.C,JP17*
X113300000Y-174120000D02*
X113300000Y-171320000D01*
X113300000Y-171320000D02*
X115300000Y-171320000D01*
X115300000Y-171320000D02*
X115300000Y-174120000D01*
X115300000Y-174120000D02*
X113300000Y-174120000D01*
G04 #@! TO.C,JP19*
X115840000Y-174120000D02*
X115840000Y-171320000D01*
X115840000Y-171320000D02*
X117840000Y-171320000D01*
X117840000Y-171320000D02*
X117840000Y-174120000D01*
X117840000Y-174120000D02*
X115840000Y-174120000D01*
G04 #@! TO.C,JP21*
X118380000Y-174120000D02*
X118380000Y-171320000D01*
X118380000Y-171320000D02*
X120380000Y-171320000D01*
X120380000Y-171320000D02*
X120380000Y-174120000D01*
X120380000Y-174120000D02*
X118380000Y-174120000D01*
G04 #@! TO.C,JP23*
X120920000Y-174120000D02*
X120920000Y-171320000D01*
X120920000Y-171320000D02*
X122920000Y-171320000D01*
X122920000Y-171320000D02*
X122920000Y-174120000D01*
X122920000Y-174120000D02*
X120920000Y-174120000D01*
G04 #@! TO.C,J1*
D10*
X101266666Y-175212380D02*
X101266666Y-175926666D01*
X101219047Y-176069523D01*
X101123809Y-176164761D01*
X100980952Y-176212380D01*
X100885714Y-176212380D01*
X102266666Y-176212380D02*
X101695238Y-176212380D01*
X101980952Y-176212380D02*
X101980952Y-175212380D01*
X101885714Y-175355238D01*
X101790476Y-175450476D01*
X101695238Y-175498095D01*
G04 #@! TO.C,D3*
X107211904Y-106552380D02*
X107211904Y-105552380D01*
X107450000Y-105552380D01*
X107592857Y-105600000D01*
X107688095Y-105695238D01*
X107735714Y-105790476D01*
X107783333Y-105980952D01*
X107783333Y-106123809D01*
X107735714Y-106314285D01*
X107688095Y-106409523D01*
X107592857Y-106504761D01*
X107450000Y-106552380D01*
X107211904Y-106552380D01*
X108116666Y-105552380D02*
X108735714Y-105552380D01*
X108402380Y-105933333D01*
X108545238Y-105933333D01*
X108640476Y-105980952D01*
X108688095Y-106028571D01*
X108735714Y-106123809D01*
X108735714Y-106361904D01*
X108688095Y-106457142D01*
X108640476Y-106504761D01*
X108545238Y-106552380D01*
X108259523Y-106552380D01*
X108164285Y-106504761D01*
X108116666Y-106457142D01*
G04 #@! TO.C,D8*
X145311904Y-106552380D02*
X145311904Y-105552380D01*
X145550000Y-105552380D01*
X145692857Y-105600000D01*
X145788095Y-105695238D01*
X145835714Y-105790476D01*
X145883333Y-105980952D01*
X145883333Y-106123809D01*
X145835714Y-106314285D01*
X145788095Y-106409523D01*
X145692857Y-106504761D01*
X145550000Y-106552380D01*
X145311904Y-106552380D01*
X146454761Y-105980952D02*
X146359523Y-105933333D01*
X146311904Y-105885714D01*
X146264285Y-105790476D01*
X146264285Y-105742857D01*
X146311904Y-105647619D01*
X146359523Y-105600000D01*
X146454761Y-105552380D01*
X146645238Y-105552380D01*
X146740476Y-105600000D01*
X146788095Y-105647619D01*
X146835714Y-105742857D01*
X146835714Y-105790476D01*
X146788095Y-105885714D01*
X146740476Y-105933333D01*
X146645238Y-105980952D01*
X146454761Y-105980952D01*
X146359523Y-106028571D01*
X146311904Y-106076190D01*
X146264285Y-106171428D01*
X146264285Y-106361904D01*
X146311904Y-106457142D01*
X146359523Y-106504761D01*
X146454761Y-106552380D01*
X146645238Y-106552380D01*
X146740476Y-106504761D01*
X146788095Y-106457142D01*
X146835714Y-106361904D01*
X146835714Y-106171428D01*
X146788095Y-106076190D01*
X146740476Y-106028571D01*
X146645238Y-105980952D01*
G04 #@! TO.C,D6*
X130071904Y-106552380D02*
X130071904Y-105552380D01*
X130310000Y-105552380D01*
X130452857Y-105600000D01*
X130548095Y-105695238D01*
X130595714Y-105790476D01*
X130643333Y-105980952D01*
X130643333Y-106123809D01*
X130595714Y-106314285D01*
X130548095Y-106409523D01*
X130452857Y-106504761D01*
X130310000Y-106552380D01*
X130071904Y-106552380D01*
X131500476Y-105552380D02*
X131310000Y-105552380D01*
X131214761Y-105600000D01*
X131167142Y-105647619D01*
X131071904Y-105790476D01*
X131024285Y-105980952D01*
X131024285Y-106361904D01*
X131071904Y-106457142D01*
X131119523Y-106504761D01*
X131214761Y-106552380D01*
X131405238Y-106552380D01*
X131500476Y-106504761D01*
X131548095Y-106457142D01*
X131595714Y-106361904D01*
X131595714Y-106123809D01*
X131548095Y-106028571D01*
X131500476Y-105980952D01*
X131405238Y-105933333D01*
X131214761Y-105933333D01*
X131119523Y-105980952D01*
X131071904Y-106028571D01*
X131024285Y-106123809D01*
G04 #@! TO.C,D4*
X114831904Y-106552380D02*
X114831904Y-105552380D01*
X115070000Y-105552380D01*
X115212857Y-105600000D01*
X115308095Y-105695238D01*
X115355714Y-105790476D01*
X115403333Y-105980952D01*
X115403333Y-106123809D01*
X115355714Y-106314285D01*
X115308095Y-106409523D01*
X115212857Y-106504761D01*
X115070000Y-106552380D01*
X114831904Y-106552380D01*
X116260476Y-105885714D02*
X116260476Y-106552380D01*
X116022380Y-105504761D02*
X115784285Y-106219047D01*
X116403333Y-106219047D01*
G04 #@! TO.C,D1*
X91971904Y-106552380D02*
X91971904Y-105552380D01*
X92210000Y-105552380D01*
X92352857Y-105600000D01*
X92448095Y-105695238D01*
X92495714Y-105790476D01*
X92543333Y-105980952D01*
X92543333Y-106123809D01*
X92495714Y-106314285D01*
X92448095Y-106409523D01*
X92352857Y-106504761D01*
X92210000Y-106552380D01*
X91971904Y-106552380D01*
X93495714Y-106552380D02*
X92924285Y-106552380D01*
X93210000Y-106552380D02*
X93210000Y-105552380D01*
X93114761Y-105695238D01*
X93019523Y-105790476D01*
X92924285Y-105838095D01*
G04 #@! TO.C,D5*
X122451904Y-106552380D02*
X122451904Y-105552380D01*
X122690000Y-105552380D01*
X122832857Y-105600000D01*
X122928095Y-105695238D01*
X122975714Y-105790476D01*
X123023333Y-105980952D01*
X123023333Y-106123809D01*
X122975714Y-106314285D01*
X122928095Y-106409523D01*
X122832857Y-106504761D01*
X122690000Y-106552380D01*
X122451904Y-106552380D01*
X123928095Y-105552380D02*
X123451904Y-105552380D01*
X123404285Y-106028571D01*
X123451904Y-105980952D01*
X123547142Y-105933333D01*
X123785238Y-105933333D01*
X123880476Y-105980952D01*
X123928095Y-106028571D01*
X123975714Y-106123809D01*
X123975714Y-106361904D01*
X123928095Y-106457142D01*
X123880476Y-106504761D01*
X123785238Y-106552380D01*
X123547142Y-106552380D01*
X123451904Y-106504761D01*
X123404285Y-106457142D01*
G04 #@! TO.C,D7*
X137691904Y-106552380D02*
X137691904Y-105552380D01*
X137930000Y-105552380D01*
X138072857Y-105600000D01*
X138168095Y-105695238D01*
X138215714Y-105790476D01*
X138263333Y-105980952D01*
X138263333Y-106123809D01*
X138215714Y-106314285D01*
X138168095Y-106409523D01*
X138072857Y-106504761D01*
X137930000Y-106552380D01*
X137691904Y-106552380D01*
X138596666Y-105552380D02*
X139263333Y-105552380D01*
X138834761Y-106552380D01*
G04 #@! TO.C,D2*
X99591904Y-106552380D02*
X99591904Y-105552380D01*
X99830000Y-105552380D01*
X99972857Y-105600000D01*
X100068095Y-105695238D01*
X100115714Y-105790476D01*
X100163333Y-105980952D01*
X100163333Y-106123809D01*
X100115714Y-106314285D01*
X100068095Y-106409523D01*
X99972857Y-106504761D01*
X99830000Y-106552380D01*
X99591904Y-106552380D01*
X100544285Y-105647619D02*
X100591904Y-105600000D01*
X100687142Y-105552380D01*
X100925238Y-105552380D01*
X101020476Y-105600000D01*
X101068095Y-105647619D01*
X101115714Y-105742857D01*
X101115714Y-105838095D01*
X101068095Y-105980952D01*
X100496666Y-106552380D01*
X101115714Y-106552380D01*
G04 #@! TO.C,U2*
X69088095Y-113962380D02*
X69088095Y-114771904D01*
X69135714Y-114867142D01*
X69183333Y-114914761D01*
X69278571Y-114962380D01*
X69469047Y-114962380D01*
X69564285Y-114914761D01*
X69611904Y-114867142D01*
X69659523Y-114771904D01*
X69659523Y-113962380D01*
X70088095Y-114057619D02*
X70135714Y-114010000D01*
X70230952Y-113962380D01*
X70469047Y-113962380D01*
X70564285Y-114010000D01*
X70611904Y-114057619D01*
X70659523Y-114152857D01*
X70659523Y-114248095D01*
X70611904Y-114390952D01*
X70040476Y-114962380D01*
X70659523Y-114962380D01*
G04 #@! TO.C,U5*
X69088095Y-141902380D02*
X69088095Y-142711904D01*
X69135714Y-142807142D01*
X69183333Y-142854761D01*
X69278571Y-142902380D01*
X69469047Y-142902380D01*
X69564285Y-142854761D01*
X69611904Y-142807142D01*
X69659523Y-142711904D01*
X69659523Y-141902380D01*
X70611904Y-141902380D02*
X70135714Y-141902380D01*
X70088095Y-142378571D01*
X70135714Y-142330952D01*
X70230952Y-142283333D01*
X70469047Y-142283333D01*
X70564285Y-142330952D01*
X70611904Y-142378571D01*
X70659523Y-142473809D01*
X70659523Y-142711904D01*
X70611904Y-142807142D01*
X70564285Y-142854761D01*
X70469047Y-142902380D01*
X70230952Y-142902380D01*
X70135714Y-142854761D01*
X70088095Y-142807142D01*
G04 #@! TO.C,U4*
X91948095Y-115232380D02*
X91948095Y-116041904D01*
X91995714Y-116137142D01*
X92043333Y-116184761D01*
X92138571Y-116232380D01*
X92329047Y-116232380D01*
X92424285Y-116184761D01*
X92471904Y-116137142D01*
X92519523Y-116041904D01*
X92519523Y-115232380D01*
X93424285Y-115565714D02*
X93424285Y-116232380D01*
X93186190Y-115184761D02*
X92948095Y-115899047D01*
X93567142Y-115899047D01*
G04 #@! TO.C,R1*
X128102380Y-118276666D02*
X127626190Y-118610000D01*
X128102380Y-118848095D02*
X127102380Y-118848095D01*
X127102380Y-118467142D01*
X127150000Y-118371904D01*
X127197619Y-118324285D01*
X127292857Y-118276666D01*
X127435714Y-118276666D01*
X127530952Y-118324285D01*
X127578571Y-118371904D01*
X127626190Y-118467142D01*
X127626190Y-118848095D01*
X128102380Y-117324285D02*
X128102380Y-117895714D01*
X128102380Y-117610000D02*
X127102380Y-117610000D01*
X127245238Y-117705238D01*
X127340476Y-117800476D01*
X127388095Y-117895714D01*
G04 #@! TO.C,R2*
X130642380Y-118276666D02*
X130166190Y-118610000D01*
X130642380Y-118848095D02*
X129642380Y-118848095D01*
X129642380Y-118467142D01*
X129690000Y-118371904D01*
X129737619Y-118324285D01*
X129832857Y-118276666D01*
X129975714Y-118276666D01*
X130070952Y-118324285D01*
X130118571Y-118371904D01*
X130166190Y-118467142D01*
X130166190Y-118848095D01*
X129737619Y-117895714D02*
X129690000Y-117848095D01*
X129642380Y-117752857D01*
X129642380Y-117514761D01*
X129690000Y-117419523D01*
X129737619Y-117371904D01*
X129832857Y-117324285D01*
X129928095Y-117324285D01*
X130070952Y-117371904D01*
X130642380Y-117943333D01*
X130642380Y-117324285D01*
G04 #@! TO.C,R3*
X133182380Y-118276666D02*
X132706190Y-118610000D01*
X133182380Y-118848095D02*
X132182380Y-118848095D01*
X132182380Y-118467142D01*
X132230000Y-118371904D01*
X132277619Y-118324285D01*
X132372857Y-118276666D01*
X132515714Y-118276666D01*
X132610952Y-118324285D01*
X132658571Y-118371904D01*
X132706190Y-118467142D01*
X132706190Y-118848095D01*
X132182380Y-117943333D02*
X132182380Y-117324285D01*
X132563333Y-117657619D01*
X132563333Y-117514761D01*
X132610952Y-117419523D01*
X132658571Y-117371904D01*
X132753809Y-117324285D01*
X132991904Y-117324285D01*
X133087142Y-117371904D01*
X133134761Y-117419523D01*
X133182380Y-117514761D01*
X133182380Y-117800476D01*
X133134761Y-117895714D01*
X133087142Y-117943333D01*
G04 #@! TO.C,R4*
X135722380Y-118276666D02*
X135246190Y-118610000D01*
X135722380Y-118848095D02*
X134722380Y-118848095D01*
X134722380Y-118467142D01*
X134770000Y-118371904D01*
X134817619Y-118324285D01*
X134912857Y-118276666D01*
X135055714Y-118276666D01*
X135150952Y-118324285D01*
X135198571Y-118371904D01*
X135246190Y-118467142D01*
X135246190Y-118848095D01*
X135055714Y-117419523D02*
X135722380Y-117419523D01*
X134674761Y-117657619D02*
X135389047Y-117895714D01*
X135389047Y-117276666D01*
G04 #@! TO.C,R5*
X138262380Y-118276666D02*
X137786190Y-118610000D01*
X138262380Y-118848095D02*
X137262380Y-118848095D01*
X137262380Y-118467142D01*
X137310000Y-118371904D01*
X137357619Y-118324285D01*
X137452857Y-118276666D01*
X137595714Y-118276666D01*
X137690952Y-118324285D01*
X137738571Y-118371904D01*
X137786190Y-118467142D01*
X137786190Y-118848095D01*
X137262380Y-117371904D02*
X137262380Y-117848095D01*
X137738571Y-117895714D01*
X137690952Y-117848095D01*
X137643333Y-117752857D01*
X137643333Y-117514761D01*
X137690952Y-117419523D01*
X137738571Y-117371904D01*
X137833809Y-117324285D01*
X138071904Y-117324285D01*
X138167142Y-117371904D01*
X138214761Y-117419523D01*
X138262380Y-117514761D01*
X138262380Y-117752857D01*
X138214761Y-117848095D01*
X138167142Y-117895714D01*
G04 #@! TO.C,R6*
X140802380Y-118276666D02*
X140326190Y-118610000D01*
X140802380Y-118848095D02*
X139802380Y-118848095D01*
X139802380Y-118467142D01*
X139850000Y-118371904D01*
X139897619Y-118324285D01*
X139992857Y-118276666D01*
X140135714Y-118276666D01*
X140230952Y-118324285D01*
X140278571Y-118371904D01*
X140326190Y-118467142D01*
X140326190Y-118848095D01*
X139802380Y-117419523D02*
X139802380Y-117610000D01*
X139850000Y-117705238D01*
X139897619Y-117752857D01*
X140040476Y-117848095D01*
X140230952Y-117895714D01*
X140611904Y-117895714D01*
X140707142Y-117848095D01*
X140754761Y-117800476D01*
X140802380Y-117705238D01*
X140802380Y-117514761D01*
X140754761Y-117419523D01*
X140707142Y-117371904D01*
X140611904Y-117324285D01*
X140373809Y-117324285D01*
X140278571Y-117371904D01*
X140230952Y-117419523D01*
X140183333Y-117514761D01*
X140183333Y-117705238D01*
X140230952Y-117800476D01*
X140278571Y-117848095D01*
X140373809Y-117895714D01*
G04 #@! TO.C,R7*
X143342380Y-118202015D02*
X142866190Y-118535349D01*
X143342380Y-118773444D02*
X142342380Y-118773444D01*
X142342380Y-118392491D01*
X142390000Y-118297253D01*
X142437619Y-118249634D01*
X142532857Y-118202015D01*
X142675714Y-118202015D01*
X142770952Y-118249634D01*
X142818571Y-118297253D01*
X142866190Y-118392491D01*
X142866190Y-118773444D01*
X142342380Y-117868682D02*
X142342380Y-117202015D01*
X143342380Y-117630587D01*
G04 #@! TO.C,R8*
X145882380Y-118202015D02*
X145406190Y-118535349D01*
X145882380Y-118773444D02*
X144882380Y-118773444D01*
X144882380Y-118392491D01*
X144930000Y-118297253D01*
X144977619Y-118249634D01*
X145072857Y-118202015D01*
X145215714Y-118202015D01*
X145310952Y-118249634D01*
X145358571Y-118297253D01*
X145406190Y-118392491D01*
X145406190Y-118773444D01*
X145310952Y-117630587D02*
X145263333Y-117725825D01*
X145215714Y-117773444D01*
X145120476Y-117821063D01*
X145072857Y-117821063D01*
X144977619Y-117773444D01*
X144930000Y-117725825D01*
X144882380Y-117630587D01*
X144882380Y-117440110D01*
X144930000Y-117344872D01*
X144977619Y-117297253D01*
X145072857Y-117249634D01*
X145120476Y-117249634D01*
X145215714Y-117297253D01*
X145263333Y-117344872D01*
X145310952Y-117440110D01*
X145310952Y-117630587D01*
X145358571Y-117725825D01*
X145406190Y-117773444D01*
X145501428Y-117821063D01*
X145691904Y-117821063D01*
X145787142Y-117773444D01*
X145834761Y-117725825D01*
X145882380Y-117630587D01*
X145882380Y-117440110D01*
X145834761Y-117344872D01*
X145787142Y-117297253D01*
X145691904Y-117249634D01*
X145501428Y-117249634D01*
X145406190Y-117297253D01*
X145358571Y-117344872D01*
X145310952Y-117440110D01*
G04 #@! TO.C,U3*
X116078095Y-119042380D02*
X116078095Y-119851904D01*
X116125714Y-119947142D01*
X116173333Y-119994761D01*
X116268571Y-120042380D01*
X116459047Y-120042380D01*
X116554285Y-119994761D01*
X116601904Y-119947142D01*
X116649523Y-119851904D01*
X116649523Y-119042380D01*
X117030476Y-119042380D02*
X117649523Y-119042380D01*
X117316190Y-119423333D01*
X117459047Y-119423333D01*
X117554285Y-119470952D01*
X117601904Y-119518571D01*
X117649523Y-119613809D01*
X117649523Y-119851904D01*
X117601904Y-119947142D01*
X117554285Y-119994761D01*
X117459047Y-120042380D01*
X117173333Y-120042380D01*
X117078095Y-119994761D01*
X117030476Y-119947142D01*
G04 #@! TO.C,C1*
X69643333Y-114617142D02*
X69595714Y-114664761D01*
X69452857Y-114712380D01*
X69357619Y-114712380D01*
X69214761Y-114664761D01*
X69119523Y-114569523D01*
X69071904Y-114474285D01*
X69024285Y-114283809D01*
X69024285Y-114140952D01*
X69071904Y-113950476D01*
X69119523Y-113855238D01*
X69214761Y-113760000D01*
X69357619Y-113712380D01*
X69452857Y-113712380D01*
X69595714Y-113760000D01*
X69643333Y-113807619D01*
X70595714Y-114712380D02*
X70024285Y-114712380D01*
X70310000Y-114712380D02*
X70310000Y-113712380D01*
X70214761Y-113855238D01*
X70119523Y-113950476D01*
X70024285Y-113998095D01*
G04 #@! TO.C,C2*
X69643333Y-142557142D02*
X69595714Y-142604761D01*
X69452857Y-142652380D01*
X69357619Y-142652380D01*
X69214761Y-142604761D01*
X69119523Y-142509523D01*
X69071904Y-142414285D01*
X69024285Y-142223809D01*
X69024285Y-142080952D01*
X69071904Y-141890476D01*
X69119523Y-141795238D01*
X69214761Y-141700000D01*
X69357619Y-141652380D01*
X69452857Y-141652380D01*
X69595714Y-141700000D01*
X69643333Y-141747619D01*
X70024285Y-141747619D02*
X70071904Y-141700000D01*
X70167142Y-141652380D01*
X70405238Y-141652380D01*
X70500476Y-141700000D01*
X70548095Y-141747619D01*
X70595714Y-141842857D01*
X70595714Y-141938095D01*
X70548095Y-142080952D01*
X69976666Y-142652380D01*
X70595714Y-142652380D01*
G04 #@! TO.C,C3*
X92503333Y-115887142D02*
X92455714Y-115934761D01*
X92312857Y-115982380D01*
X92217619Y-115982380D01*
X92074761Y-115934761D01*
X91979523Y-115839523D01*
X91931904Y-115744285D01*
X91884285Y-115553809D01*
X91884285Y-115410952D01*
X91931904Y-115220476D01*
X91979523Y-115125238D01*
X92074761Y-115030000D01*
X92217619Y-114982380D01*
X92312857Y-114982380D01*
X92455714Y-115030000D01*
X92503333Y-115077619D01*
X92836666Y-114982380D02*
X93455714Y-114982380D01*
X93122380Y-115363333D01*
X93265238Y-115363333D01*
X93360476Y-115410952D01*
X93408095Y-115458571D01*
X93455714Y-115553809D01*
X93455714Y-115791904D01*
X93408095Y-115887142D01*
X93360476Y-115934761D01*
X93265238Y-115982380D01*
X92979523Y-115982380D01*
X92884285Y-115934761D01*
X92836666Y-115887142D01*
G04 #@! TO.C,U1*
X88562380Y-156971904D02*
X89371904Y-156971904D01*
X89467142Y-156924285D01*
X89514761Y-156876666D01*
X89562380Y-156781428D01*
X89562380Y-156590952D01*
X89514761Y-156495714D01*
X89467142Y-156448095D01*
X89371904Y-156400476D01*
X88562380Y-156400476D01*
X89562380Y-155400476D02*
X89562380Y-155971904D01*
X89562380Y-155686190D02*
X88562380Y-155686190D01*
X88705238Y-155781428D01*
X88800476Y-155876666D01*
X88848095Y-155971904D01*
G04 #@! TO.C,JP1*
X91632380Y-173553333D02*
X92346666Y-173553333D01*
X92489523Y-173600952D01*
X92584761Y-173696190D01*
X92632380Y-173839047D01*
X92632380Y-173934285D01*
X92632380Y-173077142D02*
X91632380Y-173077142D01*
X91632380Y-172696190D01*
X91680000Y-172600952D01*
X91727619Y-172553333D01*
X91822857Y-172505714D01*
X91965714Y-172505714D01*
X92060952Y-172553333D01*
X92108571Y-172600952D01*
X92156190Y-172696190D01*
X92156190Y-173077142D01*
X92632380Y-171553333D02*
X92632380Y-172124761D01*
X92632380Y-171839047D02*
X91632380Y-171839047D01*
X91775238Y-171934285D01*
X91870476Y-172029523D01*
X91918095Y-172124761D01*
G04 #@! TO.C,JP3*
X94172380Y-173553333D02*
X94886666Y-173553333D01*
X95029523Y-173600952D01*
X95124761Y-173696190D01*
X95172380Y-173839047D01*
X95172380Y-173934285D01*
X95172380Y-173077142D02*
X94172380Y-173077142D01*
X94172380Y-172696190D01*
X94220000Y-172600952D01*
X94267619Y-172553333D01*
X94362857Y-172505714D01*
X94505714Y-172505714D01*
X94600952Y-172553333D01*
X94648571Y-172600952D01*
X94696190Y-172696190D01*
X94696190Y-173077142D01*
X94172380Y-172172380D02*
X94172380Y-171553333D01*
X94553333Y-171886666D01*
X94553333Y-171743809D01*
X94600952Y-171648571D01*
X94648571Y-171600952D01*
X94743809Y-171553333D01*
X94981904Y-171553333D01*
X95077142Y-171600952D01*
X95124761Y-171648571D01*
X95172380Y-171743809D01*
X95172380Y-172029523D01*
X95124761Y-172124761D01*
X95077142Y-172172380D01*
G04 #@! TO.C,JP5*
X96712380Y-173553333D02*
X97426666Y-173553333D01*
X97569523Y-173600952D01*
X97664761Y-173696190D01*
X97712380Y-173839047D01*
X97712380Y-173934285D01*
X97712380Y-173077142D02*
X96712380Y-173077142D01*
X96712380Y-172696190D01*
X96760000Y-172600952D01*
X96807619Y-172553333D01*
X96902857Y-172505714D01*
X97045714Y-172505714D01*
X97140952Y-172553333D01*
X97188571Y-172600952D01*
X97236190Y-172696190D01*
X97236190Y-173077142D01*
X96712380Y-171600952D02*
X96712380Y-172077142D01*
X97188571Y-172124761D01*
X97140952Y-172077142D01*
X97093333Y-171981904D01*
X97093333Y-171743809D01*
X97140952Y-171648571D01*
X97188571Y-171600952D01*
X97283809Y-171553333D01*
X97521904Y-171553333D01*
X97617142Y-171600952D01*
X97664761Y-171648571D01*
X97712380Y-171743809D01*
X97712380Y-171981904D01*
X97664761Y-172077142D01*
X97617142Y-172124761D01*
G04 #@! TO.C,JP7*
X99252380Y-173553333D02*
X99966666Y-173553333D01*
X100109523Y-173600952D01*
X100204761Y-173696190D01*
X100252380Y-173839047D01*
X100252380Y-173934285D01*
X100252380Y-173077142D02*
X99252380Y-173077142D01*
X99252380Y-172696190D01*
X99300000Y-172600952D01*
X99347619Y-172553333D01*
X99442857Y-172505714D01*
X99585714Y-172505714D01*
X99680952Y-172553333D01*
X99728571Y-172600952D01*
X99776190Y-172696190D01*
X99776190Y-173077142D01*
X99252380Y-172172380D02*
X99252380Y-171505714D01*
X100252380Y-171934285D01*
G04 #@! TO.C,JP9*
X101792380Y-173553333D02*
X102506666Y-173553333D01*
X102649523Y-173600952D01*
X102744761Y-173696190D01*
X102792380Y-173839047D01*
X102792380Y-173934285D01*
X102792380Y-173077142D02*
X101792380Y-173077142D01*
X101792380Y-172696190D01*
X101840000Y-172600952D01*
X101887619Y-172553333D01*
X101982857Y-172505714D01*
X102125714Y-172505714D01*
X102220952Y-172553333D01*
X102268571Y-172600952D01*
X102316190Y-172696190D01*
X102316190Y-173077142D01*
X102792380Y-172029523D02*
X102792380Y-171839047D01*
X102744761Y-171743809D01*
X102697142Y-171696190D01*
X102554285Y-171600952D01*
X102363809Y-171553333D01*
X101982857Y-171553333D01*
X101887619Y-171600952D01*
X101840000Y-171648571D01*
X101792380Y-171743809D01*
X101792380Y-171934285D01*
X101840000Y-172029523D01*
X101887619Y-172077142D01*
X101982857Y-172124761D01*
X102220952Y-172124761D01*
X102316190Y-172077142D01*
X102363809Y-172029523D01*
X102411428Y-171934285D01*
X102411428Y-171743809D01*
X102363809Y-171648571D01*
X102316190Y-171600952D01*
X102220952Y-171553333D01*
G04 #@! TO.C,JP11*
X104332380Y-174029523D02*
X105046666Y-174029523D01*
X105189523Y-174077142D01*
X105284761Y-174172380D01*
X105332380Y-174315238D01*
X105332380Y-174410476D01*
X105332380Y-173553333D02*
X104332380Y-173553333D01*
X104332380Y-173172380D01*
X104380000Y-173077142D01*
X104427619Y-173029523D01*
X104522857Y-172981904D01*
X104665714Y-172981904D01*
X104760952Y-173029523D01*
X104808571Y-173077142D01*
X104856190Y-173172380D01*
X104856190Y-173553333D01*
X105332380Y-172029523D02*
X105332380Y-172600952D01*
X105332380Y-172315238D02*
X104332380Y-172315238D01*
X104475238Y-172410476D01*
X104570476Y-172505714D01*
X104618095Y-172600952D01*
X105332380Y-171077142D02*
X105332380Y-171648571D01*
X105332380Y-171362857D02*
X104332380Y-171362857D01*
X104475238Y-171458095D01*
X104570476Y-171553333D01*
X104618095Y-171648571D01*
G04 #@! TO.C,JP13*
X106872380Y-174029523D02*
X107586666Y-174029523D01*
X107729523Y-174077142D01*
X107824761Y-174172380D01*
X107872380Y-174315238D01*
X107872380Y-174410476D01*
X107872380Y-173553333D02*
X106872380Y-173553333D01*
X106872380Y-173172380D01*
X106920000Y-173077142D01*
X106967619Y-173029523D01*
X107062857Y-172981904D01*
X107205714Y-172981904D01*
X107300952Y-173029523D01*
X107348571Y-173077142D01*
X107396190Y-173172380D01*
X107396190Y-173553333D01*
X107872380Y-172029523D02*
X107872380Y-172600952D01*
X107872380Y-172315238D02*
X106872380Y-172315238D01*
X107015238Y-172410476D01*
X107110476Y-172505714D01*
X107158095Y-172600952D01*
X106872380Y-171696190D02*
X106872380Y-171077142D01*
X107253333Y-171410476D01*
X107253333Y-171267619D01*
X107300952Y-171172380D01*
X107348571Y-171124761D01*
X107443809Y-171077142D01*
X107681904Y-171077142D01*
X107777142Y-171124761D01*
X107824761Y-171172380D01*
X107872380Y-171267619D01*
X107872380Y-171553333D01*
X107824761Y-171648571D01*
X107777142Y-171696190D01*
G04 #@! TO.C,JP15*
X109412380Y-174029523D02*
X110126666Y-174029523D01*
X110269523Y-174077142D01*
X110364761Y-174172380D01*
X110412380Y-174315238D01*
X110412380Y-174410476D01*
X110412380Y-173553333D02*
X109412380Y-173553333D01*
X109412380Y-173172380D01*
X109460000Y-173077142D01*
X109507619Y-173029523D01*
X109602857Y-172981904D01*
X109745714Y-172981904D01*
X109840952Y-173029523D01*
X109888571Y-173077142D01*
X109936190Y-173172380D01*
X109936190Y-173553333D01*
X110412380Y-172029523D02*
X110412380Y-172600952D01*
X110412380Y-172315238D02*
X109412380Y-172315238D01*
X109555238Y-172410476D01*
X109650476Y-172505714D01*
X109698095Y-172600952D01*
X109412380Y-171124761D02*
X109412380Y-171600952D01*
X109888571Y-171648571D01*
X109840952Y-171600952D01*
X109793333Y-171505714D01*
X109793333Y-171267619D01*
X109840952Y-171172380D01*
X109888571Y-171124761D01*
X109983809Y-171077142D01*
X110221904Y-171077142D01*
X110317142Y-171124761D01*
X110364761Y-171172380D01*
X110412380Y-171267619D01*
X110412380Y-171505714D01*
X110364761Y-171600952D01*
X110317142Y-171648571D01*
G04 #@! TO.C,JP17*
X111952380Y-174029523D02*
X112666666Y-174029523D01*
X112809523Y-174077142D01*
X112904761Y-174172380D01*
X112952380Y-174315238D01*
X112952380Y-174410476D01*
X112952380Y-173553333D02*
X111952380Y-173553333D01*
X111952380Y-173172380D01*
X112000000Y-173077142D01*
X112047619Y-173029523D01*
X112142857Y-172981904D01*
X112285714Y-172981904D01*
X112380952Y-173029523D01*
X112428571Y-173077142D01*
X112476190Y-173172380D01*
X112476190Y-173553333D01*
X112952380Y-172029523D02*
X112952380Y-172600952D01*
X112952380Y-172315238D02*
X111952380Y-172315238D01*
X112095238Y-172410476D01*
X112190476Y-172505714D01*
X112238095Y-172600952D01*
X111952380Y-171696190D02*
X111952380Y-171029523D01*
X112952380Y-171458095D01*
G04 #@! TO.C,JP19*
X114492380Y-174029523D02*
X115206666Y-174029523D01*
X115349523Y-174077142D01*
X115444761Y-174172380D01*
X115492380Y-174315238D01*
X115492380Y-174410476D01*
X115492380Y-173553333D02*
X114492380Y-173553333D01*
X114492380Y-173172380D01*
X114540000Y-173077142D01*
X114587619Y-173029523D01*
X114682857Y-172981904D01*
X114825714Y-172981904D01*
X114920952Y-173029523D01*
X114968571Y-173077142D01*
X115016190Y-173172380D01*
X115016190Y-173553333D01*
X115492380Y-172029523D02*
X115492380Y-172600952D01*
X115492380Y-172315238D02*
X114492380Y-172315238D01*
X114635238Y-172410476D01*
X114730476Y-172505714D01*
X114778095Y-172600952D01*
X115492380Y-171553333D02*
X115492380Y-171362857D01*
X115444761Y-171267619D01*
X115397142Y-171220000D01*
X115254285Y-171124761D01*
X115063809Y-171077142D01*
X114682857Y-171077142D01*
X114587619Y-171124761D01*
X114540000Y-171172380D01*
X114492380Y-171267619D01*
X114492380Y-171458095D01*
X114540000Y-171553333D01*
X114587619Y-171600952D01*
X114682857Y-171648571D01*
X114920952Y-171648571D01*
X115016190Y-171600952D01*
X115063809Y-171553333D01*
X115111428Y-171458095D01*
X115111428Y-171267619D01*
X115063809Y-171172380D01*
X115016190Y-171124761D01*
X114920952Y-171077142D01*
G04 #@! TO.C,JP21*
X117032380Y-174029523D02*
X117746666Y-174029523D01*
X117889523Y-174077142D01*
X117984761Y-174172380D01*
X118032380Y-174315238D01*
X118032380Y-174410476D01*
X118032380Y-173553333D02*
X117032380Y-173553333D01*
X117032380Y-173172380D01*
X117080000Y-173077142D01*
X117127619Y-173029523D01*
X117222857Y-172981904D01*
X117365714Y-172981904D01*
X117460952Y-173029523D01*
X117508571Y-173077142D01*
X117556190Y-173172380D01*
X117556190Y-173553333D01*
X117127619Y-172600952D02*
X117080000Y-172553333D01*
X117032380Y-172458095D01*
X117032380Y-172220000D01*
X117080000Y-172124761D01*
X117127619Y-172077142D01*
X117222857Y-172029523D01*
X117318095Y-172029523D01*
X117460952Y-172077142D01*
X118032380Y-172648571D01*
X118032380Y-172029523D01*
X118032380Y-171077142D02*
X118032380Y-171648571D01*
X118032380Y-171362857D02*
X117032380Y-171362857D01*
X117175238Y-171458095D01*
X117270476Y-171553333D01*
X117318095Y-171648571D01*
G04 #@! TO.C,JP23*
X119572380Y-174029523D02*
X120286666Y-174029523D01*
X120429523Y-174077142D01*
X120524761Y-174172380D01*
X120572380Y-174315238D01*
X120572380Y-174410476D01*
X120572380Y-173553333D02*
X119572380Y-173553333D01*
X119572380Y-173172380D01*
X119620000Y-173077142D01*
X119667619Y-173029523D01*
X119762857Y-172981904D01*
X119905714Y-172981904D01*
X120000952Y-173029523D01*
X120048571Y-173077142D01*
X120096190Y-173172380D01*
X120096190Y-173553333D01*
X119667619Y-172600952D02*
X119620000Y-172553333D01*
X119572380Y-172458095D01*
X119572380Y-172220000D01*
X119620000Y-172124761D01*
X119667619Y-172077142D01*
X119762857Y-172029523D01*
X119858095Y-172029523D01*
X120000952Y-172077142D01*
X120572380Y-172648571D01*
X120572380Y-172029523D01*
X119572380Y-171696190D02*
X119572380Y-171077142D01*
X119953333Y-171410476D01*
X119953333Y-171267619D01*
X120000952Y-171172380D01*
X120048571Y-171124761D01*
X120143809Y-171077142D01*
X120381904Y-171077142D01*
X120477142Y-171124761D01*
X120524761Y-171172380D01*
X120572380Y-171267619D01*
X120572380Y-171553333D01*
X120524761Y-171648571D01*
X120477142Y-171696190D01*
G04 #@! TD*
M02*
