G04 #@! TF.GenerationSoftware,KiCad,Pcbnew,(5.0.1)-3*
G04 #@! TF.CreationDate,2018-12-11T20:57:09+00:00*
G04 #@! TF.ProjectId,Register (8 Bit),52656769737465722028382042697429,rev?*
G04 #@! TF.SameCoordinates,Original*
G04 #@! TF.FileFunction,Soldermask,Bot*
G04 #@! TF.FilePolarity,Negative*
%FSLAX46Y46*%
G04 Gerber Fmt 4.6, Leading zero omitted, Abs format (unit mm)*
G04 Created by KiCad (PCBNEW (5.0.1)-3) date 11/12/2018 20:57:09*
%MOMM*%
%LPD*%
G01*
G04 APERTURE LIST*
%ADD10C,0.100000*%
G04 APERTURE END LIST*
D10*
G36*
X79305000Y-185271000D02*
X77865000Y-185271000D01*
X77865000Y-178169000D01*
X79305000Y-178169000D01*
X79305000Y-185271000D01*
X79305000Y-185271000D01*
G37*
G36*
X77076500Y-185271000D02*
X75323500Y-185271000D01*
X75323500Y-178169000D01*
X77076500Y-178169000D01*
X77076500Y-185271000D01*
X77076500Y-185271000D01*
G37*
G36*
X56756500Y-185271000D02*
X55003500Y-185271000D01*
X55003500Y-178169000D01*
X56756500Y-178169000D01*
X56756500Y-185271000D01*
X56756500Y-185271000D01*
G37*
G36*
X59296500Y-185271000D02*
X57543500Y-185271000D01*
X57543500Y-178169000D01*
X59296500Y-178169000D01*
X59296500Y-185271000D01*
X59296500Y-185271000D01*
G37*
G36*
X61836500Y-185271000D02*
X60083500Y-185271000D01*
X60083500Y-178169000D01*
X61836500Y-178169000D01*
X61836500Y-185271000D01*
X61836500Y-185271000D01*
G37*
G36*
X64376500Y-185271000D02*
X62623500Y-185271000D01*
X62623500Y-178169000D01*
X64376500Y-178169000D01*
X64376500Y-185271000D01*
X64376500Y-185271000D01*
G37*
G36*
X66916500Y-185271000D02*
X65163500Y-185271000D01*
X65163500Y-178169000D01*
X66916500Y-178169000D01*
X66916500Y-185271000D01*
X66916500Y-185271000D01*
G37*
G36*
X69456500Y-185271000D02*
X67703500Y-185271000D01*
X67703500Y-178169000D01*
X69456500Y-178169000D01*
X69456500Y-185271000D01*
X69456500Y-185271000D01*
G37*
G36*
X71996500Y-185271000D02*
X70243500Y-185271000D01*
X70243500Y-178169000D01*
X71996500Y-178169000D01*
X71996500Y-185271000D01*
X71996500Y-185271000D01*
G37*
G36*
X74536500Y-185271000D02*
X72783500Y-185271000D01*
X72783500Y-178169000D01*
X74536500Y-178169000D01*
X74536500Y-185271000D01*
X74536500Y-185271000D01*
G37*
G36*
X102476500Y-185271000D02*
X100723500Y-185271000D01*
X100723500Y-178169000D01*
X102476500Y-178169000D01*
X102476500Y-185271000D01*
X102476500Y-185271000D01*
G37*
G36*
X82155000Y-185271000D02*
X80715000Y-185271000D01*
X80715000Y-178169000D01*
X82155000Y-178169000D01*
X82155000Y-185271000D01*
X82155000Y-185271000D01*
G37*
G36*
X84696500Y-185271000D02*
X82943500Y-185271000D01*
X82943500Y-178169000D01*
X84696500Y-178169000D01*
X84696500Y-185271000D01*
X84696500Y-185271000D01*
G37*
G36*
X87236500Y-185271000D02*
X85483500Y-185271000D01*
X85483500Y-178169000D01*
X87236500Y-178169000D01*
X87236500Y-185271000D01*
X87236500Y-185271000D01*
G37*
G36*
X89776500Y-185271000D02*
X88023500Y-185271000D01*
X88023500Y-178169000D01*
X89776500Y-178169000D01*
X89776500Y-185271000D01*
X89776500Y-185271000D01*
G37*
G36*
X92316500Y-185271000D02*
X90563500Y-185271000D01*
X90563500Y-178169000D01*
X92316500Y-178169000D01*
X92316500Y-185271000D01*
X92316500Y-185271000D01*
G37*
G36*
X94856500Y-185271000D02*
X93103500Y-185271000D01*
X93103500Y-178169000D01*
X94856500Y-178169000D01*
X94856500Y-185271000D01*
X94856500Y-185271000D01*
G37*
G36*
X97396500Y-185271000D02*
X95643500Y-185271000D01*
X95643500Y-178169000D01*
X97396500Y-178169000D01*
X97396500Y-185271000D01*
X97396500Y-185271000D01*
G37*
G36*
X125336500Y-185271000D02*
X123583500Y-185271000D01*
X123583500Y-178169000D01*
X125336500Y-178169000D01*
X125336500Y-185271000D01*
X125336500Y-185271000D01*
G37*
G36*
X143116500Y-185271000D02*
X141363500Y-185271000D01*
X141363500Y-178169000D01*
X143116500Y-178169000D01*
X143116500Y-185271000D01*
X143116500Y-185271000D01*
G37*
G36*
X105016500Y-185271000D02*
X103263500Y-185271000D01*
X103263500Y-178169000D01*
X105016500Y-178169000D01*
X105016500Y-185271000D01*
X105016500Y-185271000D01*
G37*
G36*
X107556500Y-185271000D02*
X105803500Y-185271000D01*
X105803500Y-178169000D01*
X107556500Y-178169000D01*
X107556500Y-185271000D01*
X107556500Y-185271000D01*
G37*
G36*
X110096500Y-185271000D02*
X108343500Y-185271000D01*
X108343500Y-178169000D01*
X110096500Y-178169000D01*
X110096500Y-185271000D01*
X110096500Y-185271000D01*
G37*
G36*
X112636500Y-185271000D02*
X110883500Y-185271000D01*
X110883500Y-178169000D01*
X112636500Y-178169000D01*
X112636500Y-185271000D01*
X112636500Y-185271000D01*
G37*
G36*
X115176500Y-185271000D02*
X113423500Y-185271000D01*
X113423500Y-178169000D01*
X115176500Y-178169000D01*
X115176500Y-185271000D01*
X115176500Y-185271000D01*
G37*
G36*
X117716500Y-185271000D02*
X115963500Y-185271000D01*
X115963500Y-178169000D01*
X117716500Y-178169000D01*
X117716500Y-185271000D01*
X117716500Y-185271000D01*
G37*
G36*
X120256500Y-185271000D02*
X118503500Y-185271000D01*
X118503500Y-178169000D01*
X120256500Y-178169000D01*
X120256500Y-185271000D01*
X120256500Y-185271000D01*
G37*
G36*
X122796500Y-185271000D02*
X121043500Y-185271000D01*
X121043500Y-178169000D01*
X122796500Y-178169000D01*
X122796500Y-185271000D01*
X122796500Y-185271000D01*
G37*
G36*
X99936500Y-185271000D02*
X98183500Y-185271000D01*
X98183500Y-178169000D01*
X99936500Y-178169000D01*
X99936500Y-185271000D01*
X99936500Y-185271000D01*
G37*
G36*
X127876500Y-185271000D02*
X126123500Y-185271000D01*
X126123500Y-178169000D01*
X127876500Y-178169000D01*
X127876500Y-185271000D01*
X127876500Y-185271000D01*
G37*
G36*
X130416500Y-185271000D02*
X128663500Y-185271000D01*
X128663500Y-178169000D01*
X130416500Y-178169000D01*
X130416500Y-185271000D01*
X130416500Y-185271000D01*
G37*
G36*
X132956500Y-185271000D02*
X131203500Y-185271000D01*
X131203500Y-178169000D01*
X132956500Y-178169000D01*
X132956500Y-185271000D01*
X132956500Y-185271000D01*
G37*
G36*
X135496500Y-185271000D02*
X133743500Y-185271000D01*
X133743500Y-178169000D01*
X135496500Y-178169000D01*
X135496500Y-185271000D01*
X135496500Y-185271000D01*
G37*
G36*
X138036500Y-185271000D02*
X136283500Y-185271000D01*
X136283500Y-178169000D01*
X138036500Y-178169000D01*
X138036500Y-185271000D01*
X138036500Y-185271000D01*
G37*
G36*
X140576500Y-185271000D02*
X138823500Y-185271000D01*
X138823500Y-178169000D01*
X140576500Y-178169000D01*
X140576500Y-185271000D01*
X140576500Y-185271000D01*
G37*
G36*
X145656500Y-185271000D02*
X143903500Y-185271000D01*
X143903500Y-178169000D01*
X145656500Y-178169000D01*
X145656500Y-185271000D01*
X145656500Y-185271000D01*
G37*
G36*
X102359999Y-171398644D02*
X102369611Y-171401560D01*
X102378469Y-171406295D01*
X102386237Y-171412670D01*
X102392612Y-171420438D01*
X102397347Y-171429296D01*
X102400263Y-171438908D01*
X102401852Y-171455047D01*
X102401852Y-172592767D01*
X102400263Y-172608906D01*
X102397347Y-172618518D01*
X102392612Y-172627376D01*
X102386237Y-172635144D01*
X102373264Y-172645791D01*
X102364041Y-172651953D01*
X102346713Y-172669280D01*
X102333099Y-172689654D01*
X102323721Y-172712293D01*
X102318939Y-172736326D01*
X102318939Y-172760830D01*
X102323718Y-172784864D01*
X102333095Y-172807503D01*
X102346708Y-172827878D01*
X102364035Y-172845206D01*
X102373327Y-172852090D01*
X102386195Y-172862628D01*
X102386199Y-172862632D01*
X102392581Y-172870391D01*
X102397326Y-172879246D01*
X102400252Y-172888857D01*
X102401247Y-172898907D01*
X102401247Y-172898973D01*
X102401852Y-172905082D01*
X102401852Y-173892767D01*
X102400263Y-173908906D01*
X102397347Y-173918518D01*
X102392612Y-173927376D01*
X102386237Y-173935144D01*
X102378469Y-173941519D01*
X102369611Y-173946254D01*
X102359999Y-173949170D01*
X102343860Y-173950759D01*
X100856140Y-173950759D01*
X100840001Y-173949170D01*
X100830389Y-173946254D01*
X100821531Y-173941519D01*
X100813763Y-173935144D01*
X100807388Y-173927376D01*
X100802653Y-173918518D01*
X100799737Y-173908906D01*
X100798148Y-173892767D01*
X100798148Y-172905047D01*
X100799737Y-172888908D01*
X100802653Y-172879296D01*
X100807388Y-172870438D01*
X100813744Y-172862693D01*
X100813763Y-172862670D01*
X100821573Y-172856267D01*
X100821622Y-172856234D01*
X100831150Y-172848423D01*
X100831125Y-172848393D01*
X100844974Y-172837050D01*
X100860538Y-172818124D01*
X100872111Y-172796525D01*
X100879248Y-172773083D01*
X100881674Y-172748699D01*
X100879296Y-172724310D01*
X100872207Y-172700854D01*
X100860677Y-172679231D01*
X100845150Y-172660274D01*
X100830766Y-172649583D01*
X100830993Y-172649307D01*
X100821489Y-172641491D01*
X100821484Y-172641488D01*
X100813725Y-172635106D01*
X100813721Y-172635102D01*
X100807360Y-172627335D01*
X100802632Y-172618467D01*
X100799718Y-172608825D01*
X100798148Y-172592795D01*
X100798148Y-171455047D01*
X100799737Y-171438908D01*
X100802653Y-171429296D01*
X100807388Y-171420438D01*
X100813763Y-171412670D01*
X100821531Y-171406295D01*
X100830389Y-171401560D01*
X100840001Y-171398644D01*
X100856140Y-171397055D01*
X102343860Y-171397055D01*
X102359999Y-171398644D01*
X102359999Y-171398644D01*
G37*
G36*
X115059999Y-171398644D02*
X115069611Y-171401560D01*
X115078469Y-171406295D01*
X115086237Y-171412670D01*
X115092612Y-171420438D01*
X115097347Y-171429296D01*
X115100263Y-171438908D01*
X115101852Y-171455047D01*
X115101852Y-172592767D01*
X115100263Y-172608906D01*
X115097347Y-172618518D01*
X115092612Y-172627376D01*
X115086237Y-172635144D01*
X115073264Y-172645791D01*
X115064041Y-172651953D01*
X115046713Y-172669280D01*
X115033099Y-172689654D01*
X115023721Y-172712293D01*
X115018939Y-172736326D01*
X115018939Y-172760830D01*
X115023718Y-172784864D01*
X115033095Y-172807503D01*
X115046708Y-172827878D01*
X115064035Y-172845206D01*
X115073327Y-172852090D01*
X115086195Y-172862628D01*
X115086199Y-172862632D01*
X115092581Y-172870391D01*
X115097326Y-172879246D01*
X115100252Y-172888857D01*
X115101247Y-172898907D01*
X115101247Y-172898973D01*
X115101852Y-172905082D01*
X115101852Y-173892767D01*
X115100263Y-173908906D01*
X115097347Y-173918518D01*
X115092612Y-173927376D01*
X115086237Y-173935144D01*
X115078469Y-173941519D01*
X115069611Y-173946254D01*
X115059999Y-173949170D01*
X115043860Y-173950759D01*
X113556140Y-173950759D01*
X113540001Y-173949170D01*
X113530389Y-173946254D01*
X113521531Y-173941519D01*
X113513763Y-173935144D01*
X113507388Y-173927376D01*
X113502653Y-173918518D01*
X113499737Y-173908906D01*
X113498148Y-173892767D01*
X113498148Y-172905047D01*
X113499737Y-172888908D01*
X113502653Y-172879296D01*
X113507388Y-172870438D01*
X113513744Y-172862693D01*
X113513763Y-172862670D01*
X113521573Y-172856267D01*
X113521622Y-172856234D01*
X113531150Y-172848423D01*
X113531125Y-172848393D01*
X113544974Y-172837050D01*
X113560538Y-172818124D01*
X113572111Y-172796525D01*
X113579248Y-172773083D01*
X113581674Y-172748699D01*
X113579296Y-172724310D01*
X113572207Y-172700854D01*
X113560677Y-172679231D01*
X113545150Y-172660274D01*
X113530766Y-172649583D01*
X113530993Y-172649307D01*
X113521489Y-172641491D01*
X113521484Y-172641488D01*
X113513725Y-172635106D01*
X113513721Y-172635102D01*
X113507360Y-172627335D01*
X113502632Y-172618467D01*
X113499718Y-172608825D01*
X113498148Y-172592795D01*
X113498148Y-171455047D01*
X113499737Y-171438908D01*
X113502653Y-171429296D01*
X113507388Y-171420438D01*
X113513763Y-171412670D01*
X113521531Y-171406295D01*
X113530389Y-171401560D01*
X113540001Y-171398644D01*
X113556140Y-171397055D01*
X115043860Y-171397055D01*
X115059999Y-171398644D01*
X115059999Y-171398644D01*
G37*
G36*
X112519999Y-171398644D02*
X112529611Y-171401560D01*
X112538469Y-171406295D01*
X112546237Y-171412670D01*
X112552612Y-171420438D01*
X112557347Y-171429296D01*
X112560263Y-171438908D01*
X112561852Y-171455047D01*
X112561852Y-172592767D01*
X112560263Y-172608906D01*
X112557347Y-172618518D01*
X112552612Y-172627376D01*
X112546237Y-172635144D01*
X112533264Y-172645791D01*
X112524041Y-172651953D01*
X112506713Y-172669280D01*
X112493099Y-172689654D01*
X112483721Y-172712293D01*
X112478939Y-172736326D01*
X112478939Y-172760830D01*
X112483718Y-172784864D01*
X112493095Y-172807503D01*
X112506708Y-172827878D01*
X112524035Y-172845206D01*
X112533327Y-172852090D01*
X112546195Y-172862628D01*
X112546199Y-172862632D01*
X112552581Y-172870391D01*
X112557326Y-172879246D01*
X112560252Y-172888857D01*
X112561247Y-172898907D01*
X112561247Y-172898973D01*
X112561852Y-172905082D01*
X112561852Y-173892767D01*
X112560263Y-173908906D01*
X112557347Y-173918518D01*
X112552612Y-173927376D01*
X112546237Y-173935144D01*
X112538469Y-173941519D01*
X112529611Y-173946254D01*
X112519999Y-173949170D01*
X112503860Y-173950759D01*
X111016140Y-173950759D01*
X111000001Y-173949170D01*
X110990389Y-173946254D01*
X110981531Y-173941519D01*
X110973763Y-173935144D01*
X110967388Y-173927376D01*
X110962653Y-173918518D01*
X110959737Y-173908906D01*
X110958148Y-173892767D01*
X110958148Y-172905047D01*
X110959737Y-172888908D01*
X110962653Y-172879296D01*
X110967388Y-172870438D01*
X110973744Y-172862693D01*
X110973763Y-172862670D01*
X110981573Y-172856267D01*
X110981622Y-172856234D01*
X110991150Y-172848423D01*
X110991125Y-172848393D01*
X111004974Y-172837050D01*
X111020538Y-172818124D01*
X111032111Y-172796525D01*
X111039248Y-172773083D01*
X111041674Y-172748699D01*
X111039296Y-172724310D01*
X111032207Y-172700854D01*
X111020677Y-172679231D01*
X111005150Y-172660274D01*
X110990766Y-172649583D01*
X110990993Y-172649307D01*
X110981489Y-172641491D01*
X110981484Y-172641488D01*
X110973725Y-172635106D01*
X110973721Y-172635102D01*
X110967360Y-172627335D01*
X110962632Y-172618467D01*
X110959718Y-172608825D01*
X110958148Y-172592795D01*
X110958148Y-171455047D01*
X110959737Y-171438908D01*
X110962653Y-171429296D01*
X110967388Y-171420438D01*
X110973763Y-171412670D01*
X110981531Y-171406295D01*
X110990389Y-171401560D01*
X111000001Y-171398644D01*
X111016140Y-171397055D01*
X112503860Y-171397055D01*
X112519999Y-171398644D01*
X112519999Y-171398644D01*
G37*
G36*
X109979999Y-171398644D02*
X109989611Y-171401560D01*
X109998469Y-171406295D01*
X110006237Y-171412670D01*
X110012612Y-171420438D01*
X110017347Y-171429296D01*
X110020263Y-171438908D01*
X110021852Y-171455047D01*
X110021852Y-172592767D01*
X110020263Y-172608906D01*
X110017347Y-172618518D01*
X110012612Y-172627376D01*
X110006237Y-172635144D01*
X109993264Y-172645791D01*
X109984041Y-172651953D01*
X109966713Y-172669280D01*
X109953099Y-172689654D01*
X109943721Y-172712293D01*
X109938939Y-172736326D01*
X109938939Y-172760830D01*
X109943718Y-172784864D01*
X109953095Y-172807503D01*
X109966708Y-172827878D01*
X109984035Y-172845206D01*
X109993327Y-172852090D01*
X110006195Y-172862628D01*
X110006199Y-172862632D01*
X110012581Y-172870391D01*
X110017326Y-172879246D01*
X110020252Y-172888857D01*
X110021247Y-172898907D01*
X110021247Y-172898973D01*
X110021852Y-172905082D01*
X110021852Y-173892767D01*
X110020263Y-173908906D01*
X110017347Y-173918518D01*
X110012612Y-173927376D01*
X110006237Y-173935144D01*
X109998469Y-173941519D01*
X109989611Y-173946254D01*
X109979999Y-173949170D01*
X109963860Y-173950759D01*
X108476140Y-173950759D01*
X108460001Y-173949170D01*
X108450389Y-173946254D01*
X108441531Y-173941519D01*
X108433763Y-173935144D01*
X108427388Y-173927376D01*
X108422653Y-173918518D01*
X108419737Y-173908906D01*
X108418148Y-173892767D01*
X108418148Y-172905047D01*
X108419737Y-172888908D01*
X108422653Y-172879296D01*
X108427388Y-172870438D01*
X108433744Y-172862693D01*
X108433763Y-172862670D01*
X108441573Y-172856267D01*
X108441622Y-172856234D01*
X108451150Y-172848423D01*
X108451125Y-172848393D01*
X108464974Y-172837050D01*
X108480538Y-172818124D01*
X108492111Y-172796525D01*
X108499248Y-172773083D01*
X108501674Y-172748699D01*
X108499296Y-172724310D01*
X108492207Y-172700854D01*
X108480677Y-172679231D01*
X108465150Y-172660274D01*
X108450766Y-172649583D01*
X108450993Y-172649307D01*
X108441489Y-172641491D01*
X108441484Y-172641488D01*
X108433725Y-172635106D01*
X108433721Y-172635102D01*
X108427360Y-172627335D01*
X108422632Y-172618467D01*
X108419718Y-172608825D01*
X108418148Y-172592795D01*
X108418148Y-171455047D01*
X108419737Y-171438908D01*
X108422653Y-171429296D01*
X108427388Y-171420438D01*
X108433763Y-171412670D01*
X108441531Y-171406295D01*
X108450389Y-171401560D01*
X108460001Y-171398644D01*
X108476140Y-171397055D01*
X109963860Y-171397055D01*
X109979999Y-171398644D01*
X109979999Y-171398644D01*
G37*
G36*
X107439999Y-171398644D02*
X107449611Y-171401560D01*
X107458469Y-171406295D01*
X107466237Y-171412670D01*
X107472612Y-171420438D01*
X107477347Y-171429296D01*
X107480263Y-171438908D01*
X107481852Y-171455047D01*
X107481852Y-172592767D01*
X107480263Y-172608906D01*
X107477347Y-172618518D01*
X107472612Y-172627376D01*
X107466237Y-172635144D01*
X107453264Y-172645791D01*
X107444041Y-172651953D01*
X107426713Y-172669280D01*
X107413099Y-172689654D01*
X107403721Y-172712293D01*
X107398939Y-172736326D01*
X107398939Y-172760830D01*
X107403718Y-172784864D01*
X107413095Y-172807503D01*
X107426708Y-172827878D01*
X107444035Y-172845206D01*
X107453327Y-172852090D01*
X107466195Y-172862628D01*
X107466199Y-172862632D01*
X107472581Y-172870391D01*
X107477326Y-172879246D01*
X107480252Y-172888857D01*
X107481247Y-172898907D01*
X107481247Y-172898973D01*
X107481852Y-172905082D01*
X107481852Y-173892767D01*
X107480263Y-173908906D01*
X107477347Y-173918518D01*
X107472612Y-173927376D01*
X107466237Y-173935144D01*
X107458469Y-173941519D01*
X107449611Y-173946254D01*
X107439999Y-173949170D01*
X107423860Y-173950759D01*
X105936140Y-173950759D01*
X105920001Y-173949170D01*
X105910389Y-173946254D01*
X105901531Y-173941519D01*
X105893763Y-173935144D01*
X105887388Y-173927376D01*
X105882653Y-173918518D01*
X105879737Y-173908906D01*
X105878148Y-173892767D01*
X105878148Y-172905047D01*
X105879737Y-172888908D01*
X105882653Y-172879296D01*
X105887388Y-172870438D01*
X105893744Y-172862693D01*
X105893763Y-172862670D01*
X105901573Y-172856267D01*
X105901622Y-172856234D01*
X105911150Y-172848423D01*
X105911125Y-172848393D01*
X105924974Y-172837050D01*
X105940538Y-172818124D01*
X105952111Y-172796525D01*
X105959248Y-172773083D01*
X105961674Y-172748699D01*
X105959296Y-172724310D01*
X105952207Y-172700854D01*
X105940677Y-172679231D01*
X105925150Y-172660274D01*
X105910766Y-172649583D01*
X105910993Y-172649307D01*
X105901489Y-172641491D01*
X105901484Y-172641488D01*
X105893725Y-172635106D01*
X105893721Y-172635102D01*
X105887360Y-172627335D01*
X105882632Y-172618467D01*
X105879718Y-172608825D01*
X105878148Y-172592795D01*
X105878148Y-171455047D01*
X105879737Y-171438908D01*
X105882653Y-171429296D01*
X105887388Y-171420438D01*
X105893763Y-171412670D01*
X105901531Y-171406295D01*
X105910389Y-171401560D01*
X105920001Y-171398644D01*
X105936140Y-171397055D01*
X107423860Y-171397055D01*
X107439999Y-171398644D01*
X107439999Y-171398644D01*
G37*
G36*
X104899999Y-171398644D02*
X104909611Y-171401560D01*
X104918469Y-171406295D01*
X104926237Y-171412670D01*
X104932612Y-171420438D01*
X104937347Y-171429296D01*
X104940263Y-171438908D01*
X104941852Y-171455047D01*
X104941852Y-172592767D01*
X104940263Y-172608906D01*
X104937347Y-172618518D01*
X104932612Y-172627376D01*
X104926237Y-172635144D01*
X104913264Y-172645791D01*
X104904041Y-172651953D01*
X104886713Y-172669280D01*
X104873099Y-172689654D01*
X104863721Y-172712293D01*
X104858939Y-172736326D01*
X104858939Y-172760830D01*
X104863718Y-172784864D01*
X104873095Y-172807503D01*
X104886708Y-172827878D01*
X104904035Y-172845206D01*
X104913327Y-172852090D01*
X104926195Y-172862628D01*
X104926199Y-172862632D01*
X104932581Y-172870391D01*
X104937326Y-172879246D01*
X104940252Y-172888857D01*
X104941247Y-172898907D01*
X104941247Y-172898973D01*
X104941852Y-172905082D01*
X104941852Y-173892767D01*
X104940263Y-173908906D01*
X104937347Y-173918518D01*
X104932612Y-173927376D01*
X104926237Y-173935144D01*
X104918469Y-173941519D01*
X104909611Y-173946254D01*
X104899999Y-173949170D01*
X104883860Y-173950759D01*
X103396140Y-173950759D01*
X103380001Y-173949170D01*
X103370389Y-173946254D01*
X103361531Y-173941519D01*
X103353763Y-173935144D01*
X103347388Y-173927376D01*
X103342653Y-173918518D01*
X103339737Y-173908906D01*
X103338148Y-173892767D01*
X103338148Y-172905047D01*
X103339737Y-172888908D01*
X103342653Y-172879296D01*
X103347388Y-172870438D01*
X103353744Y-172862693D01*
X103353763Y-172862670D01*
X103361573Y-172856267D01*
X103361622Y-172856234D01*
X103371150Y-172848423D01*
X103371125Y-172848393D01*
X103384974Y-172837050D01*
X103400538Y-172818124D01*
X103412111Y-172796525D01*
X103419248Y-172773083D01*
X103421674Y-172748699D01*
X103419296Y-172724310D01*
X103412207Y-172700854D01*
X103400677Y-172679231D01*
X103385150Y-172660274D01*
X103370766Y-172649583D01*
X103370993Y-172649307D01*
X103361489Y-172641491D01*
X103361484Y-172641488D01*
X103353725Y-172635106D01*
X103353721Y-172635102D01*
X103347360Y-172627335D01*
X103342632Y-172618467D01*
X103339718Y-172608825D01*
X103338148Y-172592795D01*
X103338148Y-171455047D01*
X103339737Y-171438908D01*
X103342653Y-171429296D01*
X103347388Y-171420438D01*
X103353763Y-171412670D01*
X103361531Y-171406295D01*
X103370389Y-171401560D01*
X103380001Y-171398644D01*
X103396140Y-171397055D01*
X104883860Y-171397055D01*
X104899999Y-171398644D01*
X104899999Y-171398644D01*
G37*
G36*
X99819999Y-171398644D02*
X99829611Y-171401560D01*
X99838469Y-171406295D01*
X99846237Y-171412670D01*
X99852612Y-171420438D01*
X99857347Y-171429296D01*
X99860263Y-171438908D01*
X99861852Y-171455047D01*
X99861852Y-172592767D01*
X99860263Y-172608906D01*
X99857347Y-172618518D01*
X99852612Y-172627376D01*
X99846237Y-172635144D01*
X99833264Y-172645791D01*
X99824041Y-172651953D01*
X99806713Y-172669280D01*
X99793099Y-172689654D01*
X99783721Y-172712293D01*
X99778939Y-172736326D01*
X99778939Y-172760830D01*
X99783718Y-172784864D01*
X99793095Y-172807503D01*
X99806708Y-172827878D01*
X99824035Y-172845206D01*
X99833327Y-172852090D01*
X99846195Y-172862628D01*
X99846199Y-172862632D01*
X99852581Y-172870391D01*
X99857326Y-172879246D01*
X99860252Y-172888857D01*
X99861247Y-172898907D01*
X99861247Y-172898973D01*
X99861852Y-172905082D01*
X99861852Y-173892767D01*
X99860263Y-173908906D01*
X99857347Y-173918518D01*
X99852612Y-173927376D01*
X99846237Y-173935144D01*
X99838469Y-173941519D01*
X99829611Y-173946254D01*
X99819999Y-173949170D01*
X99803860Y-173950759D01*
X98316140Y-173950759D01*
X98300001Y-173949170D01*
X98290389Y-173946254D01*
X98281531Y-173941519D01*
X98273763Y-173935144D01*
X98267388Y-173927376D01*
X98262653Y-173918518D01*
X98259737Y-173908906D01*
X98258148Y-173892767D01*
X98258148Y-172905047D01*
X98259737Y-172888908D01*
X98262653Y-172879296D01*
X98267388Y-172870438D01*
X98273744Y-172862693D01*
X98273763Y-172862670D01*
X98281573Y-172856267D01*
X98281622Y-172856234D01*
X98291150Y-172848423D01*
X98291125Y-172848393D01*
X98304974Y-172837050D01*
X98320538Y-172818124D01*
X98332111Y-172796525D01*
X98339248Y-172773083D01*
X98341674Y-172748699D01*
X98339296Y-172724310D01*
X98332207Y-172700854D01*
X98320677Y-172679231D01*
X98305150Y-172660274D01*
X98290766Y-172649583D01*
X98290993Y-172649307D01*
X98281489Y-172641491D01*
X98281484Y-172641488D01*
X98273725Y-172635106D01*
X98273721Y-172635102D01*
X98267360Y-172627335D01*
X98262632Y-172618467D01*
X98259718Y-172608825D01*
X98258148Y-172592795D01*
X98258148Y-171455047D01*
X98259737Y-171438908D01*
X98262653Y-171429296D01*
X98267388Y-171420438D01*
X98273763Y-171412670D01*
X98281531Y-171406295D01*
X98290389Y-171401560D01*
X98300001Y-171398644D01*
X98316140Y-171397055D01*
X99803860Y-171397055D01*
X99819999Y-171398644D01*
X99819999Y-171398644D01*
G37*
G36*
X97279999Y-171398644D02*
X97289611Y-171401560D01*
X97298469Y-171406295D01*
X97306237Y-171412670D01*
X97312612Y-171420438D01*
X97317347Y-171429296D01*
X97320263Y-171438908D01*
X97321852Y-171455047D01*
X97321852Y-172592767D01*
X97320263Y-172608906D01*
X97317347Y-172618518D01*
X97312612Y-172627376D01*
X97306237Y-172635144D01*
X97293264Y-172645791D01*
X97284041Y-172651953D01*
X97266713Y-172669280D01*
X97253099Y-172689654D01*
X97243721Y-172712293D01*
X97238939Y-172736326D01*
X97238939Y-172760830D01*
X97243718Y-172784864D01*
X97253095Y-172807503D01*
X97266708Y-172827878D01*
X97284035Y-172845206D01*
X97293327Y-172852090D01*
X97306195Y-172862628D01*
X97306199Y-172862632D01*
X97312581Y-172870391D01*
X97317326Y-172879246D01*
X97320252Y-172888857D01*
X97321247Y-172898907D01*
X97321247Y-172898973D01*
X97321852Y-172905082D01*
X97321852Y-173892767D01*
X97320263Y-173908906D01*
X97317347Y-173918518D01*
X97312612Y-173927376D01*
X97306237Y-173935144D01*
X97298469Y-173941519D01*
X97289611Y-173946254D01*
X97279999Y-173949170D01*
X97263860Y-173950759D01*
X95776140Y-173950759D01*
X95760001Y-173949170D01*
X95750389Y-173946254D01*
X95741531Y-173941519D01*
X95733763Y-173935144D01*
X95727388Y-173927376D01*
X95722653Y-173918518D01*
X95719737Y-173908906D01*
X95718148Y-173892767D01*
X95718148Y-172905047D01*
X95719737Y-172888908D01*
X95722653Y-172879296D01*
X95727388Y-172870438D01*
X95733744Y-172862693D01*
X95733763Y-172862670D01*
X95741573Y-172856267D01*
X95741622Y-172856234D01*
X95751150Y-172848423D01*
X95751125Y-172848393D01*
X95764974Y-172837050D01*
X95780538Y-172818124D01*
X95792111Y-172796525D01*
X95799248Y-172773083D01*
X95801674Y-172748699D01*
X95799296Y-172724310D01*
X95792207Y-172700854D01*
X95780677Y-172679231D01*
X95765150Y-172660274D01*
X95750766Y-172649583D01*
X95750993Y-172649307D01*
X95741489Y-172641491D01*
X95741484Y-172641488D01*
X95733725Y-172635106D01*
X95733721Y-172635102D01*
X95727360Y-172627335D01*
X95722632Y-172618467D01*
X95719718Y-172608825D01*
X95718148Y-172592795D01*
X95718148Y-171455047D01*
X95719737Y-171438908D01*
X95722653Y-171429296D01*
X95727388Y-171420438D01*
X95733763Y-171412670D01*
X95741531Y-171406295D01*
X95750389Y-171401560D01*
X95760001Y-171398644D01*
X95776140Y-171397055D01*
X97263860Y-171397055D01*
X97279999Y-171398644D01*
X97279999Y-171398644D01*
G37*
G36*
X94739999Y-171398644D02*
X94749611Y-171401560D01*
X94758469Y-171406295D01*
X94766237Y-171412670D01*
X94772612Y-171420438D01*
X94777347Y-171429296D01*
X94780263Y-171438908D01*
X94781852Y-171455047D01*
X94781852Y-172592767D01*
X94780263Y-172608906D01*
X94777347Y-172618518D01*
X94772612Y-172627376D01*
X94766237Y-172635144D01*
X94753264Y-172645791D01*
X94744041Y-172651953D01*
X94726713Y-172669280D01*
X94713099Y-172689654D01*
X94703721Y-172712293D01*
X94698939Y-172736326D01*
X94698939Y-172760830D01*
X94703718Y-172784864D01*
X94713095Y-172807503D01*
X94726708Y-172827878D01*
X94744035Y-172845206D01*
X94753327Y-172852090D01*
X94766195Y-172862628D01*
X94766199Y-172862632D01*
X94772581Y-172870391D01*
X94777326Y-172879246D01*
X94780252Y-172888857D01*
X94781247Y-172898907D01*
X94781247Y-172898973D01*
X94781852Y-172905082D01*
X94781852Y-173892767D01*
X94780263Y-173908906D01*
X94777347Y-173918518D01*
X94772612Y-173927376D01*
X94766237Y-173935144D01*
X94758469Y-173941519D01*
X94749611Y-173946254D01*
X94739999Y-173949170D01*
X94723860Y-173950759D01*
X93236140Y-173950759D01*
X93220001Y-173949170D01*
X93210389Y-173946254D01*
X93201531Y-173941519D01*
X93193763Y-173935144D01*
X93187388Y-173927376D01*
X93182653Y-173918518D01*
X93179737Y-173908906D01*
X93178148Y-173892767D01*
X93178148Y-172905047D01*
X93179737Y-172888908D01*
X93182653Y-172879296D01*
X93187388Y-172870438D01*
X93193744Y-172862693D01*
X93193763Y-172862670D01*
X93201573Y-172856267D01*
X93201622Y-172856234D01*
X93211150Y-172848423D01*
X93211125Y-172848393D01*
X93224974Y-172837050D01*
X93240538Y-172818124D01*
X93252111Y-172796525D01*
X93259248Y-172773083D01*
X93261674Y-172748699D01*
X93259296Y-172724310D01*
X93252207Y-172700854D01*
X93240677Y-172679231D01*
X93225150Y-172660274D01*
X93210766Y-172649583D01*
X93210993Y-172649307D01*
X93201489Y-172641491D01*
X93201484Y-172641488D01*
X93193725Y-172635106D01*
X93193721Y-172635102D01*
X93187360Y-172627335D01*
X93182632Y-172618467D01*
X93179718Y-172608825D01*
X93178148Y-172592795D01*
X93178148Y-171455047D01*
X93179737Y-171438908D01*
X93182653Y-171429296D01*
X93187388Y-171420438D01*
X93193763Y-171412670D01*
X93201531Y-171406295D01*
X93210389Y-171401560D01*
X93220001Y-171398644D01*
X93236140Y-171397055D01*
X94723860Y-171397055D01*
X94739999Y-171398644D01*
X94739999Y-171398644D01*
G37*
G36*
X120139999Y-171398644D02*
X120149611Y-171401560D01*
X120158469Y-171406295D01*
X120166237Y-171412670D01*
X120172612Y-171420438D01*
X120177347Y-171429296D01*
X120180263Y-171438908D01*
X120181852Y-171455047D01*
X120181852Y-172592767D01*
X120180263Y-172608906D01*
X120177347Y-172618518D01*
X120172612Y-172627376D01*
X120166237Y-172635144D01*
X120153264Y-172645791D01*
X120144041Y-172651953D01*
X120126713Y-172669280D01*
X120113099Y-172689654D01*
X120103721Y-172712293D01*
X120098939Y-172736326D01*
X120098939Y-172760830D01*
X120103718Y-172784864D01*
X120113095Y-172807503D01*
X120126708Y-172827878D01*
X120144035Y-172845206D01*
X120153327Y-172852090D01*
X120166195Y-172862628D01*
X120166199Y-172862632D01*
X120172581Y-172870391D01*
X120177326Y-172879246D01*
X120180252Y-172888857D01*
X120181247Y-172898907D01*
X120181247Y-172898973D01*
X120181852Y-172905082D01*
X120181852Y-173892767D01*
X120180263Y-173908906D01*
X120177347Y-173918518D01*
X120172612Y-173927376D01*
X120166237Y-173935144D01*
X120158469Y-173941519D01*
X120149611Y-173946254D01*
X120139999Y-173949170D01*
X120123860Y-173950759D01*
X118636140Y-173950759D01*
X118620001Y-173949170D01*
X118610389Y-173946254D01*
X118601531Y-173941519D01*
X118593763Y-173935144D01*
X118587388Y-173927376D01*
X118582653Y-173918518D01*
X118579737Y-173908906D01*
X118578148Y-173892767D01*
X118578148Y-172905047D01*
X118579737Y-172888908D01*
X118582653Y-172879296D01*
X118587388Y-172870438D01*
X118593744Y-172862693D01*
X118593763Y-172862670D01*
X118601573Y-172856267D01*
X118601622Y-172856234D01*
X118611150Y-172848423D01*
X118611125Y-172848393D01*
X118624974Y-172837050D01*
X118640538Y-172818124D01*
X118652111Y-172796525D01*
X118659248Y-172773083D01*
X118661674Y-172748699D01*
X118659296Y-172724310D01*
X118652207Y-172700854D01*
X118640677Y-172679231D01*
X118625150Y-172660274D01*
X118610766Y-172649583D01*
X118610993Y-172649307D01*
X118601489Y-172641491D01*
X118601484Y-172641488D01*
X118593725Y-172635106D01*
X118593721Y-172635102D01*
X118587360Y-172627335D01*
X118582632Y-172618467D01*
X118579718Y-172608825D01*
X118578148Y-172592795D01*
X118578148Y-171455047D01*
X118579737Y-171438908D01*
X118582653Y-171429296D01*
X118587388Y-171420438D01*
X118593763Y-171412670D01*
X118601531Y-171406295D01*
X118610389Y-171401560D01*
X118620001Y-171398644D01*
X118636140Y-171397055D01*
X120123860Y-171397055D01*
X120139999Y-171398644D01*
X120139999Y-171398644D01*
G37*
G36*
X122679999Y-171398644D02*
X122689611Y-171401560D01*
X122698469Y-171406295D01*
X122706237Y-171412670D01*
X122712612Y-171420438D01*
X122717347Y-171429296D01*
X122720263Y-171438908D01*
X122721852Y-171455047D01*
X122721852Y-172592767D01*
X122720263Y-172608906D01*
X122717347Y-172618518D01*
X122712612Y-172627376D01*
X122706237Y-172635144D01*
X122693264Y-172645791D01*
X122684041Y-172651953D01*
X122666713Y-172669280D01*
X122653099Y-172689654D01*
X122643721Y-172712293D01*
X122638939Y-172736326D01*
X122638939Y-172760830D01*
X122643718Y-172784864D01*
X122653095Y-172807503D01*
X122666708Y-172827878D01*
X122684035Y-172845206D01*
X122693327Y-172852090D01*
X122706195Y-172862628D01*
X122706199Y-172862632D01*
X122712581Y-172870391D01*
X122717326Y-172879246D01*
X122720252Y-172888857D01*
X122721247Y-172898907D01*
X122721247Y-172898973D01*
X122721852Y-172905082D01*
X122721852Y-173892767D01*
X122720263Y-173908906D01*
X122717347Y-173918518D01*
X122712612Y-173927376D01*
X122706237Y-173935144D01*
X122698469Y-173941519D01*
X122689611Y-173946254D01*
X122679999Y-173949170D01*
X122663860Y-173950759D01*
X121176140Y-173950759D01*
X121160001Y-173949170D01*
X121150389Y-173946254D01*
X121141531Y-173941519D01*
X121133763Y-173935144D01*
X121127388Y-173927376D01*
X121122653Y-173918518D01*
X121119737Y-173908906D01*
X121118148Y-173892767D01*
X121118148Y-172905047D01*
X121119737Y-172888908D01*
X121122653Y-172879296D01*
X121127388Y-172870438D01*
X121133744Y-172862693D01*
X121133763Y-172862670D01*
X121141573Y-172856267D01*
X121141622Y-172856234D01*
X121151150Y-172848423D01*
X121151125Y-172848393D01*
X121164974Y-172837050D01*
X121180538Y-172818124D01*
X121192111Y-172796525D01*
X121199248Y-172773083D01*
X121201674Y-172748699D01*
X121199296Y-172724310D01*
X121192207Y-172700854D01*
X121180677Y-172679231D01*
X121165150Y-172660274D01*
X121150766Y-172649583D01*
X121150993Y-172649307D01*
X121141489Y-172641491D01*
X121141484Y-172641488D01*
X121133725Y-172635106D01*
X121133721Y-172635102D01*
X121127360Y-172627335D01*
X121122632Y-172618467D01*
X121119718Y-172608825D01*
X121118148Y-172592795D01*
X121118148Y-171455047D01*
X121119737Y-171438908D01*
X121122653Y-171429296D01*
X121127388Y-171420438D01*
X121133763Y-171412670D01*
X121141531Y-171406295D01*
X121150389Y-171401560D01*
X121160001Y-171398644D01*
X121176140Y-171397055D01*
X122663860Y-171397055D01*
X122679999Y-171398644D01*
X122679999Y-171398644D01*
G37*
G36*
X117599999Y-171398644D02*
X117609611Y-171401560D01*
X117618469Y-171406295D01*
X117626237Y-171412670D01*
X117632612Y-171420438D01*
X117637347Y-171429296D01*
X117640263Y-171438908D01*
X117641852Y-171455047D01*
X117641852Y-172592767D01*
X117640263Y-172608906D01*
X117637347Y-172618518D01*
X117632612Y-172627376D01*
X117626237Y-172635144D01*
X117613264Y-172645791D01*
X117604041Y-172651953D01*
X117586713Y-172669280D01*
X117573099Y-172689654D01*
X117563721Y-172712293D01*
X117558939Y-172736326D01*
X117558939Y-172760830D01*
X117563718Y-172784864D01*
X117573095Y-172807503D01*
X117586708Y-172827878D01*
X117604035Y-172845206D01*
X117613327Y-172852090D01*
X117626195Y-172862628D01*
X117626199Y-172862632D01*
X117632581Y-172870391D01*
X117637326Y-172879246D01*
X117640252Y-172888857D01*
X117641247Y-172898907D01*
X117641247Y-172898973D01*
X117641852Y-172905082D01*
X117641852Y-173892767D01*
X117640263Y-173908906D01*
X117637347Y-173918518D01*
X117632612Y-173927376D01*
X117626237Y-173935144D01*
X117618469Y-173941519D01*
X117609611Y-173946254D01*
X117599999Y-173949170D01*
X117583860Y-173950759D01*
X116096140Y-173950759D01*
X116080001Y-173949170D01*
X116070389Y-173946254D01*
X116061531Y-173941519D01*
X116053763Y-173935144D01*
X116047388Y-173927376D01*
X116042653Y-173918518D01*
X116039737Y-173908906D01*
X116038148Y-173892767D01*
X116038148Y-172905047D01*
X116039737Y-172888908D01*
X116042653Y-172879296D01*
X116047388Y-172870438D01*
X116053744Y-172862693D01*
X116053763Y-172862670D01*
X116061573Y-172856267D01*
X116061622Y-172856234D01*
X116071150Y-172848423D01*
X116071125Y-172848393D01*
X116084974Y-172837050D01*
X116100538Y-172818124D01*
X116112111Y-172796525D01*
X116119248Y-172773083D01*
X116121674Y-172748699D01*
X116119296Y-172724310D01*
X116112207Y-172700854D01*
X116100677Y-172679231D01*
X116085150Y-172660274D01*
X116070766Y-172649583D01*
X116070993Y-172649307D01*
X116061489Y-172641491D01*
X116061484Y-172641488D01*
X116053725Y-172635106D01*
X116053721Y-172635102D01*
X116047360Y-172627335D01*
X116042632Y-172618467D01*
X116039718Y-172608825D01*
X116038148Y-172592795D01*
X116038148Y-171455047D01*
X116039737Y-171438908D01*
X116042653Y-171429296D01*
X116047388Y-171420438D01*
X116053763Y-171412670D01*
X116061531Y-171406295D01*
X116070389Y-171401560D01*
X116080001Y-171398644D01*
X116096140Y-171397055D01*
X117583860Y-171397055D01*
X117599999Y-171398644D01*
X117599999Y-171398644D01*
G37*
G36*
X66206821Y-161721313D02*
X66206824Y-161721314D01*
X66206825Y-161721314D01*
X66367239Y-161769975D01*
X66367241Y-161769976D01*
X66367244Y-161769977D01*
X66515078Y-161848995D01*
X66644659Y-161955341D01*
X66751005Y-162084922D01*
X66830023Y-162232756D01*
X66878687Y-162393179D01*
X66895117Y-162560000D01*
X66878687Y-162726821D01*
X66830023Y-162887244D01*
X66751005Y-163035078D01*
X66644659Y-163164659D01*
X66515078Y-163271005D01*
X66367244Y-163350023D01*
X66367241Y-163350024D01*
X66367239Y-163350025D01*
X66206825Y-163398686D01*
X66206824Y-163398686D01*
X66206821Y-163398687D01*
X66081804Y-163411000D01*
X65998196Y-163411000D01*
X65873179Y-163398687D01*
X65873176Y-163398686D01*
X65873175Y-163398686D01*
X65712761Y-163350025D01*
X65712759Y-163350024D01*
X65712756Y-163350023D01*
X65564922Y-163271005D01*
X65435341Y-163164659D01*
X65328995Y-163035078D01*
X65249977Y-162887244D01*
X65201313Y-162726821D01*
X65184883Y-162560000D01*
X65201313Y-162393179D01*
X65249977Y-162232756D01*
X65328995Y-162084922D01*
X65435341Y-161955341D01*
X65564922Y-161848995D01*
X65712756Y-161769977D01*
X65712759Y-161769976D01*
X65712761Y-161769975D01*
X65873175Y-161721314D01*
X65873176Y-161721314D01*
X65873179Y-161721313D01*
X65998196Y-161709000D01*
X66081804Y-161709000D01*
X66206821Y-161721313D01*
X66206821Y-161721313D01*
G37*
G36*
X73826821Y-161721313D02*
X73826824Y-161721314D01*
X73826825Y-161721314D01*
X73987239Y-161769975D01*
X73987241Y-161769976D01*
X73987244Y-161769977D01*
X74135078Y-161848995D01*
X74264659Y-161955341D01*
X74371005Y-162084922D01*
X74450023Y-162232756D01*
X74498687Y-162393179D01*
X74515117Y-162560000D01*
X74498687Y-162726821D01*
X74450023Y-162887244D01*
X74371005Y-163035078D01*
X74264659Y-163164659D01*
X74135078Y-163271005D01*
X73987244Y-163350023D01*
X73987241Y-163350024D01*
X73987239Y-163350025D01*
X73826825Y-163398686D01*
X73826824Y-163398686D01*
X73826821Y-163398687D01*
X73701804Y-163411000D01*
X73618196Y-163411000D01*
X73493179Y-163398687D01*
X73493176Y-163398686D01*
X73493175Y-163398686D01*
X73332761Y-163350025D01*
X73332759Y-163350024D01*
X73332756Y-163350023D01*
X73184922Y-163271005D01*
X73055341Y-163164659D01*
X72948995Y-163035078D01*
X72869977Y-162887244D01*
X72821313Y-162726821D01*
X72804883Y-162560000D01*
X72821313Y-162393179D01*
X72869977Y-162232756D01*
X72948995Y-162084922D01*
X73055341Y-161955341D01*
X73184922Y-161848995D01*
X73332756Y-161769977D01*
X73332759Y-161769976D01*
X73332761Y-161769975D01*
X73493175Y-161721314D01*
X73493176Y-161721314D01*
X73493179Y-161721313D01*
X73618196Y-161709000D01*
X73701804Y-161709000D01*
X73826821Y-161721313D01*
X73826821Y-161721313D01*
G37*
G36*
X94146821Y-159181313D02*
X94146824Y-159181314D01*
X94146825Y-159181314D01*
X94307239Y-159229975D01*
X94307241Y-159229976D01*
X94307244Y-159229977D01*
X94455078Y-159308995D01*
X94584659Y-159415341D01*
X94691005Y-159544922D01*
X94770023Y-159692756D01*
X94818687Y-159853179D01*
X94835117Y-160020000D01*
X94818687Y-160186821D01*
X94770023Y-160347244D01*
X94691005Y-160495078D01*
X94584659Y-160624659D01*
X94455078Y-160731005D01*
X94307244Y-160810023D01*
X94307241Y-160810024D01*
X94307239Y-160810025D01*
X94146825Y-160858686D01*
X94146824Y-160858686D01*
X94146821Y-160858687D01*
X94021804Y-160871000D01*
X93938196Y-160871000D01*
X93813179Y-160858687D01*
X93813176Y-160858686D01*
X93813175Y-160858686D01*
X93652761Y-160810025D01*
X93652759Y-160810024D01*
X93652756Y-160810023D01*
X93504922Y-160731005D01*
X93375341Y-160624659D01*
X93268995Y-160495078D01*
X93189977Y-160347244D01*
X93141313Y-160186821D01*
X93124883Y-160020000D01*
X93141313Y-159853179D01*
X93189977Y-159692756D01*
X93268995Y-159544922D01*
X93375341Y-159415341D01*
X93504922Y-159308995D01*
X93652756Y-159229977D01*
X93652759Y-159229976D01*
X93652761Y-159229975D01*
X93813175Y-159181314D01*
X93813176Y-159181314D01*
X93813179Y-159181313D01*
X93938196Y-159169000D01*
X94021804Y-159169000D01*
X94146821Y-159181313D01*
X94146821Y-159181313D01*
G37*
G36*
X66206821Y-159181313D02*
X66206824Y-159181314D01*
X66206825Y-159181314D01*
X66367239Y-159229975D01*
X66367241Y-159229976D01*
X66367244Y-159229977D01*
X66515078Y-159308995D01*
X66644659Y-159415341D01*
X66751005Y-159544922D01*
X66830023Y-159692756D01*
X66878687Y-159853179D01*
X66895117Y-160020000D01*
X66878687Y-160186821D01*
X66830023Y-160347244D01*
X66751005Y-160495078D01*
X66644659Y-160624659D01*
X66515078Y-160731005D01*
X66367244Y-160810023D01*
X66367241Y-160810024D01*
X66367239Y-160810025D01*
X66206825Y-160858686D01*
X66206824Y-160858686D01*
X66206821Y-160858687D01*
X66081804Y-160871000D01*
X65998196Y-160871000D01*
X65873179Y-160858687D01*
X65873176Y-160858686D01*
X65873175Y-160858686D01*
X65712761Y-160810025D01*
X65712759Y-160810024D01*
X65712756Y-160810023D01*
X65564922Y-160731005D01*
X65435341Y-160624659D01*
X65328995Y-160495078D01*
X65249977Y-160347244D01*
X65201313Y-160186821D01*
X65184883Y-160020000D01*
X65201313Y-159853179D01*
X65249977Y-159692756D01*
X65328995Y-159544922D01*
X65435341Y-159415341D01*
X65564922Y-159308995D01*
X65712756Y-159229977D01*
X65712759Y-159229976D01*
X65712761Y-159229975D01*
X65873175Y-159181314D01*
X65873176Y-159181314D01*
X65873179Y-159181313D01*
X65998196Y-159169000D01*
X66081804Y-159169000D01*
X66206821Y-159181313D01*
X66206821Y-159181313D01*
G37*
G36*
X92291000Y-160871000D02*
X90589000Y-160871000D01*
X90589000Y-159169000D01*
X92291000Y-159169000D01*
X92291000Y-160871000D01*
X92291000Y-160871000D01*
G37*
G36*
X73826821Y-159181313D02*
X73826824Y-159181314D01*
X73826825Y-159181314D01*
X73987239Y-159229975D01*
X73987241Y-159229976D01*
X73987244Y-159229977D01*
X74135078Y-159308995D01*
X74264659Y-159415341D01*
X74371005Y-159544922D01*
X74450023Y-159692756D01*
X74498687Y-159853179D01*
X74515117Y-160020000D01*
X74498687Y-160186821D01*
X74450023Y-160347244D01*
X74371005Y-160495078D01*
X74264659Y-160624659D01*
X74135078Y-160731005D01*
X73987244Y-160810023D01*
X73987241Y-160810024D01*
X73987239Y-160810025D01*
X73826825Y-160858686D01*
X73826824Y-160858686D01*
X73826821Y-160858687D01*
X73701804Y-160871000D01*
X73618196Y-160871000D01*
X73493179Y-160858687D01*
X73493176Y-160858686D01*
X73493175Y-160858686D01*
X73332761Y-160810025D01*
X73332759Y-160810024D01*
X73332756Y-160810023D01*
X73184922Y-160731005D01*
X73055341Y-160624659D01*
X72948995Y-160495078D01*
X72869977Y-160347244D01*
X72821313Y-160186821D01*
X72804883Y-160020000D01*
X72821313Y-159853179D01*
X72869977Y-159692756D01*
X72948995Y-159544922D01*
X73055341Y-159415341D01*
X73184922Y-159308995D01*
X73332756Y-159229977D01*
X73332759Y-159229976D01*
X73332761Y-159229975D01*
X73493175Y-159181314D01*
X73493176Y-159181314D01*
X73493179Y-159181313D01*
X73618196Y-159169000D01*
X73701804Y-159169000D01*
X73826821Y-159181313D01*
X73826821Y-159181313D01*
G37*
G36*
X96686821Y-159181313D02*
X96686824Y-159181314D01*
X96686825Y-159181314D01*
X96847239Y-159229975D01*
X96847241Y-159229976D01*
X96847244Y-159229977D01*
X96995078Y-159308995D01*
X97124659Y-159415341D01*
X97231005Y-159544922D01*
X97310023Y-159692756D01*
X97358687Y-159853179D01*
X97375117Y-160020000D01*
X97358687Y-160186821D01*
X97310023Y-160347244D01*
X97231005Y-160495078D01*
X97124659Y-160624659D01*
X96995078Y-160731005D01*
X96847244Y-160810023D01*
X96847241Y-160810024D01*
X96847239Y-160810025D01*
X96686825Y-160858686D01*
X96686824Y-160858686D01*
X96686821Y-160858687D01*
X96561804Y-160871000D01*
X96478196Y-160871000D01*
X96353179Y-160858687D01*
X96353176Y-160858686D01*
X96353175Y-160858686D01*
X96192761Y-160810025D01*
X96192759Y-160810024D01*
X96192756Y-160810023D01*
X96044922Y-160731005D01*
X95915341Y-160624659D01*
X95808995Y-160495078D01*
X95729977Y-160347244D01*
X95681313Y-160186821D01*
X95664883Y-160020000D01*
X95681313Y-159853179D01*
X95729977Y-159692756D01*
X95808995Y-159544922D01*
X95915341Y-159415341D01*
X96044922Y-159308995D01*
X96192756Y-159229977D01*
X96192759Y-159229976D01*
X96192761Y-159229975D01*
X96353175Y-159181314D01*
X96353176Y-159181314D01*
X96353179Y-159181313D01*
X96478196Y-159169000D01*
X96561804Y-159169000D01*
X96686821Y-159181313D01*
X96686821Y-159181313D01*
G37*
G36*
X99226821Y-159181313D02*
X99226824Y-159181314D01*
X99226825Y-159181314D01*
X99387239Y-159229975D01*
X99387241Y-159229976D01*
X99387244Y-159229977D01*
X99535078Y-159308995D01*
X99664659Y-159415341D01*
X99771005Y-159544922D01*
X99850023Y-159692756D01*
X99898687Y-159853179D01*
X99915117Y-160020000D01*
X99898687Y-160186821D01*
X99850023Y-160347244D01*
X99771005Y-160495078D01*
X99664659Y-160624659D01*
X99535078Y-160731005D01*
X99387244Y-160810023D01*
X99387241Y-160810024D01*
X99387239Y-160810025D01*
X99226825Y-160858686D01*
X99226824Y-160858686D01*
X99226821Y-160858687D01*
X99101804Y-160871000D01*
X99018196Y-160871000D01*
X98893179Y-160858687D01*
X98893176Y-160858686D01*
X98893175Y-160858686D01*
X98732761Y-160810025D01*
X98732759Y-160810024D01*
X98732756Y-160810023D01*
X98584922Y-160731005D01*
X98455341Y-160624659D01*
X98348995Y-160495078D01*
X98269977Y-160347244D01*
X98221313Y-160186821D01*
X98204883Y-160020000D01*
X98221313Y-159853179D01*
X98269977Y-159692756D01*
X98348995Y-159544922D01*
X98455341Y-159415341D01*
X98584922Y-159308995D01*
X98732756Y-159229977D01*
X98732759Y-159229976D01*
X98732761Y-159229975D01*
X98893175Y-159181314D01*
X98893176Y-159181314D01*
X98893179Y-159181313D01*
X99018196Y-159169000D01*
X99101804Y-159169000D01*
X99226821Y-159181313D01*
X99226821Y-159181313D01*
G37*
G36*
X101766821Y-159181313D02*
X101766824Y-159181314D01*
X101766825Y-159181314D01*
X101927239Y-159229975D01*
X101927241Y-159229976D01*
X101927244Y-159229977D01*
X102075078Y-159308995D01*
X102204659Y-159415341D01*
X102311005Y-159544922D01*
X102390023Y-159692756D01*
X102438687Y-159853179D01*
X102455117Y-160020000D01*
X102438687Y-160186821D01*
X102390023Y-160347244D01*
X102311005Y-160495078D01*
X102204659Y-160624659D01*
X102075078Y-160731005D01*
X101927244Y-160810023D01*
X101927241Y-160810024D01*
X101927239Y-160810025D01*
X101766825Y-160858686D01*
X101766824Y-160858686D01*
X101766821Y-160858687D01*
X101641804Y-160871000D01*
X101558196Y-160871000D01*
X101433179Y-160858687D01*
X101433176Y-160858686D01*
X101433175Y-160858686D01*
X101272761Y-160810025D01*
X101272759Y-160810024D01*
X101272756Y-160810023D01*
X101124922Y-160731005D01*
X100995341Y-160624659D01*
X100888995Y-160495078D01*
X100809977Y-160347244D01*
X100761313Y-160186821D01*
X100744883Y-160020000D01*
X100761313Y-159853179D01*
X100809977Y-159692756D01*
X100888995Y-159544922D01*
X100995341Y-159415341D01*
X101124922Y-159308995D01*
X101272756Y-159229977D01*
X101272759Y-159229976D01*
X101272761Y-159229975D01*
X101433175Y-159181314D01*
X101433176Y-159181314D01*
X101433179Y-159181313D01*
X101558196Y-159169000D01*
X101641804Y-159169000D01*
X101766821Y-159181313D01*
X101766821Y-159181313D01*
G37*
G36*
X104306821Y-159181313D02*
X104306824Y-159181314D01*
X104306825Y-159181314D01*
X104467239Y-159229975D01*
X104467241Y-159229976D01*
X104467244Y-159229977D01*
X104615078Y-159308995D01*
X104744659Y-159415341D01*
X104851005Y-159544922D01*
X104930023Y-159692756D01*
X104978687Y-159853179D01*
X104995117Y-160020000D01*
X104978687Y-160186821D01*
X104930023Y-160347244D01*
X104851005Y-160495078D01*
X104744659Y-160624659D01*
X104615078Y-160731005D01*
X104467244Y-160810023D01*
X104467241Y-160810024D01*
X104467239Y-160810025D01*
X104306825Y-160858686D01*
X104306824Y-160858686D01*
X104306821Y-160858687D01*
X104181804Y-160871000D01*
X104098196Y-160871000D01*
X103973179Y-160858687D01*
X103973176Y-160858686D01*
X103973175Y-160858686D01*
X103812761Y-160810025D01*
X103812759Y-160810024D01*
X103812756Y-160810023D01*
X103664922Y-160731005D01*
X103535341Y-160624659D01*
X103428995Y-160495078D01*
X103349977Y-160347244D01*
X103301313Y-160186821D01*
X103284883Y-160020000D01*
X103301313Y-159853179D01*
X103349977Y-159692756D01*
X103428995Y-159544922D01*
X103535341Y-159415341D01*
X103664922Y-159308995D01*
X103812756Y-159229977D01*
X103812759Y-159229976D01*
X103812761Y-159229975D01*
X103973175Y-159181314D01*
X103973176Y-159181314D01*
X103973179Y-159181313D01*
X104098196Y-159169000D01*
X104181804Y-159169000D01*
X104306821Y-159181313D01*
X104306821Y-159181313D01*
G37*
G36*
X106846821Y-159181313D02*
X106846824Y-159181314D01*
X106846825Y-159181314D01*
X107007239Y-159229975D01*
X107007241Y-159229976D01*
X107007244Y-159229977D01*
X107155078Y-159308995D01*
X107284659Y-159415341D01*
X107391005Y-159544922D01*
X107470023Y-159692756D01*
X107518687Y-159853179D01*
X107535117Y-160020000D01*
X107518687Y-160186821D01*
X107470023Y-160347244D01*
X107391005Y-160495078D01*
X107284659Y-160624659D01*
X107155078Y-160731005D01*
X107007244Y-160810023D01*
X107007241Y-160810024D01*
X107007239Y-160810025D01*
X106846825Y-160858686D01*
X106846824Y-160858686D01*
X106846821Y-160858687D01*
X106721804Y-160871000D01*
X106638196Y-160871000D01*
X106513179Y-160858687D01*
X106513176Y-160858686D01*
X106513175Y-160858686D01*
X106352761Y-160810025D01*
X106352759Y-160810024D01*
X106352756Y-160810023D01*
X106204922Y-160731005D01*
X106075341Y-160624659D01*
X105968995Y-160495078D01*
X105889977Y-160347244D01*
X105841313Y-160186821D01*
X105824883Y-160020000D01*
X105841313Y-159853179D01*
X105889977Y-159692756D01*
X105968995Y-159544922D01*
X106075341Y-159415341D01*
X106204922Y-159308995D01*
X106352756Y-159229977D01*
X106352759Y-159229976D01*
X106352761Y-159229975D01*
X106513175Y-159181314D01*
X106513176Y-159181314D01*
X106513179Y-159181313D01*
X106638196Y-159169000D01*
X106721804Y-159169000D01*
X106846821Y-159181313D01*
X106846821Y-159181313D01*
G37*
G36*
X66206821Y-156641313D02*
X66206824Y-156641314D01*
X66206825Y-156641314D01*
X66367239Y-156689975D01*
X66367241Y-156689976D01*
X66367244Y-156689977D01*
X66515078Y-156768995D01*
X66644659Y-156875341D01*
X66751005Y-157004922D01*
X66830023Y-157152756D01*
X66878687Y-157313179D01*
X66895117Y-157480000D01*
X66878687Y-157646821D01*
X66830023Y-157807244D01*
X66751005Y-157955078D01*
X66644659Y-158084659D01*
X66515078Y-158191005D01*
X66367244Y-158270023D01*
X66367241Y-158270024D01*
X66367239Y-158270025D01*
X66206825Y-158318686D01*
X66206824Y-158318686D01*
X66206821Y-158318687D01*
X66081804Y-158331000D01*
X65998196Y-158331000D01*
X65873179Y-158318687D01*
X65873176Y-158318686D01*
X65873175Y-158318686D01*
X65712761Y-158270025D01*
X65712759Y-158270024D01*
X65712756Y-158270023D01*
X65564922Y-158191005D01*
X65435341Y-158084659D01*
X65328995Y-157955078D01*
X65249977Y-157807244D01*
X65201313Y-157646821D01*
X65184883Y-157480000D01*
X65201313Y-157313179D01*
X65249977Y-157152756D01*
X65328995Y-157004922D01*
X65435341Y-156875341D01*
X65564922Y-156768995D01*
X65712756Y-156689977D01*
X65712759Y-156689976D01*
X65712761Y-156689975D01*
X65873175Y-156641314D01*
X65873176Y-156641314D01*
X65873179Y-156641313D01*
X65998196Y-156629000D01*
X66081804Y-156629000D01*
X66206821Y-156641313D01*
X66206821Y-156641313D01*
G37*
G36*
X73826821Y-156641313D02*
X73826824Y-156641314D01*
X73826825Y-156641314D01*
X73987239Y-156689975D01*
X73987241Y-156689976D01*
X73987244Y-156689977D01*
X74135078Y-156768995D01*
X74264659Y-156875341D01*
X74371005Y-157004922D01*
X74450023Y-157152756D01*
X74498687Y-157313179D01*
X74515117Y-157480000D01*
X74498687Y-157646821D01*
X74450023Y-157807244D01*
X74371005Y-157955078D01*
X74264659Y-158084659D01*
X74135078Y-158191005D01*
X73987244Y-158270023D01*
X73987241Y-158270024D01*
X73987239Y-158270025D01*
X73826825Y-158318686D01*
X73826824Y-158318686D01*
X73826821Y-158318687D01*
X73701804Y-158331000D01*
X73618196Y-158331000D01*
X73493179Y-158318687D01*
X73493176Y-158318686D01*
X73493175Y-158318686D01*
X73332761Y-158270025D01*
X73332759Y-158270024D01*
X73332756Y-158270023D01*
X73184922Y-158191005D01*
X73055341Y-158084659D01*
X72948995Y-157955078D01*
X72869977Y-157807244D01*
X72821313Y-157646821D01*
X72804883Y-157480000D01*
X72821313Y-157313179D01*
X72869977Y-157152756D01*
X72948995Y-157004922D01*
X73055341Y-156875341D01*
X73184922Y-156768995D01*
X73332756Y-156689977D01*
X73332759Y-156689976D01*
X73332761Y-156689975D01*
X73493175Y-156641314D01*
X73493176Y-156641314D01*
X73493179Y-156641313D01*
X73618196Y-156629000D01*
X73701804Y-156629000D01*
X73826821Y-156641313D01*
X73826821Y-156641313D01*
G37*
G36*
X66206821Y-154101313D02*
X66206824Y-154101314D01*
X66206825Y-154101314D01*
X66367239Y-154149975D01*
X66367241Y-154149976D01*
X66367244Y-154149977D01*
X66515078Y-154228995D01*
X66644659Y-154335341D01*
X66751005Y-154464922D01*
X66830023Y-154612756D01*
X66878687Y-154773179D01*
X66895117Y-154940000D01*
X66878687Y-155106821D01*
X66830023Y-155267244D01*
X66751005Y-155415078D01*
X66644659Y-155544659D01*
X66515078Y-155651005D01*
X66367244Y-155730023D01*
X66367241Y-155730024D01*
X66367239Y-155730025D01*
X66206825Y-155778686D01*
X66206824Y-155778686D01*
X66206821Y-155778687D01*
X66081804Y-155791000D01*
X65998196Y-155791000D01*
X65873179Y-155778687D01*
X65873176Y-155778686D01*
X65873175Y-155778686D01*
X65712761Y-155730025D01*
X65712759Y-155730024D01*
X65712756Y-155730023D01*
X65564922Y-155651005D01*
X65435341Y-155544659D01*
X65328995Y-155415078D01*
X65249977Y-155267244D01*
X65201313Y-155106821D01*
X65184883Y-154940000D01*
X65201313Y-154773179D01*
X65249977Y-154612756D01*
X65328995Y-154464922D01*
X65435341Y-154335341D01*
X65564922Y-154228995D01*
X65712756Y-154149977D01*
X65712759Y-154149976D01*
X65712761Y-154149975D01*
X65873175Y-154101314D01*
X65873176Y-154101314D01*
X65873179Y-154101313D01*
X65998196Y-154089000D01*
X66081804Y-154089000D01*
X66206821Y-154101313D01*
X66206821Y-154101313D01*
G37*
G36*
X73826821Y-154101313D02*
X73826824Y-154101314D01*
X73826825Y-154101314D01*
X73987239Y-154149975D01*
X73987241Y-154149976D01*
X73987244Y-154149977D01*
X74135078Y-154228995D01*
X74264659Y-154335341D01*
X74371005Y-154464922D01*
X74450023Y-154612756D01*
X74498687Y-154773179D01*
X74515117Y-154940000D01*
X74498687Y-155106821D01*
X74450023Y-155267244D01*
X74371005Y-155415078D01*
X74264659Y-155544659D01*
X74135078Y-155651005D01*
X73987244Y-155730023D01*
X73987241Y-155730024D01*
X73987239Y-155730025D01*
X73826825Y-155778686D01*
X73826824Y-155778686D01*
X73826821Y-155778687D01*
X73701804Y-155791000D01*
X73618196Y-155791000D01*
X73493179Y-155778687D01*
X73493176Y-155778686D01*
X73493175Y-155778686D01*
X73332761Y-155730025D01*
X73332759Y-155730024D01*
X73332756Y-155730023D01*
X73184922Y-155651005D01*
X73055341Y-155544659D01*
X72948995Y-155415078D01*
X72869977Y-155267244D01*
X72821313Y-155106821D01*
X72804883Y-154940000D01*
X72821313Y-154773179D01*
X72869977Y-154612756D01*
X72948995Y-154464922D01*
X73055341Y-154335341D01*
X73184922Y-154228995D01*
X73332756Y-154149977D01*
X73332759Y-154149976D01*
X73332761Y-154149975D01*
X73493175Y-154101314D01*
X73493176Y-154101314D01*
X73493179Y-154101313D01*
X73618196Y-154089000D01*
X73701804Y-154089000D01*
X73826821Y-154101313D01*
X73826821Y-154101313D01*
G37*
G36*
X91606821Y-151561313D02*
X91606824Y-151561314D01*
X91606825Y-151561314D01*
X91767239Y-151609975D01*
X91767241Y-151609976D01*
X91767244Y-151609977D01*
X91915078Y-151688995D01*
X92044659Y-151795341D01*
X92151005Y-151924922D01*
X92230023Y-152072756D01*
X92278687Y-152233179D01*
X92295117Y-152400000D01*
X92278687Y-152566821D01*
X92230023Y-152727244D01*
X92151005Y-152875078D01*
X92044659Y-153004659D01*
X91915078Y-153111005D01*
X91767244Y-153190023D01*
X91767241Y-153190024D01*
X91767239Y-153190025D01*
X91606825Y-153238686D01*
X91606824Y-153238686D01*
X91606821Y-153238687D01*
X91481804Y-153251000D01*
X91398196Y-153251000D01*
X91273179Y-153238687D01*
X91273176Y-153238686D01*
X91273175Y-153238686D01*
X91112761Y-153190025D01*
X91112759Y-153190024D01*
X91112756Y-153190023D01*
X90964922Y-153111005D01*
X90835341Y-153004659D01*
X90728995Y-152875078D01*
X90649977Y-152727244D01*
X90601313Y-152566821D01*
X90584883Y-152400000D01*
X90601313Y-152233179D01*
X90649977Y-152072756D01*
X90728995Y-151924922D01*
X90835341Y-151795341D01*
X90964922Y-151688995D01*
X91112756Y-151609977D01*
X91112759Y-151609976D01*
X91112761Y-151609975D01*
X91273175Y-151561314D01*
X91273176Y-151561314D01*
X91273179Y-151561313D01*
X91398196Y-151549000D01*
X91481804Y-151549000D01*
X91606821Y-151561313D01*
X91606821Y-151561313D01*
G37*
G36*
X106846821Y-151561313D02*
X106846824Y-151561314D01*
X106846825Y-151561314D01*
X107007239Y-151609975D01*
X107007241Y-151609976D01*
X107007244Y-151609977D01*
X107155078Y-151688995D01*
X107284659Y-151795341D01*
X107391005Y-151924922D01*
X107470023Y-152072756D01*
X107518687Y-152233179D01*
X107535117Y-152400000D01*
X107518687Y-152566821D01*
X107470023Y-152727244D01*
X107391005Y-152875078D01*
X107284659Y-153004659D01*
X107155078Y-153111005D01*
X107007244Y-153190023D01*
X107007241Y-153190024D01*
X107007239Y-153190025D01*
X106846825Y-153238686D01*
X106846824Y-153238686D01*
X106846821Y-153238687D01*
X106721804Y-153251000D01*
X106638196Y-153251000D01*
X106513179Y-153238687D01*
X106513176Y-153238686D01*
X106513175Y-153238686D01*
X106352761Y-153190025D01*
X106352759Y-153190024D01*
X106352756Y-153190023D01*
X106204922Y-153111005D01*
X106075341Y-153004659D01*
X105968995Y-152875078D01*
X105889977Y-152727244D01*
X105841313Y-152566821D01*
X105824883Y-152400000D01*
X105841313Y-152233179D01*
X105889977Y-152072756D01*
X105968995Y-151924922D01*
X106075341Y-151795341D01*
X106204922Y-151688995D01*
X106352756Y-151609977D01*
X106352759Y-151609976D01*
X106352761Y-151609975D01*
X106513175Y-151561314D01*
X106513176Y-151561314D01*
X106513179Y-151561313D01*
X106638196Y-151549000D01*
X106721804Y-151549000D01*
X106846821Y-151561313D01*
X106846821Y-151561313D01*
G37*
G36*
X104306821Y-151561313D02*
X104306824Y-151561314D01*
X104306825Y-151561314D01*
X104467239Y-151609975D01*
X104467241Y-151609976D01*
X104467244Y-151609977D01*
X104615078Y-151688995D01*
X104744659Y-151795341D01*
X104851005Y-151924922D01*
X104930023Y-152072756D01*
X104978687Y-152233179D01*
X104995117Y-152400000D01*
X104978687Y-152566821D01*
X104930023Y-152727244D01*
X104851005Y-152875078D01*
X104744659Y-153004659D01*
X104615078Y-153111005D01*
X104467244Y-153190023D01*
X104467241Y-153190024D01*
X104467239Y-153190025D01*
X104306825Y-153238686D01*
X104306824Y-153238686D01*
X104306821Y-153238687D01*
X104181804Y-153251000D01*
X104098196Y-153251000D01*
X103973179Y-153238687D01*
X103973176Y-153238686D01*
X103973175Y-153238686D01*
X103812761Y-153190025D01*
X103812759Y-153190024D01*
X103812756Y-153190023D01*
X103664922Y-153111005D01*
X103535341Y-153004659D01*
X103428995Y-152875078D01*
X103349977Y-152727244D01*
X103301313Y-152566821D01*
X103284883Y-152400000D01*
X103301313Y-152233179D01*
X103349977Y-152072756D01*
X103428995Y-151924922D01*
X103535341Y-151795341D01*
X103664922Y-151688995D01*
X103812756Y-151609977D01*
X103812759Y-151609976D01*
X103812761Y-151609975D01*
X103973175Y-151561314D01*
X103973176Y-151561314D01*
X103973179Y-151561313D01*
X104098196Y-151549000D01*
X104181804Y-151549000D01*
X104306821Y-151561313D01*
X104306821Y-151561313D01*
G37*
G36*
X101766821Y-151561313D02*
X101766824Y-151561314D01*
X101766825Y-151561314D01*
X101927239Y-151609975D01*
X101927241Y-151609976D01*
X101927244Y-151609977D01*
X102075078Y-151688995D01*
X102204659Y-151795341D01*
X102311005Y-151924922D01*
X102390023Y-152072756D01*
X102438687Y-152233179D01*
X102455117Y-152400000D01*
X102438687Y-152566821D01*
X102390023Y-152727244D01*
X102311005Y-152875078D01*
X102204659Y-153004659D01*
X102075078Y-153111005D01*
X101927244Y-153190023D01*
X101927241Y-153190024D01*
X101927239Y-153190025D01*
X101766825Y-153238686D01*
X101766824Y-153238686D01*
X101766821Y-153238687D01*
X101641804Y-153251000D01*
X101558196Y-153251000D01*
X101433179Y-153238687D01*
X101433176Y-153238686D01*
X101433175Y-153238686D01*
X101272761Y-153190025D01*
X101272759Y-153190024D01*
X101272756Y-153190023D01*
X101124922Y-153111005D01*
X100995341Y-153004659D01*
X100888995Y-152875078D01*
X100809977Y-152727244D01*
X100761313Y-152566821D01*
X100744883Y-152400000D01*
X100761313Y-152233179D01*
X100809977Y-152072756D01*
X100888995Y-151924922D01*
X100995341Y-151795341D01*
X101124922Y-151688995D01*
X101272756Y-151609977D01*
X101272759Y-151609976D01*
X101272761Y-151609975D01*
X101433175Y-151561314D01*
X101433176Y-151561314D01*
X101433179Y-151561313D01*
X101558196Y-151549000D01*
X101641804Y-151549000D01*
X101766821Y-151561313D01*
X101766821Y-151561313D01*
G37*
G36*
X99226821Y-151561313D02*
X99226824Y-151561314D01*
X99226825Y-151561314D01*
X99387239Y-151609975D01*
X99387241Y-151609976D01*
X99387244Y-151609977D01*
X99535078Y-151688995D01*
X99664659Y-151795341D01*
X99771005Y-151924922D01*
X99850023Y-152072756D01*
X99898687Y-152233179D01*
X99915117Y-152400000D01*
X99898687Y-152566821D01*
X99850023Y-152727244D01*
X99771005Y-152875078D01*
X99664659Y-153004659D01*
X99535078Y-153111005D01*
X99387244Y-153190023D01*
X99387241Y-153190024D01*
X99387239Y-153190025D01*
X99226825Y-153238686D01*
X99226824Y-153238686D01*
X99226821Y-153238687D01*
X99101804Y-153251000D01*
X99018196Y-153251000D01*
X98893179Y-153238687D01*
X98893176Y-153238686D01*
X98893175Y-153238686D01*
X98732761Y-153190025D01*
X98732759Y-153190024D01*
X98732756Y-153190023D01*
X98584922Y-153111005D01*
X98455341Y-153004659D01*
X98348995Y-152875078D01*
X98269977Y-152727244D01*
X98221313Y-152566821D01*
X98204883Y-152400000D01*
X98221313Y-152233179D01*
X98269977Y-152072756D01*
X98348995Y-151924922D01*
X98455341Y-151795341D01*
X98584922Y-151688995D01*
X98732756Y-151609977D01*
X98732759Y-151609976D01*
X98732761Y-151609975D01*
X98893175Y-151561314D01*
X98893176Y-151561314D01*
X98893179Y-151561313D01*
X99018196Y-151549000D01*
X99101804Y-151549000D01*
X99226821Y-151561313D01*
X99226821Y-151561313D01*
G37*
G36*
X96686821Y-151561313D02*
X96686824Y-151561314D01*
X96686825Y-151561314D01*
X96847239Y-151609975D01*
X96847241Y-151609976D01*
X96847244Y-151609977D01*
X96995078Y-151688995D01*
X97124659Y-151795341D01*
X97231005Y-151924922D01*
X97310023Y-152072756D01*
X97358687Y-152233179D01*
X97375117Y-152400000D01*
X97358687Y-152566821D01*
X97310023Y-152727244D01*
X97231005Y-152875078D01*
X97124659Y-153004659D01*
X96995078Y-153111005D01*
X96847244Y-153190023D01*
X96847241Y-153190024D01*
X96847239Y-153190025D01*
X96686825Y-153238686D01*
X96686824Y-153238686D01*
X96686821Y-153238687D01*
X96561804Y-153251000D01*
X96478196Y-153251000D01*
X96353179Y-153238687D01*
X96353176Y-153238686D01*
X96353175Y-153238686D01*
X96192761Y-153190025D01*
X96192759Y-153190024D01*
X96192756Y-153190023D01*
X96044922Y-153111005D01*
X95915341Y-153004659D01*
X95808995Y-152875078D01*
X95729977Y-152727244D01*
X95681313Y-152566821D01*
X95664883Y-152400000D01*
X95681313Y-152233179D01*
X95729977Y-152072756D01*
X95808995Y-151924922D01*
X95915341Y-151795341D01*
X96044922Y-151688995D01*
X96192756Y-151609977D01*
X96192759Y-151609976D01*
X96192761Y-151609975D01*
X96353175Y-151561314D01*
X96353176Y-151561314D01*
X96353179Y-151561313D01*
X96478196Y-151549000D01*
X96561804Y-151549000D01*
X96686821Y-151561313D01*
X96686821Y-151561313D01*
G37*
G36*
X94146821Y-151561313D02*
X94146824Y-151561314D01*
X94146825Y-151561314D01*
X94307239Y-151609975D01*
X94307241Y-151609976D01*
X94307244Y-151609977D01*
X94455078Y-151688995D01*
X94584659Y-151795341D01*
X94691005Y-151924922D01*
X94770023Y-152072756D01*
X94818687Y-152233179D01*
X94835117Y-152400000D01*
X94818687Y-152566821D01*
X94770023Y-152727244D01*
X94691005Y-152875078D01*
X94584659Y-153004659D01*
X94455078Y-153111005D01*
X94307244Y-153190023D01*
X94307241Y-153190024D01*
X94307239Y-153190025D01*
X94146825Y-153238686D01*
X94146824Y-153238686D01*
X94146821Y-153238687D01*
X94021804Y-153251000D01*
X93938196Y-153251000D01*
X93813179Y-153238687D01*
X93813176Y-153238686D01*
X93813175Y-153238686D01*
X93652761Y-153190025D01*
X93652759Y-153190024D01*
X93652756Y-153190023D01*
X93504922Y-153111005D01*
X93375341Y-153004659D01*
X93268995Y-152875078D01*
X93189977Y-152727244D01*
X93141313Y-152566821D01*
X93124883Y-152400000D01*
X93141313Y-152233179D01*
X93189977Y-152072756D01*
X93268995Y-151924922D01*
X93375341Y-151795341D01*
X93504922Y-151688995D01*
X93652756Y-151609977D01*
X93652759Y-151609976D01*
X93652761Y-151609975D01*
X93813175Y-151561314D01*
X93813176Y-151561314D01*
X93813179Y-151561313D01*
X93938196Y-151549000D01*
X94021804Y-151549000D01*
X94146821Y-151561313D01*
X94146821Y-151561313D01*
G37*
G36*
X66206821Y-151561313D02*
X66206824Y-151561314D01*
X66206825Y-151561314D01*
X66367239Y-151609975D01*
X66367241Y-151609976D01*
X66367244Y-151609977D01*
X66515078Y-151688995D01*
X66644659Y-151795341D01*
X66751005Y-151924922D01*
X66830023Y-152072756D01*
X66878687Y-152233179D01*
X66895117Y-152400000D01*
X66878687Y-152566821D01*
X66830023Y-152727244D01*
X66751005Y-152875078D01*
X66644659Y-153004659D01*
X66515078Y-153111005D01*
X66367244Y-153190023D01*
X66367241Y-153190024D01*
X66367239Y-153190025D01*
X66206825Y-153238686D01*
X66206824Y-153238686D01*
X66206821Y-153238687D01*
X66081804Y-153251000D01*
X65998196Y-153251000D01*
X65873179Y-153238687D01*
X65873176Y-153238686D01*
X65873175Y-153238686D01*
X65712761Y-153190025D01*
X65712759Y-153190024D01*
X65712756Y-153190023D01*
X65564922Y-153111005D01*
X65435341Y-153004659D01*
X65328995Y-152875078D01*
X65249977Y-152727244D01*
X65201313Y-152566821D01*
X65184883Y-152400000D01*
X65201313Y-152233179D01*
X65249977Y-152072756D01*
X65328995Y-151924922D01*
X65435341Y-151795341D01*
X65564922Y-151688995D01*
X65712756Y-151609977D01*
X65712759Y-151609976D01*
X65712761Y-151609975D01*
X65873175Y-151561314D01*
X65873176Y-151561314D01*
X65873179Y-151561313D01*
X65998196Y-151549000D01*
X66081804Y-151549000D01*
X66206821Y-151561313D01*
X66206821Y-151561313D01*
G37*
G36*
X73826821Y-151561313D02*
X73826824Y-151561314D01*
X73826825Y-151561314D01*
X73987239Y-151609975D01*
X73987241Y-151609976D01*
X73987244Y-151609977D01*
X74135078Y-151688995D01*
X74264659Y-151795341D01*
X74371005Y-151924922D01*
X74450023Y-152072756D01*
X74498687Y-152233179D01*
X74515117Y-152400000D01*
X74498687Y-152566821D01*
X74450023Y-152727244D01*
X74371005Y-152875078D01*
X74264659Y-153004659D01*
X74135078Y-153111005D01*
X73987244Y-153190023D01*
X73987241Y-153190024D01*
X73987239Y-153190025D01*
X73826825Y-153238686D01*
X73826824Y-153238686D01*
X73826821Y-153238687D01*
X73701804Y-153251000D01*
X73618196Y-153251000D01*
X73493179Y-153238687D01*
X73493176Y-153238686D01*
X73493175Y-153238686D01*
X73332761Y-153190025D01*
X73332759Y-153190024D01*
X73332756Y-153190023D01*
X73184922Y-153111005D01*
X73055341Y-153004659D01*
X72948995Y-152875078D01*
X72869977Y-152727244D01*
X72821313Y-152566821D01*
X72804883Y-152400000D01*
X72821313Y-152233179D01*
X72869977Y-152072756D01*
X72948995Y-151924922D01*
X73055341Y-151795341D01*
X73184922Y-151688995D01*
X73332756Y-151609977D01*
X73332759Y-151609976D01*
X73332761Y-151609975D01*
X73493175Y-151561314D01*
X73493176Y-151561314D01*
X73493179Y-151561313D01*
X73618196Y-151549000D01*
X73701804Y-151549000D01*
X73826821Y-151561313D01*
X73826821Y-151561313D01*
G37*
G36*
X73826821Y-149021313D02*
X73826824Y-149021314D01*
X73826825Y-149021314D01*
X73987239Y-149069975D01*
X73987241Y-149069976D01*
X73987244Y-149069977D01*
X74135078Y-149148995D01*
X74264659Y-149255341D01*
X74371005Y-149384922D01*
X74450023Y-149532756D01*
X74498687Y-149693179D01*
X74515117Y-149860000D01*
X74498687Y-150026821D01*
X74450023Y-150187244D01*
X74371005Y-150335078D01*
X74264659Y-150464659D01*
X74135078Y-150571005D01*
X73987244Y-150650023D01*
X73987241Y-150650024D01*
X73987239Y-150650025D01*
X73826825Y-150698686D01*
X73826824Y-150698686D01*
X73826821Y-150698687D01*
X73701804Y-150711000D01*
X73618196Y-150711000D01*
X73493179Y-150698687D01*
X73493176Y-150698686D01*
X73493175Y-150698686D01*
X73332761Y-150650025D01*
X73332759Y-150650024D01*
X73332756Y-150650023D01*
X73184922Y-150571005D01*
X73055341Y-150464659D01*
X72948995Y-150335078D01*
X72869977Y-150187244D01*
X72821313Y-150026821D01*
X72804883Y-149860000D01*
X72821313Y-149693179D01*
X72869977Y-149532756D01*
X72948995Y-149384922D01*
X73055341Y-149255341D01*
X73184922Y-149148995D01*
X73332756Y-149069977D01*
X73332759Y-149069976D01*
X73332761Y-149069975D01*
X73493175Y-149021314D01*
X73493176Y-149021314D01*
X73493179Y-149021313D01*
X73618196Y-149009000D01*
X73701804Y-149009000D01*
X73826821Y-149021313D01*
X73826821Y-149021313D01*
G37*
G36*
X66206821Y-149021313D02*
X66206824Y-149021314D01*
X66206825Y-149021314D01*
X66367239Y-149069975D01*
X66367241Y-149069976D01*
X66367244Y-149069977D01*
X66515078Y-149148995D01*
X66644659Y-149255341D01*
X66751005Y-149384922D01*
X66830023Y-149532756D01*
X66878687Y-149693179D01*
X66895117Y-149860000D01*
X66878687Y-150026821D01*
X66830023Y-150187244D01*
X66751005Y-150335078D01*
X66644659Y-150464659D01*
X66515078Y-150571005D01*
X66367244Y-150650023D01*
X66367241Y-150650024D01*
X66367239Y-150650025D01*
X66206825Y-150698686D01*
X66206824Y-150698686D01*
X66206821Y-150698687D01*
X66081804Y-150711000D01*
X65998196Y-150711000D01*
X65873179Y-150698687D01*
X65873176Y-150698686D01*
X65873175Y-150698686D01*
X65712761Y-150650025D01*
X65712759Y-150650024D01*
X65712756Y-150650023D01*
X65564922Y-150571005D01*
X65435341Y-150464659D01*
X65328995Y-150335078D01*
X65249977Y-150187244D01*
X65201313Y-150026821D01*
X65184883Y-149860000D01*
X65201313Y-149693179D01*
X65249977Y-149532756D01*
X65328995Y-149384922D01*
X65435341Y-149255341D01*
X65564922Y-149148995D01*
X65712756Y-149069977D01*
X65712759Y-149069976D01*
X65712761Y-149069975D01*
X65873175Y-149021314D01*
X65873176Y-149021314D01*
X65873179Y-149021313D01*
X65998196Y-149009000D01*
X66081804Y-149009000D01*
X66206821Y-149021313D01*
X66206821Y-149021313D01*
G37*
G36*
X73826821Y-146481313D02*
X73826824Y-146481314D01*
X73826825Y-146481314D01*
X73987239Y-146529975D01*
X73987241Y-146529976D01*
X73987244Y-146529977D01*
X74135078Y-146608995D01*
X74264659Y-146715341D01*
X74371005Y-146844922D01*
X74450023Y-146992756D01*
X74498687Y-147153179D01*
X74515117Y-147320000D01*
X74498687Y-147486821D01*
X74450023Y-147647244D01*
X74371005Y-147795078D01*
X74264659Y-147924659D01*
X74135078Y-148031005D01*
X73987244Y-148110023D01*
X73987241Y-148110024D01*
X73987239Y-148110025D01*
X73826825Y-148158686D01*
X73826824Y-148158686D01*
X73826821Y-148158687D01*
X73701804Y-148171000D01*
X73618196Y-148171000D01*
X73493179Y-148158687D01*
X73493176Y-148158686D01*
X73493175Y-148158686D01*
X73332761Y-148110025D01*
X73332759Y-148110024D01*
X73332756Y-148110023D01*
X73184922Y-148031005D01*
X73055341Y-147924659D01*
X72948995Y-147795078D01*
X72869977Y-147647244D01*
X72821313Y-147486821D01*
X72804883Y-147320000D01*
X72821313Y-147153179D01*
X72869977Y-146992756D01*
X72948995Y-146844922D01*
X73055341Y-146715341D01*
X73184922Y-146608995D01*
X73332756Y-146529977D01*
X73332759Y-146529976D01*
X73332761Y-146529975D01*
X73493175Y-146481314D01*
X73493176Y-146481314D01*
X73493179Y-146481313D01*
X73618196Y-146469000D01*
X73701804Y-146469000D01*
X73826821Y-146481313D01*
X73826821Y-146481313D01*
G37*
G36*
X66206821Y-146481313D02*
X66206824Y-146481314D01*
X66206825Y-146481314D01*
X66367239Y-146529975D01*
X66367241Y-146529976D01*
X66367244Y-146529977D01*
X66515078Y-146608995D01*
X66644659Y-146715341D01*
X66751005Y-146844922D01*
X66830023Y-146992756D01*
X66878687Y-147153179D01*
X66895117Y-147320000D01*
X66878687Y-147486821D01*
X66830023Y-147647244D01*
X66751005Y-147795078D01*
X66644659Y-147924659D01*
X66515078Y-148031005D01*
X66367244Y-148110023D01*
X66367241Y-148110024D01*
X66367239Y-148110025D01*
X66206825Y-148158686D01*
X66206824Y-148158686D01*
X66206821Y-148158687D01*
X66081804Y-148171000D01*
X65998196Y-148171000D01*
X65873179Y-148158687D01*
X65873176Y-148158686D01*
X65873175Y-148158686D01*
X65712761Y-148110025D01*
X65712759Y-148110024D01*
X65712756Y-148110023D01*
X65564922Y-148031005D01*
X65435341Y-147924659D01*
X65328995Y-147795078D01*
X65249977Y-147647244D01*
X65201313Y-147486821D01*
X65184883Y-147320000D01*
X65201313Y-147153179D01*
X65249977Y-146992756D01*
X65328995Y-146844922D01*
X65435341Y-146715341D01*
X65564922Y-146608995D01*
X65712756Y-146529977D01*
X65712759Y-146529976D01*
X65712761Y-146529975D01*
X65873175Y-146481314D01*
X65873176Y-146481314D01*
X65873179Y-146481313D01*
X65998196Y-146469000D01*
X66081804Y-146469000D01*
X66206821Y-146481313D01*
X66206821Y-146481313D01*
G37*
G36*
X73826821Y-143941313D02*
X73826824Y-143941314D01*
X73826825Y-143941314D01*
X73987239Y-143989975D01*
X73987241Y-143989976D01*
X73987244Y-143989977D01*
X74135078Y-144068995D01*
X74264659Y-144175341D01*
X74371005Y-144304922D01*
X74450023Y-144452756D01*
X74498687Y-144613179D01*
X74515117Y-144780000D01*
X74498687Y-144946821D01*
X74450023Y-145107244D01*
X74371005Y-145255078D01*
X74264659Y-145384659D01*
X74135078Y-145491005D01*
X73987244Y-145570023D01*
X73987241Y-145570024D01*
X73987239Y-145570025D01*
X73826825Y-145618686D01*
X73826824Y-145618686D01*
X73826821Y-145618687D01*
X73701804Y-145631000D01*
X73618196Y-145631000D01*
X73493179Y-145618687D01*
X73493176Y-145618686D01*
X73493175Y-145618686D01*
X73332761Y-145570025D01*
X73332759Y-145570024D01*
X73332756Y-145570023D01*
X73184922Y-145491005D01*
X73055341Y-145384659D01*
X72948995Y-145255078D01*
X72869977Y-145107244D01*
X72821313Y-144946821D01*
X72804883Y-144780000D01*
X72821313Y-144613179D01*
X72869977Y-144452756D01*
X72948995Y-144304922D01*
X73055341Y-144175341D01*
X73184922Y-144068995D01*
X73332756Y-143989977D01*
X73332759Y-143989976D01*
X73332761Y-143989975D01*
X73493175Y-143941314D01*
X73493176Y-143941314D01*
X73493179Y-143941313D01*
X73618196Y-143929000D01*
X73701804Y-143929000D01*
X73826821Y-143941313D01*
X73826821Y-143941313D01*
G37*
G36*
X66891000Y-145631000D02*
X65189000Y-145631000D01*
X65189000Y-143929000D01*
X66891000Y-143929000D01*
X66891000Y-145631000D01*
X66891000Y-145631000D01*
G37*
G36*
X120816821Y-141401313D02*
X120816824Y-141401314D01*
X120816825Y-141401314D01*
X120977239Y-141449975D01*
X120977241Y-141449976D01*
X120977244Y-141449977D01*
X121125078Y-141528995D01*
X121254659Y-141635341D01*
X121361005Y-141764922D01*
X121440023Y-141912756D01*
X121488687Y-142073179D01*
X121505117Y-142240000D01*
X121488687Y-142406821D01*
X121440023Y-142567244D01*
X121361005Y-142715078D01*
X121254659Y-142844659D01*
X121125078Y-142951005D01*
X120977244Y-143030023D01*
X120977241Y-143030024D01*
X120977239Y-143030025D01*
X120816825Y-143078686D01*
X120816824Y-143078686D01*
X120816821Y-143078687D01*
X120691804Y-143091000D01*
X120608196Y-143091000D01*
X120483179Y-143078687D01*
X120483176Y-143078686D01*
X120483175Y-143078686D01*
X120322761Y-143030025D01*
X120322759Y-143030024D01*
X120322756Y-143030023D01*
X120174922Y-142951005D01*
X120045341Y-142844659D01*
X119938995Y-142715078D01*
X119859977Y-142567244D01*
X119811313Y-142406821D01*
X119794883Y-142240000D01*
X119811313Y-142073179D01*
X119859977Y-141912756D01*
X119938995Y-141764922D01*
X120045341Y-141635341D01*
X120174922Y-141528995D01*
X120322756Y-141449977D01*
X120322759Y-141449976D01*
X120322761Y-141449975D01*
X120483175Y-141401314D01*
X120483176Y-141401314D01*
X120483179Y-141401313D01*
X120608196Y-141389000D01*
X120691804Y-141389000D01*
X120816821Y-141401313D01*
X120816821Y-141401313D01*
G37*
G36*
X113196821Y-141401313D02*
X113196824Y-141401314D01*
X113196825Y-141401314D01*
X113357239Y-141449975D01*
X113357241Y-141449976D01*
X113357244Y-141449977D01*
X113505078Y-141528995D01*
X113634659Y-141635341D01*
X113741005Y-141764922D01*
X113820023Y-141912756D01*
X113868687Y-142073179D01*
X113885117Y-142240000D01*
X113868687Y-142406821D01*
X113820023Y-142567244D01*
X113741005Y-142715078D01*
X113634659Y-142844659D01*
X113505078Y-142951005D01*
X113357244Y-143030023D01*
X113357241Y-143030024D01*
X113357239Y-143030025D01*
X113196825Y-143078686D01*
X113196824Y-143078686D01*
X113196821Y-143078687D01*
X113071804Y-143091000D01*
X112988196Y-143091000D01*
X112863179Y-143078687D01*
X112863176Y-143078686D01*
X112863175Y-143078686D01*
X112702761Y-143030025D01*
X112702759Y-143030024D01*
X112702756Y-143030023D01*
X112554922Y-142951005D01*
X112425341Y-142844659D01*
X112318995Y-142715078D01*
X112239977Y-142567244D01*
X112191313Y-142406821D01*
X112174883Y-142240000D01*
X112191313Y-142073179D01*
X112239977Y-141912756D01*
X112318995Y-141764922D01*
X112425341Y-141635341D01*
X112554922Y-141528995D01*
X112702756Y-141449977D01*
X112702759Y-141449976D01*
X112702761Y-141449975D01*
X112863175Y-141401314D01*
X112863176Y-141401314D01*
X112863179Y-141401313D01*
X112988196Y-141389000D01*
X113071804Y-141389000D01*
X113196821Y-141401313D01*
X113196821Y-141401313D01*
G37*
G36*
X89066821Y-140131313D02*
X89066824Y-140131314D01*
X89066825Y-140131314D01*
X89227239Y-140179975D01*
X89227241Y-140179976D01*
X89227244Y-140179977D01*
X89375078Y-140258995D01*
X89504659Y-140365341D01*
X89611005Y-140494922D01*
X89690023Y-140642756D01*
X89738687Y-140803179D01*
X89755117Y-140970000D01*
X89738687Y-141136821D01*
X89690023Y-141297244D01*
X89611005Y-141445078D01*
X89504659Y-141574659D01*
X89375078Y-141681005D01*
X89227244Y-141760023D01*
X89227241Y-141760024D01*
X89227239Y-141760025D01*
X89066825Y-141808686D01*
X89066824Y-141808686D01*
X89066821Y-141808687D01*
X88941804Y-141821000D01*
X88858196Y-141821000D01*
X88733179Y-141808687D01*
X88733176Y-141808686D01*
X88733175Y-141808686D01*
X88572761Y-141760025D01*
X88572759Y-141760024D01*
X88572756Y-141760023D01*
X88424922Y-141681005D01*
X88295341Y-141574659D01*
X88188995Y-141445078D01*
X88109977Y-141297244D01*
X88061313Y-141136821D01*
X88044883Y-140970000D01*
X88061313Y-140803179D01*
X88109977Y-140642756D01*
X88188995Y-140494922D01*
X88295341Y-140365341D01*
X88424922Y-140258995D01*
X88572756Y-140179977D01*
X88572759Y-140179976D01*
X88572761Y-140179975D01*
X88733175Y-140131314D01*
X88733176Y-140131314D01*
X88733179Y-140131313D01*
X88858196Y-140119000D01*
X88941804Y-140119000D01*
X89066821Y-140131313D01*
X89066821Y-140131313D01*
G37*
G36*
X96686821Y-140131313D02*
X96686824Y-140131314D01*
X96686825Y-140131314D01*
X96847239Y-140179975D01*
X96847241Y-140179976D01*
X96847244Y-140179977D01*
X96995078Y-140258995D01*
X97124659Y-140365341D01*
X97231005Y-140494922D01*
X97310023Y-140642756D01*
X97358687Y-140803179D01*
X97375117Y-140970000D01*
X97358687Y-141136821D01*
X97310023Y-141297244D01*
X97231005Y-141445078D01*
X97124659Y-141574659D01*
X96995078Y-141681005D01*
X96847244Y-141760023D01*
X96847241Y-141760024D01*
X96847239Y-141760025D01*
X96686825Y-141808686D01*
X96686824Y-141808686D01*
X96686821Y-141808687D01*
X96561804Y-141821000D01*
X96478196Y-141821000D01*
X96353179Y-141808687D01*
X96353176Y-141808686D01*
X96353175Y-141808686D01*
X96192761Y-141760025D01*
X96192759Y-141760024D01*
X96192756Y-141760023D01*
X96044922Y-141681005D01*
X95915341Y-141574659D01*
X95808995Y-141445078D01*
X95729977Y-141297244D01*
X95681313Y-141136821D01*
X95664883Y-140970000D01*
X95681313Y-140803179D01*
X95729977Y-140642756D01*
X95808995Y-140494922D01*
X95915341Y-140365341D01*
X96044922Y-140258995D01*
X96192756Y-140179977D01*
X96192759Y-140179976D01*
X96192761Y-140179975D01*
X96353175Y-140131314D01*
X96353176Y-140131314D01*
X96353179Y-140131313D01*
X96478196Y-140119000D01*
X96561804Y-140119000D01*
X96686821Y-140131313D01*
X96686821Y-140131313D01*
G37*
G36*
X120816821Y-138861313D02*
X120816824Y-138861314D01*
X120816825Y-138861314D01*
X120977239Y-138909975D01*
X120977241Y-138909976D01*
X120977244Y-138909977D01*
X121125078Y-138988995D01*
X121254659Y-139095341D01*
X121361005Y-139224922D01*
X121440023Y-139372756D01*
X121440024Y-139372759D01*
X121440025Y-139372761D01*
X121488686Y-139533175D01*
X121488687Y-139533179D01*
X121505117Y-139700000D01*
X121488687Y-139866821D01*
X121488686Y-139866824D01*
X121488686Y-139866825D01*
X121463993Y-139948228D01*
X121440023Y-140027244D01*
X121361005Y-140175078D01*
X121254659Y-140304659D01*
X121125078Y-140411005D01*
X120977244Y-140490023D01*
X120977241Y-140490024D01*
X120977239Y-140490025D01*
X120816825Y-140538686D01*
X120816824Y-140538686D01*
X120816821Y-140538687D01*
X120691804Y-140551000D01*
X120608196Y-140551000D01*
X120483179Y-140538687D01*
X120483176Y-140538686D01*
X120483175Y-140538686D01*
X120322761Y-140490025D01*
X120322759Y-140490024D01*
X120322756Y-140490023D01*
X120174922Y-140411005D01*
X120045341Y-140304659D01*
X119938995Y-140175078D01*
X119859977Y-140027244D01*
X119836008Y-139948228D01*
X119811314Y-139866825D01*
X119811314Y-139866824D01*
X119811313Y-139866821D01*
X119794883Y-139700000D01*
X119811313Y-139533179D01*
X119811314Y-139533175D01*
X119859975Y-139372761D01*
X119859976Y-139372759D01*
X119859977Y-139372756D01*
X119938995Y-139224922D01*
X120045341Y-139095341D01*
X120174922Y-138988995D01*
X120322756Y-138909977D01*
X120322759Y-138909976D01*
X120322761Y-138909975D01*
X120483175Y-138861314D01*
X120483176Y-138861314D01*
X120483179Y-138861313D01*
X120608196Y-138849000D01*
X120691804Y-138849000D01*
X120816821Y-138861313D01*
X120816821Y-138861313D01*
G37*
G36*
X113196821Y-138861313D02*
X113196824Y-138861314D01*
X113196825Y-138861314D01*
X113357239Y-138909975D01*
X113357241Y-138909976D01*
X113357244Y-138909977D01*
X113505078Y-138988995D01*
X113634659Y-139095341D01*
X113741005Y-139224922D01*
X113820023Y-139372756D01*
X113820024Y-139372759D01*
X113820025Y-139372761D01*
X113868686Y-139533175D01*
X113868687Y-139533179D01*
X113885117Y-139700000D01*
X113868687Y-139866821D01*
X113868686Y-139866824D01*
X113868686Y-139866825D01*
X113843993Y-139948228D01*
X113820023Y-140027244D01*
X113741005Y-140175078D01*
X113634659Y-140304659D01*
X113505078Y-140411005D01*
X113357244Y-140490023D01*
X113357241Y-140490024D01*
X113357239Y-140490025D01*
X113196825Y-140538686D01*
X113196824Y-140538686D01*
X113196821Y-140538687D01*
X113071804Y-140551000D01*
X112988196Y-140551000D01*
X112863179Y-140538687D01*
X112863176Y-140538686D01*
X112863175Y-140538686D01*
X112702761Y-140490025D01*
X112702759Y-140490024D01*
X112702756Y-140490023D01*
X112554922Y-140411005D01*
X112425341Y-140304659D01*
X112318995Y-140175078D01*
X112239977Y-140027244D01*
X112216008Y-139948228D01*
X112191314Y-139866825D01*
X112191314Y-139866824D01*
X112191313Y-139866821D01*
X112174883Y-139700000D01*
X112191313Y-139533179D01*
X112191314Y-139533175D01*
X112239975Y-139372761D01*
X112239976Y-139372759D01*
X112239977Y-139372756D01*
X112318995Y-139224922D01*
X112425341Y-139095341D01*
X112554922Y-138988995D01*
X112702756Y-138909977D01*
X112702759Y-138909976D01*
X112702761Y-138909975D01*
X112863175Y-138861314D01*
X112863176Y-138861314D01*
X112863179Y-138861313D01*
X112988196Y-138849000D01*
X113071804Y-138849000D01*
X113196821Y-138861313D01*
X113196821Y-138861313D01*
G37*
G36*
X67558228Y-138881703D02*
X67713100Y-138945853D01*
X67852481Y-139038985D01*
X67971015Y-139157519D01*
X68064147Y-139296900D01*
X68128297Y-139451772D01*
X68161000Y-139616184D01*
X68161000Y-139783816D01*
X68128297Y-139948228D01*
X68064147Y-140103100D01*
X67971015Y-140242481D01*
X67852481Y-140361015D01*
X67713100Y-140454147D01*
X67558228Y-140518297D01*
X67393816Y-140551000D01*
X67226184Y-140551000D01*
X67061772Y-140518297D01*
X66906900Y-140454147D01*
X66767519Y-140361015D01*
X66648985Y-140242481D01*
X66555853Y-140103100D01*
X66491703Y-139948228D01*
X66459000Y-139783816D01*
X66459000Y-139616184D01*
X66491703Y-139451772D01*
X66555853Y-139296900D01*
X66648985Y-139157519D01*
X66767519Y-139038985D01*
X66906900Y-138945853D01*
X67061772Y-138881703D01*
X67226184Y-138849000D01*
X67393816Y-138849000D01*
X67558228Y-138881703D01*
X67558228Y-138881703D01*
G37*
G36*
X72558228Y-138881703D02*
X72713100Y-138945853D01*
X72852481Y-139038985D01*
X72971015Y-139157519D01*
X73064147Y-139296900D01*
X73128297Y-139451772D01*
X73161000Y-139616184D01*
X73161000Y-139783816D01*
X73128297Y-139948228D01*
X73064147Y-140103100D01*
X72971015Y-140242481D01*
X72852481Y-140361015D01*
X72713100Y-140454147D01*
X72558228Y-140518297D01*
X72393816Y-140551000D01*
X72226184Y-140551000D01*
X72061772Y-140518297D01*
X71906900Y-140454147D01*
X71767519Y-140361015D01*
X71648985Y-140242481D01*
X71555853Y-140103100D01*
X71491703Y-139948228D01*
X71459000Y-139783816D01*
X71459000Y-139616184D01*
X71491703Y-139451772D01*
X71555853Y-139296900D01*
X71648985Y-139157519D01*
X71767519Y-139038985D01*
X71906900Y-138945853D01*
X72061772Y-138881703D01*
X72226184Y-138849000D01*
X72393816Y-138849000D01*
X72558228Y-138881703D01*
X72558228Y-138881703D01*
G37*
G36*
X96686821Y-137591313D02*
X96686824Y-137591314D01*
X96686825Y-137591314D01*
X96847239Y-137639975D01*
X96847241Y-137639976D01*
X96847244Y-137639977D01*
X96995078Y-137718995D01*
X97124659Y-137825341D01*
X97231005Y-137954922D01*
X97310023Y-138102756D01*
X97358687Y-138263179D01*
X97375117Y-138430000D01*
X97358687Y-138596821D01*
X97310023Y-138757244D01*
X97231005Y-138905078D01*
X97124659Y-139034659D01*
X96995078Y-139141005D01*
X96847244Y-139220023D01*
X96847241Y-139220024D01*
X96847239Y-139220025D01*
X96686825Y-139268686D01*
X96686824Y-139268686D01*
X96686821Y-139268687D01*
X96561804Y-139281000D01*
X96478196Y-139281000D01*
X96353179Y-139268687D01*
X96353176Y-139268686D01*
X96353175Y-139268686D01*
X96192761Y-139220025D01*
X96192759Y-139220024D01*
X96192756Y-139220023D01*
X96044922Y-139141005D01*
X95915341Y-139034659D01*
X95808995Y-138905078D01*
X95729977Y-138757244D01*
X95681313Y-138596821D01*
X95664883Y-138430000D01*
X95681313Y-138263179D01*
X95729977Y-138102756D01*
X95808995Y-137954922D01*
X95915341Y-137825341D01*
X96044922Y-137718995D01*
X96192756Y-137639977D01*
X96192759Y-137639976D01*
X96192761Y-137639975D01*
X96353175Y-137591314D01*
X96353176Y-137591314D01*
X96353179Y-137591313D01*
X96478196Y-137579000D01*
X96561804Y-137579000D01*
X96686821Y-137591313D01*
X96686821Y-137591313D01*
G37*
G36*
X89066821Y-137591313D02*
X89066824Y-137591314D01*
X89066825Y-137591314D01*
X89227239Y-137639975D01*
X89227241Y-137639976D01*
X89227244Y-137639977D01*
X89375078Y-137718995D01*
X89504659Y-137825341D01*
X89611005Y-137954922D01*
X89690023Y-138102756D01*
X89738687Y-138263179D01*
X89755117Y-138430000D01*
X89738687Y-138596821D01*
X89690023Y-138757244D01*
X89611005Y-138905078D01*
X89504659Y-139034659D01*
X89375078Y-139141005D01*
X89227244Y-139220023D01*
X89227241Y-139220024D01*
X89227239Y-139220025D01*
X89066825Y-139268686D01*
X89066824Y-139268686D01*
X89066821Y-139268687D01*
X88941804Y-139281000D01*
X88858196Y-139281000D01*
X88733179Y-139268687D01*
X88733176Y-139268686D01*
X88733175Y-139268686D01*
X88572761Y-139220025D01*
X88572759Y-139220024D01*
X88572756Y-139220023D01*
X88424922Y-139141005D01*
X88295341Y-139034659D01*
X88188995Y-138905078D01*
X88109977Y-138757244D01*
X88061313Y-138596821D01*
X88044883Y-138430000D01*
X88061313Y-138263179D01*
X88109977Y-138102756D01*
X88188995Y-137954922D01*
X88295341Y-137825341D01*
X88424922Y-137718995D01*
X88572756Y-137639977D01*
X88572759Y-137639976D01*
X88572761Y-137639975D01*
X88733175Y-137591314D01*
X88733176Y-137591314D01*
X88733179Y-137591313D01*
X88858196Y-137579000D01*
X88941804Y-137579000D01*
X89066821Y-137591313D01*
X89066821Y-137591313D01*
G37*
G36*
X113196821Y-136321313D02*
X113196824Y-136321314D01*
X113196825Y-136321314D01*
X113357239Y-136369975D01*
X113357241Y-136369976D01*
X113357244Y-136369977D01*
X113505078Y-136448995D01*
X113634659Y-136555341D01*
X113741005Y-136684922D01*
X113820023Y-136832756D01*
X113868687Y-136993179D01*
X113885117Y-137160000D01*
X113868687Y-137326821D01*
X113820023Y-137487244D01*
X113741005Y-137635078D01*
X113634659Y-137764659D01*
X113505078Y-137871005D01*
X113357244Y-137950023D01*
X113357241Y-137950024D01*
X113357239Y-137950025D01*
X113196825Y-137998686D01*
X113196824Y-137998686D01*
X113196821Y-137998687D01*
X113071804Y-138011000D01*
X112988196Y-138011000D01*
X112863179Y-137998687D01*
X112863176Y-137998686D01*
X112863175Y-137998686D01*
X112702761Y-137950025D01*
X112702759Y-137950024D01*
X112702756Y-137950023D01*
X112554922Y-137871005D01*
X112425341Y-137764659D01*
X112318995Y-137635078D01*
X112239977Y-137487244D01*
X112191313Y-137326821D01*
X112174883Y-137160000D01*
X112191313Y-136993179D01*
X112239977Y-136832756D01*
X112318995Y-136684922D01*
X112425341Y-136555341D01*
X112554922Y-136448995D01*
X112702756Y-136369977D01*
X112702759Y-136369976D01*
X112702761Y-136369975D01*
X112863175Y-136321314D01*
X112863176Y-136321314D01*
X112863179Y-136321313D01*
X112988196Y-136309000D01*
X113071804Y-136309000D01*
X113196821Y-136321313D01*
X113196821Y-136321313D01*
G37*
G36*
X120816821Y-136321313D02*
X120816824Y-136321314D01*
X120816825Y-136321314D01*
X120977239Y-136369975D01*
X120977241Y-136369976D01*
X120977244Y-136369977D01*
X121125078Y-136448995D01*
X121254659Y-136555341D01*
X121361005Y-136684922D01*
X121440023Y-136832756D01*
X121488687Y-136993179D01*
X121505117Y-137160000D01*
X121488687Y-137326821D01*
X121440023Y-137487244D01*
X121361005Y-137635078D01*
X121254659Y-137764659D01*
X121125078Y-137871005D01*
X120977244Y-137950023D01*
X120977241Y-137950024D01*
X120977239Y-137950025D01*
X120816825Y-137998686D01*
X120816824Y-137998686D01*
X120816821Y-137998687D01*
X120691804Y-138011000D01*
X120608196Y-138011000D01*
X120483179Y-137998687D01*
X120483176Y-137998686D01*
X120483175Y-137998686D01*
X120322761Y-137950025D01*
X120322759Y-137950024D01*
X120322756Y-137950023D01*
X120174922Y-137871005D01*
X120045341Y-137764659D01*
X119938995Y-137635078D01*
X119859977Y-137487244D01*
X119811313Y-137326821D01*
X119794883Y-137160000D01*
X119811313Y-136993179D01*
X119859977Y-136832756D01*
X119938995Y-136684922D01*
X120045341Y-136555341D01*
X120174922Y-136448995D01*
X120322756Y-136369977D01*
X120322759Y-136369976D01*
X120322761Y-136369975D01*
X120483175Y-136321314D01*
X120483176Y-136321314D01*
X120483179Y-136321313D01*
X120608196Y-136309000D01*
X120691804Y-136309000D01*
X120816821Y-136321313D01*
X120816821Y-136321313D01*
G37*
G36*
X96686821Y-135051313D02*
X96686824Y-135051314D01*
X96686825Y-135051314D01*
X96847239Y-135099975D01*
X96847241Y-135099976D01*
X96847244Y-135099977D01*
X96995078Y-135178995D01*
X97124659Y-135285341D01*
X97231005Y-135414922D01*
X97310023Y-135562756D01*
X97358687Y-135723179D01*
X97375117Y-135890000D01*
X97358687Y-136056821D01*
X97310023Y-136217244D01*
X97231005Y-136365078D01*
X97124659Y-136494659D01*
X96995078Y-136601005D01*
X96847244Y-136680023D01*
X96847241Y-136680024D01*
X96847239Y-136680025D01*
X96686825Y-136728686D01*
X96686824Y-136728686D01*
X96686821Y-136728687D01*
X96561804Y-136741000D01*
X96478196Y-136741000D01*
X96353179Y-136728687D01*
X96353176Y-136728686D01*
X96353175Y-136728686D01*
X96192761Y-136680025D01*
X96192759Y-136680024D01*
X96192756Y-136680023D01*
X96044922Y-136601005D01*
X95915341Y-136494659D01*
X95808995Y-136365078D01*
X95729977Y-136217244D01*
X95681313Y-136056821D01*
X95664883Y-135890000D01*
X95681313Y-135723179D01*
X95729977Y-135562756D01*
X95808995Y-135414922D01*
X95915341Y-135285341D01*
X96044922Y-135178995D01*
X96192756Y-135099977D01*
X96192759Y-135099976D01*
X96192761Y-135099975D01*
X96353175Y-135051314D01*
X96353176Y-135051314D01*
X96353179Y-135051313D01*
X96478196Y-135039000D01*
X96561804Y-135039000D01*
X96686821Y-135051313D01*
X96686821Y-135051313D01*
G37*
G36*
X89066821Y-135051313D02*
X89066824Y-135051314D01*
X89066825Y-135051314D01*
X89227239Y-135099975D01*
X89227241Y-135099976D01*
X89227244Y-135099977D01*
X89375078Y-135178995D01*
X89504659Y-135285341D01*
X89611005Y-135414922D01*
X89690023Y-135562756D01*
X89738687Y-135723179D01*
X89755117Y-135890000D01*
X89738687Y-136056821D01*
X89690023Y-136217244D01*
X89611005Y-136365078D01*
X89504659Y-136494659D01*
X89375078Y-136601005D01*
X89227244Y-136680023D01*
X89227241Y-136680024D01*
X89227239Y-136680025D01*
X89066825Y-136728686D01*
X89066824Y-136728686D01*
X89066821Y-136728687D01*
X88941804Y-136741000D01*
X88858196Y-136741000D01*
X88733179Y-136728687D01*
X88733176Y-136728686D01*
X88733175Y-136728686D01*
X88572761Y-136680025D01*
X88572759Y-136680024D01*
X88572756Y-136680023D01*
X88424922Y-136601005D01*
X88295341Y-136494659D01*
X88188995Y-136365078D01*
X88109977Y-136217244D01*
X88061313Y-136056821D01*
X88044883Y-135890000D01*
X88061313Y-135723179D01*
X88109977Y-135562756D01*
X88188995Y-135414922D01*
X88295341Y-135285341D01*
X88424922Y-135178995D01*
X88572756Y-135099977D01*
X88572759Y-135099976D01*
X88572761Y-135099975D01*
X88733175Y-135051314D01*
X88733176Y-135051314D01*
X88733179Y-135051313D01*
X88858196Y-135039000D01*
X88941804Y-135039000D01*
X89066821Y-135051313D01*
X89066821Y-135051313D01*
G37*
G36*
X113196821Y-133781313D02*
X113196824Y-133781314D01*
X113196825Y-133781314D01*
X113357239Y-133829975D01*
X113357241Y-133829976D01*
X113357244Y-133829977D01*
X113505078Y-133908995D01*
X113634659Y-134015341D01*
X113741005Y-134144922D01*
X113820023Y-134292756D01*
X113868687Y-134453179D01*
X113885117Y-134620000D01*
X113868687Y-134786821D01*
X113820023Y-134947244D01*
X113741005Y-135095078D01*
X113634659Y-135224659D01*
X113505078Y-135331005D01*
X113357244Y-135410023D01*
X113357241Y-135410024D01*
X113357239Y-135410025D01*
X113196825Y-135458686D01*
X113196824Y-135458686D01*
X113196821Y-135458687D01*
X113071804Y-135471000D01*
X112988196Y-135471000D01*
X112863179Y-135458687D01*
X112863176Y-135458686D01*
X112863175Y-135458686D01*
X112702761Y-135410025D01*
X112702759Y-135410024D01*
X112702756Y-135410023D01*
X112554922Y-135331005D01*
X112425341Y-135224659D01*
X112318995Y-135095078D01*
X112239977Y-134947244D01*
X112191313Y-134786821D01*
X112174883Y-134620000D01*
X112191313Y-134453179D01*
X112239977Y-134292756D01*
X112318995Y-134144922D01*
X112425341Y-134015341D01*
X112554922Y-133908995D01*
X112702756Y-133829977D01*
X112702759Y-133829976D01*
X112702761Y-133829975D01*
X112863175Y-133781314D01*
X112863176Y-133781314D01*
X112863179Y-133781313D01*
X112988196Y-133769000D01*
X113071804Y-133769000D01*
X113196821Y-133781313D01*
X113196821Y-133781313D01*
G37*
G36*
X120816821Y-133781313D02*
X120816824Y-133781314D01*
X120816825Y-133781314D01*
X120977239Y-133829975D01*
X120977241Y-133829976D01*
X120977244Y-133829977D01*
X121125078Y-133908995D01*
X121254659Y-134015341D01*
X121361005Y-134144922D01*
X121440023Y-134292756D01*
X121488687Y-134453179D01*
X121505117Y-134620000D01*
X121488687Y-134786821D01*
X121440023Y-134947244D01*
X121361005Y-135095078D01*
X121254659Y-135224659D01*
X121125078Y-135331005D01*
X120977244Y-135410023D01*
X120977241Y-135410024D01*
X120977239Y-135410025D01*
X120816825Y-135458686D01*
X120816824Y-135458686D01*
X120816821Y-135458687D01*
X120691804Y-135471000D01*
X120608196Y-135471000D01*
X120483179Y-135458687D01*
X120483176Y-135458686D01*
X120483175Y-135458686D01*
X120322761Y-135410025D01*
X120322759Y-135410024D01*
X120322756Y-135410023D01*
X120174922Y-135331005D01*
X120045341Y-135224659D01*
X119938995Y-135095078D01*
X119859977Y-134947244D01*
X119811313Y-134786821D01*
X119794883Y-134620000D01*
X119811313Y-134453179D01*
X119859977Y-134292756D01*
X119938995Y-134144922D01*
X120045341Y-134015341D01*
X120174922Y-133908995D01*
X120322756Y-133829977D01*
X120322759Y-133829976D01*
X120322761Y-133829975D01*
X120483175Y-133781314D01*
X120483176Y-133781314D01*
X120483179Y-133781313D01*
X120608196Y-133769000D01*
X120691804Y-133769000D01*
X120816821Y-133781313D01*
X120816821Y-133781313D01*
G37*
G36*
X66206821Y-133781313D02*
X66206824Y-133781314D01*
X66206825Y-133781314D01*
X66367239Y-133829975D01*
X66367241Y-133829976D01*
X66367244Y-133829977D01*
X66515078Y-133908995D01*
X66644659Y-134015341D01*
X66751005Y-134144922D01*
X66830023Y-134292756D01*
X66878687Y-134453179D01*
X66895117Y-134620000D01*
X66878687Y-134786821D01*
X66830023Y-134947244D01*
X66751005Y-135095078D01*
X66644659Y-135224659D01*
X66515078Y-135331005D01*
X66367244Y-135410023D01*
X66367241Y-135410024D01*
X66367239Y-135410025D01*
X66206825Y-135458686D01*
X66206824Y-135458686D01*
X66206821Y-135458687D01*
X66081804Y-135471000D01*
X65998196Y-135471000D01*
X65873179Y-135458687D01*
X65873176Y-135458686D01*
X65873175Y-135458686D01*
X65712761Y-135410025D01*
X65712759Y-135410024D01*
X65712756Y-135410023D01*
X65564922Y-135331005D01*
X65435341Y-135224659D01*
X65328995Y-135095078D01*
X65249977Y-134947244D01*
X65201313Y-134786821D01*
X65184883Y-134620000D01*
X65201313Y-134453179D01*
X65249977Y-134292756D01*
X65328995Y-134144922D01*
X65435341Y-134015341D01*
X65564922Y-133908995D01*
X65712756Y-133829977D01*
X65712759Y-133829976D01*
X65712761Y-133829975D01*
X65873175Y-133781314D01*
X65873176Y-133781314D01*
X65873179Y-133781313D01*
X65998196Y-133769000D01*
X66081804Y-133769000D01*
X66206821Y-133781313D01*
X66206821Y-133781313D01*
G37*
G36*
X73826821Y-133781313D02*
X73826824Y-133781314D01*
X73826825Y-133781314D01*
X73987239Y-133829975D01*
X73987241Y-133829976D01*
X73987244Y-133829977D01*
X74135078Y-133908995D01*
X74264659Y-134015341D01*
X74371005Y-134144922D01*
X74450023Y-134292756D01*
X74498687Y-134453179D01*
X74515117Y-134620000D01*
X74498687Y-134786821D01*
X74450023Y-134947244D01*
X74371005Y-135095078D01*
X74264659Y-135224659D01*
X74135078Y-135331005D01*
X73987244Y-135410023D01*
X73987241Y-135410024D01*
X73987239Y-135410025D01*
X73826825Y-135458686D01*
X73826824Y-135458686D01*
X73826821Y-135458687D01*
X73701804Y-135471000D01*
X73618196Y-135471000D01*
X73493179Y-135458687D01*
X73493176Y-135458686D01*
X73493175Y-135458686D01*
X73332761Y-135410025D01*
X73332759Y-135410024D01*
X73332756Y-135410023D01*
X73184922Y-135331005D01*
X73055341Y-135224659D01*
X72948995Y-135095078D01*
X72869977Y-134947244D01*
X72821313Y-134786821D01*
X72804883Y-134620000D01*
X72821313Y-134453179D01*
X72869977Y-134292756D01*
X72948995Y-134144922D01*
X73055341Y-134015341D01*
X73184922Y-133908995D01*
X73332756Y-133829977D01*
X73332759Y-133829976D01*
X73332761Y-133829975D01*
X73493175Y-133781314D01*
X73493176Y-133781314D01*
X73493179Y-133781313D01*
X73618196Y-133769000D01*
X73701804Y-133769000D01*
X73826821Y-133781313D01*
X73826821Y-133781313D01*
G37*
G36*
X89066821Y-132511313D02*
X89066824Y-132511314D01*
X89066825Y-132511314D01*
X89227239Y-132559975D01*
X89227241Y-132559976D01*
X89227244Y-132559977D01*
X89375078Y-132638995D01*
X89504659Y-132745341D01*
X89611005Y-132874922D01*
X89690023Y-133022756D01*
X89738687Y-133183179D01*
X89755117Y-133350000D01*
X89738687Y-133516821D01*
X89690023Y-133677244D01*
X89611005Y-133825078D01*
X89504659Y-133954659D01*
X89375078Y-134061005D01*
X89227244Y-134140023D01*
X89227241Y-134140024D01*
X89227239Y-134140025D01*
X89066825Y-134188686D01*
X89066824Y-134188686D01*
X89066821Y-134188687D01*
X88941804Y-134201000D01*
X88858196Y-134201000D01*
X88733179Y-134188687D01*
X88733176Y-134188686D01*
X88733175Y-134188686D01*
X88572761Y-134140025D01*
X88572759Y-134140024D01*
X88572756Y-134140023D01*
X88424922Y-134061005D01*
X88295341Y-133954659D01*
X88188995Y-133825078D01*
X88109977Y-133677244D01*
X88061313Y-133516821D01*
X88044883Y-133350000D01*
X88061313Y-133183179D01*
X88109977Y-133022756D01*
X88188995Y-132874922D01*
X88295341Y-132745341D01*
X88424922Y-132638995D01*
X88572756Y-132559977D01*
X88572759Y-132559976D01*
X88572761Y-132559975D01*
X88733175Y-132511314D01*
X88733176Y-132511314D01*
X88733179Y-132511313D01*
X88858196Y-132499000D01*
X88941804Y-132499000D01*
X89066821Y-132511313D01*
X89066821Y-132511313D01*
G37*
G36*
X96686821Y-132511313D02*
X96686824Y-132511314D01*
X96686825Y-132511314D01*
X96847239Y-132559975D01*
X96847241Y-132559976D01*
X96847244Y-132559977D01*
X96995078Y-132638995D01*
X97124659Y-132745341D01*
X97231005Y-132874922D01*
X97310023Y-133022756D01*
X97358687Y-133183179D01*
X97375117Y-133350000D01*
X97358687Y-133516821D01*
X97310023Y-133677244D01*
X97231005Y-133825078D01*
X97124659Y-133954659D01*
X96995078Y-134061005D01*
X96847244Y-134140023D01*
X96847241Y-134140024D01*
X96847239Y-134140025D01*
X96686825Y-134188686D01*
X96686824Y-134188686D01*
X96686821Y-134188687D01*
X96561804Y-134201000D01*
X96478196Y-134201000D01*
X96353179Y-134188687D01*
X96353176Y-134188686D01*
X96353175Y-134188686D01*
X96192761Y-134140025D01*
X96192759Y-134140024D01*
X96192756Y-134140023D01*
X96044922Y-134061005D01*
X95915341Y-133954659D01*
X95808995Y-133825078D01*
X95729977Y-133677244D01*
X95681313Y-133516821D01*
X95664883Y-133350000D01*
X95681313Y-133183179D01*
X95729977Y-133022756D01*
X95808995Y-132874922D01*
X95915341Y-132745341D01*
X96044922Y-132638995D01*
X96192756Y-132559977D01*
X96192759Y-132559976D01*
X96192761Y-132559975D01*
X96353175Y-132511314D01*
X96353176Y-132511314D01*
X96353179Y-132511313D01*
X96478196Y-132499000D01*
X96561804Y-132499000D01*
X96686821Y-132511313D01*
X96686821Y-132511313D01*
G37*
G36*
X113196821Y-131241313D02*
X113196824Y-131241314D01*
X113196825Y-131241314D01*
X113357239Y-131289975D01*
X113357241Y-131289976D01*
X113357244Y-131289977D01*
X113505078Y-131368995D01*
X113634659Y-131475341D01*
X113741005Y-131604922D01*
X113820023Y-131752756D01*
X113868687Y-131913179D01*
X113885117Y-132080000D01*
X113868687Y-132246821D01*
X113820023Y-132407244D01*
X113741005Y-132555078D01*
X113634659Y-132684659D01*
X113505078Y-132791005D01*
X113357244Y-132870023D01*
X113357241Y-132870024D01*
X113357239Y-132870025D01*
X113196825Y-132918686D01*
X113196824Y-132918686D01*
X113196821Y-132918687D01*
X113071804Y-132931000D01*
X112988196Y-132931000D01*
X112863179Y-132918687D01*
X112863176Y-132918686D01*
X112863175Y-132918686D01*
X112702761Y-132870025D01*
X112702759Y-132870024D01*
X112702756Y-132870023D01*
X112554922Y-132791005D01*
X112425341Y-132684659D01*
X112318995Y-132555078D01*
X112239977Y-132407244D01*
X112191313Y-132246821D01*
X112174883Y-132080000D01*
X112191313Y-131913179D01*
X112239977Y-131752756D01*
X112318995Y-131604922D01*
X112425341Y-131475341D01*
X112554922Y-131368995D01*
X112702756Y-131289977D01*
X112702759Y-131289976D01*
X112702761Y-131289975D01*
X112863175Y-131241314D01*
X112863176Y-131241314D01*
X112863179Y-131241313D01*
X112988196Y-131229000D01*
X113071804Y-131229000D01*
X113196821Y-131241313D01*
X113196821Y-131241313D01*
G37*
G36*
X120816821Y-131241313D02*
X120816824Y-131241314D01*
X120816825Y-131241314D01*
X120977239Y-131289975D01*
X120977241Y-131289976D01*
X120977244Y-131289977D01*
X121125078Y-131368995D01*
X121254659Y-131475341D01*
X121361005Y-131604922D01*
X121440023Y-131752756D01*
X121488687Y-131913179D01*
X121505117Y-132080000D01*
X121488687Y-132246821D01*
X121440023Y-132407244D01*
X121361005Y-132555078D01*
X121254659Y-132684659D01*
X121125078Y-132791005D01*
X120977244Y-132870023D01*
X120977241Y-132870024D01*
X120977239Y-132870025D01*
X120816825Y-132918686D01*
X120816824Y-132918686D01*
X120816821Y-132918687D01*
X120691804Y-132931000D01*
X120608196Y-132931000D01*
X120483179Y-132918687D01*
X120483176Y-132918686D01*
X120483175Y-132918686D01*
X120322761Y-132870025D01*
X120322759Y-132870024D01*
X120322756Y-132870023D01*
X120174922Y-132791005D01*
X120045341Y-132684659D01*
X119938995Y-132555078D01*
X119859977Y-132407244D01*
X119811313Y-132246821D01*
X119794883Y-132080000D01*
X119811313Y-131913179D01*
X119859977Y-131752756D01*
X119938995Y-131604922D01*
X120045341Y-131475341D01*
X120174922Y-131368995D01*
X120322756Y-131289977D01*
X120322759Y-131289976D01*
X120322761Y-131289975D01*
X120483175Y-131241314D01*
X120483176Y-131241314D01*
X120483179Y-131241313D01*
X120608196Y-131229000D01*
X120691804Y-131229000D01*
X120816821Y-131241313D01*
X120816821Y-131241313D01*
G37*
G36*
X73826821Y-131241313D02*
X73826824Y-131241314D01*
X73826825Y-131241314D01*
X73987239Y-131289975D01*
X73987241Y-131289976D01*
X73987244Y-131289977D01*
X74135078Y-131368995D01*
X74264659Y-131475341D01*
X74371005Y-131604922D01*
X74450023Y-131752756D01*
X74498687Y-131913179D01*
X74515117Y-132080000D01*
X74498687Y-132246821D01*
X74450023Y-132407244D01*
X74371005Y-132555078D01*
X74264659Y-132684659D01*
X74135078Y-132791005D01*
X73987244Y-132870023D01*
X73987241Y-132870024D01*
X73987239Y-132870025D01*
X73826825Y-132918686D01*
X73826824Y-132918686D01*
X73826821Y-132918687D01*
X73701804Y-132931000D01*
X73618196Y-132931000D01*
X73493179Y-132918687D01*
X73493176Y-132918686D01*
X73493175Y-132918686D01*
X73332761Y-132870025D01*
X73332759Y-132870024D01*
X73332756Y-132870023D01*
X73184922Y-132791005D01*
X73055341Y-132684659D01*
X72948995Y-132555078D01*
X72869977Y-132407244D01*
X72821313Y-132246821D01*
X72804883Y-132080000D01*
X72821313Y-131913179D01*
X72869977Y-131752756D01*
X72948995Y-131604922D01*
X73055341Y-131475341D01*
X73184922Y-131368995D01*
X73332756Y-131289977D01*
X73332759Y-131289976D01*
X73332761Y-131289975D01*
X73493175Y-131241314D01*
X73493176Y-131241314D01*
X73493179Y-131241313D01*
X73618196Y-131229000D01*
X73701804Y-131229000D01*
X73826821Y-131241313D01*
X73826821Y-131241313D01*
G37*
G36*
X66206821Y-131241313D02*
X66206824Y-131241314D01*
X66206825Y-131241314D01*
X66367239Y-131289975D01*
X66367241Y-131289976D01*
X66367244Y-131289977D01*
X66515078Y-131368995D01*
X66644659Y-131475341D01*
X66751005Y-131604922D01*
X66830023Y-131752756D01*
X66878687Y-131913179D01*
X66895117Y-132080000D01*
X66878687Y-132246821D01*
X66830023Y-132407244D01*
X66751005Y-132555078D01*
X66644659Y-132684659D01*
X66515078Y-132791005D01*
X66367244Y-132870023D01*
X66367241Y-132870024D01*
X66367239Y-132870025D01*
X66206825Y-132918686D01*
X66206824Y-132918686D01*
X66206821Y-132918687D01*
X66081804Y-132931000D01*
X65998196Y-132931000D01*
X65873179Y-132918687D01*
X65873176Y-132918686D01*
X65873175Y-132918686D01*
X65712761Y-132870025D01*
X65712759Y-132870024D01*
X65712756Y-132870023D01*
X65564922Y-132791005D01*
X65435341Y-132684659D01*
X65328995Y-132555078D01*
X65249977Y-132407244D01*
X65201313Y-132246821D01*
X65184883Y-132080000D01*
X65201313Y-131913179D01*
X65249977Y-131752756D01*
X65328995Y-131604922D01*
X65435341Y-131475341D01*
X65564922Y-131368995D01*
X65712756Y-131289977D01*
X65712759Y-131289976D01*
X65712761Y-131289975D01*
X65873175Y-131241314D01*
X65873176Y-131241314D01*
X65873179Y-131241313D01*
X65998196Y-131229000D01*
X66081804Y-131229000D01*
X66206821Y-131241313D01*
X66206821Y-131241313D01*
G37*
G36*
X96686821Y-129971313D02*
X96686824Y-129971314D01*
X96686825Y-129971314D01*
X96847239Y-130019975D01*
X96847241Y-130019976D01*
X96847244Y-130019977D01*
X96995078Y-130098995D01*
X97124659Y-130205341D01*
X97231005Y-130334922D01*
X97310023Y-130482756D01*
X97358687Y-130643179D01*
X97375117Y-130810000D01*
X97358687Y-130976821D01*
X97310023Y-131137244D01*
X97231005Y-131285078D01*
X97124659Y-131414659D01*
X96995078Y-131521005D01*
X96847244Y-131600023D01*
X96847241Y-131600024D01*
X96847239Y-131600025D01*
X96686825Y-131648686D01*
X96686824Y-131648686D01*
X96686821Y-131648687D01*
X96561804Y-131661000D01*
X96478196Y-131661000D01*
X96353179Y-131648687D01*
X96353176Y-131648686D01*
X96353175Y-131648686D01*
X96192761Y-131600025D01*
X96192759Y-131600024D01*
X96192756Y-131600023D01*
X96044922Y-131521005D01*
X95915341Y-131414659D01*
X95808995Y-131285078D01*
X95729977Y-131137244D01*
X95681313Y-130976821D01*
X95664883Y-130810000D01*
X95681313Y-130643179D01*
X95729977Y-130482756D01*
X95808995Y-130334922D01*
X95915341Y-130205341D01*
X96044922Y-130098995D01*
X96192756Y-130019977D01*
X96192759Y-130019976D01*
X96192761Y-130019975D01*
X96353175Y-129971314D01*
X96353176Y-129971314D01*
X96353179Y-129971313D01*
X96478196Y-129959000D01*
X96561804Y-129959000D01*
X96686821Y-129971313D01*
X96686821Y-129971313D01*
G37*
G36*
X89066821Y-129971313D02*
X89066824Y-129971314D01*
X89066825Y-129971314D01*
X89227239Y-130019975D01*
X89227241Y-130019976D01*
X89227244Y-130019977D01*
X89375078Y-130098995D01*
X89504659Y-130205341D01*
X89611005Y-130334922D01*
X89690023Y-130482756D01*
X89738687Y-130643179D01*
X89755117Y-130810000D01*
X89738687Y-130976821D01*
X89690023Y-131137244D01*
X89611005Y-131285078D01*
X89504659Y-131414659D01*
X89375078Y-131521005D01*
X89227244Y-131600023D01*
X89227241Y-131600024D01*
X89227239Y-131600025D01*
X89066825Y-131648686D01*
X89066824Y-131648686D01*
X89066821Y-131648687D01*
X88941804Y-131661000D01*
X88858196Y-131661000D01*
X88733179Y-131648687D01*
X88733176Y-131648686D01*
X88733175Y-131648686D01*
X88572761Y-131600025D01*
X88572759Y-131600024D01*
X88572756Y-131600023D01*
X88424922Y-131521005D01*
X88295341Y-131414659D01*
X88188995Y-131285078D01*
X88109977Y-131137244D01*
X88061313Y-130976821D01*
X88044883Y-130810000D01*
X88061313Y-130643179D01*
X88109977Y-130482756D01*
X88188995Y-130334922D01*
X88295341Y-130205341D01*
X88424922Y-130098995D01*
X88572756Y-130019977D01*
X88572759Y-130019976D01*
X88572761Y-130019975D01*
X88733175Y-129971314D01*
X88733176Y-129971314D01*
X88733179Y-129971313D01*
X88858196Y-129959000D01*
X88941804Y-129959000D01*
X89066821Y-129971313D01*
X89066821Y-129971313D01*
G37*
G36*
X120816821Y-128701313D02*
X120816824Y-128701314D01*
X120816825Y-128701314D01*
X120977239Y-128749975D01*
X120977241Y-128749976D01*
X120977244Y-128749977D01*
X121125078Y-128828995D01*
X121254659Y-128935341D01*
X121361005Y-129064922D01*
X121440023Y-129212756D01*
X121488687Y-129373179D01*
X121505117Y-129540000D01*
X121488687Y-129706821D01*
X121440023Y-129867244D01*
X121361005Y-130015078D01*
X121254659Y-130144659D01*
X121125078Y-130251005D01*
X120977244Y-130330023D01*
X120977241Y-130330024D01*
X120977239Y-130330025D01*
X120816825Y-130378686D01*
X120816824Y-130378686D01*
X120816821Y-130378687D01*
X120691804Y-130391000D01*
X120608196Y-130391000D01*
X120483179Y-130378687D01*
X120483176Y-130378686D01*
X120483175Y-130378686D01*
X120322761Y-130330025D01*
X120322759Y-130330024D01*
X120322756Y-130330023D01*
X120174922Y-130251005D01*
X120045341Y-130144659D01*
X119938995Y-130015078D01*
X119859977Y-129867244D01*
X119811313Y-129706821D01*
X119794883Y-129540000D01*
X119811313Y-129373179D01*
X119859977Y-129212756D01*
X119938995Y-129064922D01*
X120045341Y-128935341D01*
X120174922Y-128828995D01*
X120322756Y-128749977D01*
X120322759Y-128749976D01*
X120322761Y-128749975D01*
X120483175Y-128701314D01*
X120483176Y-128701314D01*
X120483179Y-128701313D01*
X120608196Y-128689000D01*
X120691804Y-128689000D01*
X120816821Y-128701313D01*
X120816821Y-128701313D01*
G37*
G36*
X73826821Y-128701313D02*
X73826824Y-128701314D01*
X73826825Y-128701314D01*
X73987239Y-128749975D01*
X73987241Y-128749976D01*
X73987244Y-128749977D01*
X74135078Y-128828995D01*
X74264659Y-128935341D01*
X74371005Y-129064922D01*
X74450023Y-129212756D01*
X74498687Y-129373179D01*
X74515117Y-129540000D01*
X74498687Y-129706821D01*
X74450023Y-129867244D01*
X74371005Y-130015078D01*
X74264659Y-130144659D01*
X74135078Y-130251005D01*
X73987244Y-130330023D01*
X73987241Y-130330024D01*
X73987239Y-130330025D01*
X73826825Y-130378686D01*
X73826824Y-130378686D01*
X73826821Y-130378687D01*
X73701804Y-130391000D01*
X73618196Y-130391000D01*
X73493179Y-130378687D01*
X73493176Y-130378686D01*
X73493175Y-130378686D01*
X73332761Y-130330025D01*
X73332759Y-130330024D01*
X73332756Y-130330023D01*
X73184922Y-130251005D01*
X73055341Y-130144659D01*
X72948995Y-130015078D01*
X72869977Y-129867244D01*
X72821313Y-129706821D01*
X72804883Y-129540000D01*
X72821313Y-129373179D01*
X72869977Y-129212756D01*
X72948995Y-129064922D01*
X73055341Y-128935341D01*
X73184922Y-128828995D01*
X73332756Y-128749977D01*
X73332759Y-128749976D01*
X73332761Y-128749975D01*
X73493175Y-128701314D01*
X73493176Y-128701314D01*
X73493179Y-128701313D01*
X73618196Y-128689000D01*
X73701804Y-128689000D01*
X73826821Y-128701313D01*
X73826821Y-128701313D01*
G37*
G36*
X66206821Y-128701313D02*
X66206824Y-128701314D01*
X66206825Y-128701314D01*
X66367239Y-128749975D01*
X66367241Y-128749976D01*
X66367244Y-128749977D01*
X66515078Y-128828995D01*
X66644659Y-128935341D01*
X66751005Y-129064922D01*
X66830023Y-129212756D01*
X66878687Y-129373179D01*
X66895117Y-129540000D01*
X66878687Y-129706821D01*
X66830023Y-129867244D01*
X66751005Y-130015078D01*
X66644659Y-130144659D01*
X66515078Y-130251005D01*
X66367244Y-130330023D01*
X66367241Y-130330024D01*
X66367239Y-130330025D01*
X66206825Y-130378686D01*
X66206824Y-130378686D01*
X66206821Y-130378687D01*
X66081804Y-130391000D01*
X65998196Y-130391000D01*
X65873179Y-130378687D01*
X65873176Y-130378686D01*
X65873175Y-130378686D01*
X65712761Y-130330025D01*
X65712759Y-130330024D01*
X65712756Y-130330023D01*
X65564922Y-130251005D01*
X65435341Y-130144659D01*
X65328995Y-130015078D01*
X65249977Y-129867244D01*
X65201313Y-129706821D01*
X65184883Y-129540000D01*
X65201313Y-129373179D01*
X65249977Y-129212756D01*
X65328995Y-129064922D01*
X65435341Y-128935341D01*
X65564922Y-128828995D01*
X65712756Y-128749977D01*
X65712759Y-128749976D01*
X65712761Y-128749975D01*
X65873175Y-128701314D01*
X65873176Y-128701314D01*
X65873179Y-128701313D01*
X65998196Y-128689000D01*
X66081804Y-128689000D01*
X66206821Y-128701313D01*
X66206821Y-128701313D01*
G37*
G36*
X113196821Y-128701313D02*
X113196824Y-128701314D01*
X113196825Y-128701314D01*
X113357239Y-128749975D01*
X113357241Y-128749976D01*
X113357244Y-128749977D01*
X113505078Y-128828995D01*
X113634659Y-128935341D01*
X113741005Y-129064922D01*
X113820023Y-129212756D01*
X113868687Y-129373179D01*
X113885117Y-129540000D01*
X113868687Y-129706821D01*
X113820023Y-129867244D01*
X113741005Y-130015078D01*
X113634659Y-130144659D01*
X113505078Y-130251005D01*
X113357244Y-130330023D01*
X113357241Y-130330024D01*
X113357239Y-130330025D01*
X113196825Y-130378686D01*
X113196824Y-130378686D01*
X113196821Y-130378687D01*
X113071804Y-130391000D01*
X112988196Y-130391000D01*
X112863179Y-130378687D01*
X112863176Y-130378686D01*
X112863175Y-130378686D01*
X112702761Y-130330025D01*
X112702759Y-130330024D01*
X112702756Y-130330023D01*
X112554922Y-130251005D01*
X112425341Y-130144659D01*
X112318995Y-130015078D01*
X112239977Y-129867244D01*
X112191313Y-129706821D01*
X112174883Y-129540000D01*
X112191313Y-129373179D01*
X112239977Y-129212756D01*
X112318995Y-129064922D01*
X112425341Y-128935341D01*
X112554922Y-128828995D01*
X112702756Y-128749977D01*
X112702759Y-128749976D01*
X112702761Y-128749975D01*
X112863175Y-128701314D01*
X112863176Y-128701314D01*
X112863179Y-128701313D01*
X112988196Y-128689000D01*
X113071804Y-128689000D01*
X113196821Y-128701313D01*
X113196821Y-128701313D01*
G37*
G36*
X89066821Y-127431313D02*
X89066824Y-127431314D01*
X89066825Y-127431314D01*
X89227239Y-127479975D01*
X89227241Y-127479976D01*
X89227244Y-127479977D01*
X89375078Y-127558995D01*
X89504659Y-127665341D01*
X89611005Y-127794922D01*
X89690023Y-127942756D01*
X89738687Y-128103179D01*
X89755117Y-128270000D01*
X89738687Y-128436821D01*
X89690023Y-128597244D01*
X89611005Y-128745078D01*
X89504659Y-128874659D01*
X89375078Y-128981005D01*
X89227244Y-129060023D01*
X89227241Y-129060024D01*
X89227239Y-129060025D01*
X89066825Y-129108686D01*
X89066824Y-129108686D01*
X89066821Y-129108687D01*
X88941804Y-129121000D01*
X88858196Y-129121000D01*
X88733179Y-129108687D01*
X88733176Y-129108686D01*
X88733175Y-129108686D01*
X88572761Y-129060025D01*
X88572759Y-129060024D01*
X88572756Y-129060023D01*
X88424922Y-128981005D01*
X88295341Y-128874659D01*
X88188995Y-128745078D01*
X88109977Y-128597244D01*
X88061313Y-128436821D01*
X88044883Y-128270000D01*
X88061313Y-128103179D01*
X88109977Y-127942756D01*
X88188995Y-127794922D01*
X88295341Y-127665341D01*
X88424922Y-127558995D01*
X88572756Y-127479977D01*
X88572759Y-127479976D01*
X88572761Y-127479975D01*
X88733175Y-127431314D01*
X88733176Y-127431314D01*
X88733179Y-127431313D01*
X88858196Y-127419000D01*
X88941804Y-127419000D01*
X89066821Y-127431313D01*
X89066821Y-127431313D01*
G37*
G36*
X96686821Y-127431313D02*
X96686824Y-127431314D01*
X96686825Y-127431314D01*
X96847239Y-127479975D01*
X96847241Y-127479976D01*
X96847244Y-127479977D01*
X96995078Y-127558995D01*
X97124659Y-127665341D01*
X97231005Y-127794922D01*
X97310023Y-127942756D01*
X97358687Y-128103179D01*
X97375117Y-128270000D01*
X97358687Y-128436821D01*
X97310023Y-128597244D01*
X97231005Y-128745078D01*
X97124659Y-128874659D01*
X96995078Y-128981005D01*
X96847244Y-129060023D01*
X96847241Y-129060024D01*
X96847239Y-129060025D01*
X96686825Y-129108686D01*
X96686824Y-129108686D01*
X96686821Y-129108687D01*
X96561804Y-129121000D01*
X96478196Y-129121000D01*
X96353179Y-129108687D01*
X96353176Y-129108686D01*
X96353175Y-129108686D01*
X96192761Y-129060025D01*
X96192759Y-129060024D01*
X96192756Y-129060023D01*
X96044922Y-128981005D01*
X95915341Y-128874659D01*
X95808995Y-128745078D01*
X95729977Y-128597244D01*
X95681313Y-128436821D01*
X95664883Y-128270000D01*
X95681313Y-128103179D01*
X95729977Y-127942756D01*
X95808995Y-127794922D01*
X95915341Y-127665341D01*
X96044922Y-127558995D01*
X96192756Y-127479977D01*
X96192759Y-127479976D01*
X96192761Y-127479975D01*
X96353175Y-127431314D01*
X96353176Y-127431314D01*
X96353179Y-127431313D01*
X96478196Y-127419000D01*
X96561804Y-127419000D01*
X96686821Y-127431313D01*
X96686821Y-127431313D01*
G37*
G36*
X113196821Y-126161313D02*
X113196824Y-126161314D01*
X113196825Y-126161314D01*
X113357239Y-126209975D01*
X113357241Y-126209976D01*
X113357244Y-126209977D01*
X113505078Y-126288995D01*
X113634659Y-126395341D01*
X113741005Y-126524922D01*
X113820023Y-126672756D01*
X113868687Y-126833179D01*
X113885117Y-127000000D01*
X113868687Y-127166821D01*
X113820023Y-127327244D01*
X113741005Y-127475078D01*
X113634659Y-127604659D01*
X113505078Y-127711005D01*
X113357244Y-127790023D01*
X113357241Y-127790024D01*
X113357239Y-127790025D01*
X113196825Y-127838686D01*
X113196824Y-127838686D01*
X113196821Y-127838687D01*
X113071804Y-127851000D01*
X112988196Y-127851000D01*
X112863179Y-127838687D01*
X112863176Y-127838686D01*
X112863175Y-127838686D01*
X112702761Y-127790025D01*
X112702759Y-127790024D01*
X112702756Y-127790023D01*
X112554922Y-127711005D01*
X112425341Y-127604659D01*
X112318995Y-127475078D01*
X112239977Y-127327244D01*
X112191313Y-127166821D01*
X112174883Y-127000000D01*
X112191313Y-126833179D01*
X112239977Y-126672756D01*
X112318995Y-126524922D01*
X112425341Y-126395341D01*
X112554922Y-126288995D01*
X112702756Y-126209977D01*
X112702759Y-126209976D01*
X112702761Y-126209975D01*
X112863175Y-126161314D01*
X112863176Y-126161314D01*
X112863179Y-126161313D01*
X112988196Y-126149000D01*
X113071804Y-126149000D01*
X113196821Y-126161313D01*
X113196821Y-126161313D01*
G37*
G36*
X120816821Y-126161313D02*
X120816824Y-126161314D01*
X120816825Y-126161314D01*
X120977239Y-126209975D01*
X120977241Y-126209976D01*
X120977244Y-126209977D01*
X121125078Y-126288995D01*
X121254659Y-126395341D01*
X121361005Y-126524922D01*
X121440023Y-126672756D01*
X121488687Y-126833179D01*
X121505117Y-127000000D01*
X121488687Y-127166821D01*
X121440023Y-127327244D01*
X121361005Y-127475078D01*
X121254659Y-127604659D01*
X121125078Y-127711005D01*
X120977244Y-127790023D01*
X120977241Y-127790024D01*
X120977239Y-127790025D01*
X120816825Y-127838686D01*
X120816824Y-127838686D01*
X120816821Y-127838687D01*
X120691804Y-127851000D01*
X120608196Y-127851000D01*
X120483179Y-127838687D01*
X120483176Y-127838686D01*
X120483175Y-127838686D01*
X120322761Y-127790025D01*
X120322759Y-127790024D01*
X120322756Y-127790023D01*
X120174922Y-127711005D01*
X120045341Y-127604659D01*
X119938995Y-127475078D01*
X119859977Y-127327244D01*
X119811313Y-127166821D01*
X119794883Y-127000000D01*
X119811313Y-126833179D01*
X119859977Y-126672756D01*
X119938995Y-126524922D01*
X120045341Y-126395341D01*
X120174922Y-126288995D01*
X120322756Y-126209977D01*
X120322759Y-126209976D01*
X120322761Y-126209975D01*
X120483175Y-126161314D01*
X120483176Y-126161314D01*
X120483179Y-126161313D01*
X120608196Y-126149000D01*
X120691804Y-126149000D01*
X120816821Y-126161313D01*
X120816821Y-126161313D01*
G37*
G36*
X73826821Y-126161313D02*
X73826824Y-126161314D01*
X73826825Y-126161314D01*
X73987239Y-126209975D01*
X73987241Y-126209976D01*
X73987244Y-126209977D01*
X74135078Y-126288995D01*
X74264659Y-126395341D01*
X74371005Y-126524922D01*
X74450023Y-126672756D01*
X74498687Y-126833179D01*
X74515117Y-127000000D01*
X74498687Y-127166821D01*
X74450023Y-127327244D01*
X74371005Y-127475078D01*
X74264659Y-127604659D01*
X74135078Y-127711005D01*
X73987244Y-127790023D01*
X73987241Y-127790024D01*
X73987239Y-127790025D01*
X73826825Y-127838686D01*
X73826824Y-127838686D01*
X73826821Y-127838687D01*
X73701804Y-127851000D01*
X73618196Y-127851000D01*
X73493179Y-127838687D01*
X73493176Y-127838686D01*
X73493175Y-127838686D01*
X73332761Y-127790025D01*
X73332759Y-127790024D01*
X73332756Y-127790023D01*
X73184922Y-127711005D01*
X73055341Y-127604659D01*
X72948995Y-127475078D01*
X72869977Y-127327244D01*
X72821313Y-127166821D01*
X72804883Y-127000000D01*
X72821313Y-126833179D01*
X72869977Y-126672756D01*
X72948995Y-126524922D01*
X73055341Y-126395341D01*
X73184922Y-126288995D01*
X73332756Y-126209977D01*
X73332759Y-126209976D01*
X73332761Y-126209975D01*
X73493175Y-126161314D01*
X73493176Y-126161314D01*
X73493179Y-126161313D01*
X73618196Y-126149000D01*
X73701804Y-126149000D01*
X73826821Y-126161313D01*
X73826821Y-126161313D01*
G37*
G36*
X66206821Y-126161313D02*
X66206824Y-126161314D01*
X66206825Y-126161314D01*
X66367239Y-126209975D01*
X66367241Y-126209976D01*
X66367244Y-126209977D01*
X66515078Y-126288995D01*
X66644659Y-126395341D01*
X66751005Y-126524922D01*
X66830023Y-126672756D01*
X66878687Y-126833179D01*
X66895117Y-127000000D01*
X66878687Y-127166821D01*
X66830023Y-127327244D01*
X66751005Y-127475078D01*
X66644659Y-127604659D01*
X66515078Y-127711005D01*
X66367244Y-127790023D01*
X66367241Y-127790024D01*
X66367239Y-127790025D01*
X66206825Y-127838686D01*
X66206824Y-127838686D01*
X66206821Y-127838687D01*
X66081804Y-127851000D01*
X65998196Y-127851000D01*
X65873179Y-127838687D01*
X65873176Y-127838686D01*
X65873175Y-127838686D01*
X65712761Y-127790025D01*
X65712759Y-127790024D01*
X65712756Y-127790023D01*
X65564922Y-127711005D01*
X65435341Y-127604659D01*
X65328995Y-127475078D01*
X65249977Y-127327244D01*
X65201313Y-127166821D01*
X65184883Y-127000000D01*
X65201313Y-126833179D01*
X65249977Y-126672756D01*
X65328995Y-126524922D01*
X65435341Y-126395341D01*
X65564922Y-126288995D01*
X65712756Y-126209977D01*
X65712759Y-126209976D01*
X65712761Y-126209975D01*
X65873175Y-126161314D01*
X65873176Y-126161314D01*
X65873179Y-126161313D01*
X65998196Y-126149000D01*
X66081804Y-126149000D01*
X66206821Y-126161313D01*
X66206821Y-126161313D01*
G37*
G36*
X89066821Y-124891313D02*
X89066824Y-124891314D01*
X89066825Y-124891314D01*
X89227239Y-124939975D01*
X89227241Y-124939976D01*
X89227244Y-124939977D01*
X89375078Y-125018995D01*
X89504659Y-125125341D01*
X89611005Y-125254922D01*
X89690023Y-125402756D01*
X89738687Y-125563179D01*
X89755117Y-125730000D01*
X89738687Y-125896821D01*
X89690023Y-126057244D01*
X89611005Y-126205078D01*
X89504659Y-126334659D01*
X89375078Y-126441005D01*
X89227244Y-126520023D01*
X89227241Y-126520024D01*
X89227239Y-126520025D01*
X89066825Y-126568686D01*
X89066824Y-126568686D01*
X89066821Y-126568687D01*
X88941804Y-126581000D01*
X88858196Y-126581000D01*
X88733179Y-126568687D01*
X88733176Y-126568686D01*
X88733175Y-126568686D01*
X88572761Y-126520025D01*
X88572759Y-126520024D01*
X88572756Y-126520023D01*
X88424922Y-126441005D01*
X88295341Y-126334659D01*
X88188995Y-126205078D01*
X88109977Y-126057244D01*
X88061313Y-125896821D01*
X88044883Y-125730000D01*
X88061313Y-125563179D01*
X88109977Y-125402756D01*
X88188995Y-125254922D01*
X88295341Y-125125341D01*
X88424922Y-125018995D01*
X88572756Y-124939977D01*
X88572759Y-124939976D01*
X88572761Y-124939975D01*
X88733175Y-124891314D01*
X88733176Y-124891314D01*
X88733179Y-124891313D01*
X88858196Y-124879000D01*
X88941804Y-124879000D01*
X89066821Y-124891313D01*
X89066821Y-124891313D01*
G37*
G36*
X96686821Y-124891313D02*
X96686824Y-124891314D01*
X96686825Y-124891314D01*
X96847239Y-124939975D01*
X96847241Y-124939976D01*
X96847244Y-124939977D01*
X96995078Y-125018995D01*
X97124659Y-125125341D01*
X97231005Y-125254922D01*
X97310023Y-125402756D01*
X97358687Y-125563179D01*
X97375117Y-125730000D01*
X97358687Y-125896821D01*
X97310023Y-126057244D01*
X97231005Y-126205078D01*
X97124659Y-126334659D01*
X96995078Y-126441005D01*
X96847244Y-126520023D01*
X96847241Y-126520024D01*
X96847239Y-126520025D01*
X96686825Y-126568686D01*
X96686824Y-126568686D01*
X96686821Y-126568687D01*
X96561804Y-126581000D01*
X96478196Y-126581000D01*
X96353179Y-126568687D01*
X96353176Y-126568686D01*
X96353175Y-126568686D01*
X96192761Y-126520025D01*
X96192759Y-126520024D01*
X96192756Y-126520023D01*
X96044922Y-126441005D01*
X95915341Y-126334659D01*
X95808995Y-126205078D01*
X95729977Y-126057244D01*
X95681313Y-125896821D01*
X95664883Y-125730000D01*
X95681313Y-125563179D01*
X95729977Y-125402756D01*
X95808995Y-125254922D01*
X95915341Y-125125341D01*
X96044922Y-125018995D01*
X96192756Y-124939977D01*
X96192759Y-124939976D01*
X96192761Y-124939975D01*
X96353175Y-124891314D01*
X96353176Y-124891314D01*
X96353179Y-124891313D01*
X96478196Y-124879000D01*
X96561804Y-124879000D01*
X96686821Y-124891313D01*
X96686821Y-124891313D01*
G37*
G36*
X120816821Y-123621313D02*
X120816824Y-123621314D01*
X120816825Y-123621314D01*
X120977239Y-123669975D01*
X120977241Y-123669976D01*
X120977244Y-123669977D01*
X121125078Y-123748995D01*
X121254659Y-123855341D01*
X121361005Y-123984922D01*
X121440023Y-124132756D01*
X121488687Y-124293179D01*
X121505117Y-124460000D01*
X121488687Y-124626821D01*
X121440023Y-124787244D01*
X121361005Y-124935078D01*
X121254659Y-125064659D01*
X121125078Y-125171005D01*
X120977244Y-125250023D01*
X120977241Y-125250024D01*
X120977239Y-125250025D01*
X120816825Y-125298686D01*
X120816824Y-125298686D01*
X120816821Y-125298687D01*
X120691804Y-125311000D01*
X120608196Y-125311000D01*
X120483179Y-125298687D01*
X120483176Y-125298686D01*
X120483175Y-125298686D01*
X120322761Y-125250025D01*
X120322759Y-125250024D01*
X120322756Y-125250023D01*
X120174922Y-125171005D01*
X120045341Y-125064659D01*
X119938995Y-124935078D01*
X119859977Y-124787244D01*
X119811313Y-124626821D01*
X119794883Y-124460000D01*
X119811313Y-124293179D01*
X119859977Y-124132756D01*
X119938995Y-123984922D01*
X120045341Y-123855341D01*
X120174922Y-123748995D01*
X120322756Y-123669977D01*
X120322759Y-123669976D01*
X120322761Y-123669975D01*
X120483175Y-123621314D01*
X120483176Y-123621314D01*
X120483179Y-123621313D01*
X120608196Y-123609000D01*
X120691804Y-123609000D01*
X120816821Y-123621313D01*
X120816821Y-123621313D01*
G37*
G36*
X66206821Y-123621313D02*
X66206824Y-123621314D01*
X66206825Y-123621314D01*
X66367239Y-123669975D01*
X66367241Y-123669976D01*
X66367244Y-123669977D01*
X66515078Y-123748995D01*
X66644659Y-123855341D01*
X66751005Y-123984922D01*
X66830023Y-124132756D01*
X66878687Y-124293179D01*
X66895117Y-124460000D01*
X66878687Y-124626821D01*
X66830023Y-124787244D01*
X66751005Y-124935078D01*
X66644659Y-125064659D01*
X66515078Y-125171005D01*
X66367244Y-125250023D01*
X66367241Y-125250024D01*
X66367239Y-125250025D01*
X66206825Y-125298686D01*
X66206824Y-125298686D01*
X66206821Y-125298687D01*
X66081804Y-125311000D01*
X65998196Y-125311000D01*
X65873179Y-125298687D01*
X65873176Y-125298686D01*
X65873175Y-125298686D01*
X65712761Y-125250025D01*
X65712759Y-125250024D01*
X65712756Y-125250023D01*
X65564922Y-125171005D01*
X65435341Y-125064659D01*
X65328995Y-124935078D01*
X65249977Y-124787244D01*
X65201313Y-124626821D01*
X65184883Y-124460000D01*
X65201313Y-124293179D01*
X65249977Y-124132756D01*
X65328995Y-123984922D01*
X65435341Y-123855341D01*
X65564922Y-123748995D01*
X65712756Y-123669977D01*
X65712759Y-123669976D01*
X65712761Y-123669975D01*
X65873175Y-123621314D01*
X65873176Y-123621314D01*
X65873179Y-123621313D01*
X65998196Y-123609000D01*
X66081804Y-123609000D01*
X66206821Y-123621313D01*
X66206821Y-123621313D01*
G37*
G36*
X113196821Y-123621313D02*
X113196824Y-123621314D01*
X113196825Y-123621314D01*
X113357239Y-123669975D01*
X113357241Y-123669976D01*
X113357244Y-123669977D01*
X113505078Y-123748995D01*
X113634659Y-123855341D01*
X113741005Y-123984922D01*
X113820023Y-124132756D01*
X113868687Y-124293179D01*
X113885117Y-124460000D01*
X113868687Y-124626821D01*
X113820023Y-124787244D01*
X113741005Y-124935078D01*
X113634659Y-125064659D01*
X113505078Y-125171005D01*
X113357244Y-125250023D01*
X113357241Y-125250024D01*
X113357239Y-125250025D01*
X113196825Y-125298686D01*
X113196824Y-125298686D01*
X113196821Y-125298687D01*
X113071804Y-125311000D01*
X112988196Y-125311000D01*
X112863179Y-125298687D01*
X112863176Y-125298686D01*
X112863175Y-125298686D01*
X112702761Y-125250025D01*
X112702759Y-125250024D01*
X112702756Y-125250023D01*
X112554922Y-125171005D01*
X112425341Y-125064659D01*
X112318995Y-124935078D01*
X112239977Y-124787244D01*
X112191313Y-124626821D01*
X112174883Y-124460000D01*
X112191313Y-124293179D01*
X112239977Y-124132756D01*
X112318995Y-123984922D01*
X112425341Y-123855341D01*
X112554922Y-123748995D01*
X112702756Y-123669977D01*
X112702759Y-123669976D01*
X112702761Y-123669975D01*
X112863175Y-123621314D01*
X112863176Y-123621314D01*
X112863179Y-123621313D01*
X112988196Y-123609000D01*
X113071804Y-123609000D01*
X113196821Y-123621313D01*
X113196821Y-123621313D01*
G37*
G36*
X73826821Y-123621313D02*
X73826824Y-123621314D01*
X73826825Y-123621314D01*
X73987239Y-123669975D01*
X73987241Y-123669976D01*
X73987244Y-123669977D01*
X74135078Y-123748995D01*
X74264659Y-123855341D01*
X74371005Y-123984922D01*
X74450023Y-124132756D01*
X74498687Y-124293179D01*
X74515117Y-124460000D01*
X74498687Y-124626821D01*
X74450023Y-124787244D01*
X74371005Y-124935078D01*
X74264659Y-125064659D01*
X74135078Y-125171005D01*
X73987244Y-125250023D01*
X73987241Y-125250024D01*
X73987239Y-125250025D01*
X73826825Y-125298686D01*
X73826824Y-125298686D01*
X73826821Y-125298687D01*
X73701804Y-125311000D01*
X73618196Y-125311000D01*
X73493179Y-125298687D01*
X73493176Y-125298686D01*
X73493175Y-125298686D01*
X73332761Y-125250025D01*
X73332759Y-125250024D01*
X73332756Y-125250023D01*
X73184922Y-125171005D01*
X73055341Y-125064659D01*
X72948995Y-124935078D01*
X72869977Y-124787244D01*
X72821313Y-124626821D01*
X72804883Y-124460000D01*
X72821313Y-124293179D01*
X72869977Y-124132756D01*
X72948995Y-123984922D01*
X73055341Y-123855341D01*
X73184922Y-123748995D01*
X73332756Y-123669977D01*
X73332759Y-123669976D01*
X73332761Y-123669975D01*
X73493175Y-123621314D01*
X73493176Y-123621314D01*
X73493179Y-123621313D01*
X73618196Y-123609000D01*
X73701804Y-123609000D01*
X73826821Y-123621313D01*
X73826821Y-123621313D01*
G37*
G36*
X89066821Y-122351313D02*
X89066824Y-122351314D01*
X89066825Y-122351314D01*
X89227239Y-122399975D01*
X89227241Y-122399976D01*
X89227244Y-122399977D01*
X89375078Y-122478995D01*
X89504659Y-122585341D01*
X89611005Y-122714922D01*
X89690023Y-122862756D01*
X89738687Y-123023179D01*
X89755117Y-123190000D01*
X89738687Y-123356821D01*
X89690023Y-123517244D01*
X89611005Y-123665078D01*
X89504659Y-123794659D01*
X89375078Y-123901005D01*
X89227244Y-123980023D01*
X89227241Y-123980024D01*
X89227239Y-123980025D01*
X89066825Y-124028686D01*
X89066824Y-124028686D01*
X89066821Y-124028687D01*
X88941804Y-124041000D01*
X88858196Y-124041000D01*
X88733179Y-124028687D01*
X88733176Y-124028686D01*
X88733175Y-124028686D01*
X88572761Y-123980025D01*
X88572759Y-123980024D01*
X88572756Y-123980023D01*
X88424922Y-123901005D01*
X88295341Y-123794659D01*
X88188995Y-123665078D01*
X88109977Y-123517244D01*
X88061313Y-123356821D01*
X88044883Y-123190000D01*
X88061313Y-123023179D01*
X88109977Y-122862756D01*
X88188995Y-122714922D01*
X88295341Y-122585341D01*
X88424922Y-122478995D01*
X88572756Y-122399977D01*
X88572759Y-122399976D01*
X88572761Y-122399975D01*
X88733175Y-122351314D01*
X88733176Y-122351314D01*
X88733179Y-122351313D01*
X88858196Y-122339000D01*
X88941804Y-122339000D01*
X89066821Y-122351313D01*
X89066821Y-122351313D01*
G37*
G36*
X96686821Y-122351313D02*
X96686824Y-122351314D01*
X96686825Y-122351314D01*
X96847239Y-122399975D01*
X96847241Y-122399976D01*
X96847244Y-122399977D01*
X96995078Y-122478995D01*
X97124659Y-122585341D01*
X97231005Y-122714922D01*
X97310023Y-122862756D01*
X97358687Y-123023179D01*
X97375117Y-123190000D01*
X97358687Y-123356821D01*
X97310023Y-123517244D01*
X97231005Y-123665078D01*
X97124659Y-123794659D01*
X96995078Y-123901005D01*
X96847244Y-123980023D01*
X96847241Y-123980024D01*
X96847239Y-123980025D01*
X96686825Y-124028686D01*
X96686824Y-124028686D01*
X96686821Y-124028687D01*
X96561804Y-124041000D01*
X96478196Y-124041000D01*
X96353179Y-124028687D01*
X96353176Y-124028686D01*
X96353175Y-124028686D01*
X96192761Y-123980025D01*
X96192759Y-123980024D01*
X96192756Y-123980023D01*
X96044922Y-123901005D01*
X95915341Y-123794659D01*
X95808995Y-123665078D01*
X95729977Y-123517244D01*
X95681313Y-123356821D01*
X95664883Y-123190000D01*
X95681313Y-123023179D01*
X95729977Y-122862756D01*
X95808995Y-122714922D01*
X95915341Y-122585341D01*
X96044922Y-122478995D01*
X96192756Y-122399977D01*
X96192759Y-122399976D01*
X96192761Y-122399975D01*
X96353175Y-122351314D01*
X96353176Y-122351314D01*
X96353179Y-122351313D01*
X96478196Y-122339000D01*
X96561804Y-122339000D01*
X96686821Y-122351313D01*
X96686821Y-122351313D01*
G37*
G36*
X120816821Y-121081313D02*
X120816824Y-121081314D01*
X120816825Y-121081314D01*
X120977239Y-121129975D01*
X120977241Y-121129976D01*
X120977244Y-121129977D01*
X121125078Y-121208995D01*
X121254659Y-121315341D01*
X121361005Y-121444922D01*
X121440023Y-121592756D01*
X121440024Y-121592759D01*
X121440025Y-121592761D01*
X121471987Y-121698127D01*
X121488687Y-121753179D01*
X121505117Y-121920000D01*
X121488687Y-122086821D01*
X121488686Y-122086824D01*
X121488686Y-122086825D01*
X121451690Y-122208786D01*
X121440023Y-122247244D01*
X121361005Y-122395078D01*
X121254659Y-122524659D01*
X121125078Y-122631005D01*
X120977244Y-122710023D01*
X120977241Y-122710024D01*
X120977239Y-122710025D01*
X120816825Y-122758686D01*
X120816824Y-122758686D01*
X120816821Y-122758687D01*
X120691804Y-122771000D01*
X120608196Y-122771000D01*
X120483179Y-122758687D01*
X120483176Y-122758686D01*
X120483175Y-122758686D01*
X120322761Y-122710025D01*
X120322759Y-122710024D01*
X120322756Y-122710023D01*
X120174922Y-122631005D01*
X120045341Y-122524659D01*
X119938995Y-122395078D01*
X119859977Y-122247244D01*
X119848311Y-122208786D01*
X119811314Y-122086825D01*
X119811314Y-122086824D01*
X119811313Y-122086821D01*
X119794883Y-121920000D01*
X119811313Y-121753179D01*
X119828013Y-121698127D01*
X119859975Y-121592761D01*
X119859976Y-121592759D01*
X119859977Y-121592756D01*
X119938995Y-121444922D01*
X120045341Y-121315341D01*
X120174922Y-121208995D01*
X120322756Y-121129977D01*
X120322759Y-121129976D01*
X120322761Y-121129975D01*
X120483175Y-121081314D01*
X120483176Y-121081314D01*
X120483179Y-121081313D01*
X120608196Y-121069000D01*
X120691804Y-121069000D01*
X120816821Y-121081313D01*
X120816821Y-121081313D01*
G37*
G36*
X113881000Y-122771000D02*
X112179000Y-122771000D01*
X112179000Y-121069000D01*
X113881000Y-121069000D01*
X113881000Y-122771000D01*
X113881000Y-122771000D01*
G37*
G36*
X73826821Y-121081313D02*
X73826824Y-121081314D01*
X73826825Y-121081314D01*
X73987239Y-121129975D01*
X73987241Y-121129976D01*
X73987244Y-121129977D01*
X74135078Y-121208995D01*
X74264659Y-121315341D01*
X74371005Y-121444922D01*
X74450023Y-121592756D01*
X74450024Y-121592759D01*
X74450025Y-121592761D01*
X74481987Y-121698127D01*
X74498687Y-121753179D01*
X74515117Y-121920000D01*
X74498687Y-122086821D01*
X74498686Y-122086824D01*
X74498686Y-122086825D01*
X74461690Y-122208786D01*
X74450023Y-122247244D01*
X74371005Y-122395078D01*
X74264659Y-122524659D01*
X74135078Y-122631005D01*
X73987244Y-122710023D01*
X73987241Y-122710024D01*
X73987239Y-122710025D01*
X73826825Y-122758686D01*
X73826824Y-122758686D01*
X73826821Y-122758687D01*
X73701804Y-122771000D01*
X73618196Y-122771000D01*
X73493179Y-122758687D01*
X73493176Y-122758686D01*
X73493175Y-122758686D01*
X73332761Y-122710025D01*
X73332759Y-122710024D01*
X73332756Y-122710023D01*
X73184922Y-122631005D01*
X73055341Y-122524659D01*
X72948995Y-122395078D01*
X72869977Y-122247244D01*
X72858311Y-122208786D01*
X72821314Y-122086825D01*
X72821314Y-122086824D01*
X72821313Y-122086821D01*
X72804883Y-121920000D01*
X72821313Y-121753179D01*
X72838013Y-121698127D01*
X72869975Y-121592761D01*
X72869976Y-121592759D01*
X72869977Y-121592756D01*
X72948995Y-121444922D01*
X73055341Y-121315341D01*
X73184922Y-121208995D01*
X73332756Y-121129977D01*
X73332759Y-121129976D01*
X73332761Y-121129975D01*
X73493175Y-121081314D01*
X73493176Y-121081314D01*
X73493179Y-121081313D01*
X73618196Y-121069000D01*
X73701804Y-121069000D01*
X73826821Y-121081313D01*
X73826821Y-121081313D01*
G37*
G36*
X66206821Y-121081313D02*
X66206824Y-121081314D01*
X66206825Y-121081314D01*
X66367239Y-121129975D01*
X66367241Y-121129976D01*
X66367244Y-121129977D01*
X66515078Y-121208995D01*
X66644659Y-121315341D01*
X66751005Y-121444922D01*
X66830023Y-121592756D01*
X66830024Y-121592759D01*
X66830025Y-121592761D01*
X66861987Y-121698127D01*
X66878687Y-121753179D01*
X66895117Y-121920000D01*
X66878687Y-122086821D01*
X66878686Y-122086824D01*
X66878686Y-122086825D01*
X66841690Y-122208786D01*
X66830023Y-122247244D01*
X66751005Y-122395078D01*
X66644659Y-122524659D01*
X66515078Y-122631005D01*
X66367244Y-122710023D01*
X66367241Y-122710024D01*
X66367239Y-122710025D01*
X66206825Y-122758686D01*
X66206824Y-122758686D01*
X66206821Y-122758687D01*
X66081804Y-122771000D01*
X65998196Y-122771000D01*
X65873179Y-122758687D01*
X65873176Y-122758686D01*
X65873175Y-122758686D01*
X65712761Y-122710025D01*
X65712759Y-122710024D01*
X65712756Y-122710023D01*
X65564922Y-122631005D01*
X65435341Y-122524659D01*
X65328995Y-122395078D01*
X65249977Y-122247244D01*
X65238311Y-122208786D01*
X65201314Y-122086825D01*
X65201314Y-122086824D01*
X65201313Y-122086821D01*
X65184883Y-121920000D01*
X65201313Y-121753179D01*
X65218013Y-121698127D01*
X65249975Y-121592761D01*
X65249976Y-121592759D01*
X65249977Y-121592756D01*
X65328995Y-121444922D01*
X65435341Y-121315341D01*
X65564922Y-121208995D01*
X65712756Y-121129977D01*
X65712759Y-121129976D01*
X65712761Y-121129975D01*
X65873175Y-121081314D01*
X65873176Y-121081314D01*
X65873179Y-121081313D01*
X65998196Y-121069000D01*
X66081804Y-121069000D01*
X66206821Y-121081313D01*
X66206821Y-121081313D01*
G37*
G36*
X133423665Y-121172622D02*
X133497222Y-121179867D01*
X133638786Y-121222810D01*
X133769252Y-121292546D01*
X133883606Y-121386394D01*
X133977454Y-121500748D01*
X134047190Y-121631214D01*
X134090133Y-121772778D01*
X134104633Y-121920000D01*
X134090133Y-122067222D01*
X134047190Y-122208786D01*
X133977454Y-122339252D01*
X133883606Y-122453606D01*
X133769252Y-122547454D01*
X133638786Y-122617190D01*
X133497222Y-122660133D01*
X133423665Y-122667378D01*
X133386888Y-122671000D01*
X133313112Y-122671000D01*
X133276335Y-122667378D01*
X133202778Y-122660133D01*
X133061214Y-122617190D01*
X132930748Y-122547454D01*
X132816394Y-122453606D01*
X132722546Y-122339252D01*
X132652810Y-122208786D01*
X132609867Y-122067222D01*
X132595367Y-121920000D01*
X132609867Y-121772778D01*
X132652810Y-121631214D01*
X132722546Y-121500748D01*
X132816394Y-121386394D01*
X132930748Y-121292546D01*
X133061214Y-121222810D01*
X133202778Y-121179867D01*
X133276335Y-121172622D01*
X133313112Y-121169000D01*
X133386888Y-121169000D01*
X133423665Y-121172622D01*
X133423665Y-121172622D01*
G37*
G36*
X125803665Y-121172622D02*
X125877222Y-121179867D01*
X126018786Y-121222810D01*
X126149252Y-121292546D01*
X126263606Y-121386394D01*
X126357454Y-121500748D01*
X126427190Y-121631214D01*
X126470133Y-121772778D01*
X126484633Y-121920000D01*
X126470133Y-122067222D01*
X126427190Y-122208786D01*
X126357454Y-122339252D01*
X126263606Y-122453606D01*
X126149252Y-122547454D01*
X126018786Y-122617190D01*
X125877222Y-122660133D01*
X125803665Y-122667378D01*
X125766888Y-122671000D01*
X125693112Y-122671000D01*
X125656335Y-122667378D01*
X125582778Y-122660133D01*
X125441214Y-122617190D01*
X125310748Y-122547454D01*
X125196394Y-122453606D01*
X125102546Y-122339252D01*
X125032810Y-122208786D01*
X124989867Y-122067222D01*
X124975367Y-121920000D01*
X124989867Y-121772778D01*
X125032810Y-121631214D01*
X125102546Y-121500748D01*
X125196394Y-121386394D01*
X125310748Y-121292546D01*
X125441214Y-121222810D01*
X125582778Y-121179867D01*
X125656335Y-121172622D01*
X125693112Y-121169000D01*
X125766888Y-121169000D01*
X125803665Y-121172622D01*
X125803665Y-121172622D01*
G37*
G36*
X128343665Y-121172622D02*
X128417222Y-121179867D01*
X128558786Y-121222810D01*
X128689252Y-121292546D01*
X128803606Y-121386394D01*
X128897454Y-121500748D01*
X128967190Y-121631214D01*
X129010133Y-121772778D01*
X129024633Y-121920000D01*
X129010133Y-122067222D01*
X128967190Y-122208786D01*
X128897454Y-122339252D01*
X128803606Y-122453606D01*
X128689252Y-122547454D01*
X128558786Y-122617190D01*
X128417222Y-122660133D01*
X128343665Y-122667378D01*
X128306888Y-122671000D01*
X128233112Y-122671000D01*
X128196335Y-122667378D01*
X128122778Y-122660133D01*
X127981214Y-122617190D01*
X127850748Y-122547454D01*
X127736394Y-122453606D01*
X127642546Y-122339252D01*
X127572810Y-122208786D01*
X127529867Y-122067222D01*
X127515367Y-121920000D01*
X127529867Y-121772778D01*
X127572810Y-121631214D01*
X127642546Y-121500748D01*
X127736394Y-121386394D01*
X127850748Y-121292546D01*
X127981214Y-121222810D01*
X128122778Y-121179867D01*
X128196335Y-121172622D01*
X128233112Y-121169000D01*
X128306888Y-121169000D01*
X128343665Y-121172622D01*
X128343665Y-121172622D01*
G37*
G36*
X135963665Y-121172622D02*
X136037222Y-121179867D01*
X136178786Y-121222810D01*
X136309252Y-121292546D01*
X136423606Y-121386394D01*
X136517454Y-121500748D01*
X136587190Y-121631214D01*
X136630133Y-121772778D01*
X136644633Y-121920000D01*
X136630133Y-122067222D01*
X136587190Y-122208786D01*
X136517454Y-122339252D01*
X136423606Y-122453606D01*
X136309252Y-122547454D01*
X136178786Y-122617190D01*
X136037222Y-122660133D01*
X135963665Y-122667378D01*
X135926888Y-122671000D01*
X135853112Y-122671000D01*
X135816335Y-122667378D01*
X135742778Y-122660133D01*
X135601214Y-122617190D01*
X135470748Y-122547454D01*
X135356394Y-122453606D01*
X135262546Y-122339252D01*
X135192810Y-122208786D01*
X135149867Y-122067222D01*
X135135367Y-121920000D01*
X135149867Y-121772778D01*
X135192810Y-121631214D01*
X135262546Y-121500748D01*
X135356394Y-121386394D01*
X135470748Y-121292546D01*
X135601214Y-121222810D01*
X135742778Y-121179867D01*
X135816335Y-121172622D01*
X135853112Y-121169000D01*
X135926888Y-121169000D01*
X135963665Y-121172622D01*
X135963665Y-121172622D01*
G37*
G36*
X138503665Y-121172622D02*
X138577222Y-121179867D01*
X138718786Y-121222810D01*
X138849252Y-121292546D01*
X138963606Y-121386394D01*
X139057454Y-121500748D01*
X139127190Y-121631214D01*
X139170133Y-121772778D01*
X139184633Y-121920000D01*
X139170133Y-122067222D01*
X139127190Y-122208786D01*
X139057454Y-122339252D01*
X138963606Y-122453606D01*
X138849252Y-122547454D01*
X138718786Y-122617190D01*
X138577222Y-122660133D01*
X138503665Y-122667378D01*
X138466888Y-122671000D01*
X138393112Y-122671000D01*
X138356335Y-122667378D01*
X138282778Y-122660133D01*
X138141214Y-122617190D01*
X138010748Y-122547454D01*
X137896394Y-122453606D01*
X137802546Y-122339252D01*
X137732810Y-122208786D01*
X137689867Y-122067222D01*
X137675367Y-121920000D01*
X137689867Y-121772778D01*
X137732810Y-121631214D01*
X137802546Y-121500748D01*
X137896394Y-121386394D01*
X138010748Y-121292546D01*
X138141214Y-121222810D01*
X138282778Y-121179867D01*
X138356335Y-121172622D01*
X138393112Y-121169000D01*
X138466888Y-121169000D01*
X138503665Y-121172622D01*
X138503665Y-121172622D01*
G37*
G36*
X130883665Y-121172622D02*
X130957222Y-121179867D01*
X131098786Y-121222810D01*
X131229252Y-121292546D01*
X131343606Y-121386394D01*
X131437454Y-121500748D01*
X131507190Y-121631214D01*
X131550133Y-121772778D01*
X131564633Y-121920000D01*
X131550133Y-122067222D01*
X131507190Y-122208786D01*
X131437454Y-122339252D01*
X131343606Y-122453606D01*
X131229252Y-122547454D01*
X131098786Y-122617190D01*
X130957222Y-122660133D01*
X130883665Y-122667378D01*
X130846888Y-122671000D01*
X130773112Y-122671000D01*
X130736335Y-122667378D01*
X130662778Y-122660133D01*
X130521214Y-122617190D01*
X130390748Y-122547454D01*
X130276394Y-122453606D01*
X130182546Y-122339252D01*
X130112810Y-122208786D01*
X130069867Y-122067222D01*
X130055367Y-121920000D01*
X130069867Y-121772778D01*
X130112810Y-121631214D01*
X130182546Y-121500748D01*
X130276394Y-121386394D01*
X130390748Y-121292546D01*
X130521214Y-121222810D01*
X130662778Y-121179867D01*
X130736335Y-121172622D01*
X130773112Y-121169000D01*
X130846888Y-121169000D01*
X130883665Y-121172622D01*
X130883665Y-121172622D01*
G37*
G36*
X141043665Y-121097971D02*
X141117222Y-121105216D01*
X141258786Y-121148159D01*
X141389252Y-121217895D01*
X141503606Y-121311743D01*
X141597454Y-121426097D01*
X141667190Y-121556563D01*
X141710133Y-121698127D01*
X141724633Y-121845349D01*
X141710133Y-121992571D01*
X141667190Y-122134135D01*
X141597454Y-122264601D01*
X141503606Y-122378955D01*
X141389252Y-122472803D01*
X141258786Y-122542539D01*
X141117222Y-122585482D01*
X141043665Y-122592727D01*
X141006888Y-122596349D01*
X140933112Y-122596349D01*
X140896335Y-122592727D01*
X140822778Y-122585482D01*
X140681214Y-122542539D01*
X140550748Y-122472803D01*
X140436394Y-122378955D01*
X140342546Y-122264601D01*
X140272810Y-122134135D01*
X140229867Y-121992571D01*
X140215367Y-121845349D01*
X140229867Y-121698127D01*
X140272810Y-121556563D01*
X140342546Y-121426097D01*
X140436394Y-121311743D01*
X140550748Y-121217895D01*
X140681214Y-121148159D01*
X140822778Y-121105216D01*
X140896335Y-121097971D01*
X140933112Y-121094349D01*
X141006888Y-121094349D01*
X141043665Y-121097971D01*
X141043665Y-121097971D01*
G37*
G36*
X143583665Y-121097971D02*
X143657222Y-121105216D01*
X143798786Y-121148159D01*
X143929252Y-121217895D01*
X144043606Y-121311743D01*
X144137454Y-121426097D01*
X144207190Y-121556563D01*
X144250133Y-121698127D01*
X144264633Y-121845349D01*
X144250133Y-121992571D01*
X144207190Y-122134135D01*
X144137454Y-122264601D01*
X144043606Y-122378955D01*
X143929252Y-122472803D01*
X143798786Y-122542539D01*
X143657222Y-122585482D01*
X143583665Y-122592727D01*
X143546888Y-122596349D01*
X143473112Y-122596349D01*
X143436335Y-122592727D01*
X143362778Y-122585482D01*
X143221214Y-122542539D01*
X143090748Y-122472803D01*
X142976394Y-122378955D01*
X142882546Y-122264601D01*
X142812810Y-122134135D01*
X142769867Y-121992571D01*
X142755367Y-121845349D01*
X142769867Y-121698127D01*
X142812810Y-121556563D01*
X142882546Y-121426097D01*
X142976394Y-121311743D01*
X143090748Y-121217895D01*
X143221214Y-121148159D01*
X143362778Y-121105216D01*
X143436335Y-121097971D01*
X143473112Y-121094349D01*
X143546888Y-121094349D01*
X143583665Y-121097971D01*
X143583665Y-121097971D01*
G37*
G36*
X96686821Y-119811313D02*
X96686824Y-119811314D01*
X96686825Y-119811314D01*
X96847239Y-119859975D01*
X96847241Y-119859976D01*
X96847244Y-119859977D01*
X96995078Y-119938995D01*
X97124659Y-120045341D01*
X97231005Y-120174922D01*
X97310023Y-120322756D01*
X97358687Y-120483179D01*
X97375117Y-120650000D01*
X97358687Y-120816821D01*
X97310023Y-120977244D01*
X97231005Y-121125078D01*
X97124659Y-121254659D01*
X96995078Y-121361005D01*
X96847244Y-121440023D01*
X96847241Y-121440024D01*
X96847239Y-121440025D01*
X96686825Y-121488686D01*
X96686824Y-121488686D01*
X96686821Y-121488687D01*
X96561804Y-121501000D01*
X96478196Y-121501000D01*
X96353179Y-121488687D01*
X96353176Y-121488686D01*
X96353175Y-121488686D01*
X96192761Y-121440025D01*
X96192759Y-121440024D01*
X96192756Y-121440023D01*
X96044922Y-121361005D01*
X95915341Y-121254659D01*
X95808995Y-121125078D01*
X95729977Y-120977244D01*
X95681313Y-120816821D01*
X95664883Y-120650000D01*
X95681313Y-120483179D01*
X95729977Y-120322756D01*
X95808995Y-120174922D01*
X95915341Y-120045341D01*
X96044922Y-119938995D01*
X96192756Y-119859977D01*
X96192759Y-119859976D01*
X96192761Y-119859975D01*
X96353175Y-119811314D01*
X96353176Y-119811314D01*
X96353179Y-119811313D01*
X96478196Y-119799000D01*
X96561804Y-119799000D01*
X96686821Y-119811313D01*
X96686821Y-119811313D01*
G37*
G36*
X89066821Y-119811313D02*
X89066824Y-119811314D01*
X89066825Y-119811314D01*
X89227239Y-119859975D01*
X89227241Y-119859976D01*
X89227244Y-119859977D01*
X89375078Y-119938995D01*
X89504659Y-120045341D01*
X89611005Y-120174922D01*
X89690023Y-120322756D01*
X89738687Y-120483179D01*
X89755117Y-120650000D01*
X89738687Y-120816821D01*
X89690023Y-120977244D01*
X89611005Y-121125078D01*
X89504659Y-121254659D01*
X89375078Y-121361005D01*
X89227244Y-121440023D01*
X89227241Y-121440024D01*
X89227239Y-121440025D01*
X89066825Y-121488686D01*
X89066824Y-121488686D01*
X89066821Y-121488687D01*
X88941804Y-121501000D01*
X88858196Y-121501000D01*
X88733179Y-121488687D01*
X88733176Y-121488686D01*
X88733175Y-121488686D01*
X88572761Y-121440025D01*
X88572759Y-121440024D01*
X88572756Y-121440023D01*
X88424922Y-121361005D01*
X88295341Y-121254659D01*
X88188995Y-121125078D01*
X88109977Y-120977244D01*
X88061313Y-120816821D01*
X88044883Y-120650000D01*
X88061313Y-120483179D01*
X88109977Y-120322756D01*
X88188995Y-120174922D01*
X88295341Y-120045341D01*
X88424922Y-119938995D01*
X88572756Y-119859977D01*
X88572759Y-119859976D01*
X88572761Y-119859975D01*
X88733175Y-119811314D01*
X88733176Y-119811314D01*
X88733179Y-119811313D01*
X88858196Y-119799000D01*
X88941804Y-119799000D01*
X89066821Y-119811313D01*
X89066821Y-119811313D01*
G37*
G36*
X73826821Y-118541313D02*
X73826824Y-118541314D01*
X73826825Y-118541314D01*
X73987239Y-118589975D01*
X73987241Y-118589976D01*
X73987244Y-118589977D01*
X74135078Y-118668995D01*
X74264659Y-118775341D01*
X74371005Y-118904922D01*
X74450023Y-119052756D01*
X74498687Y-119213179D01*
X74515117Y-119380000D01*
X74498687Y-119546821D01*
X74450023Y-119707244D01*
X74371005Y-119855078D01*
X74264659Y-119984659D01*
X74135078Y-120091005D01*
X73987244Y-120170023D01*
X73987241Y-120170024D01*
X73987239Y-120170025D01*
X73826825Y-120218686D01*
X73826824Y-120218686D01*
X73826821Y-120218687D01*
X73701804Y-120231000D01*
X73618196Y-120231000D01*
X73493179Y-120218687D01*
X73493176Y-120218686D01*
X73493175Y-120218686D01*
X73332761Y-120170025D01*
X73332759Y-120170024D01*
X73332756Y-120170023D01*
X73184922Y-120091005D01*
X73055341Y-119984659D01*
X72948995Y-119855078D01*
X72869977Y-119707244D01*
X72821313Y-119546821D01*
X72804883Y-119380000D01*
X72821313Y-119213179D01*
X72869977Y-119052756D01*
X72948995Y-118904922D01*
X73055341Y-118775341D01*
X73184922Y-118668995D01*
X73332756Y-118589977D01*
X73332759Y-118589976D01*
X73332761Y-118589975D01*
X73493175Y-118541314D01*
X73493176Y-118541314D01*
X73493179Y-118541313D01*
X73618196Y-118529000D01*
X73701804Y-118529000D01*
X73826821Y-118541313D01*
X73826821Y-118541313D01*
G37*
G36*
X66206821Y-118541313D02*
X66206824Y-118541314D01*
X66206825Y-118541314D01*
X66367239Y-118589975D01*
X66367241Y-118589976D01*
X66367244Y-118589977D01*
X66515078Y-118668995D01*
X66644659Y-118775341D01*
X66751005Y-118904922D01*
X66830023Y-119052756D01*
X66878687Y-119213179D01*
X66895117Y-119380000D01*
X66878687Y-119546821D01*
X66830023Y-119707244D01*
X66751005Y-119855078D01*
X66644659Y-119984659D01*
X66515078Y-120091005D01*
X66367244Y-120170023D01*
X66367241Y-120170024D01*
X66367239Y-120170025D01*
X66206825Y-120218686D01*
X66206824Y-120218686D01*
X66206821Y-120218687D01*
X66081804Y-120231000D01*
X65998196Y-120231000D01*
X65873179Y-120218687D01*
X65873176Y-120218686D01*
X65873175Y-120218686D01*
X65712761Y-120170025D01*
X65712759Y-120170024D01*
X65712756Y-120170023D01*
X65564922Y-120091005D01*
X65435341Y-119984659D01*
X65328995Y-119855078D01*
X65249977Y-119707244D01*
X65201313Y-119546821D01*
X65184883Y-119380000D01*
X65201313Y-119213179D01*
X65249977Y-119052756D01*
X65328995Y-118904922D01*
X65435341Y-118775341D01*
X65564922Y-118668995D01*
X65712756Y-118589977D01*
X65712759Y-118589976D01*
X65712761Y-118589975D01*
X65873175Y-118541314D01*
X65873176Y-118541314D01*
X65873179Y-118541313D01*
X65998196Y-118529000D01*
X66081804Y-118529000D01*
X66206821Y-118541313D01*
X66206821Y-118541313D01*
G37*
G36*
X89751000Y-118961000D02*
X88049000Y-118961000D01*
X88049000Y-117259000D01*
X89751000Y-117259000D01*
X89751000Y-118961000D01*
X89751000Y-118961000D01*
G37*
G36*
X96686821Y-117271313D02*
X96686824Y-117271314D01*
X96686825Y-117271314D01*
X96847239Y-117319975D01*
X96847241Y-117319976D01*
X96847244Y-117319977D01*
X96995078Y-117398995D01*
X97124659Y-117505341D01*
X97231005Y-117634922D01*
X97310023Y-117782756D01*
X97358687Y-117943179D01*
X97375117Y-118110000D01*
X97358687Y-118276821D01*
X97310023Y-118437244D01*
X97231005Y-118585078D01*
X97124659Y-118714659D01*
X96995078Y-118821005D01*
X96847244Y-118900023D01*
X96847241Y-118900024D01*
X96847239Y-118900025D01*
X96686825Y-118948686D01*
X96686824Y-118948686D01*
X96686821Y-118948687D01*
X96561804Y-118961000D01*
X96478196Y-118961000D01*
X96353179Y-118948687D01*
X96353176Y-118948686D01*
X96353175Y-118948686D01*
X96192761Y-118900025D01*
X96192759Y-118900024D01*
X96192756Y-118900023D01*
X96044922Y-118821005D01*
X95915341Y-118714659D01*
X95808995Y-118585078D01*
X95729977Y-118437244D01*
X95681313Y-118276821D01*
X95664883Y-118110000D01*
X95681313Y-117943179D01*
X95729977Y-117782756D01*
X95808995Y-117634922D01*
X95915341Y-117505341D01*
X96044922Y-117398995D01*
X96192756Y-117319977D01*
X96192759Y-117319976D01*
X96192761Y-117319975D01*
X96353175Y-117271314D01*
X96353176Y-117271314D01*
X96353179Y-117271313D01*
X96478196Y-117259000D01*
X96561804Y-117259000D01*
X96686821Y-117271313D01*
X96686821Y-117271313D01*
G37*
G36*
X66891000Y-117691000D02*
X65189000Y-117691000D01*
X65189000Y-115989000D01*
X66891000Y-115989000D01*
X66891000Y-117691000D01*
X66891000Y-117691000D01*
G37*
G36*
X73826821Y-116001313D02*
X73826824Y-116001314D01*
X73826825Y-116001314D01*
X73987239Y-116049975D01*
X73987241Y-116049976D01*
X73987244Y-116049977D01*
X74135078Y-116128995D01*
X74264659Y-116235341D01*
X74371005Y-116364922D01*
X74450023Y-116512756D01*
X74498687Y-116673179D01*
X74515117Y-116840000D01*
X74498687Y-117006821D01*
X74450023Y-117167244D01*
X74371005Y-117315078D01*
X74264659Y-117444659D01*
X74135078Y-117551005D01*
X73987244Y-117630023D01*
X73987241Y-117630024D01*
X73987239Y-117630025D01*
X73826825Y-117678686D01*
X73826824Y-117678686D01*
X73826821Y-117678687D01*
X73701804Y-117691000D01*
X73618196Y-117691000D01*
X73493179Y-117678687D01*
X73493176Y-117678686D01*
X73493175Y-117678686D01*
X73332761Y-117630025D01*
X73332759Y-117630024D01*
X73332756Y-117630023D01*
X73184922Y-117551005D01*
X73055341Y-117444659D01*
X72948995Y-117315078D01*
X72869977Y-117167244D01*
X72821313Y-117006821D01*
X72804883Y-116840000D01*
X72821313Y-116673179D01*
X72869977Y-116512756D01*
X72948995Y-116364922D01*
X73055341Y-116235341D01*
X73184922Y-116128995D01*
X73332756Y-116049977D01*
X73332759Y-116049976D01*
X73332761Y-116049975D01*
X73493175Y-116001314D01*
X73493176Y-116001314D01*
X73493179Y-116001313D01*
X73618196Y-115989000D01*
X73701804Y-115989000D01*
X73826821Y-116001313D01*
X73826821Y-116001313D01*
G37*
G36*
X136018369Y-113559821D02*
X136109059Y-113577860D01*
X136245732Y-113634472D01*
X136367079Y-113715554D01*
X136368738Y-113716662D01*
X136473338Y-113821262D01*
X136473340Y-113821265D01*
X136555528Y-113944268D01*
X136612140Y-114080941D01*
X136641000Y-114226033D01*
X136641000Y-114373967D01*
X136612140Y-114519059D01*
X136555528Y-114655732D01*
X136555527Y-114655733D01*
X136473338Y-114778738D01*
X136368738Y-114883338D01*
X136368735Y-114883340D01*
X136245732Y-114965528D01*
X136109059Y-115022140D01*
X136022004Y-115039456D01*
X135963969Y-115051000D01*
X135816031Y-115051000D01*
X135757996Y-115039456D01*
X135670941Y-115022140D01*
X135534268Y-114965528D01*
X135411265Y-114883340D01*
X135411262Y-114883338D01*
X135306662Y-114778738D01*
X135224473Y-114655733D01*
X135224472Y-114655732D01*
X135167860Y-114519059D01*
X135139000Y-114373967D01*
X135139000Y-114226033D01*
X135167860Y-114080941D01*
X135224472Y-113944268D01*
X135306660Y-113821265D01*
X135306662Y-113821262D01*
X135411262Y-113716662D01*
X135412921Y-113715554D01*
X135534268Y-113634472D01*
X135670941Y-113577860D01*
X135761631Y-113559821D01*
X135816031Y-113549000D01*
X135963969Y-113549000D01*
X136018369Y-113559821D01*
X136018369Y-113559821D01*
G37*
G36*
X138558369Y-113559821D02*
X138649059Y-113577860D01*
X138785732Y-113634472D01*
X138907079Y-113715554D01*
X138908738Y-113716662D01*
X139013338Y-113821262D01*
X139013340Y-113821265D01*
X139095528Y-113944268D01*
X139152140Y-114080941D01*
X139181000Y-114226033D01*
X139181000Y-114373967D01*
X139152140Y-114519059D01*
X139095528Y-114655732D01*
X139095527Y-114655733D01*
X139013338Y-114778738D01*
X138908738Y-114883338D01*
X138908735Y-114883340D01*
X138785732Y-114965528D01*
X138649059Y-115022140D01*
X138562004Y-115039456D01*
X138503969Y-115051000D01*
X138356031Y-115051000D01*
X138297996Y-115039456D01*
X138210941Y-115022140D01*
X138074268Y-114965528D01*
X137951265Y-114883340D01*
X137951262Y-114883338D01*
X137846662Y-114778738D01*
X137764473Y-114655733D01*
X137764472Y-114655732D01*
X137707860Y-114519059D01*
X137679000Y-114373967D01*
X137679000Y-114226033D01*
X137707860Y-114080941D01*
X137764472Y-113944268D01*
X137846660Y-113821265D01*
X137846662Y-113821262D01*
X137951262Y-113716662D01*
X137952921Y-113715554D01*
X138074268Y-113634472D01*
X138210941Y-113577860D01*
X138301631Y-113559821D01*
X138356031Y-113549000D01*
X138503969Y-113549000D01*
X138558369Y-113559821D01*
X138558369Y-113559821D01*
G37*
G36*
X133478369Y-113559821D02*
X133569059Y-113577860D01*
X133705732Y-113634472D01*
X133827079Y-113715554D01*
X133828738Y-113716662D01*
X133933338Y-113821262D01*
X133933340Y-113821265D01*
X134015528Y-113944268D01*
X134072140Y-114080941D01*
X134101000Y-114226033D01*
X134101000Y-114373967D01*
X134072140Y-114519059D01*
X134015528Y-114655732D01*
X134015527Y-114655733D01*
X133933338Y-114778738D01*
X133828738Y-114883338D01*
X133828735Y-114883340D01*
X133705732Y-114965528D01*
X133569059Y-115022140D01*
X133482004Y-115039456D01*
X133423969Y-115051000D01*
X133276031Y-115051000D01*
X133217996Y-115039456D01*
X133130941Y-115022140D01*
X132994268Y-114965528D01*
X132871265Y-114883340D01*
X132871262Y-114883338D01*
X132766662Y-114778738D01*
X132684473Y-114655733D01*
X132684472Y-114655732D01*
X132627860Y-114519059D01*
X132599000Y-114373967D01*
X132599000Y-114226033D01*
X132627860Y-114080941D01*
X132684472Y-113944268D01*
X132766660Y-113821265D01*
X132766662Y-113821262D01*
X132871262Y-113716662D01*
X132872921Y-113715554D01*
X132994268Y-113634472D01*
X133130941Y-113577860D01*
X133221631Y-113559821D01*
X133276031Y-113549000D01*
X133423969Y-113549000D01*
X133478369Y-113559821D01*
X133478369Y-113559821D01*
G37*
G36*
X130938369Y-113559821D02*
X131029059Y-113577860D01*
X131165732Y-113634472D01*
X131287079Y-113715554D01*
X131288738Y-113716662D01*
X131393338Y-113821262D01*
X131393340Y-113821265D01*
X131475528Y-113944268D01*
X131532140Y-114080941D01*
X131561000Y-114226033D01*
X131561000Y-114373967D01*
X131532140Y-114519059D01*
X131475528Y-114655732D01*
X131475527Y-114655733D01*
X131393338Y-114778738D01*
X131288738Y-114883338D01*
X131288735Y-114883340D01*
X131165732Y-114965528D01*
X131029059Y-115022140D01*
X130942004Y-115039456D01*
X130883969Y-115051000D01*
X130736031Y-115051000D01*
X130677996Y-115039456D01*
X130590941Y-115022140D01*
X130454268Y-114965528D01*
X130331265Y-114883340D01*
X130331262Y-114883338D01*
X130226662Y-114778738D01*
X130144473Y-114655733D01*
X130144472Y-114655732D01*
X130087860Y-114519059D01*
X130059000Y-114373967D01*
X130059000Y-114226033D01*
X130087860Y-114080941D01*
X130144472Y-113944268D01*
X130226660Y-113821265D01*
X130226662Y-113821262D01*
X130331262Y-113716662D01*
X130332921Y-113715554D01*
X130454268Y-113634472D01*
X130590941Y-113577860D01*
X130681631Y-113559821D01*
X130736031Y-113549000D01*
X130883969Y-113549000D01*
X130938369Y-113559821D01*
X130938369Y-113559821D01*
G37*
G36*
X128398369Y-113559821D02*
X128489059Y-113577860D01*
X128625732Y-113634472D01*
X128747079Y-113715554D01*
X128748738Y-113716662D01*
X128853338Y-113821262D01*
X128853340Y-113821265D01*
X128935528Y-113944268D01*
X128992140Y-114080941D01*
X129021000Y-114226033D01*
X129021000Y-114373967D01*
X128992140Y-114519059D01*
X128935528Y-114655732D01*
X128935527Y-114655733D01*
X128853338Y-114778738D01*
X128748738Y-114883338D01*
X128748735Y-114883340D01*
X128625732Y-114965528D01*
X128489059Y-115022140D01*
X128402004Y-115039456D01*
X128343969Y-115051000D01*
X128196031Y-115051000D01*
X128137996Y-115039456D01*
X128050941Y-115022140D01*
X127914268Y-114965528D01*
X127791265Y-114883340D01*
X127791262Y-114883338D01*
X127686662Y-114778738D01*
X127604473Y-114655733D01*
X127604472Y-114655732D01*
X127547860Y-114519059D01*
X127519000Y-114373967D01*
X127519000Y-114226033D01*
X127547860Y-114080941D01*
X127604472Y-113944268D01*
X127686660Y-113821265D01*
X127686662Y-113821262D01*
X127791262Y-113716662D01*
X127792921Y-113715554D01*
X127914268Y-113634472D01*
X128050941Y-113577860D01*
X128141631Y-113559821D01*
X128196031Y-113549000D01*
X128343969Y-113549000D01*
X128398369Y-113559821D01*
X128398369Y-113559821D01*
G37*
G36*
X125858369Y-113559821D02*
X125949059Y-113577860D01*
X126085732Y-113634472D01*
X126207079Y-113715554D01*
X126208738Y-113716662D01*
X126313338Y-113821262D01*
X126313340Y-113821265D01*
X126395528Y-113944268D01*
X126452140Y-114080941D01*
X126481000Y-114226033D01*
X126481000Y-114373967D01*
X126452140Y-114519059D01*
X126395528Y-114655732D01*
X126395527Y-114655733D01*
X126313338Y-114778738D01*
X126208738Y-114883338D01*
X126208735Y-114883340D01*
X126085732Y-114965528D01*
X125949059Y-115022140D01*
X125862004Y-115039456D01*
X125803969Y-115051000D01*
X125656031Y-115051000D01*
X125597996Y-115039456D01*
X125510941Y-115022140D01*
X125374268Y-114965528D01*
X125251265Y-114883340D01*
X125251262Y-114883338D01*
X125146662Y-114778738D01*
X125064473Y-114655733D01*
X125064472Y-114655732D01*
X125007860Y-114519059D01*
X124979000Y-114373967D01*
X124979000Y-114226033D01*
X125007860Y-114080941D01*
X125064472Y-113944268D01*
X125146660Y-113821265D01*
X125146662Y-113821262D01*
X125251262Y-113716662D01*
X125252921Y-113715554D01*
X125374268Y-113634472D01*
X125510941Y-113577860D01*
X125601631Y-113559821D01*
X125656031Y-113549000D01*
X125803969Y-113549000D01*
X125858369Y-113559821D01*
X125858369Y-113559821D01*
G37*
G36*
X141102004Y-113485893D02*
X141189059Y-113503209D01*
X141325732Y-113559821D01*
X141325733Y-113559822D01*
X141448738Y-113642011D01*
X141553338Y-113746611D01*
X141553340Y-113746614D01*
X141635528Y-113869617D01*
X141692140Y-114006290D01*
X141721000Y-114151382D01*
X141721000Y-114299316D01*
X141692140Y-114444408D01*
X141635528Y-114581081D01*
X141635527Y-114581082D01*
X141553338Y-114704087D01*
X141448738Y-114808687D01*
X141448735Y-114808689D01*
X141325732Y-114890877D01*
X141189059Y-114947489D01*
X141102004Y-114964805D01*
X141043969Y-114976349D01*
X140896031Y-114976349D01*
X140837996Y-114964805D01*
X140750941Y-114947489D01*
X140614268Y-114890877D01*
X140491265Y-114808689D01*
X140491262Y-114808687D01*
X140386662Y-114704087D01*
X140304473Y-114581082D01*
X140304472Y-114581081D01*
X140247860Y-114444408D01*
X140219000Y-114299316D01*
X140219000Y-114151382D01*
X140247860Y-114006290D01*
X140304472Y-113869617D01*
X140386660Y-113746614D01*
X140386662Y-113746611D01*
X140491262Y-113642011D01*
X140614267Y-113559822D01*
X140614268Y-113559821D01*
X140750941Y-113503209D01*
X140837996Y-113485893D01*
X140896031Y-113474349D01*
X141043969Y-113474349D01*
X141102004Y-113485893D01*
X141102004Y-113485893D01*
G37*
G36*
X143642004Y-113485893D02*
X143729059Y-113503209D01*
X143865732Y-113559821D01*
X143865733Y-113559822D01*
X143988738Y-113642011D01*
X144093338Y-113746611D01*
X144093340Y-113746614D01*
X144175528Y-113869617D01*
X144232140Y-114006290D01*
X144261000Y-114151382D01*
X144261000Y-114299316D01*
X144232140Y-114444408D01*
X144175528Y-114581081D01*
X144175527Y-114581082D01*
X144093338Y-114704087D01*
X143988738Y-114808687D01*
X143988735Y-114808689D01*
X143865732Y-114890877D01*
X143729059Y-114947489D01*
X143642004Y-114964805D01*
X143583969Y-114976349D01*
X143436031Y-114976349D01*
X143377996Y-114964805D01*
X143290941Y-114947489D01*
X143154268Y-114890877D01*
X143031265Y-114808689D01*
X143031262Y-114808687D01*
X142926662Y-114704087D01*
X142844473Y-114581082D01*
X142844472Y-114581081D01*
X142787860Y-114444408D01*
X142759000Y-114299316D01*
X142759000Y-114151382D01*
X142787860Y-114006290D01*
X142844472Y-113869617D01*
X142926660Y-113746614D01*
X142926662Y-113746611D01*
X143031262Y-113642011D01*
X143154267Y-113559822D01*
X143154268Y-113559821D01*
X143290941Y-113503209D01*
X143377996Y-113485893D01*
X143436031Y-113474349D01*
X143583969Y-113474349D01*
X143642004Y-113485893D01*
X143642004Y-113485893D01*
G37*
G36*
X90418228Y-112211703D02*
X90573100Y-112275853D01*
X90712481Y-112368985D01*
X90831015Y-112487519D01*
X90924147Y-112626900D01*
X90988297Y-112781772D01*
X91021000Y-112946184D01*
X91021000Y-113113816D01*
X90988297Y-113278228D01*
X90924147Y-113433100D01*
X90831015Y-113572481D01*
X90712481Y-113691015D01*
X90573100Y-113784147D01*
X90418228Y-113848297D01*
X90253816Y-113881000D01*
X90086184Y-113881000D01*
X89921772Y-113848297D01*
X89766900Y-113784147D01*
X89627519Y-113691015D01*
X89508985Y-113572481D01*
X89415853Y-113433100D01*
X89351703Y-113278228D01*
X89319000Y-113113816D01*
X89319000Y-112946184D01*
X89351703Y-112781772D01*
X89415853Y-112626900D01*
X89508985Y-112487519D01*
X89627519Y-112368985D01*
X89766900Y-112275853D01*
X89921772Y-112211703D01*
X90086184Y-112179000D01*
X90253816Y-112179000D01*
X90418228Y-112211703D01*
X90418228Y-112211703D01*
G37*
G36*
X95418228Y-112211703D02*
X95573100Y-112275853D01*
X95712481Y-112368985D01*
X95831015Y-112487519D01*
X95924147Y-112626900D01*
X95988297Y-112781772D01*
X96021000Y-112946184D01*
X96021000Y-113113816D01*
X95988297Y-113278228D01*
X95924147Y-113433100D01*
X95831015Y-113572481D01*
X95712481Y-113691015D01*
X95573100Y-113784147D01*
X95418228Y-113848297D01*
X95253816Y-113881000D01*
X95086184Y-113881000D01*
X94921772Y-113848297D01*
X94766900Y-113784147D01*
X94627519Y-113691015D01*
X94508985Y-113572481D01*
X94415853Y-113433100D01*
X94351703Y-113278228D01*
X94319000Y-113113816D01*
X94319000Y-112946184D01*
X94351703Y-112781772D01*
X94415853Y-112626900D01*
X94508985Y-112487519D01*
X94627519Y-112368985D01*
X94766900Y-112275853D01*
X94921772Y-112211703D01*
X95086184Y-112179000D01*
X95253816Y-112179000D01*
X95418228Y-112211703D01*
X95418228Y-112211703D01*
G37*
G36*
X67558228Y-110941703D02*
X67713100Y-111005853D01*
X67852481Y-111098985D01*
X67971015Y-111217519D01*
X68064147Y-111356900D01*
X68128297Y-111511772D01*
X68161000Y-111676184D01*
X68161000Y-111843816D01*
X68128297Y-112008228D01*
X68064147Y-112163100D01*
X67971015Y-112302481D01*
X67852481Y-112421015D01*
X67713100Y-112514147D01*
X67558228Y-112578297D01*
X67393816Y-112611000D01*
X67226184Y-112611000D01*
X67061772Y-112578297D01*
X66906900Y-112514147D01*
X66767519Y-112421015D01*
X66648985Y-112302481D01*
X66555853Y-112163100D01*
X66491703Y-112008228D01*
X66459000Y-111843816D01*
X66459000Y-111676184D01*
X66491703Y-111511772D01*
X66555853Y-111356900D01*
X66648985Y-111217519D01*
X66767519Y-111098985D01*
X66906900Y-111005853D01*
X67061772Y-110941703D01*
X67226184Y-110909000D01*
X67393816Y-110909000D01*
X67558228Y-110941703D01*
X67558228Y-110941703D01*
G37*
G36*
X72558228Y-110941703D02*
X72713100Y-111005853D01*
X72852481Y-111098985D01*
X72971015Y-111217519D01*
X73064147Y-111356900D01*
X73128297Y-111511772D01*
X73161000Y-111676184D01*
X73161000Y-111843816D01*
X73128297Y-112008228D01*
X73064147Y-112163100D01*
X72971015Y-112302481D01*
X72852481Y-112421015D01*
X72713100Y-112514147D01*
X72558228Y-112578297D01*
X72393816Y-112611000D01*
X72226184Y-112611000D01*
X72061772Y-112578297D01*
X71906900Y-112514147D01*
X71767519Y-112421015D01*
X71648985Y-112302481D01*
X71555853Y-112163100D01*
X71491703Y-112008228D01*
X71459000Y-111843816D01*
X71459000Y-111676184D01*
X71491703Y-111511772D01*
X71555853Y-111356900D01*
X71648985Y-111217519D01*
X71767519Y-111098985D01*
X71906900Y-111005853D01*
X72061772Y-110941703D01*
X72226184Y-110909000D01*
X72393816Y-110909000D01*
X72558228Y-110941703D01*
X72558228Y-110941703D01*
G37*
G36*
X91717396Y-103225546D02*
X91890466Y-103297234D01*
X92046230Y-103401312D01*
X92178688Y-103533770D01*
X92282766Y-103689534D01*
X92354454Y-103862604D01*
X92391000Y-104046333D01*
X92391000Y-104233667D01*
X92354454Y-104417396D01*
X92282766Y-104590466D01*
X92178688Y-104746230D01*
X92046230Y-104878688D01*
X91890466Y-104982766D01*
X91717396Y-105054454D01*
X91533667Y-105091000D01*
X91346333Y-105091000D01*
X91162604Y-105054454D01*
X90989534Y-104982766D01*
X90833770Y-104878688D01*
X90701312Y-104746230D01*
X90597234Y-104590466D01*
X90525546Y-104417396D01*
X90489000Y-104233667D01*
X90489000Y-104046333D01*
X90525546Y-103862604D01*
X90597234Y-103689534D01*
X90701312Y-103533770D01*
X90833770Y-103401312D01*
X90989534Y-103297234D01*
X91162604Y-103225546D01*
X91346333Y-103189000D01*
X91533667Y-103189000D01*
X91717396Y-103225546D01*
X91717396Y-103225546D01*
G37*
G36*
X133031000Y-105091000D02*
X131129000Y-105091000D01*
X131129000Y-103189000D01*
X133031000Y-103189000D01*
X133031000Y-105091000D01*
X133031000Y-105091000D01*
G37*
G36*
X137437396Y-103225546D02*
X137610466Y-103297234D01*
X137766230Y-103401312D01*
X137898688Y-103533770D01*
X138002766Y-103689534D01*
X138074454Y-103862604D01*
X138111000Y-104046333D01*
X138111000Y-104233667D01*
X138074454Y-104417396D01*
X138002766Y-104590466D01*
X137898688Y-104746230D01*
X137766230Y-104878688D01*
X137610466Y-104982766D01*
X137437396Y-105054454D01*
X137253667Y-105091000D01*
X137066333Y-105091000D01*
X136882604Y-105054454D01*
X136709534Y-104982766D01*
X136553770Y-104878688D01*
X136421312Y-104746230D01*
X136317234Y-104590466D01*
X136245546Y-104417396D01*
X136209000Y-104233667D01*
X136209000Y-104046333D01*
X136245546Y-103862604D01*
X136317234Y-103689534D01*
X136421312Y-103533770D01*
X136553770Y-103401312D01*
X136709534Y-103297234D01*
X136882604Y-103225546D01*
X137066333Y-103189000D01*
X137253667Y-103189000D01*
X137437396Y-103225546D01*
X137437396Y-103225546D01*
G37*
G36*
X140651000Y-105091000D02*
X138749000Y-105091000D01*
X138749000Y-103189000D01*
X140651000Y-103189000D01*
X140651000Y-105091000D01*
X140651000Y-105091000D01*
G37*
G36*
X145057396Y-103225546D02*
X145230466Y-103297234D01*
X145386230Y-103401312D01*
X145518688Y-103533770D01*
X145622766Y-103689534D01*
X145694454Y-103862604D01*
X145731000Y-104046333D01*
X145731000Y-104233667D01*
X145694454Y-104417396D01*
X145622766Y-104590466D01*
X145518688Y-104746230D01*
X145386230Y-104878688D01*
X145230466Y-104982766D01*
X145057396Y-105054454D01*
X144873667Y-105091000D01*
X144686333Y-105091000D01*
X144502604Y-105054454D01*
X144329534Y-104982766D01*
X144173770Y-104878688D01*
X144041312Y-104746230D01*
X143937234Y-104590466D01*
X143865546Y-104417396D01*
X143829000Y-104233667D01*
X143829000Y-104046333D01*
X143865546Y-103862604D01*
X143937234Y-103689534D01*
X144041312Y-103533770D01*
X144173770Y-103401312D01*
X144329534Y-103297234D01*
X144502604Y-103225546D01*
X144686333Y-103189000D01*
X144873667Y-103189000D01*
X145057396Y-103225546D01*
X145057396Y-103225546D01*
G37*
G36*
X148271000Y-105091000D02*
X146369000Y-105091000D01*
X146369000Y-103189000D01*
X148271000Y-103189000D01*
X148271000Y-105091000D01*
X148271000Y-105091000D01*
G37*
G36*
X125411000Y-105091000D02*
X123509000Y-105091000D01*
X123509000Y-103189000D01*
X125411000Y-103189000D01*
X125411000Y-105091000D01*
X125411000Y-105091000D01*
G37*
G36*
X122197396Y-103225546D02*
X122370466Y-103297234D01*
X122526230Y-103401312D01*
X122658688Y-103533770D01*
X122762766Y-103689534D01*
X122834454Y-103862604D01*
X122871000Y-104046333D01*
X122871000Y-104233667D01*
X122834454Y-104417396D01*
X122762766Y-104590466D01*
X122658688Y-104746230D01*
X122526230Y-104878688D01*
X122370466Y-104982766D01*
X122197396Y-105054454D01*
X122013667Y-105091000D01*
X121826333Y-105091000D01*
X121642604Y-105054454D01*
X121469534Y-104982766D01*
X121313770Y-104878688D01*
X121181312Y-104746230D01*
X121077234Y-104590466D01*
X121005546Y-104417396D01*
X120969000Y-104233667D01*
X120969000Y-104046333D01*
X121005546Y-103862604D01*
X121077234Y-103689534D01*
X121181312Y-103533770D01*
X121313770Y-103401312D01*
X121469534Y-103297234D01*
X121642604Y-103225546D01*
X121826333Y-103189000D01*
X122013667Y-103189000D01*
X122197396Y-103225546D01*
X122197396Y-103225546D01*
G37*
G36*
X129817396Y-103225546D02*
X129990466Y-103297234D01*
X130146230Y-103401312D01*
X130278688Y-103533770D01*
X130382766Y-103689534D01*
X130454454Y-103862604D01*
X130491000Y-104046333D01*
X130491000Y-104233667D01*
X130454454Y-104417396D01*
X130382766Y-104590466D01*
X130278688Y-104746230D01*
X130146230Y-104878688D01*
X129990466Y-104982766D01*
X129817396Y-105054454D01*
X129633667Y-105091000D01*
X129446333Y-105091000D01*
X129262604Y-105054454D01*
X129089534Y-104982766D01*
X128933770Y-104878688D01*
X128801312Y-104746230D01*
X128697234Y-104590466D01*
X128625546Y-104417396D01*
X128589000Y-104233667D01*
X128589000Y-104046333D01*
X128625546Y-103862604D01*
X128697234Y-103689534D01*
X128801312Y-103533770D01*
X128933770Y-103401312D01*
X129089534Y-103297234D01*
X129262604Y-103225546D01*
X129446333Y-103189000D01*
X129633667Y-103189000D01*
X129817396Y-103225546D01*
X129817396Y-103225546D01*
G37*
G36*
X114577396Y-103225546D02*
X114750466Y-103297234D01*
X114906230Y-103401312D01*
X115038688Y-103533770D01*
X115142766Y-103689534D01*
X115214454Y-103862604D01*
X115251000Y-104046333D01*
X115251000Y-104233667D01*
X115214454Y-104417396D01*
X115142766Y-104590466D01*
X115038688Y-104746230D01*
X114906230Y-104878688D01*
X114750466Y-104982766D01*
X114577396Y-105054454D01*
X114393667Y-105091000D01*
X114206333Y-105091000D01*
X114022604Y-105054454D01*
X113849534Y-104982766D01*
X113693770Y-104878688D01*
X113561312Y-104746230D01*
X113457234Y-104590466D01*
X113385546Y-104417396D01*
X113349000Y-104233667D01*
X113349000Y-104046333D01*
X113385546Y-103862604D01*
X113457234Y-103689534D01*
X113561312Y-103533770D01*
X113693770Y-103401312D01*
X113849534Y-103297234D01*
X114022604Y-103225546D01*
X114206333Y-103189000D01*
X114393667Y-103189000D01*
X114577396Y-103225546D01*
X114577396Y-103225546D01*
G37*
G36*
X110171000Y-105091000D02*
X108269000Y-105091000D01*
X108269000Y-103189000D01*
X110171000Y-103189000D01*
X110171000Y-105091000D01*
X110171000Y-105091000D01*
G37*
G36*
X106957396Y-103225546D02*
X107130466Y-103297234D01*
X107286230Y-103401312D01*
X107418688Y-103533770D01*
X107522766Y-103689534D01*
X107594454Y-103862604D01*
X107631000Y-104046333D01*
X107631000Y-104233667D01*
X107594454Y-104417396D01*
X107522766Y-104590466D01*
X107418688Y-104746230D01*
X107286230Y-104878688D01*
X107130466Y-104982766D01*
X106957396Y-105054454D01*
X106773667Y-105091000D01*
X106586333Y-105091000D01*
X106402604Y-105054454D01*
X106229534Y-104982766D01*
X106073770Y-104878688D01*
X105941312Y-104746230D01*
X105837234Y-104590466D01*
X105765546Y-104417396D01*
X105729000Y-104233667D01*
X105729000Y-104046333D01*
X105765546Y-103862604D01*
X105837234Y-103689534D01*
X105941312Y-103533770D01*
X106073770Y-103401312D01*
X106229534Y-103297234D01*
X106402604Y-103225546D01*
X106586333Y-103189000D01*
X106773667Y-103189000D01*
X106957396Y-103225546D01*
X106957396Y-103225546D01*
G37*
G36*
X102551000Y-105091000D02*
X100649000Y-105091000D01*
X100649000Y-103189000D01*
X102551000Y-103189000D01*
X102551000Y-105091000D01*
X102551000Y-105091000D01*
G37*
G36*
X99337396Y-103225546D02*
X99510466Y-103297234D01*
X99666230Y-103401312D01*
X99798688Y-103533770D01*
X99902766Y-103689534D01*
X99974454Y-103862604D01*
X100011000Y-104046333D01*
X100011000Y-104233667D01*
X99974454Y-104417396D01*
X99902766Y-104590466D01*
X99798688Y-104746230D01*
X99666230Y-104878688D01*
X99510466Y-104982766D01*
X99337396Y-105054454D01*
X99153667Y-105091000D01*
X98966333Y-105091000D01*
X98782604Y-105054454D01*
X98609534Y-104982766D01*
X98453770Y-104878688D01*
X98321312Y-104746230D01*
X98217234Y-104590466D01*
X98145546Y-104417396D01*
X98109000Y-104233667D01*
X98109000Y-104046333D01*
X98145546Y-103862604D01*
X98217234Y-103689534D01*
X98321312Y-103533770D01*
X98453770Y-103401312D01*
X98609534Y-103297234D01*
X98782604Y-103225546D01*
X98966333Y-103189000D01*
X99153667Y-103189000D01*
X99337396Y-103225546D01*
X99337396Y-103225546D01*
G37*
G36*
X94931000Y-105091000D02*
X93029000Y-105091000D01*
X93029000Y-103189000D01*
X94931000Y-103189000D01*
X94931000Y-105091000D01*
X94931000Y-105091000D01*
G37*
G36*
X117791000Y-105091000D02*
X115889000Y-105091000D01*
X115889000Y-103189000D01*
X117791000Y-103189000D01*
X117791000Y-105091000D01*
X117791000Y-105091000D01*
G37*
M02*
