G04 #@! TF.GenerationSoftware,KiCad,Pcbnew,(5.0.1)-3*
G04 #@! TF.CreationDate,2018-12-11T20:57:09+00:00*
G04 #@! TF.ProjectId,Register (8 Bit),52656769737465722028382042697429,rev?*
G04 #@! TF.SameCoordinates,Original*
G04 #@! TF.FileFunction,Copper,L1,Top,Signal*
G04 #@! TF.FilePolarity,Positive*
%FSLAX46Y46*%
G04 Gerber Fmt 4.6, Leading zero omitted, Abs format (unit mm)*
G04 Created by KiCad (PCBNEW (5.0.1)-3) date 11/12/2018 20:57:09*
%MOMM*%
%LPD*%
G01*
G04 APERTURE LIST*
G04 #@! TA.AperFunction,SMDPad,CuDef*
%ADD10R,1.651000X7.000000*%
G04 #@! TD*
G04 #@! TA.AperFunction,SMDPad,CuDef*
%ADD11R,1.338000X7.000000*%
G04 #@! TD*
G04 #@! TA.AperFunction,ComponentPad*
%ADD12C,1.800000*%
G04 #@! TD*
G04 #@! TA.AperFunction,ComponentPad*
%ADD13R,1.800000X1.800000*%
G04 #@! TD*
G04 #@! TA.AperFunction,ComponentPad*
%ADD14O,1.600000X1.600000*%
G04 #@! TD*
G04 #@! TA.AperFunction,ComponentPad*
%ADD15R,1.600000X1.600000*%
G04 #@! TD*
G04 #@! TA.AperFunction,ComponentPad*
%ADD16O,1.400000X1.400000*%
G04 #@! TD*
G04 #@! TA.AperFunction,ComponentPad*
%ADD17C,1.400000*%
G04 #@! TD*
G04 #@! TA.AperFunction,ComponentPad*
%ADD18C,1.600000*%
G04 #@! TD*
G04 #@! TA.AperFunction,SMDPad,CuDef*
%ADD19C,0.300000*%
G04 #@! TD*
G04 #@! TA.AperFunction,Conductor*
%ADD20C,0.100000*%
G04 #@! TD*
G04 #@! TA.AperFunction,ViaPad*
%ADD21C,0.800000*%
G04 #@! TD*
G04 #@! TA.AperFunction,Conductor*
%ADD22C,0.400000*%
G04 #@! TD*
G04 #@! TA.AperFunction,Conductor*
%ADD23C,0.254000*%
G04 #@! TD*
G04 APERTURE END LIST*
D10*
G04 #@! TO.P,J1,1*
G04 #@! TO.N,+5V*
X55880000Y-181720000D03*
G04 #@! TO.P,J1,2*
X58420000Y-181720000D03*
G04 #@! TO.P,J1,3*
G04 #@! TO.N,/DataBus0*
X60960000Y-181720000D03*
G04 #@! TO.P,J1,4*
G04 #@! TO.N,/DataBus1*
X63500000Y-181720000D03*
G04 #@! TO.P,J1,5*
G04 #@! TO.N,/DataBus2*
X66040000Y-181720000D03*
G04 #@! TO.P,J1,6*
G04 #@! TO.N,/DataBus3*
X68580000Y-181720000D03*
G04 #@! TO.P,J1,7*
G04 #@! TO.N,/DataBus4*
X71120000Y-181720000D03*
G04 #@! TO.P,J1,8*
G04 #@! TO.N,/DataBus5*
X73660000Y-181720000D03*
G04 #@! TO.P,J1,9*
G04 #@! TO.N,/DataBus6*
X76200000Y-181720000D03*
D11*
G04 #@! TO.P,J1,10*
G04 #@! TO.N,/DataBus7*
X78585000Y-181720000D03*
G04 #@! TO.P,J1,11*
G04 #@! TO.N,GND*
X81435000Y-181720000D03*
D10*
G04 #@! TO.P,J1,12*
G04 #@! TO.N,Clock*
X83820000Y-181720000D03*
G04 #@! TO.P,J1,13*
G04 #@! TO.N,GND*
X86360000Y-181720000D03*
G04 #@! TO.P,J1,14*
G04 #@! TO.N,Reset*
X88900000Y-181720000D03*
G04 #@! TO.P,J1,15*
G04 #@! TO.N,Net-(J1-Pad15)*
X91440000Y-181720000D03*
G04 #@! TO.P,J1,16*
G04 #@! TO.N,/Control0*
X93980000Y-181720000D03*
G04 #@! TO.P,J1,17*
G04 #@! TO.N,/Control2*
X96520000Y-181720000D03*
G04 #@! TO.P,J1,18*
G04 #@! TO.N,/Control4*
X99060000Y-181720000D03*
G04 #@! TO.P,J1,19*
G04 #@! TO.N,/Control6*
X101600000Y-181720000D03*
G04 #@! TO.P,J1,20*
G04 #@! TO.N,/Control8*
X104140000Y-181720000D03*
G04 #@! TO.P,J1,21*
G04 #@! TO.N,/Control10*
X106680000Y-181720000D03*
G04 #@! TO.P,J1,22*
G04 #@! TO.N,/Control12*
X109220000Y-181720000D03*
G04 #@! TO.P,J1,23*
G04 #@! TO.N,/Control14*
X111760000Y-181720000D03*
G04 #@! TO.P,J1,24*
G04 #@! TO.N,/Control16*
X114300000Y-181720000D03*
G04 #@! TO.P,J1,25*
G04 #@! TO.N,/Control18*
X116840000Y-181720000D03*
G04 #@! TO.P,J1,26*
G04 #@! TO.N,/Control20*
X119380000Y-181720000D03*
G04 #@! TO.P,J1,27*
G04 #@! TO.N,/Control22*
X121920000Y-181720000D03*
G04 #@! TO.P,J1,28*
G04 #@! TO.N,GND*
X124460000Y-181720000D03*
G04 #@! TO.P,J1,29*
G04 #@! TO.N,/Value0*
X127000000Y-181720000D03*
G04 #@! TO.P,J1,30*
G04 #@! TO.N,/Value1*
X129540000Y-181720000D03*
G04 #@! TO.P,J1,31*
G04 #@! TO.N,/Value2*
X132080000Y-181720000D03*
G04 #@! TO.P,J1,32*
G04 #@! TO.N,/Value3*
X134620000Y-181720000D03*
G04 #@! TO.P,J1,33*
G04 #@! TO.N,/Value4*
X137160000Y-181720000D03*
G04 #@! TO.P,J1,34*
G04 #@! TO.N,/Value5*
X139700000Y-181720000D03*
G04 #@! TO.P,J1,35*
G04 #@! TO.N,/Value6*
X142240000Y-181720000D03*
G04 #@! TO.P,J1,36*
G04 #@! TO.N,/Value7*
X144780000Y-181720000D03*
G04 #@! TD*
D12*
G04 #@! TO.P,D3,2*
G04 #@! TO.N,+5V*
X106680000Y-104140000D03*
D13*
G04 #@! TO.P,D3,1*
G04 #@! TO.N,Net-(D3-Pad1)*
X109220000Y-104140000D03*
G04 #@! TD*
D12*
G04 #@! TO.P,D8,2*
G04 #@! TO.N,+5V*
X144780000Y-104140000D03*
D13*
G04 #@! TO.P,D8,1*
G04 #@! TO.N,Net-(D8-Pad1)*
X147320000Y-104140000D03*
G04 #@! TD*
D12*
G04 #@! TO.P,D6,2*
G04 #@! TO.N,+5V*
X129540000Y-104140000D03*
D13*
G04 #@! TO.P,D6,1*
G04 #@! TO.N,Net-(D6-Pad1)*
X132080000Y-104140000D03*
G04 #@! TD*
D12*
G04 #@! TO.P,D4,2*
G04 #@! TO.N,+5V*
X114300000Y-104140000D03*
D13*
G04 #@! TO.P,D4,1*
G04 #@! TO.N,Net-(D4-Pad1)*
X116840000Y-104140000D03*
G04 #@! TD*
D12*
G04 #@! TO.P,D1,2*
G04 #@! TO.N,+5V*
X91440000Y-104140000D03*
D13*
G04 #@! TO.P,D1,1*
G04 #@! TO.N,Net-(D1-Pad1)*
X93980000Y-104140000D03*
G04 #@! TD*
D12*
G04 #@! TO.P,D5,2*
G04 #@! TO.N,+5V*
X121920000Y-104140000D03*
D13*
G04 #@! TO.P,D5,1*
G04 #@! TO.N,Net-(D5-Pad1)*
X124460000Y-104140000D03*
G04 #@! TD*
D12*
G04 #@! TO.P,D7,2*
G04 #@! TO.N,+5V*
X137160000Y-104140000D03*
D13*
G04 #@! TO.P,D7,1*
G04 #@! TO.N,Net-(D7-Pad1)*
X139700000Y-104140000D03*
G04 #@! TD*
D12*
G04 #@! TO.P,D2,2*
G04 #@! TO.N,+5V*
X99060000Y-104140000D03*
D13*
G04 #@! TO.P,D2,1*
G04 #@! TO.N,Net-(D2-Pad1)*
X101600000Y-104140000D03*
G04 #@! TD*
D14*
G04 #@! TO.P,U2,16*
G04 #@! TO.N,+5V*
X73660000Y-116840000D03*
G04 #@! TO.P,U2,8*
G04 #@! TO.N,GND*
X66040000Y-134620000D03*
G04 #@! TO.P,U2,15*
G04 #@! TO.N,Reset*
X73660000Y-119380000D03*
G04 #@! TO.P,U2,7*
G04 #@! TO.N,Clock*
X66040000Y-132080000D03*
G04 #@! TO.P,U2,14*
G04 #@! TO.N,/DataBus0*
X73660000Y-121920000D03*
G04 #@! TO.P,U2,6*
G04 #@! TO.N,/Value3*
X66040000Y-129540000D03*
G04 #@! TO.P,U2,13*
G04 #@! TO.N,/DataBus1*
X73660000Y-124460000D03*
G04 #@! TO.P,U2,5*
G04 #@! TO.N,/Value2*
X66040000Y-127000000D03*
G04 #@! TO.P,U2,12*
G04 #@! TO.N,/DataBus2*
X73660000Y-127000000D03*
G04 #@! TO.P,U2,4*
G04 #@! TO.N,/Value1*
X66040000Y-124460000D03*
G04 #@! TO.P,U2,11*
G04 #@! TO.N,/DataBus3*
X73660000Y-129540000D03*
G04 #@! TO.P,U2,3*
G04 #@! TO.N,/Value0*
X66040000Y-121920000D03*
G04 #@! TO.P,U2,10*
G04 #@! TO.N,Net-(U1-Pad2)*
X73660000Y-132080000D03*
G04 #@! TO.P,U2,2*
G04 #@! TO.N,GND*
X66040000Y-119380000D03*
G04 #@! TO.P,U2,9*
G04 #@! TO.N,Net-(U1-Pad2)*
X73660000Y-134620000D03*
D15*
G04 #@! TO.P,U2,1*
G04 #@! TO.N,GND*
X66040000Y-116840000D03*
G04 #@! TD*
D14*
G04 #@! TO.P,U5,16*
G04 #@! TO.N,+5V*
X73660000Y-144780000D03*
G04 #@! TO.P,U5,8*
G04 #@! TO.N,GND*
X66040000Y-162560000D03*
G04 #@! TO.P,U5,15*
G04 #@! TO.N,Reset*
X73660000Y-147320000D03*
G04 #@! TO.P,U5,7*
G04 #@! TO.N,Clock*
X66040000Y-160020000D03*
G04 #@! TO.P,U5,14*
G04 #@! TO.N,/DataBus4*
X73660000Y-149860000D03*
G04 #@! TO.P,U5,6*
G04 #@! TO.N,/Value7*
X66040000Y-157480000D03*
G04 #@! TO.P,U5,13*
G04 #@! TO.N,/DataBus5*
X73660000Y-152400000D03*
G04 #@! TO.P,U5,5*
G04 #@! TO.N,/Value6*
X66040000Y-154940000D03*
G04 #@! TO.P,U5,12*
G04 #@! TO.N,/DataBus6*
X73660000Y-154940000D03*
G04 #@! TO.P,U5,4*
G04 #@! TO.N,/Value5*
X66040000Y-152400000D03*
G04 #@! TO.P,U5,11*
G04 #@! TO.N,/DataBus7*
X73660000Y-157480000D03*
G04 #@! TO.P,U5,3*
G04 #@! TO.N,/Value4*
X66040000Y-149860000D03*
G04 #@! TO.P,U5,10*
G04 #@! TO.N,Net-(U1-Pad2)*
X73660000Y-160020000D03*
G04 #@! TO.P,U5,2*
G04 #@! TO.N,GND*
X66040000Y-147320000D03*
G04 #@! TO.P,U5,9*
G04 #@! TO.N,Net-(U1-Pad2)*
X73660000Y-162560000D03*
D15*
G04 #@! TO.P,U5,1*
G04 #@! TO.N,GND*
X66040000Y-144780000D03*
G04 #@! TD*
D14*
G04 #@! TO.P,U4,20*
G04 #@! TO.N,+5V*
X96520000Y-118110000D03*
G04 #@! TO.P,U4,10*
G04 #@! TO.N,GND*
X88900000Y-140970000D03*
G04 #@! TO.P,U4,19*
G04 #@! TO.N,Net-(U1-Pad4)*
X96520000Y-120650000D03*
G04 #@! TO.P,U4,9*
G04 #@! TO.N,/Value7*
X88900000Y-138430000D03*
G04 #@! TO.P,U4,18*
G04 #@! TO.N,/DataBus0*
X96520000Y-123190000D03*
G04 #@! TO.P,U4,8*
G04 #@! TO.N,/Value6*
X88900000Y-135890000D03*
G04 #@! TO.P,U4,17*
G04 #@! TO.N,/DataBus1*
X96520000Y-125730000D03*
G04 #@! TO.P,U4,7*
G04 #@! TO.N,/Value5*
X88900000Y-133350000D03*
G04 #@! TO.P,U4,16*
G04 #@! TO.N,/DataBus2*
X96520000Y-128270000D03*
G04 #@! TO.P,U4,6*
G04 #@! TO.N,/Value4*
X88900000Y-130810000D03*
G04 #@! TO.P,U4,15*
G04 #@! TO.N,/DataBus3*
X96520000Y-130810000D03*
G04 #@! TO.P,U4,5*
G04 #@! TO.N,/Value3*
X88900000Y-128270000D03*
G04 #@! TO.P,U4,14*
G04 #@! TO.N,/DataBus4*
X96520000Y-133350000D03*
G04 #@! TO.P,U4,4*
G04 #@! TO.N,/Value2*
X88900000Y-125730000D03*
G04 #@! TO.P,U4,13*
G04 #@! TO.N,/DataBus5*
X96520000Y-135890000D03*
G04 #@! TO.P,U4,3*
G04 #@! TO.N,/Value1*
X88900000Y-123190000D03*
G04 #@! TO.P,U4,12*
G04 #@! TO.N,/DataBus6*
X96520000Y-138430000D03*
G04 #@! TO.P,U4,2*
G04 #@! TO.N,/Value0*
X88900000Y-120650000D03*
G04 #@! TO.P,U4,11*
G04 #@! TO.N,/DataBus7*
X96520000Y-140970000D03*
D15*
G04 #@! TO.P,U4,1*
G04 #@! TO.N,Net-(U1-Pad4)*
X88900000Y-118110000D03*
G04 #@! TD*
D16*
G04 #@! TO.P,R1,2*
G04 #@! TO.N,/LED0*
X125730000Y-121920000D03*
D17*
G04 #@! TO.P,R1,1*
G04 #@! TO.N,Net-(D1-Pad1)*
X125730000Y-114300000D03*
G04 #@! TD*
D16*
G04 #@! TO.P,R2,2*
G04 #@! TO.N,/LED1*
X128270000Y-121920000D03*
D17*
G04 #@! TO.P,R2,1*
G04 #@! TO.N,Net-(D2-Pad1)*
X128270000Y-114300000D03*
G04 #@! TD*
D16*
G04 #@! TO.P,R3,2*
G04 #@! TO.N,/LED2*
X130810000Y-121920000D03*
D17*
G04 #@! TO.P,R3,1*
G04 #@! TO.N,Net-(D3-Pad1)*
X130810000Y-114300000D03*
G04 #@! TD*
D16*
G04 #@! TO.P,R4,2*
G04 #@! TO.N,/LED3*
X133350000Y-121920000D03*
D17*
G04 #@! TO.P,R4,1*
G04 #@! TO.N,Net-(D4-Pad1)*
X133350000Y-114300000D03*
G04 #@! TD*
D16*
G04 #@! TO.P,R5,2*
G04 #@! TO.N,/LED4*
X135890000Y-121920000D03*
D17*
G04 #@! TO.P,R5,1*
G04 #@! TO.N,Net-(D5-Pad1)*
X135890000Y-114300000D03*
G04 #@! TD*
D16*
G04 #@! TO.P,R6,2*
G04 #@! TO.N,/LED5*
X138430000Y-121920000D03*
D17*
G04 #@! TO.P,R6,1*
G04 #@! TO.N,Net-(D6-Pad1)*
X138430000Y-114300000D03*
G04 #@! TD*
D16*
G04 #@! TO.P,R7,2*
G04 #@! TO.N,/LED6*
X140970000Y-121845349D03*
D17*
G04 #@! TO.P,R7,1*
G04 #@! TO.N,Net-(D7-Pad1)*
X140970000Y-114225349D03*
G04 #@! TD*
D16*
G04 #@! TO.P,R8,2*
G04 #@! TO.N,/LED7*
X143510000Y-121845349D03*
D17*
G04 #@! TO.P,R8,1*
G04 #@! TO.N,Net-(D8-Pad1)*
X143510000Y-114225349D03*
G04 #@! TD*
D14*
G04 #@! TO.P,U3,18*
G04 #@! TO.N,/LED0*
X120650000Y-121920000D03*
G04 #@! TO.P,U3,9*
G04 #@! TO.N,GND*
X113030000Y-142240000D03*
G04 #@! TO.P,U3,17*
G04 #@! TO.N,/LED1*
X120650000Y-124460000D03*
G04 #@! TO.P,U3,8*
G04 #@! TO.N,/Value7*
X113030000Y-139700000D03*
G04 #@! TO.P,U3,16*
G04 #@! TO.N,/LED2*
X120650000Y-127000000D03*
G04 #@! TO.P,U3,7*
G04 #@! TO.N,/Value6*
X113030000Y-137160000D03*
G04 #@! TO.P,U3,15*
G04 #@! TO.N,/LED3*
X120650000Y-129540000D03*
G04 #@! TO.P,U3,6*
G04 #@! TO.N,/Value5*
X113030000Y-134620000D03*
G04 #@! TO.P,U3,14*
G04 #@! TO.N,/LED4*
X120650000Y-132080000D03*
G04 #@! TO.P,U3,5*
G04 #@! TO.N,/Value4*
X113030000Y-132080000D03*
G04 #@! TO.P,U3,13*
G04 #@! TO.N,/LED5*
X120650000Y-134620000D03*
G04 #@! TO.P,U3,4*
G04 #@! TO.N,/Value3*
X113030000Y-129540000D03*
G04 #@! TO.P,U3,12*
G04 #@! TO.N,/LED6*
X120650000Y-137160000D03*
G04 #@! TO.P,U3,3*
G04 #@! TO.N,/Value2*
X113030000Y-127000000D03*
G04 #@! TO.P,U3,11*
G04 #@! TO.N,/LED7*
X120650000Y-139700000D03*
G04 #@! TO.P,U3,2*
G04 #@! TO.N,/Value1*
X113030000Y-124460000D03*
G04 #@! TO.P,U3,10*
G04 #@! TO.N,Net-(U3-Pad10)*
X120650000Y-142240000D03*
D15*
G04 #@! TO.P,U3,1*
G04 #@! TO.N,/Value0*
X113030000Y-121920000D03*
G04 #@! TD*
D18*
G04 #@! TO.P,C1,2*
G04 #@! TO.N,GND*
X67310000Y-111760000D03*
G04 #@! TO.P,C1,1*
G04 #@! TO.N,+5V*
X72310000Y-111760000D03*
G04 #@! TD*
G04 #@! TO.P,C2,2*
G04 #@! TO.N,GND*
X67310000Y-139700000D03*
G04 #@! TO.P,C2,1*
G04 #@! TO.N,+5V*
X72310000Y-139700000D03*
G04 #@! TD*
G04 #@! TO.P,C3,2*
G04 #@! TO.N,GND*
X90170000Y-113030000D03*
G04 #@! TO.P,C3,1*
G04 #@! TO.N,+5V*
X95170000Y-113030000D03*
G04 #@! TD*
D14*
G04 #@! TO.P,U1,14*
G04 #@! TO.N,+5V*
X91440000Y-152400000D03*
G04 #@! TO.P,U1,7*
G04 #@! TO.N,GND*
X106680000Y-160020000D03*
G04 #@! TO.P,U1,13*
G04 #@! TO.N,N/C*
X93980000Y-152400000D03*
G04 #@! TO.P,U1,6*
X104140000Y-160020000D03*
G04 #@! TO.P,U1,12*
X96520000Y-152400000D03*
G04 #@! TO.P,U1,5*
X101600000Y-160020000D03*
G04 #@! TO.P,U1,11*
X99060000Y-152400000D03*
G04 #@! TO.P,U1,4*
G04 #@! TO.N,Net-(U1-Pad4)*
X99060000Y-160020000D03*
G04 #@! TO.P,U1,10*
G04 #@! TO.N,N/C*
X101600000Y-152400000D03*
G04 #@! TO.P,U1,3*
G04 #@! TO.N,DataOut*
X96520000Y-160020000D03*
G04 #@! TO.P,U1,9*
G04 #@! TO.N,N/C*
X104140000Y-152400000D03*
G04 #@! TO.P,U1,2*
G04 #@! TO.N,Net-(U1-Pad2)*
X93980000Y-160020000D03*
G04 #@! TO.P,U1,8*
G04 #@! TO.N,N/C*
X106680000Y-152400000D03*
D15*
G04 #@! TO.P,U1,1*
G04 #@! TO.N,DataIn*
X91440000Y-160020000D03*
G04 #@! TD*
D19*
G04 #@! TO.P,JP1,1*
G04 #@! TO.N,/Control0*
X93980000Y-173445000D03*
D20*
G04 #@! TD*
G04 #@! TO.N,/Control0*
G04 #@! TO.C,JP1*
G36*
X93980000Y-172445000D02*
X94730000Y-172945000D01*
X94730000Y-173945000D01*
X93230000Y-173945000D01*
X93230000Y-172945000D01*
X93980000Y-172445000D01*
X93980000Y-172445000D01*
G37*
D19*
G04 #@! TO.P,JP1,2*
G04 #@! TO.N,DataIn*
X93980000Y-171995000D03*
D20*
G04 #@! TD*
G04 #@! TO.N,DataIn*
G04 #@! TO.C,JP1*
G36*
X94730000Y-171495000D02*
X94730000Y-172645000D01*
X93980000Y-172145000D01*
X93230000Y-172645000D01*
X93230000Y-171495000D01*
X94730000Y-171495000D01*
X94730000Y-171495000D01*
G37*
D19*
G04 #@! TO.P,JP3,1*
G04 #@! TO.N,/Control2*
X96520000Y-173445000D03*
D20*
G04 #@! TD*
G04 #@! TO.N,/Control2*
G04 #@! TO.C,JP3*
G36*
X96520000Y-172445000D02*
X97270000Y-172945000D01*
X97270000Y-173945000D01*
X95770000Y-173945000D01*
X95770000Y-172945000D01*
X96520000Y-172445000D01*
X96520000Y-172445000D01*
G37*
D19*
G04 #@! TO.P,JP3,2*
G04 #@! TO.N,DataIn*
X96520000Y-171995000D03*
D20*
G04 #@! TD*
G04 #@! TO.N,DataIn*
G04 #@! TO.C,JP3*
G36*
X97270000Y-171495000D02*
X97270000Y-172645000D01*
X96520000Y-172145000D01*
X95770000Y-172645000D01*
X95770000Y-171495000D01*
X97270000Y-171495000D01*
X97270000Y-171495000D01*
G37*
D19*
G04 #@! TO.P,JP5,1*
G04 #@! TO.N,/Control4*
X99060000Y-173445000D03*
D20*
G04 #@! TD*
G04 #@! TO.N,/Control4*
G04 #@! TO.C,JP5*
G36*
X99060000Y-172445000D02*
X99810000Y-172945000D01*
X99810000Y-173945000D01*
X98310000Y-173945000D01*
X98310000Y-172945000D01*
X99060000Y-172445000D01*
X99060000Y-172445000D01*
G37*
D19*
G04 #@! TO.P,JP5,2*
G04 #@! TO.N,DataIn*
X99060000Y-171995000D03*
D20*
G04 #@! TD*
G04 #@! TO.N,DataIn*
G04 #@! TO.C,JP5*
G36*
X99810000Y-171495000D02*
X99810000Y-172645000D01*
X99060000Y-172145000D01*
X98310000Y-172645000D01*
X98310000Y-171495000D01*
X99810000Y-171495000D01*
X99810000Y-171495000D01*
G37*
D19*
G04 #@! TO.P,JP7,1*
G04 #@! TO.N,/Control6*
X101600000Y-173445000D03*
D20*
G04 #@! TD*
G04 #@! TO.N,/Control6*
G04 #@! TO.C,JP7*
G36*
X101600000Y-172445000D02*
X102350000Y-172945000D01*
X102350000Y-173945000D01*
X100850000Y-173945000D01*
X100850000Y-172945000D01*
X101600000Y-172445000D01*
X101600000Y-172445000D01*
G37*
D19*
G04 #@! TO.P,JP7,2*
G04 #@! TO.N,DataIn*
X101600000Y-171995000D03*
D20*
G04 #@! TD*
G04 #@! TO.N,DataIn*
G04 #@! TO.C,JP7*
G36*
X102350000Y-171495000D02*
X102350000Y-172645000D01*
X101600000Y-172145000D01*
X100850000Y-172645000D01*
X100850000Y-171495000D01*
X102350000Y-171495000D01*
X102350000Y-171495000D01*
G37*
D19*
G04 #@! TO.P,JP9,1*
G04 #@! TO.N,/Control8*
X104140000Y-173445000D03*
D20*
G04 #@! TD*
G04 #@! TO.N,/Control8*
G04 #@! TO.C,JP9*
G36*
X104140000Y-172445000D02*
X104890000Y-172945000D01*
X104890000Y-173945000D01*
X103390000Y-173945000D01*
X103390000Y-172945000D01*
X104140000Y-172445000D01*
X104140000Y-172445000D01*
G37*
D19*
G04 #@! TO.P,JP9,2*
G04 #@! TO.N,DataIn*
X104140000Y-171995000D03*
D20*
G04 #@! TD*
G04 #@! TO.N,DataIn*
G04 #@! TO.C,JP9*
G36*
X104890000Y-171495000D02*
X104890000Y-172645000D01*
X104140000Y-172145000D01*
X103390000Y-172645000D01*
X103390000Y-171495000D01*
X104890000Y-171495000D01*
X104890000Y-171495000D01*
G37*
D19*
G04 #@! TO.P,JP11,1*
G04 #@! TO.N,/Control10*
X106680000Y-173445000D03*
D20*
G04 #@! TD*
G04 #@! TO.N,/Control10*
G04 #@! TO.C,JP11*
G36*
X106680000Y-172445000D02*
X107430000Y-172945000D01*
X107430000Y-173945000D01*
X105930000Y-173945000D01*
X105930000Y-172945000D01*
X106680000Y-172445000D01*
X106680000Y-172445000D01*
G37*
D19*
G04 #@! TO.P,JP11,2*
G04 #@! TO.N,DataIn*
X106680000Y-171995000D03*
D20*
G04 #@! TD*
G04 #@! TO.N,DataIn*
G04 #@! TO.C,JP11*
G36*
X107430000Y-171495000D02*
X107430000Y-172645000D01*
X106680000Y-172145000D01*
X105930000Y-172645000D01*
X105930000Y-171495000D01*
X107430000Y-171495000D01*
X107430000Y-171495000D01*
G37*
D19*
G04 #@! TO.P,JP13,1*
G04 #@! TO.N,/Control12*
X109220000Y-173445000D03*
D20*
G04 #@! TD*
G04 #@! TO.N,/Control12*
G04 #@! TO.C,JP13*
G36*
X109220000Y-172445000D02*
X109970000Y-172945000D01*
X109970000Y-173945000D01*
X108470000Y-173945000D01*
X108470000Y-172945000D01*
X109220000Y-172445000D01*
X109220000Y-172445000D01*
G37*
D19*
G04 #@! TO.P,JP13,2*
G04 #@! TO.N,DataIn*
X109220000Y-171995000D03*
D20*
G04 #@! TD*
G04 #@! TO.N,DataIn*
G04 #@! TO.C,JP13*
G36*
X109970000Y-171495000D02*
X109970000Y-172645000D01*
X109220000Y-172145000D01*
X108470000Y-172645000D01*
X108470000Y-171495000D01*
X109970000Y-171495000D01*
X109970000Y-171495000D01*
G37*
D19*
G04 #@! TO.P,JP15,1*
G04 #@! TO.N,/Control14*
X111760000Y-173445000D03*
D20*
G04 #@! TD*
G04 #@! TO.N,/Control14*
G04 #@! TO.C,JP15*
G36*
X111760000Y-172445000D02*
X112510000Y-172945000D01*
X112510000Y-173945000D01*
X111010000Y-173945000D01*
X111010000Y-172945000D01*
X111760000Y-172445000D01*
X111760000Y-172445000D01*
G37*
D19*
G04 #@! TO.P,JP15,2*
G04 #@! TO.N,DataIn*
X111760000Y-171995000D03*
D20*
G04 #@! TD*
G04 #@! TO.N,DataIn*
G04 #@! TO.C,JP15*
G36*
X112510000Y-171495000D02*
X112510000Y-172645000D01*
X111760000Y-172145000D01*
X111010000Y-172645000D01*
X111010000Y-171495000D01*
X112510000Y-171495000D01*
X112510000Y-171495000D01*
G37*
D19*
G04 #@! TO.P,JP17,1*
G04 #@! TO.N,/Control16*
X114300000Y-173445000D03*
D20*
G04 #@! TD*
G04 #@! TO.N,/Control16*
G04 #@! TO.C,JP17*
G36*
X114300000Y-172445000D02*
X115050000Y-172945000D01*
X115050000Y-173945000D01*
X113550000Y-173945000D01*
X113550000Y-172945000D01*
X114300000Y-172445000D01*
X114300000Y-172445000D01*
G37*
D19*
G04 #@! TO.P,JP17,2*
G04 #@! TO.N,DataIn*
X114300000Y-171995000D03*
D20*
G04 #@! TD*
G04 #@! TO.N,DataIn*
G04 #@! TO.C,JP17*
G36*
X115050000Y-171495000D02*
X115050000Y-172645000D01*
X114300000Y-172145000D01*
X113550000Y-172645000D01*
X113550000Y-171495000D01*
X115050000Y-171495000D01*
X115050000Y-171495000D01*
G37*
D19*
G04 #@! TO.P,JP19,1*
G04 #@! TO.N,/Control18*
X116840000Y-173445000D03*
D20*
G04 #@! TD*
G04 #@! TO.N,/Control18*
G04 #@! TO.C,JP19*
G36*
X116840000Y-172445000D02*
X117590000Y-172945000D01*
X117590000Y-173945000D01*
X116090000Y-173945000D01*
X116090000Y-172945000D01*
X116840000Y-172445000D01*
X116840000Y-172445000D01*
G37*
D19*
G04 #@! TO.P,JP19,2*
G04 #@! TO.N,DataIn*
X116840000Y-171995000D03*
D20*
G04 #@! TD*
G04 #@! TO.N,DataIn*
G04 #@! TO.C,JP19*
G36*
X117590000Y-171495000D02*
X117590000Y-172645000D01*
X116840000Y-172145000D01*
X116090000Y-172645000D01*
X116090000Y-171495000D01*
X117590000Y-171495000D01*
X117590000Y-171495000D01*
G37*
D19*
G04 #@! TO.P,JP21,1*
G04 #@! TO.N,/Control20*
X119380000Y-173445000D03*
D20*
G04 #@! TD*
G04 #@! TO.N,/Control20*
G04 #@! TO.C,JP21*
G36*
X119380000Y-172445000D02*
X120130000Y-172945000D01*
X120130000Y-173945000D01*
X118630000Y-173945000D01*
X118630000Y-172945000D01*
X119380000Y-172445000D01*
X119380000Y-172445000D01*
G37*
D19*
G04 #@! TO.P,JP21,2*
G04 #@! TO.N,DataIn*
X119380000Y-171995000D03*
D20*
G04 #@! TD*
G04 #@! TO.N,DataIn*
G04 #@! TO.C,JP21*
G36*
X120130000Y-171495000D02*
X120130000Y-172645000D01*
X119380000Y-172145000D01*
X118630000Y-172645000D01*
X118630000Y-171495000D01*
X120130000Y-171495000D01*
X120130000Y-171495000D01*
G37*
D19*
G04 #@! TO.P,JP23,1*
G04 #@! TO.N,/Control22*
X121920000Y-173445000D03*
D20*
G04 #@! TD*
G04 #@! TO.N,/Control22*
G04 #@! TO.C,JP23*
G36*
X121920000Y-172445000D02*
X122670000Y-172945000D01*
X122670000Y-173945000D01*
X121170000Y-173945000D01*
X121170000Y-172945000D01*
X121920000Y-172445000D01*
X121920000Y-172445000D01*
G37*
D19*
G04 #@! TO.P,JP23,2*
G04 #@! TO.N,DataIn*
X121920000Y-171995000D03*
D20*
G04 #@! TD*
G04 #@! TO.N,DataIn*
G04 #@! TO.C,JP23*
G36*
X122670000Y-171495000D02*
X122670000Y-172645000D01*
X121920000Y-172145000D01*
X121170000Y-172645000D01*
X121170000Y-171495000D01*
X122670000Y-171495000D01*
X122670000Y-171495000D01*
G37*
D21*
G04 #@! TO.N,+5V*
X58420000Y-175260000D03*
X55880000Y-175260000D03*
G04 #@! TO.N,/DataBus0*
X60960000Y-175260000D03*
X58420000Y-149860000D03*
X58420000Y-124460000D03*
G04 #@! TO.N,/DataBus1*
X63500000Y-175260000D03*
X59690000Y-149860000D03*
X59690000Y-127000000D03*
G04 #@! TO.N,/DataBus2*
X66040000Y-175260000D03*
X60960000Y-149860000D03*
X60960000Y-129540000D03*
G04 #@! TO.N,/DataBus3*
X68580000Y-175260000D03*
X62230000Y-149860000D03*
X62230000Y-132080000D03*
G04 #@! TO.N,/DataBus4*
X71120000Y-175260000D03*
G04 #@! TO.N,/DataBus5*
X73660000Y-175260000D03*
G04 #@! TO.N,/DataBus6*
X76200000Y-175260000D03*
G04 #@! TO.N,/DataBus7*
X78740000Y-175260000D03*
G04 #@! TO.N,GND*
X81280000Y-175260000D03*
X86360000Y-175260000D03*
X124460000Y-175260000D03*
G04 #@! TO.N,Clock*
X83820000Y-175260000D03*
X69215000Y-160020000D03*
G04 #@! TO.N,Reset*
X88900000Y-175260000D03*
X76200000Y-162560000D03*
G04 #@! TO.N,/Value0*
X127000000Y-175260000D03*
X102870000Y-140970000D03*
X102870000Y-121920000D03*
G04 #@! TO.N,/Value4*
X137160000Y-175260000D03*
X107950000Y-132080000D03*
X107950000Y-140970000D03*
G04 #@! TO.N,/Value1*
X129540000Y-175260000D03*
X104140000Y-124460000D03*
X104140000Y-140970000D03*
G04 #@! TO.N,/Value5*
X139700000Y-175260000D03*
X109220000Y-134620000D03*
X109220000Y-140970000D03*
G04 #@! TO.N,/Value2*
X132080000Y-175260000D03*
X105410000Y-127000000D03*
X105410000Y-140970000D03*
G04 #@! TO.N,/Value6*
X142240000Y-175260000D03*
X110490000Y-137160000D03*
X110490000Y-140970000D03*
G04 #@! TO.N,/Value3*
X134620000Y-175260000D03*
X106680000Y-129540000D03*
X106680000Y-140970000D03*
G04 #@! TO.N,/Value7*
X144780000Y-175260000D03*
G04 #@! TO.N,Net-(U1-Pad4)*
X93980000Y-120650000D03*
X92710000Y-143510000D03*
G04 #@! TD*
D22*
G04 #@! TO.N,/DataBus0*
X60960000Y-180560000D02*
X60960000Y-175260000D01*
X93345000Y-123190000D02*
X96520000Y-123190000D01*
X92075000Y-121920000D02*
X93345000Y-123190000D01*
X73660000Y-121920000D02*
X92075000Y-121920000D01*
X73660000Y-121920000D02*
X70485000Y-121920000D01*
X70485000Y-121920000D02*
X69215000Y-123190000D01*
X59690000Y-123190000D02*
X58420000Y-124460000D01*
X69215000Y-123190000D02*
X59690000Y-123190000D01*
X58420000Y-149860000D02*
X58420000Y-149860000D01*
X58420000Y-124460000D02*
X58420000Y-124460000D01*
X60960000Y-174625000D02*
X60960000Y-175260000D01*
X58420000Y-149860000D02*
X58420000Y-172085000D01*
X58420000Y-172085000D02*
X60960000Y-174625000D01*
G04 #@! TO.N,/DataBus1*
X63500000Y-180560000D02*
X63500000Y-175260000D01*
X93345000Y-125730000D02*
X96520000Y-125730000D01*
X92075000Y-124460000D02*
X93345000Y-125730000D01*
X73660000Y-124460000D02*
X92075000Y-124460000D01*
X59690000Y-149860000D02*
X59690000Y-149860000D01*
X72528630Y-124460000D02*
X73660000Y-124460000D01*
X70485000Y-124460000D02*
X72528630Y-124460000D01*
X69215000Y-125730000D02*
X70485000Y-124460000D01*
X59690000Y-127000000D02*
X59690000Y-127000000D01*
X60960000Y-125730000D02*
X69215000Y-125730000D01*
X59690000Y-127000000D02*
X60960000Y-125730000D01*
X62230000Y-172720000D02*
X63500000Y-173990000D01*
X60325000Y-172720000D02*
X62230000Y-172720000D01*
X59055000Y-171450000D02*
X60325000Y-172720000D01*
X59690000Y-149860000D02*
X59055000Y-150495000D01*
X59055000Y-150495000D02*
X59055000Y-171450000D01*
X63500000Y-175260000D02*
X63500000Y-173990000D01*
G04 #@! TO.N,/DataBus2*
X66040000Y-180560000D02*
X66040000Y-175260000D01*
X93345000Y-128270000D02*
X92075000Y-127000000D01*
X96520000Y-128270000D02*
X93345000Y-128270000D01*
X73660000Y-127000000D02*
X92075000Y-127000000D01*
X60960000Y-149860000D02*
X60960000Y-149860000D01*
X62230000Y-128270000D02*
X60960000Y-129540000D01*
X69215000Y-128270000D02*
X62230000Y-128270000D01*
X73660000Y-127000000D02*
X70485000Y-127000000D01*
X70485000Y-127000000D02*
X69215000Y-128270000D01*
X60960000Y-129540000D02*
X60960000Y-129540000D01*
X59690000Y-151130000D02*
X60960000Y-149860000D01*
X59690000Y-170815000D02*
X59690000Y-151130000D01*
X60960000Y-172085000D02*
X59690000Y-170815000D01*
X66040000Y-173355000D02*
X64770000Y-172085000D01*
X64770000Y-172085000D02*
X60960000Y-172085000D01*
X66040000Y-173355000D02*
X66040000Y-175260000D01*
G04 #@! TO.N,/DataBus3*
X68580000Y-180560000D02*
X68580000Y-175260000D01*
X93345000Y-130810000D02*
X96520000Y-130810000D01*
X92075000Y-129540000D02*
X93345000Y-130810000D01*
X73660000Y-129540000D02*
X92075000Y-129540000D01*
X68580000Y-172720000D02*
X67310000Y-171450000D01*
X61595000Y-171450000D02*
X60325000Y-170180000D01*
X67310000Y-171450000D02*
X61595000Y-171450000D01*
X60325000Y-151765000D02*
X62230000Y-149860000D01*
X62230000Y-149860000D02*
X62230000Y-149860000D01*
X72528630Y-129540000D02*
X73660000Y-129540000D01*
X70485000Y-129540000D02*
X72528630Y-129540000D01*
X69215000Y-130810000D02*
X70485000Y-129540000D01*
X62230000Y-132080000D02*
X62230000Y-132080000D01*
X63500000Y-130810000D02*
X69215000Y-130810000D01*
X62230000Y-132080000D02*
X63500000Y-130810000D01*
X60325000Y-151765000D02*
X60325000Y-170180000D01*
X68580000Y-175260000D02*
X68580000Y-172720000D01*
G04 #@! TO.N,/DataBus4*
X71120000Y-180560000D02*
X71120000Y-175260000D01*
X93345000Y-133350000D02*
X96520000Y-133350000D01*
X92075000Y-132080000D02*
X93345000Y-133350000D01*
X80010000Y-132080000D02*
X92075000Y-132080000D01*
X78740000Y-133350000D02*
X80010000Y-132080000D01*
X78740000Y-148590000D02*
X78740000Y-133350000D01*
X77470000Y-149860000D02*
X78740000Y-148590000D01*
X73660000Y-149860000D02*
X77470000Y-149860000D01*
X62230000Y-170815000D02*
X69850000Y-170815000D01*
X71120000Y-172085000D02*
X71120000Y-175260000D01*
X70485000Y-149860000D02*
X69215000Y-151130000D01*
X73660000Y-149860000D02*
X70485000Y-149860000D01*
X69215000Y-151130000D02*
X62230000Y-151130000D01*
X62230000Y-151130000D02*
X60960000Y-152400000D01*
X69850000Y-170815000D02*
X71120000Y-172085000D01*
X60960000Y-152400000D02*
X60960000Y-169545000D01*
X60960000Y-169545000D02*
X62230000Y-170815000D01*
G04 #@! TO.N,/DataBus5*
X73660000Y-180560000D02*
X73660000Y-175260000D01*
X93345000Y-135890000D02*
X96520000Y-135890000D01*
X81280000Y-135890000D02*
X82550000Y-134620000D01*
X82550000Y-134620000D02*
X92075000Y-134620000D01*
X81280000Y-151130000D02*
X81280000Y-135890000D01*
X80010000Y-152400000D02*
X81280000Y-151130000D01*
X73660000Y-152400000D02*
X80010000Y-152400000D01*
X92075000Y-134620000D02*
X93345000Y-135890000D01*
X72390000Y-170180000D02*
X73660000Y-171450000D01*
X62865000Y-170180000D02*
X72390000Y-170180000D01*
X70485000Y-152400000D02*
X69215000Y-153670000D01*
X73660000Y-152400000D02*
X70485000Y-152400000D01*
X69215000Y-153670000D02*
X62865000Y-153670000D01*
X62865000Y-153670000D02*
X61595000Y-154940000D01*
X61595000Y-154940000D02*
X61595000Y-168910000D01*
X61595000Y-168910000D02*
X62865000Y-170180000D01*
X73660000Y-175260000D02*
X73660000Y-171450000D01*
G04 #@! TO.N,/DataBus6*
X76200000Y-180560000D02*
X76200000Y-175260000D01*
X93345000Y-138430000D02*
X96520000Y-138430000D01*
X92075000Y-137160000D02*
X93345000Y-138430000D01*
X85090000Y-137160000D02*
X92075000Y-137160000D01*
X83820000Y-138430000D02*
X85090000Y-137160000D01*
X73660000Y-154940000D02*
X82550000Y-154940000D01*
X83820000Y-153670000D02*
X83820000Y-138430000D01*
X82550000Y-154940000D02*
X83820000Y-153670000D01*
X76200000Y-170815000D02*
X76200000Y-175260000D01*
X63500000Y-169545000D02*
X74930000Y-169545000D01*
X70485000Y-154940000D02*
X69215000Y-156210000D01*
X73660000Y-154940000D02*
X70485000Y-154940000D01*
X69215000Y-156210000D02*
X63500000Y-156210000D01*
X63500000Y-156210000D02*
X62230000Y-157480000D01*
X74930000Y-169545000D02*
X76200000Y-170815000D01*
X62230000Y-157480000D02*
X62230000Y-168275000D01*
X62230000Y-168275000D02*
X63500000Y-169545000D01*
G04 #@! TO.N,/DataBus7*
X78740000Y-180560000D02*
X78740000Y-177885500D01*
X78740000Y-177885500D02*
X78740000Y-175260000D01*
X85090000Y-157480000D02*
X86360000Y-156210000D01*
X92075000Y-139700000D02*
X93345000Y-140970000D01*
X87630000Y-139700000D02*
X92075000Y-139700000D01*
X93345000Y-140970000D02*
X96520000Y-140970000D01*
X86360000Y-140970000D02*
X87630000Y-139700000D01*
X86360000Y-156210000D02*
X86360000Y-140970000D01*
X73660000Y-157480000D02*
X85090000Y-157480000D01*
X70485000Y-157480000D02*
X69215000Y-158750000D01*
X73660000Y-157480000D02*
X70485000Y-157480000D01*
X77470000Y-168910000D02*
X78740000Y-170180000D01*
X64135000Y-168910000D02*
X77470000Y-168910000D01*
X62865000Y-167640000D02*
X64135000Y-168910000D01*
X69215000Y-158750000D02*
X64135000Y-158750000D01*
X64135000Y-158750000D02*
X62865000Y-160020000D01*
X62865000Y-160020000D02*
X62865000Y-167640000D01*
X78740000Y-175260000D02*
X78740000Y-170180000D01*
G04 #@! TO.N,GND*
X81280000Y-180560000D02*
X81280000Y-175260000D01*
X86360000Y-180560000D02*
X86360000Y-175260000D01*
X124460000Y-181720000D02*
X124460000Y-175260000D01*
G04 #@! TO.N,Clock*
X83820000Y-175260000D02*
X83820000Y-180560000D01*
X69215000Y-160020000D02*
X66040000Y-160020000D01*
X69215000Y-165100000D02*
X69215000Y-160020000D01*
X70485000Y-166370000D02*
X69215000Y-165100000D01*
X82550000Y-166370000D02*
X70485000Y-166370000D01*
X83820000Y-175260000D02*
X83820000Y-167640000D01*
X83820000Y-167640000D02*
X82550000Y-166370000D01*
G04 #@! TO.N,DataIn*
X93980000Y-171995000D02*
X121920000Y-171995000D01*
X93980000Y-171995000D02*
X93980000Y-167640000D01*
X93980000Y-167640000D02*
X91440000Y-165100000D01*
X91440000Y-165100000D02*
X91440000Y-160020000D01*
G04 #@! TO.N,Reset*
X88900000Y-175260000D02*
X88900000Y-180560000D01*
X88900000Y-175260000D02*
X88900000Y-165100000D01*
X88900000Y-165100000D02*
X87630000Y-163830000D01*
X87630000Y-163830000D02*
X77470000Y-163830000D01*
X77470000Y-163830000D02*
X76200000Y-162560000D01*
G04 #@! TO.N,/Value0*
X66040000Y-121920000D02*
X69215000Y-121920000D01*
X69215000Y-121920000D02*
X70485000Y-120650000D01*
X88900000Y-120650000D02*
X92075000Y-120650000D01*
X92075000Y-120650000D02*
X93345000Y-121920000D01*
X93345000Y-121920000D02*
X100330000Y-121920000D01*
X100330000Y-121920000D02*
X102870000Y-121920000D01*
X127000000Y-181720000D02*
X127000000Y-175260000D01*
X88900000Y-120650000D02*
X70485000Y-120650000D01*
X102870000Y-121920000D02*
X113030000Y-121920000D01*
G04 #@! TO.N,/Value4*
X70485000Y-148590000D02*
X69215000Y-149860000D01*
X69215000Y-149860000D02*
X66040000Y-149860000D01*
X70485000Y-148590000D02*
X76200000Y-148590000D01*
X76200000Y-148590000D02*
X77470000Y-147320000D01*
X77470000Y-147320000D02*
X77470000Y-132080000D01*
X77470000Y-132080000D02*
X78740000Y-130810000D01*
X78740000Y-130810000D02*
X88900000Y-130810000D01*
X88900000Y-130810000D02*
X92075000Y-130810000D01*
X92075000Y-130810000D02*
X93345000Y-132080000D01*
X93345000Y-132080000D02*
X105410000Y-132080000D01*
X105410000Y-132080000D02*
X107950000Y-132080000D01*
X137160000Y-181720000D02*
X137160000Y-175260000D01*
X107950000Y-132080000D02*
X113030000Y-132080000D01*
G04 #@! TO.N,/Value1*
X66040000Y-124460000D02*
X69215000Y-124460000D01*
X69215000Y-124460000D02*
X70485000Y-123190000D01*
X88900000Y-123190000D02*
X92075000Y-123190000D01*
X92075000Y-123190000D02*
X93345000Y-124460000D01*
X93345000Y-124460000D02*
X101600000Y-124460000D01*
X101600000Y-124460000D02*
X104140000Y-124460000D01*
X129540000Y-175260000D02*
X129540000Y-181720000D01*
X88900000Y-123190000D02*
X70485000Y-123190000D01*
X104140000Y-124460000D02*
X113030000Y-124460000D01*
G04 #@! TO.N,/Value5*
X70485000Y-151130000D02*
X69215000Y-152400000D01*
X80010000Y-149860000D02*
X78740000Y-151130000D01*
X78740000Y-151130000D02*
X70485000Y-151130000D01*
X80010000Y-134620000D02*
X80010000Y-149860000D01*
X81280000Y-133350000D02*
X80010000Y-134620000D01*
X88900000Y-133350000D02*
X81280000Y-133350000D01*
X69215000Y-152400000D02*
X66040000Y-152400000D01*
X92075000Y-133350000D02*
X88900000Y-133350000D01*
X93345000Y-134620000D02*
X92075000Y-133350000D01*
X106680000Y-134620000D02*
X93345000Y-134620000D01*
X106680000Y-134620000D02*
X109220000Y-134620000D01*
X139700000Y-175260000D02*
X139700000Y-181720000D01*
X109220000Y-134620000D02*
X113030000Y-134620000D01*
G04 #@! TO.N,/Value2*
X66040000Y-127000000D02*
X69215000Y-127000000D01*
X69215000Y-127000000D02*
X70485000Y-125730000D01*
X88900000Y-125730000D02*
X92075000Y-125730000D01*
X92075000Y-125730000D02*
X93345000Y-127000000D01*
X93345000Y-127000000D02*
X102870000Y-127000000D01*
X102870000Y-127000000D02*
X105410000Y-127000000D01*
X132080000Y-181720000D02*
X132080000Y-175260000D01*
X88900000Y-125730000D02*
X70485000Y-125730000D01*
X105410000Y-127000000D02*
X113030000Y-127000000D01*
G04 #@! TO.N,/Value6*
X70485000Y-153670000D02*
X69215000Y-154940000D01*
X82550000Y-152400000D02*
X81280000Y-153670000D01*
X81280000Y-153670000D02*
X70485000Y-153670000D01*
X82550000Y-137160000D02*
X82550000Y-152400000D01*
X83820000Y-135890000D02*
X82550000Y-137160000D01*
X88900000Y-135890000D02*
X83820000Y-135890000D01*
X69215000Y-154940000D02*
X66040000Y-154940000D01*
X92075000Y-135890000D02*
X88900000Y-135890000D01*
X93345000Y-137160000D02*
X92075000Y-135890000D01*
X107950000Y-137160000D02*
X93345000Y-137160000D01*
X107950000Y-137160000D02*
X110490000Y-137160000D01*
X142240000Y-181720000D02*
X142240000Y-175260000D01*
X110490000Y-137160000D02*
X113030000Y-137160000D01*
G04 #@! TO.N,/Value3*
X88900000Y-128270000D02*
X92075000Y-128270000D01*
X92075000Y-128270000D02*
X93345000Y-129540000D01*
X93345000Y-129540000D02*
X104140000Y-129540000D01*
X66040000Y-129540000D02*
X69215000Y-129540000D01*
X69215000Y-129540000D02*
X70485000Y-128270000D01*
X104140000Y-129540000D02*
X106680000Y-129540000D01*
X134620000Y-181720000D02*
X134620000Y-175260000D01*
X88900000Y-128270000D02*
X70485000Y-128270000D01*
X106680000Y-129540000D02*
X113030000Y-129540000D01*
G04 #@! TO.N,/Value7*
X92075000Y-138430000D02*
X88900000Y-138430000D01*
X93345000Y-139700000D02*
X92075000Y-138430000D01*
X109855000Y-139700000D02*
X113030000Y-139700000D01*
X109220000Y-139700000D02*
X109855000Y-139700000D01*
X109220000Y-139700000D02*
X108585000Y-139700000D01*
X108585000Y-139700000D02*
X93345000Y-139700000D01*
X144780000Y-175260000D02*
X144780000Y-181720000D01*
X69215000Y-157480000D02*
X66040000Y-157480000D01*
X85090000Y-154940000D02*
X83820000Y-156210000D01*
X83820000Y-156210000D02*
X70485000Y-156210000D01*
X85090000Y-139700000D02*
X85090000Y-154940000D01*
X86360000Y-138430000D02*
X85090000Y-139700000D01*
X88900000Y-138430000D02*
X86360000Y-138430000D01*
X70485000Y-156210000D02*
X69215000Y-157480000D01*
G04 #@! TO.N,Net-(U1-Pad2)*
X87630000Y-157480000D02*
X85090000Y-160020000D01*
X93980000Y-158750000D02*
X92710000Y-157480000D01*
X92710000Y-157480000D02*
X87630000Y-157480000D01*
X93980000Y-158750000D02*
X93980000Y-160020000D01*
X85090000Y-160020000D02*
X73660000Y-160020000D01*
G04 #@! TO.N,Net-(U1-Pad4)*
X88900000Y-118110000D02*
X91440000Y-118110000D01*
X91440000Y-118110000D02*
X93980000Y-120650000D01*
X93980000Y-120650000D02*
X96520000Y-120650000D01*
X88900000Y-156210000D02*
X87630000Y-154940000D01*
X99060000Y-157480000D02*
X97790000Y-156210000D01*
X87630000Y-154940000D02*
X87630000Y-144780000D01*
X87630000Y-144780000D02*
X88900000Y-143510000D01*
X97790000Y-156210000D02*
X88900000Y-156210000D01*
X99060000Y-157480000D02*
X99060000Y-160020000D01*
X88900000Y-143510000D02*
X92710000Y-143510000D01*
G04 #@! TO.N,/Control22*
X121920000Y-173445000D02*
X121920000Y-181720000D01*
G04 #@! TO.N,/Control20*
X119380000Y-181720000D02*
X119380000Y-173445000D01*
G04 #@! TO.N,/Control18*
X116840000Y-173445000D02*
X116840000Y-181720000D01*
G04 #@! TO.N,/Control16*
X114300000Y-181720000D02*
X114300000Y-173445000D01*
G04 #@! TO.N,/Control14*
X111760000Y-173445000D02*
X111760000Y-181720000D01*
G04 #@! TO.N,/Control12*
X109220000Y-181720000D02*
X109220000Y-173445000D01*
G04 #@! TO.N,/Control10*
X106680000Y-173445000D02*
X106680000Y-181720000D01*
G04 #@! TO.N,/Control8*
X104140000Y-181720000D02*
X104140000Y-173445000D01*
G04 #@! TO.N,/Control6*
X101600000Y-173445000D02*
X101600000Y-181720000D01*
G04 #@! TO.N,/Control4*
X99060000Y-181720000D02*
X99060000Y-173445000D01*
G04 #@! TO.N,/Control2*
X96520000Y-173445000D02*
X96520000Y-181720000D01*
G04 #@! TO.N,/Control0*
X93980000Y-173445000D02*
X93980000Y-181720000D01*
G04 #@! TD*
D23*
G04 #@! TO.N,+5V*
G36*
X149150000Y-174550000D02*
X147389926Y-174550000D01*
X147320000Y-174536091D01*
X147250075Y-174550000D01*
X147250074Y-174550000D01*
X147042972Y-174591195D01*
X146808119Y-174748119D01*
X146651195Y-174982972D01*
X146596091Y-175260000D01*
X146610001Y-175329931D01*
X146610001Y-178308000D01*
X146252940Y-178308000D01*
X146252940Y-178220000D01*
X146203657Y-177972235D01*
X146063309Y-177762191D01*
X145853265Y-177621843D01*
X145615000Y-177574450D01*
X145615000Y-175888711D01*
X145657431Y-175846280D01*
X145815000Y-175465874D01*
X145815000Y-175054126D01*
X145657431Y-174673720D01*
X145366280Y-174382569D01*
X144985874Y-174225000D01*
X144574126Y-174225000D01*
X144193720Y-174382569D01*
X143902569Y-174673720D01*
X143745000Y-175054126D01*
X143745000Y-175465874D01*
X143902569Y-175846280D01*
X143945000Y-175888711D01*
X143945000Y-177574450D01*
X143706735Y-177621843D01*
X143510000Y-177753298D01*
X143313265Y-177621843D01*
X143075000Y-177574450D01*
X143075000Y-175888711D01*
X143117431Y-175846280D01*
X143275000Y-175465874D01*
X143275000Y-175054126D01*
X143117431Y-174673720D01*
X142826280Y-174382569D01*
X142445874Y-174225000D01*
X142034126Y-174225000D01*
X141653720Y-174382569D01*
X141362569Y-174673720D01*
X141205000Y-175054126D01*
X141205000Y-175465874D01*
X141362569Y-175846280D01*
X141405001Y-175888712D01*
X141405001Y-177574450D01*
X141166735Y-177621843D01*
X140970000Y-177753298D01*
X140773265Y-177621843D01*
X140535000Y-177574450D01*
X140535000Y-175888711D01*
X140577431Y-175846280D01*
X140735000Y-175465874D01*
X140735000Y-175054126D01*
X140577431Y-174673720D01*
X140286280Y-174382569D01*
X139905874Y-174225000D01*
X139494126Y-174225000D01*
X139113720Y-174382569D01*
X138822569Y-174673720D01*
X138665000Y-175054126D01*
X138665000Y-175465874D01*
X138822569Y-175846280D01*
X138865000Y-175888711D01*
X138865000Y-177574450D01*
X138626735Y-177621843D01*
X138430000Y-177753298D01*
X138233265Y-177621843D01*
X137995000Y-177574450D01*
X137995000Y-175888711D01*
X138037431Y-175846280D01*
X138195000Y-175465874D01*
X138195000Y-175054126D01*
X138037431Y-174673720D01*
X137746280Y-174382569D01*
X137365874Y-174225000D01*
X136954126Y-174225000D01*
X136573720Y-174382569D01*
X136282569Y-174673720D01*
X136125000Y-175054126D01*
X136125000Y-175465874D01*
X136282569Y-175846280D01*
X136325001Y-175888712D01*
X136325001Y-177574450D01*
X136086735Y-177621843D01*
X135890000Y-177753298D01*
X135693265Y-177621843D01*
X135455000Y-177574450D01*
X135455000Y-175888711D01*
X135497431Y-175846280D01*
X135655000Y-175465874D01*
X135655000Y-175054126D01*
X135497431Y-174673720D01*
X135206280Y-174382569D01*
X134825874Y-174225000D01*
X134414126Y-174225000D01*
X134033720Y-174382569D01*
X133742569Y-174673720D01*
X133585000Y-175054126D01*
X133585000Y-175465874D01*
X133742569Y-175846280D01*
X133785001Y-175888712D01*
X133785001Y-177574450D01*
X133546735Y-177621843D01*
X133350000Y-177753298D01*
X133153265Y-177621843D01*
X132915000Y-177574450D01*
X132915000Y-175888711D01*
X132957431Y-175846280D01*
X133115000Y-175465874D01*
X133115000Y-175054126D01*
X132957431Y-174673720D01*
X132666280Y-174382569D01*
X132285874Y-174225000D01*
X131874126Y-174225000D01*
X131493720Y-174382569D01*
X131202569Y-174673720D01*
X131045000Y-175054126D01*
X131045000Y-175465874D01*
X131202569Y-175846280D01*
X131245001Y-175888712D01*
X131245001Y-177574450D01*
X131006735Y-177621843D01*
X130810000Y-177753298D01*
X130613265Y-177621843D01*
X130375000Y-177574450D01*
X130375000Y-175888711D01*
X130417431Y-175846280D01*
X130575000Y-175465874D01*
X130575000Y-175054126D01*
X130417431Y-174673720D01*
X130126280Y-174382569D01*
X129745874Y-174225000D01*
X129334126Y-174225000D01*
X128953720Y-174382569D01*
X128662569Y-174673720D01*
X128505000Y-175054126D01*
X128505000Y-175465874D01*
X128662569Y-175846280D01*
X128705000Y-175888711D01*
X128705000Y-177574450D01*
X128466735Y-177621843D01*
X128270000Y-177753298D01*
X128073265Y-177621843D01*
X127835000Y-177574450D01*
X127835000Y-175888711D01*
X127877431Y-175846280D01*
X128035000Y-175465874D01*
X128035000Y-175054126D01*
X127877431Y-174673720D01*
X127586280Y-174382569D01*
X127205874Y-174225000D01*
X126794126Y-174225000D01*
X126413720Y-174382569D01*
X126122569Y-174673720D01*
X125965000Y-175054126D01*
X125965000Y-175465874D01*
X126122569Y-175846280D01*
X126165001Y-175888712D01*
X126165001Y-177574450D01*
X125926735Y-177621843D01*
X125730000Y-177753298D01*
X125533265Y-177621843D01*
X125295000Y-177574450D01*
X125295000Y-175888711D01*
X125337431Y-175846280D01*
X125495000Y-175465874D01*
X125495000Y-175054126D01*
X125337431Y-174673720D01*
X125046280Y-174382569D01*
X124665874Y-174225000D01*
X124254126Y-174225000D01*
X123873720Y-174382569D01*
X123582569Y-174673720D01*
X123425000Y-175054126D01*
X123425000Y-175465874D01*
X123582569Y-175846280D01*
X123625001Y-175888712D01*
X123625001Y-177574450D01*
X123386735Y-177621843D01*
X123190000Y-177753298D01*
X122993265Y-177621843D01*
X122755000Y-177574450D01*
X122755000Y-174575533D01*
X122917765Y-174543157D01*
X123127809Y-174402809D01*
X123268157Y-174192765D01*
X123317440Y-173945000D01*
X123317440Y-172945000D01*
X123304867Y-172818027D01*
X123290096Y-172782471D01*
X123317440Y-172645000D01*
X123317440Y-171495000D01*
X123268157Y-171247235D01*
X123127809Y-171037191D01*
X122917765Y-170896843D01*
X122670000Y-170847560D01*
X121170000Y-170847560D01*
X120922235Y-170896843D01*
X120712191Y-171037191D01*
X120650000Y-171130266D01*
X120587809Y-171037191D01*
X120377765Y-170896843D01*
X120130000Y-170847560D01*
X118630000Y-170847560D01*
X118382235Y-170896843D01*
X118172191Y-171037191D01*
X118110000Y-171130266D01*
X118047809Y-171037191D01*
X117837765Y-170896843D01*
X117590000Y-170847560D01*
X116090000Y-170847560D01*
X115842235Y-170896843D01*
X115632191Y-171037191D01*
X115570000Y-171130266D01*
X115507809Y-171037191D01*
X115297765Y-170896843D01*
X115050000Y-170847560D01*
X113550000Y-170847560D01*
X113302235Y-170896843D01*
X113092191Y-171037191D01*
X113030000Y-171130266D01*
X112967809Y-171037191D01*
X112757765Y-170896843D01*
X112510000Y-170847560D01*
X111010000Y-170847560D01*
X110762235Y-170896843D01*
X110552191Y-171037191D01*
X110490000Y-171130266D01*
X110427809Y-171037191D01*
X110217765Y-170896843D01*
X109970000Y-170847560D01*
X108470000Y-170847560D01*
X108222235Y-170896843D01*
X108012191Y-171037191D01*
X107950000Y-171130266D01*
X107887809Y-171037191D01*
X107677765Y-170896843D01*
X107430000Y-170847560D01*
X105930000Y-170847560D01*
X105682235Y-170896843D01*
X105472191Y-171037191D01*
X105410000Y-171130266D01*
X105347809Y-171037191D01*
X105137765Y-170896843D01*
X104890000Y-170847560D01*
X103390000Y-170847560D01*
X103142235Y-170896843D01*
X102932191Y-171037191D01*
X102870000Y-171130266D01*
X102807809Y-171037191D01*
X102597765Y-170896843D01*
X102350000Y-170847560D01*
X100850000Y-170847560D01*
X100602235Y-170896843D01*
X100392191Y-171037191D01*
X100330000Y-171130266D01*
X100267809Y-171037191D01*
X100057765Y-170896843D01*
X99810000Y-170847560D01*
X98310000Y-170847560D01*
X98062235Y-170896843D01*
X97852191Y-171037191D01*
X97790000Y-171130266D01*
X97727809Y-171037191D01*
X97517765Y-170896843D01*
X97270000Y-170847560D01*
X95770000Y-170847560D01*
X95522235Y-170896843D01*
X95312191Y-171037191D01*
X95250000Y-171130266D01*
X95187809Y-171037191D01*
X94977765Y-170896843D01*
X94815000Y-170864467D01*
X94815000Y-167722232D01*
X94831357Y-167639999D01*
X94815000Y-167557766D01*
X94815000Y-167557763D01*
X94766552Y-167314199D01*
X94661216Y-167156552D01*
X94628584Y-167107715D01*
X94628583Y-167107714D01*
X94582001Y-167037999D01*
X94512285Y-166991416D01*
X92275000Y-164754133D01*
X92275000Y-161460478D01*
X92487765Y-161418157D01*
X92697809Y-161277809D01*
X92838157Y-161067765D01*
X92864785Y-160933894D01*
X92945423Y-161054577D01*
X93420091Y-161371740D01*
X93838667Y-161455000D01*
X94121333Y-161455000D01*
X94539909Y-161371740D01*
X95014577Y-161054577D01*
X95250000Y-160702242D01*
X95485423Y-161054577D01*
X95960091Y-161371740D01*
X96378667Y-161455000D01*
X96661333Y-161455000D01*
X97079909Y-161371740D01*
X97554577Y-161054577D01*
X97790000Y-160702242D01*
X98025423Y-161054577D01*
X98500091Y-161371740D01*
X98918667Y-161455000D01*
X99201333Y-161455000D01*
X99619909Y-161371740D01*
X100094577Y-161054577D01*
X100330000Y-160702242D01*
X100565423Y-161054577D01*
X101040091Y-161371740D01*
X101458667Y-161455000D01*
X101741333Y-161455000D01*
X102159909Y-161371740D01*
X102634577Y-161054577D01*
X102870000Y-160702242D01*
X103105423Y-161054577D01*
X103580091Y-161371740D01*
X103998667Y-161455000D01*
X104281333Y-161455000D01*
X104699909Y-161371740D01*
X105174577Y-161054577D01*
X105410000Y-160702242D01*
X105645423Y-161054577D01*
X106120091Y-161371740D01*
X106538667Y-161455000D01*
X106821333Y-161455000D01*
X107239909Y-161371740D01*
X107714577Y-161054577D01*
X108031740Y-160579909D01*
X108143113Y-160020000D01*
X108031740Y-159460091D01*
X107714577Y-158985423D01*
X107239909Y-158668260D01*
X106821333Y-158585000D01*
X106538667Y-158585000D01*
X106120091Y-158668260D01*
X105645423Y-158985423D01*
X105410000Y-159337758D01*
X105174577Y-158985423D01*
X104699909Y-158668260D01*
X104281333Y-158585000D01*
X103998667Y-158585000D01*
X103580091Y-158668260D01*
X103105423Y-158985423D01*
X102870000Y-159337758D01*
X102634577Y-158985423D01*
X102159909Y-158668260D01*
X101741333Y-158585000D01*
X101458667Y-158585000D01*
X101040091Y-158668260D01*
X100565423Y-158985423D01*
X100330000Y-159337758D01*
X100094577Y-158985423D01*
X99895000Y-158852070D01*
X99895000Y-157562232D01*
X99911357Y-157479999D01*
X99895000Y-157397764D01*
X99895000Y-157397763D01*
X99846552Y-157154199D01*
X99662001Y-156877999D01*
X99592283Y-156831415D01*
X98438587Y-155677720D01*
X98392001Y-155607999D01*
X98115801Y-155423448D01*
X97872237Y-155375000D01*
X97872233Y-155375000D01*
X97790000Y-155358643D01*
X97707767Y-155375000D01*
X89245868Y-155375000D01*
X88465000Y-154594133D01*
X88465000Y-152749041D01*
X90048086Y-152749041D01*
X90287611Y-153255134D01*
X90702577Y-153631041D01*
X91090961Y-153791904D01*
X91313000Y-153669915D01*
X91313000Y-152527000D01*
X90169371Y-152527000D01*
X90048086Y-152749041D01*
X88465000Y-152749041D01*
X88465000Y-152050959D01*
X90048086Y-152050959D01*
X90169371Y-152273000D01*
X91313000Y-152273000D01*
X91313000Y-151130085D01*
X91567000Y-151130085D01*
X91567000Y-152273000D01*
X91587000Y-152273000D01*
X91587000Y-152527000D01*
X91567000Y-152527000D01*
X91567000Y-153669915D01*
X91789039Y-153791904D01*
X92177423Y-153631041D01*
X92592389Y-153255134D01*
X92689053Y-153050892D01*
X92945423Y-153434577D01*
X93420091Y-153751740D01*
X93838667Y-153835000D01*
X94121333Y-153835000D01*
X94539909Y-153751740D01*
X95014577Y-153434577D01*
X95250000Y-153082242D01*
X95485423Y-153434577D01*
X95960091Y-153751740D01*
X96378667Y-153835000D01*
X96661333Y-153835000D01*
X97079909Y-153751740D01*
X97554577Y-153434577D01*
X97790000Y-153082242D01*
X98025423Y-153434577D01*
X98500091Y-153751740D01*
X98918667Y-153835000D01*
X99201333Y-153835000D01*
X99619909Y-153751740D01*
X100094577Y-153434577D01*
X100330000Y-153082242D01*
X100565423Y-153434577D01*
X101040091Y-153751740D01*
X101458667Y-153835000D01*
X101741333Y-153835000D01*
X102159909Y-153751740D01*
X102634577Y-153434577D01*
X102870000Y-153082242D01*
X103105423Y-153434577D01*
X103580091Y-153751740D01*
X103998667Y-153835000D01*
X104281333Y-153835000D01*
X104699909Y-153751740D01*
X105174577Y-153434577D01*
X105410000Y-153082242D01*
X105645423Y-153434577D01*
X106120091Y-153751740D01*
X106538667Y-153835000D01*
X106821333Y-153835000D01*
X107239909Y-153751740D01*
X107714577Y-153434577D01*
X108031740Y-152959909D01*
X108143113Y-152400000D01*
X108031740Y-151840091D01*
X107714577Y-151365423D01*
X107239909Y-151048260D01*
X106821333Y-150965000D01*
X106538667Y-150965000D01*
X106120091Y-151048260D01*
X105645423Y-151365423D01*
X105410000Y-151717758D01*
X105174577Y-151365423D01*
X104699909Y-151048260D01*
X104281333Y-150965000D01*
X103998667Y-150965000D01*
X103580091Y-151048260D01*
X103105423Y-151365423D01*
X102870000Y-151717758D01*
X102634577Y-151365423D01*
X102159909Y-151048260D01*
X101741333Y-150965000D01*
X101458667Y-150965000D01*
X101040091Y-151048260D01*
X100565423Y-151365423D01*
X100330000Y-151717758D01*
X100094577Y-151365423D01*
X99619909Y-151048260D01*
X99201333Y-150965000D01*
X98918667Y-150965000D01*
X98500091Y-151048260D01*
X98025423Y-151365423D01*
X97790000Y-151717758D01*
X97554577Y-151365423D01*
X97079909Y-151048260D01*
X96661333Y-150965000D01*
X96378667Y-150965000D01*
X95960091Y-151048260D01*
X95485423Y-151365423D01*
X95250000Y-151717758D01*
X95014577Y-151365423D01*
X94539909Y-151048260D01*
X94121333Y-150965000D01*
X93838667Y-150965000D01*
X93420091Y-151048260D01*
X92945423Y-151365423D01*
X92689053Y-151749108D01*
X92592389Y-151544866D01*
X92177423Y-151168959D01*
X91789039Y-151008096D01*
X91567000Y-151130085D01*
X91313000Y-151130085D01*
X91090961Y-151008096D01*
X90702577Y-151168959D01*
X90287611Y-151544866D01*
X90048086Y-152050959D01*
X88465000Y-152050959D01*
X88465000Y-145125867D01*
X89245868Y-144345000D01*
X92081289Y-144345000D01*
X92123720Y-144387431D01*
X92504126Y-144545000D01*
X92915874Y-144545000D01*
X93296280Y-144387431D01*
X93587431Y-144096280D01*
X93745000Y-143715874D01*
X93745000Y-143304126D01*
X93587431Y-142923720D01*
X93296280Y-142632569D01*
X92915874Y-142475000D01*
X92504126Y-142475000D01*
X92123720Y-142632569D01*
X92081289Y-142675000D01*
X88982232Y-142675000D01*
X88899999Y-142658643D01*
X88817766Y-142675000D01*
X88817763Y-142675000D01*
X88574199Y-142723448D01*
X88297999Y-142907999D01*
X88251415Y-142977718D01*
X87195000Y-144034133D01*
X87195000Y-141315867D01*
X87454138Y-141056729D01*
X87548260Y-141529909D01*
X87865423Y-142004577D01*
X88340091Y-142321740D01*
X88758667Y-142405000D01*
X89041333Y-142405000D01*
X89459909Y-142321740D01*
X89934577Y-142004577D01*
X90251740Y-141529909D01*
X90363113Y-140970000D01*
X90276586Y-140535000D01*
X91729133Y-140535000D01*
X92696415Y-141502282D01*
X92742999Y-141572001D01*
X93019199Y-141756552D01*
X93262763Y-141805000D01*
X93262766Y-141805000D01*
X93344999Y-141821357D01*
X93427232Y-141805000D01*
X95352070Y-141805000D01*
X95485423Y-142004577D01*
X95960091Y-142321740D01*
X96378667Y-142405000D01*
X96661333Y-142405000D01*
X97079909Y-142321740D01*
X97554577Y-142004577D01*
X97871740Y-141529909D01*
X97983113Y-140970000D01*
X97896586Y-140535000D01*
X101929907Y-140535000D01*
X101835000Y-140764126D01*
X101835000Y-141175874D01*
X101992569Y-141556280D01*
X102283720Y-141847431D01*
X102664126Y-142005000D01*
X103075874Y-142005000D01*
X103456280Y-141847431D01*
X103505000Y-141798711D01*
X103553720Y-141847431D01*
X103934126Y-142005000D01*
X104345874Y-142005000D01*
X104726280Y-141847431D01*
X104775000Y-141798711D01*
X104823720Y-141847431D01*
X105204126Y-142005000D01*
X105615874Y-142005000D01*
X105996280Y-141847431D01*
X106045000Y-141798711D01*
X106093720Y-141847431D01*
X106474126Y-142005000D01*
X106885874Y-142005000D01*
X107266280Y-141847431D01*
X107315000Y-141798711D01*
X107363720Y-141847431D01*
X107744126Y-142005000D01*
X108155874Y-142005000D01*
X108536280Y-141847431D01*
X108585000Y-141798711D01*
X108633720Y-141847431D01*
X109014126Y-142005000D01*
X109425874Y-142005000D01*
X109806280Y-141847431D01*
X109855000Y-141798711D01*
X109903720Y-141847431D01*
X110284126Y-142005000D01*
X110695874Y-142005000D01*
X111076280Y-141847431D01*
X111367431Y-141556280D01*
X111525000Y-141175874D01*
X111525000Y-140764126D01*
X111430093Y-140535000D01*
X111862070Y-140535000D01*
X111995423Y-140734577D01*
X112347758Y-140970000D01*
X111995423Y-141205423D01*
X111678260Y-141680091D01*
X111566887Y-142240000D01*
X111678260Y-142799909D01*
X111995423Y-143274577D01*
X112470091Y-143591740D01*
X112888667Y-143675000D01*
X113171333Y-143675000D01*
X113589909Y-143591740D01*
X114064577Y-143274577D01*
X114381740Y-142799909D01*
X114493113Y-142240000D01*
X114381740Y-141680091D01*
X114064577Y-141205423D01*
X113712242Y-140970000D01*
X114064577Y-140734577D01*
X114381740Y-140259909D01*
X114493113Y-139700000D01*
X114381740Y-139140091D01*
X114064577Y-138665423D01*
X113712242Y-138430000D01*
X114064577Y-138194577D01*
X114381740Y-137719909D01*
X114493113Y-137160000D01*
X114381740Y-136600091D01*
X114064577Y-136125423D01*
X113712242Y-135890000D01*
X114064577Y-135654577D01*
X114381740Y-135179909D01*
X114493113Y-134620000D01*
X114381740Y-134060091D01*
X114064577Y-133585423D01*
X113712242Y-133350000D01*
X114064577Y-133114577D01*
X114381740Y-132639909D01*
X114493113Y-132080000D01*
X114381740Y-131520091D01*
X114064577Y-131045423D01*
X113712242Y-130810000D01*
X114064577Y-130574577D01*
X114381740Y-130099909D01*
X114493113Y-129540000D01*
X114381740Y-128980091D01*
X114064577Y-128505423D01*
X113712242Y-128270000D01*
X114064577Y-128034577D01*
X114381740Y-127559909D01*
X114493113Y-127000000D01*
X114381740Y-126440091D01*
X114064577Y-125965423D01*
X113712242Y-125730000D01*
X114064577Y-125494577D01*
X114381740Y-125019909D01*
X114493113Y-124460000D01*
X114381740Y-123900091D01*
X114064577Y-123425423D01*
X113943894Y-123344785D01*
X114077765Y-123318157D01*
X114287809Y-123177809D01*
X114428157Y-122967765D01*
X114477440Y-122720000D01*
X114477440Y-121920000D01*
X119186887Y-121920000D01*
X119298260Y-122479909D01*
X119615423Y-122954577D01*
X119967758Y-123190000D01*
X119615423Y-123425423D01*
X119298260Y-123900091D01*
X119186887Y-124460000D01*
X119298260Y-125019909D01*
X119615423Y-125494577D01*
X119967758Y-125730000D01*
X119615423Y-125965423D01*
X119298260Y-126440091D01*
X119186887Y-127000000D01*
X119298260Y-127559909D01*
X119615423Y-128034577D01*
X119967758Y-128270000D01*
X119615423Y-128505423D01*
X119298260Y-128980091D01*
X119186887Y-129540000D01*
X119298260Y-130099909D01*
X119615423Y-130574577D01*
X119967758Y-130810000D01*
X119615423Y-131045423D01*
X119298260Y-131520091D01*
X119186887Y-132080000D01*
X119298260Y-132639909D01*
X119615423Y-133114577D01*
X119967758Y-133350000D01*
X119615423Y-133585423D01*
X119298260Y-134060091D01*
X119186887Y-134620000D01*
X119298260Y-135179909D01*
X119615423Y-135654577D01*
X119967758Y-135890000D01*
X119615423Y-136125423D01*
X119298260Y-136600091D01*
X119186887Y-137160000D01*
X119298260Y-137719909D01*
X119615423Y-138194577D01*
X119967758Y-138430000D01*
X119615423Y-138665423D01*
X119298260Y-139140091D01*
X119186887Y-139700000D01*
X119298260Y-140259909D01*
X119615423Y-140734577D01*
X119967758Y-140970000D01*
X119615423Y-141205423D01*
X119298260Y-141680091D01*
X119186887Y-142240000D01*
X119298260Y-142799909D01*
X119615423Y-143274577D01*
X120090091Y-143591740D01*
X120508667Y-143675000D01*
X120791333Y-143675000D01*
X121209909Y-143591740D01*
X121684577Y-143274577D01*
X122001740Y-142799909D01*
X122113113Y-142240000D01*
X122001740Y-141680091D01*
X121684577Y-141205423D01*
X121332242Y-140970000D01*
X121684577Y-140734577D01*
X122001740Y-140259909D01*
X122113113Y-139700000D01*
X122001740Y-139140091D01*
X121684577Y-138665423D01*
X121332242Y-138430000D01*
X121684577Y-138194577D01*
X122001740Y-137719909D01*
X122113113Y-137160000D01*
X122001740Y-136600091D01*
X121684577Y-136125423D01*
X121332242Y-135890000D01*
X121684577Y-135654577D01*
X122001740Y-135179909D01*
X122113113Y-134620000D01*
X122001740Y-134060091D01*
X121684577Y-133585423D01*
X121332242Y-133350000D01*
X121684577Y-133114577D01*
X122001740Y-132639909D01*
X122113113Y-132080000D01*
X122001740Y-131520091D01*
X121684577Y-131045423D01*
X121332242Y-130810000D01*
X121684577Y-130574577D01*
X122001740Y-130099909D01*
X122113113Y-129540000D01*
X122001740Y-128980091D01*
X121684577Y-128505423D01*
X121332242Y-128270000D01*
X121684577Y-128034577D01*
X122001740Y-127559909D01*
X122113113Y-127000000D01*
X122001740Y-126440091D01*
X121684577Y-125965423D01*
X121332242Y-125730000D01*
X121684577Y-125494577D01*
X122001740Y-125019909D01*
X122113113Y-124460000D01*
X122001740Y-123900091D01*
X121684577Y-123425423D01*
X121332242Y-123190000D01*
X121684577Y-122954577D01*
X122001740Y-122479909D01*
X122113113Y-121920000D01*
X124368846Y-121920000D01*
X124472458Y-122440891D01*
X124767519Y-122882481D01*
X125209109Y-123177542D01*
X125598515Y-123255000D01*
X125861485Y-123255000D01*
X126250891Y-123177542D01*
X126692481Y-122882481D01*
X126987542Y-122440891D01*
X127000000Y-122378261D01*
X127012458Y-122440891D01*
X127307519Y-122882481D01*
X127749109Y-123177542D01*
X128138515Y-123255000D01*
X128401485Y-123255000D01*
X128790891Y-123177542D01*
X129232481Y-122882481D01*
X129527542Y-122440891D01*
X129540000Y-122378261D01*
X129552458Y-122440891D01*
X129847519Y-122882481D01*
X130289109Y-123177542D01*
X130678515Y-123255000D01*
X130941485Y-123255000D01*
X131330891Y-123177542D01*
X131772481Y-122882481D01*
X132067542Y-122440891D01*
X132080000Y-122378261D01*
X132092458Y-122440891D01*
X132387519Y-122882481D01*
X132829109Y-123177542D01*
X133218515Y-123255000D01*
X133481485Y-123255000D01*
X133870891Y-123177542D01*
X134312481Y-122882481D01*
X134607542Y-122440891D01*
X134620000Y-122378261D01*
X134632458Y-122440891D01*
X134927519Y-122882481D01*
X135369109Y-123177542D01*
X135758515Y-123255000D01*
X136021485Y-123255000D01*
X136410891Y-123177542D01*
X136852481Y-122882481D01*
X137147542Y-122440891D01*
X137160000Y-122378261D01*
X137172458Y-122440891D01*
X137467519Y-122882481D01*
X137909109Y-123177542D01*
X138298515Y-123255000D01*
X138561485Y-123255000D01*
X138950891Y-123177542D01*
X139392481Y-122882481D01*
X139687542Y-122440891D01*
X139707425Y-122340935D01*
X139712458Y-122366240D01*
X140007519Y-122807830D01*
X140449109Y-123102891D01*
X140838515Y-123180349D01*
X141101485Y-123180349D01*
X141490891Y-123102891D01*
X141932481Y-122807830D01*
X142227542Y-122366240D01*
X142240000Y-122303610D01*
X142252458Y-122366240D01*
X142547519Y-122807830D01*
X142989109Y-123102891D01*
X143378515Y-123180349D01*
X143641485Y-123180349D01*
X144030891Y-123102891D01*
X144472481Y-122807830D01*
X144767542Y-122366240D01*
X144871154Y-121845349D01*
X144767542Y-121324458D01*
X144472481Y-120882868D01*
X144030891Y-120587807D01*
X143641485Y-120510349D01*
X143378515Y-120510349D01*
X142989109Y-120587807D01*
X142547519Y-120882868D01*
X142252458Y-121324458D01*
X142240000Y-121387088D01*
X142227542Y-121324458D01*
X141932481Y-120882868D01*
X141490891Y-120587807D01*
X141101485Y-120510349D01*
X140838515Y-120510349D01*
X140449109Y-120587807D01*
X140007519Y-120882868D01*
X139712458Y-121324458D01*
X139692575Y-121424414D01*
X139687542Y-121399109D01*
X139392481Y-120957519D01*
X138950891Y-120662458D01*
X138561485Y-120585000D01*
X138298515Y-120585000D01*
X137909109Y-120662458D01*
X137467519Y-120957519D01*
X137172458Y-121399109D01*
X137160000Y-121461739D01*
X137147542Y-121399109D01*
X136852481Y-120957519D01*
X136410891Y-120662458D01*
X136021485Y-120585000D01*
X135758515Y-120585000D01*
X135369109Y-120662458D01*
X134927519Y-120957519D01*
X134632458Y-121399109D01*
X134620000Y-121461739D01*
X134607542Y-121399109D01*
X134312481Y-120957519D01*
X133870891Y-120662458D01*
X133481485Y-120585000D01*
X133218515Y-120585000D01*
X132829109Y-120662458D01*
X132387519Y-120957519D01*
X132092458Y-121399109D01*
X132080000Y-121461739D01*
X132067542Y-121399109D01*
X131772481Y-120957519D01*
X131330891Y-120662458D01*
X130941485Y-120585000D01*
X130678515Y-120585000D01*
X130289109Y-120662458D01*
X129847519Y-120957519D01*
X129552458Y-121399109D01*
X129540000Y-121461739D01*
X129527542Y-121399109D01*
X129232481Y-120957519D01*
X128790891Y-120662458D01*
X128401485Y-120585000D01*
X128138515Y-120585000D01*
X127749109Y-120662458D01*
X127307519Y-120957519D01*
X127012458Y-121399109D01*
X127000000Y-121461739D01*
X126987542Y-121399109D01*
X126692481Y-120957519D01*
X126250891Y-120662458D01*
X125861485Y-120585000D01*
X125598515Y-120585000D01*
X125209109Y-120662458D01*
X124767519Y-120957519D01*
X124472458Y-121399109D01*
X124368846Y-121920000D01*
X122113113Y-121920000D01*
X122001740Y-121360091D01*
X121684577Y-120885423D01*
X121209909Y-120568260D01*
X120791333Y-120485000D01*
X120508667Y-120485000D01*
X120090091Y-120568260D01*
X119615423Y-120885423D01*
X119298260Y-121360091D01*
X119186887Y-121920000D01*
X114477440Y-121920000D01*
X114477440Y-121120000D01*
X114428157Y-120872235D01*
X114287809Y-120662191D01*
X114077765Y-120521843D01*
X113830000Y-120472560D01*
X112230000Y-120472560D01*
X111982235Y-120521843D01*
X111772191Y-120662191D01*
X111631843Y-120872235D01*
X111589522Y-121085000D01*
X103498711Y-121085000D01*
X103456280Y-121042569D01*
X103075874Y-120885000D01*
X102664126Y-120885000D01*
X102283720Y-121042569D01*
X102241289Y-121085000D01*
X97896586Y-121085000D01*
X97983113Y-120650000D01*
X97871740Y-120090091D01*
X97554577Y-119615423D01*
X97170892Y-119359053D01*
X97375134Y-119262389D01*
X97751041Y-118847423D01*
X97911904Y-118459039D01*
X97789915Y-118237000D01*
X96647000Y-118237000D01*
X96647000Y-118257000D01*
X96393000Y-118257000D01*
X96393000Y-118237000D01*
X95250085Y-118237000D01*
X95128096Y-118459039D01*
X95288959Y-118847423D01*
X95664866Y-119262389D01*
X95869108Y-119359053D01*
X95485423Y-119615423D01*
X95352070Y-119815000D01*
X94608711Y-119815000D01*
X94566280Y-119772569D01*
X94185874Y-119615000D01*
X94125869Y-119615000D01*
X92271829Y-117760961D01*
X95128096Y-117760961D01*
X95250085Y-117983000D01*
X96393000Y-117983000D01*
X96393000Y-116839371D01*
X96647000Y-116839371D01*
X96647000Y-117983000D01*
X97789915Y-117983000D01*
X97911904Y-117760961D01*
X97751041Y-117372577D01*
X97375134Y-116957611D01*
X96869041Y-116718086D01*
X96647000Y-116839371D01*
X96393000Y-116839371D01*
X96170959Y-116718086D01*
X95664866Y-116957611D01*
X95288959Y-117372577D01*
X95128096Y-117760961D01*
X92271829Y-117760961D01*
X92088587Y-117577720D01*
X92042001Y-117507999D01*
X91765801Y-117323448D01*
X91522237Y-117275000D01*
X91522233Y-117275000D01*
X91440000Y-117258643D01*
X91357767Y-117275000D01*
X90340478Y-117275000D01*
X90298157Y-117062235D01*
X90157809Y-116852191D01*
X89947765Y-116711843D01*
X89700000Y-116662560D01*
X88100000Y-116662560D01*
X87852235Y-116711843D01*
X87642191Y-116852191D01*
X87501843Y-117062235D01*
X87452560Y-117310000D01*
X87452560Y-118910000D01*
X87501843Y-119157765D01*
X87642191Y-119367809D01*
X87852235Y-119508157D01*
X87986106Y-119534785D01*
X87865423Y-119615423D01*
X87732070Y-119815000D01*
X75036586Y-119815000D01*
X75123113Y-119380000D01*
X75011740Y-118820091D01*
X74694577Y-118345423D01*
X74310892Y-118089053D01*
X74515134Y-117992389D01*
X74891041Y-117577423D01*
X75051904Y-117189039D01*
X74929915Y-116967000D01*
X73787000Y-116967000D01*
X73787000Y-116987000D01*
X73533000Y-116987000D01*
X73533000Y-116967000D01*
X72390085Y-116967000D01*
X72268096Y-117189039D01*
X72428959Y-117577423D01*
X72804866Y-117992389D01*
X73009108Y-118089053D01*
X72625423Y-118345423D01*
X72308260Y-118820091D01*
X72196887Y-119380000D01*
X72283414Y-119815000D01*
X70567232Y-119815000D01*
X70484999Y-119798643D01*
X70402766Y-119815000D01*
X70402763Y-119815000D01*
X70159199Y-119863448D01*
X69882999Y-120047999D01*
X69836415Y-120117718D01*
X68869133Y-121085000D01*
X67207930Y-121085000D01*
X67074577Y-120885423D01*
X66722242Y-120650000D01*
X67074577Y-120414577D01*
X67391740Y-119939909D01*
X67503113Y-119380000D01*
X67391740Y-118820091D01*
X67074577Y-118345423D01*
X66953894Y-118264785D01*
X67087765Y-118238157D01*
X67297809Y-118097809D01*
X67438157Y-117887765D01*
X67487440Y-117640000D01*
X67487440Y-116490961D01*
X72268096Y-116490961D01*
X72390085Y-116713000D01*
X73533000Y-116713000D01*
X73533000Y-115569371D01*
X73787000Y-115569371D01*
X73787000Y-116713000D01*
X74929915Y-116713000D01*
X75051904Y-116490961D01*
X74891041Y-116102577D01*
X74515134Y-115687611D01*
X74009041Y-115448086D01*
X73787000Y-115569371D01*
X73533000Y-115569371D01*
X73310959Y-115448086D01*
X72804866Y-115687611D01*
X72428959Y-116102577D01*
X72268096Y-116490961D01*
X67487440Y-116490961D01*
X67487440Y-116040000D01*
X67438157Y-115792235D01*
X67297809Y-115582191D01*
X67087765Y-115441843D01*
X66840000Y-115392560D01*
X65240000Y-115392560D01*
X64992235Y-115441843D01*
X64782191Y-115582191D01*
X64641843Y-115792235D01*
X64592560Y-116040000D01*
X64592560Y-117640000D01*
X64641843Y-117887765D01*
X64782191Y-118097809D01*
X64992235Y-118238157D01*
X65126106Y-118264785D01*
X65005423Y-118345423D01*
X64688260Y-118820091D01*
X64576887Y-119380000D01*
X64688260Y-119939909D01*
X65005423Y-120414577D01*
X65357758Y-120650000D01*
X65005423Y-120885423D01*
X64688260Y-121360091D01*
X64576887Y-121920000D01*
X64663414Y-122355000D01*
X59772232Y-122355000D01*
X59689999Y-122338643D01*
X59607766Y-122355000D01*
X59607763Y-122355000D01*
X59364199Y-122403448D01*
X59087999Y-122587999D01*
X59041416Y-122657716D01*
X58274133Y-123425000D01*
X58214126Y-123425000D01*
X57833720Y-123582569D01*
X57542569Y-123873720D01*
X57385000Y-124254126D01*
X57385000Y-124665874D01*
X57542569Y-125046280D01*
X57833720Y-125337431D01*
X58214126Y-125495000D01*
X58625874Y-125495000D01*
X59006280Y-125337431D01*
X59297431Y-125046280D01*
X59455000Y-124665874D01*
X59455000Y-124605867D01*
X60035868Y-124025000D01*
X64663414Y-124025000D01*
X64576887Y-124460000D01*
X64663414Y-124895000D01*
X61042232Y-124895000D01*
X60959999Y-124878643D01*
X60877766Y-124895000D01*
X60877763Y-124895000D01*
X60634199Y-124943448D01*
X60357999Y-125127999D01*
X60311416Y-125197716D01*
X59544133Y-125965000D01*
X59484126Y-125965000D01*
X59103720Y-126122569D01*
X58812569Y-126413720D01*
X58655000Y-126794126D01*
X58655000Y-127205874D01*
X58812569Y-127586280D01*
X59103720Y-127877431D01*
X59484126Y-128035000D01*
X59895874Y-128035000D01*
X60276280Y-127877431D01*
X60567431Y-127586280D01*
X60725000Y-127205874D01*
X60725000Y-127145867D01*
X61305868Y-126565000D01*
X64663414Y-126565000D01*
X64576887Y-127000000D01*
X64663414Y-127435000D01*
X62312232Y-127435000D01*
X62229999Y-127418643D01*
X62147766Y-127435000D01*
X62147763Y-127435000D01*
X61904199Y-127483448D01*
X61627999Y-127667999D01*
X61581416Y-127737716D01*
X60814133Y-128505000D01*
X60754126Y-128505000D01*
X60373720Y-128662569D01*
X60082569Y-128953720D01*
X59925000Y-129334126D01*
X59925000Y-129745874D01*
X60082569Y-130126280D01*
X60373720Y-130417431D01*
X60754126Y-130575000D01*
X61165874Y-130575000D01*
X61546280Y-130417431D01*
X61837431Y-130126280D01*
X61995000Y-129745874D01*
X61995000Y-129685867D01*
X62575868Y-129105000D01*
X64663414Y-129105000D01*
X64576887Y-129540000D01*
X64663414Y-129975000D01*
X63582232Y-129975000D01*
X63499999Y-129958643D01*
X63417766Y-129975000D01*
X63417763Y-129975000D01*
X63174199Y-130023448D01*
X62897999Y-130207999D01*
X62851416Y-130277716D01*
X62084133Y-131045000D01*
X62024126Y-131045000D01*
X61643720Y-131202569D01*
X61352569Y-131493720D01*
X61195000Y-131874126D01*
X61195000Y-132285874D01*
X61352569Y-132666280D01*
X61643720Y-132957431D01*
X62024126Y-133115000D01*
X62435874Y-133115000D01*
X62816280Y-132957431D01*
X63107431Y-132666280D01*
X63265000Y-132285874D01*
X63265000Y-132225867D01*
X63845868Y-131645000D01*
X64663414Y-131645000D01*
X64576887Y-132080000D01*
X64688260Y-132639909D01*
X65005423Y-133114577D01*
X65357758Y-133350000D01*
X65005423Y-133585423D01*
X64688260Y-134060091D01*
X64576887Y-134620000D01*
X64688260Y-135179909D01*
X65005423Y-135654577D01*
X65480091Y-135971740D01*
X65898667Y-136055000D01*
X66181333Y-136055000D01*
X66599909Y-135971740D01*
X67074577Y-135654577D01*
X67391740Y-135179909D01*
X67503113Y-134620000D01*
X67391740Y-134060091D01*
X67074577Y-133585423D01*
X66722242Y-133350000D01*
X67074577Y-133114577D01*
X67391740Y-132639909D01*
X67503113Y-132080000D01*
X67416586Y-131645000D01*
X69132767Y-131645000D01*
X69215000Y-131661357D01*
X69297233Y-131645000D01*
X69297237Y-131645000D01*
X69540801Y-131596552D01*
X69817001Y-131412001D01*
X69863587Y-131342280D01*
X70830868Y-130375000D01*
X72492070Y-130375000D01*
X72625423Y-130574577D01*
X72977758Y-130810000D01*
X72625423Y-131045423D01*
X72308260Y-131520091D01*
X72196887Y-132080000D01*
X72308260Y-132639909D01*
X72625423Y-133114577D01*
X72977758Y-133350000D01*
X72625423Y-133585423D01*
X72308260Y-134060091D01*
X72196887Y-134620000D01*
X72308260Y-135179909D01*
X72625423Y-135654577D01*
X73100091Y-135971740D01*
X73518667Y-136055000D01*
X73801333Y-136055000D01*
X74219909Y-135971740D01*
X74694577Y-135654577D01*
X75011740Y-135179909D01*
X75123113Y-134620000D01*
X75011740Y-134060091D01*
X74694577Y-133585423D01*
X74342242Y-133350000D01*
X74694577Y-133114577D01*
X75011740Y-132639909D01*
X75123113Y-132080000D01*
X75011740Y-131520091D01*
X74694577Y-131045423D01*
X74342242Y-130810000D01*
X74694577Y-130574577D01*
X74827930Y-130375000D01*
X77994132Y-130375000D01*
X76937718Y-131431415D01*
X76868000Y-131477999D01*
X76821417Y-131547716D01*
X76821416Y-131547717D01*
X76683448Y-131754200D01*
X76618643Y-132080000D01*
X76635001Y-132162238D01*
X76635000Y-146974132D01*
X75854133Y-147755000D01*
X75036586Y-147755000D01*
X75123113Y-147320000D01*
X75011740Y-146760091D01*
X74694577Y-146285423D01*
X74310892Y-146029053D01*
X74515134Y-145932389D01*
X74891041Y-145517423D01*
X75051904Y-145129039D01*
X74929915Y-144907000D01*
X73787000Y-144907000D01*
X73787000Y-144927000D01*
X73533000Y-144927000D01*
X73533000Y-144907000D01*
X72390085Y-144907000D01*
X72268096Y-145129039D01*
X72428959Y-145517423D01*
X72804866Y-145932389D01*
X73009108Y-146029053D01*
X72625423Y-146285423D01*
X72308260Y-146760091D01*
X72196887Y-147320000D01*
X72283414Y-147755000D01*
X70567232Y-147755000D01*
X70484999Y-147738643D01*
X70402766Y-147755000D01*
X70402763Y-147755000D01*
X70159199Y-147803448D01*
X69882999Y-147987999D01*
X69836415Y-148057717D01*
X68869133Y-149025000D01*
X67207930Y-149025000D01*
X67074577Y-148825423D01*
X66722242Y-148590000D01*
X67074577Y-148354577D01*
X67391740Y-147879909D01*
X67503113Y-147320000D01*
X67391740Y-146760091D01*
X67074577Y-146285423D01*
X66953894Y-146204785D01*
X67087765Y-146178157D01*
X67297809Y-146037809D01*
X67438157Y-145827765D01*
X67487440Y-145580000D01*
X67487440Y-144430961D01*
X72268096Y-144430961D01*
X72390085Y-144653000D01*
X73533000Y-144653000D01*
X73533000Y-143509371D01*
X73787000Y-143509371D01*
X73787000Y-144653000D01*
X74929915Y-144653000D01*
X75051904Y-144430961D01*
X74891041Y-144042577D01*
X74515134Y-143627611D01*
X74009041Y-143388086D01*
X73787000Y-143509371D01*
X73533000Y-143509371D01*
X73310959Y-143388086D01*
X72804866Y-143627611D01*
X72428959Y-144042577D01*
X72268096Y-144430961D01*
X67487440Y-144430961D01*
X67487440Y-143980000D01*
X67438157Y-143732235D01*
X67297809Y-143522191D01*
X67087765Y-143381843D01*
X66840000Y-143332560D01*
X65240000Y-143332560D01*
X64992235Y-143381843D01*
X64782191Y-143522191D01*
X64641843Y-143732235D01*
X64592560Y-143980000D01*
X64592560Y-145580000D01*
X64641843Y-145827765D01*
X64782191Y-146037809D01*
X64992235Y-146178157D01*
X65126106Y-146204785D01*
X65005423Y-146285423D01*
X64688260Y-146760091D01*
X64576887Y-147320000D01*
X64688260Y-147879909D01*
X65005423Y-148354577D01*
X65357758Y-148590000D01*
X65005423Y-148825423D01*
X64688260Y-149300091D01*
X64576887Y-149860000D01*
X64663414Y-150295000D01*
X63170093Y-150295000D01*
X63265000Y-150065874D01*
X63265000Y-149654126D01*
X63107431Y-149273720D01*
X62816280Y-148982569D01*
X62435874Y-148825000D01*
X62024126Y-148825000D01*
X61643720Y-148982569D01*
X61595000Y-149031289D01*
X61546280Y-148982569D01*
X61165874Y-148825000D01*
X60754126Y-148825000D01*
X60373720Y-148982569D01*
X60325000Y-149031289D01*
X60276280Y-148982569D01*
X59895874Y-148825000D01*
X59484126Y-148825000D01*
X59103720Y-148982569D01*
X59055000Y-149031289D01*
X59006280Y-148982569D01*
X58625874Y-148825000D01*
X58214126Y-148825000D01*
X57833720Y-148982569D01*
X57542569Y-149273720D01*
X57385000Y-149654126D01*
X57385000Y-150065874D01*
X57542569Y-150446280D01*
X57585000Y-150488711D01*
X57585001Y-172002762D01*
X57568643Y-172085000D01*
X57633448Y-172410800D01*
X57633449Y-172410801D01*
X57818000Y-172687001D01*
X57887718Y-172733585D01*
X60007964Y-174853833D01*
X59925000Y-175054126D01*
X59925000Y-175465874D01*
X60082569Y-175846280D01*
X60125001Y-175888712D01*
X60125001Y-177574450D01*
X59886735Y-177621843D01*
X59682101Y-177758576D01*
X59605198Y-177681673D01*
X59371809Y-177585000D01*
X58705750Y-177585000D01*
X58547000Y-177743750D01*
X58547000Y-178308000D01*
X58293000Y-178308000D01*
X58293000Y-177743750D01*
X58134250Y-177585000D01*
X57468191Y-177585000D01*
X57234802Y-177681673D01*
X57150000Y-177766475D01*
X57065198Y-177681673D01*
X56831809Y-177585000D01*
X56165750Y-177585000D01*
X56007000Y-177743750D01*
X56007000Y-178308000D01*
X55753000Y-178308000D01*
X55753000Y-177743750D01*
X55594250Y-177585000D01*
X54928191Y-177585000D01*
X54694802Y-177681673D01*
X54516173Y-177860301D01*
X54419500Y-178093690D01*
X54419500Y-178308000D01*
X54050000Y-178308000D01*
X54050000Y-175329925D01*
X54063909Y-175260000D01*
X54008805Y-174982972D01*
X53851881Y-174748119D01*
X53617028Y-174591195D01*
X53409926Y-174550000D01*
X53409925Y-174550000D01*
X53340000Y-174536091D01*
X53270074Y-174550000D01*
X51510000Y-174550000D01*
X51510000Y-139414561D01*
X65875000Y-139414561D01*
X65875000Y-139985439D01*
X66093466Y-140512862D01*
X66497138Y-140916534D01*
X67024561Y-141135000D01*
X67595439Y-141135000D01*
X68122862Y-140916534D01*
X68331651Y-140707745D01*
X71481861Y-140707745D01*
X71555995Y-140953864D01*
X72093223Y-141146965D01*
X72663454Y-141119778D01*
X73064005Y-140953864D01*
X73138139Y-140707745D01*
X72310000Y-139879605D01*
X71481861Y-140707745D01*
X68331651Y-140707745D01*
X68526534Y-140512862D01*
X68745000Y-139985439D01*
X68745000Y-139483223D01*
X70863035Y-139483223D01*
X70890222Y-140053454D01*
X71056136Y-140454005D01*
X71302255Y-140528139D01*
X72130395Y-139700000D01*
X72489605Y-139700000D01*
X73317745Y-140528139D01*
X73563864Y-140454005D01*
X73756965Y-139916777D01*
X73729778Y-139346546D01*
X73563864Y-138945995D01*
X73317745Y-138871861D01*
X72489605Y-139700000D01*
X72130395Y-139700000D01*
X71302255Y-138871861D01*
X71056136Y-138945995D01*
X70863035Y-139483223D01*
X68745000Y-139483223D01*
X68745000Y-139414561D01*
X68526534Y-138887138D01*
X68331651Y-138692255D01*
X71481861Y-138692255D01*
X72310000Y-139520395D01*
X73138139Y-138692255D01*
X73064005Y-138446136D01*
X72526777Y-138253035D01*
X71956546Y-138280222D01*
X71555995Y-138446136D01*
X71481861Y-138692255D01*
X68331651Y-138692255D01*
X68122862Y-138483466D01*
X67595439Y-138265000D01*
X67024561Y-138265000D01*
X66497138Y-138483466D01*
X66093466Y-138887138D01*
X65875000Y-139414561D01*
X51510000Y-139414561D01*
X51510000Y-111474561D01*
X65875000Y-111474561D01*
X65875000Y-112045439D01*
X66093466Y-112572862D01*
X66497138Y-112976534D01*
X67024561Y-113195000D01*
X67595439Y-113195000D01*
X68122862Y-112976534D01*
X68331651Y-112767745D01*
X71481861Y-112767745D01*
X71555995Y-113013864D01*
X72093223Y-113206965D01*
X72663454Y-113179778D01*
X73064005Y-113013864D01*
X73138139Y-112767745D01*
X73114956Y-112744561D01*
X88735000Y-112744561D01*
X88735000Y-113315439D01*
X88953466Y-113842862D01*
X89357138Y-114246534D01*
X89884561Y-114465000D01*
X90455439Y-114465000D01*
X90982862Y-114246534D01*
X91191651Y-114037745D01*
X94341861Y-114037745D01*
X94415995Y-114283864D01*
X94953223Y-114476965D01*
X95523454Y-114449778D01*
X95924005Y-114283864D01*
X95998139Y-114037745D01*
X95994847Y-114034452D01*
X124395000Y-114034452D01*
X124395000Y-114565548D01*
X124598242Y-115056217D01*
X124973783Y-115431758D01*
X125464452Y-115635000D01*
X125995548Y-115635000D01*
X126486217Y-115431758D01*
X126861758Y-115056217D01*
X127000000Y-114722472D01*
X127138242Y-115056217D01*
X127513783Y-115431758D01*
X128004452Y-115635000D01*
X128535548Y-115635000D01*
X129026217Y-115431758D01*
X129401758Y-115056217D01*
X129540000Y-114722472D01*
X129678242Y-115056217D01*
X130053783Y-115431758D01*
X130544452Y-115635000D01*
X131075548Y-115635000D01*
X131566217Y-115431758D01*
X131941758Y-115056217D01*
X132080000Y-114722472D01*
X132218242Y-115056217D01*
X132593783Y-115431758D01*
X133084452Y-115635000D01*
X133615548Y-115635000D01*
X134106217Y-115431758D01*
X134481758Y-115056217D01*
X134620000Y-114722472D01*
X134758242Y-115056217D01*
X135133783Y-115431758D01*
X135624452Y-115635000D01*
X136155548Y-115635000D01*
X136646217Y-115431758D01*
X137021758Y-115056217D01*
X137160000Y-114722472D01*
X137298242Y-115056217D01*
X137673783Y-115431758D01*
X138164452Y-115635000D01*
X138695548Y-115635000D01*
X139186217Y-115431758D01*
X139561758Y-115056217D01*
X139715461Y-114685146D01*
X139838242Y-114981566D01*
X140213783Y-115357107D01*
X140704452Y-115560349D01*
X141235548Y-115560349D01*
X141726217Y-115357107D01*
X142101758Y-114981566D01*
X142240000Y-114647821D01*
X142378242Y-114981566D01*
X142753783Y-115357107D01*
X143244452Y-115560349D01*
X143775548Y-115560349D01*
X144266217Y-115357107D01*
X144641758Y-114981566D01*
X144845000Y-114490897D01*
X144845000Y-113959801D01*
X144641758Y-113469132D01*
X144266217Y-113093591D01*
X143775548Y-112890349D01*
X143244452Y-112890349D01*
X142753783Y-113093591D01*
X142378242Y-113469132D01*
X142240000Y-113802877D01*
X142101758Y-113469132D01*
X141726217Y-113093591D01*
X141235548Y-112890349D01*
X140704452Y-112890349D01*
X140213783Y-113093591D01*
X139838242Y-113469132D01*
X139684539Y-113840203D01*
X139561758Y-113543783D01*
X139186217Y-113168242D01*
X138695548Y-112965000D01*
X138164452Y-112965000D01*
X137673783Y-113168242D01*
X137298242Y-113543783D01*
X137160000Y-113877528D01*
X137021758Y-113543783D01*
X136646217Y-113168242D01*
X136155548Y-112965000D01*
X135624452Y-112965000D01*
X135133783Y-113168242D01*
X134758242Y-113543783D01*
X134620000Y-113877528D01*
X134481758Y-113543783D01*
X134106217Y-113168242D01*
X133615548Y-112965000D01*
X133084452Y-112965000D01*
X132593783Y-113168242D01*
X132218242Y-113543783D01*
X132080000Y-113877528D01*
X131941758Y-113543783D01*
X131566217Y-113168242D01*
X131075548Y-112965000D01*
X130544452Y-112965000D01*
X130053783Y-113168242D01*
X129678242Y-113543783D01*
X129540000Y-113877528D01*
X129401758Y-113543783D01*
X129026217Y-113168242D01*
X128535548Y-112965000D01*
X128004452Y-112965000D01*
X127513783Y-113168242D01*
X127138242Y-113543783D01*
X127000000Y-113877528D01*
X126861758Y-113543783D01*
X126486217Y-113168242D01*
X125995548Y-112965000D01*
X125464452Y-112965000D01*
X124973783Y-113168242D01*
X124598242Y-113543783D01*
X124395000Y-114034452D01*
X95994847Y-114034452D01*
X95170000Y-113209605D01*
X94341861Y-114037745D01*
X91191651Y-114037745D01*
X91386534Y-113842862D01*
X91605000Y-113315439D01*
X91605000Y-112813223D01*
X93723035Y-112813223D01*
X93750222Y-113383454D01*
X93916136Y-113784005D01*
X94162255Y-113858139D01*
X94990395Y-113030000D01*
X95349605Y-113030000D01*
X96177745Y-113858139D01*
X96423864Y-113784005D01*
X96616965Y-113246777D01*
X96589778Y-112676546D01*
X96423864Y-112275995D01*
X96177745Y-112201861D01*
X95349605Y-113030000D01*
X94990395Y-113030000D01*
X94162255Y-112201861D01*
X93916136Y-112275995D01*
X93723035Y-112813223D01*
X91605000Y-112813223D01*
X91605000Y-112744561D01*
X91386534Y-112217138D01*
X91191651Y-112022255D01*
X94341861Y-112022255D01*
X95170000Y-112850395D01*
X95998139Y-112022255D01*
X95924005Y-111776136D01*
X95386777Y-111583035D01*
X94816546Y-111610222D01*
X94415995Y-111776136D01*
X94341861Y-112022255D01*
X91191651Y-112022255D01*
X90982862Y-111813466D01*
X90455439Y-111595000D01*
X89884561Y-111595000D01*
X89357138Y-111813466D01*
X88953466Y-112217138D01*
X88735000Y-112744561D01*
X73114956Y-112744561D01*
X72310000Y-111939605D01*
X71481861Y-112767745D01*
X68331651Y-112767745D01*
X68526534Y-112572862D01*
X68745000Y-112045439D01*
X68745000Y-111543223D01*
X70863035Y-111543223D01*
X70890222Y-112113454D01*
X71056136Y-112514005D01*
X71302255Y-112588139D01*
X72130395Y-111760000D01*
X72489605Y-111760000D01*
X73317745Y-112588139D01*
X73563864Y-112514005D01*
X73756965Y-111976777D01*
X73729778Y-111406546D01*
X73563864Y-111005995D01*
X73317745Y-110931861D01*
X72489605Y-111760000D01*
X72130395Y-111760000D01*
X71302255Y-110931861D01*
X71056136Y-111005995D01*
X70863035Y-111543223D01*
X68745000Y-111543223D01*
X68745000Y-111474561D01*
X68526534Y-110947138D01*
X68331651Y-110752255D01*
X71481861Y-110752255D01*
X72310000Y-111580395D01*
X73138139Y-110752255D01*
X73064005Y-110506136D01*
X72526777Y-110313035D01*
X71956546Y-110340222D01*
X71555995Y-110506136D01*
X71481861Y-110752255D01*
X68331651Y-110752255D01*
X68122862Y-110543466D01*
X67595439Y-110325000D01*
X67024561Y-110325000D01*
X66497138Y-110543466D01*
X66093466Y-110947138D01*
X65875000Y-111474561D01*
X51510000Y-111474561D01*
X51510000Y-103899336D01*
X89893542Y-103899336D01*
X89919161Y-104509460D01*
X90103357Y-104954148D01*
X90359841Y-105040554D01*
X91260395Y-104140000D01*
X90359841Y-103239446D01*
X90103357Y-103325852D01*
X89893542Y-103899336D01*
X51510000Y-103899336D01*
X51510000Y-103059841D01*
X90539446Y-103059841D01*
X91440000Y-103960395D01*
X91454143Y-103946253D01*
X91633748Y-104125858D01*
X91619605Y-104140000D01*
X91633748Y-104154143D01*
X91454143Y-104333748D01*
X91440000Y-104319605D01*
X90539446Y-105220159D01*
X90625852Y-105476643D01*
X91199336Y-105686458D01*
X91809460Y-105660839D01*
X92254148Y-105476643D01*
X92340553Y-105220161D01*
X92455110Y-105334718D01*
X92489942Y-105299886D01*
X92622191Y-105497809D01*
X92832235Y-105638157D01*
X93080000Y-105687440D01*
X94880000Y-105687440D01*
X95127765Y-105638157D01*
X95337809Y-105497809D01*
X95478157Y-105287765D01*
X95527440Y-105040000D01*
X95527440Y-103899336D01*
X97513542Y-103899336D01*
X97539161Y-104509460D01*
X97723357Y-104954148D01*
X97979841Y-105040554D01*
X98880395Y-104140000D01*
X97979841Y-103239446D01*
X97723357Y-103325852D01*
X97513542Y-103899336D01*
X95527440Y-103899336D01*
X95527440Y-103240000D01*
X95491605Y-103059841D01*
X98159446Y-103059841D01*
X99060000Y-103960395D01*
X99074143Y-103946253D01*
X99253748Y-104125858D01*
X99239605Y-104140000D01*
X99253748Y-104154143D01*
X99074143Y-104333748D01*
X99060000Y-104319605D01*
X98159446Y-105220159D01*
X98245852Y-105476643D01*
X98819336Y-105686458D01*
X99429460Y-105660839D01*
X99874148Y-105476643D01*
X99960553Y-105220161D01*
X100075110Y-105334718D01*
X100109942Y-105299886D01*
X100242191Y-105497809D01*
X100452235Y-105638157D01*
X100700000Y-105687440D01*
X102500000Y-105687440D01*
X102747765Y-105638157D01*
X102957809Y-105497809D01*
X103098157Y-105287765D01*
X103147440Y-105040000D01*
X103147440Y-103899336D01*
X105133542Y-103899336D01*
X105159161Y-104509460D01*
X105343357Y-104954148D01*
X105599841Y-105040554D01*
X106500395Y-104140000D01*
X105599841Y-103239446D01*
X105343357Y-103325852D01*
X105133542Y-103899336D01*
X103147440Y-103899336D01*
X103147440Y-103240000D01*
X103111605Y-103059841D01*
X105779446Y-103059841D01*
X106680000Y-103960395D01*
X106694143Y-103946253D01*
X106873748Y-104125858D01*
X106859605Y-104140000D01*
X106873748Y-104154143D01*
X106694143Y-104333748D01*
X106680000Y-104319605D01*
X105779446Y-105220159D01*
X105865852Y-105476643D01*
X106439336Y-105686458D01*
X107049460Y-105660839D01*
X107494148Y-105476643D01*
X107580553Y-105220161D01*
X107695110Y-105334718D01*
X107729942Y-105299886D01*
X107862191Y-105497809D01*
X108072235Y-105638157D01*
X108320000Y-105687440D01*
X110120000Y-105687440D01*
X110367765Y-105638157D01*
X110577809Y-105497809D01*
X110718157Y-105287765D01*
X110767440Y-105040000D01*
X110767440Y-103899336D01*
X112753542Y-103899336D01*
X112779161Y-104509460D01*
X112963357Y-104954148D01*
X113219841Y-105040554D01*
X114120395Y-104140000D01*
X113219841Y-103239446D01*
X112963357Y-103325852D01*
X112753542Y-103899336D01*
X110767440Y-103899336D01*
X110767440Y-103240000D01*
X110731605Y-103059841D01*
X113399446Y-103059841D01*
X114300000Y-103960395D01*
X114314143Y-103946253D01*
X114493748Y-104125858D01*
X114479605Y-104140000D01*
X114493748Y-104154143D01*
X114314143Y-104333748D01*
X114300000Y-104319605D01*
X113399446Y-105220159D01*
X113485852Y-105476643D01*
X114059336Y-105686458D01*
X114669460Y-105660839D01*
X115114148Y-105476643D01*
X115200553Y-105220161D01*
X115315110Y-105334718D01*
X115349942Y-105299886D01*
X115482191Y-105497809D01*
X115692235Y-105638157D01*
X115940000Y-105687440D01*
X117740000Y-105687440D01*
X117987765Y-105638157D01*
X118197809Y-105497809D01*
X118338157Y-105287765D01*
X118387440Y-105040000D01*
X118387440Y-103899336D01*
X120373542Y-103899336D01*
X120399161Y-104509460D01*
X120583357Y-104954148D01*
X120839841Y-105040554D01*
X121740395Y-104140000D01*
X120839841Y-103239446D01*
X120583357Y-103325852D01*
X120373542Y-103899336D01*
X118387440Y-103899336D01*
X118387440Y-103240000D01*
X118351605Y-103059841D01*
X121019446Y-103059841D01*
X121920000Y-103960395D01*
X121934143Y-103946253D01*
X122113748Y-104125858D01*
X122099605Y-104140000D01*
X122113748Y-104154143D01*
X121934143Y-104333748D01*
X121920000Y-104319605D01*
X121019446Y-105220159D01*
X121105852Y-105476643D01*
X121679336Y-105686458D01*
X122289460Y-105660839D01*
X122734148Y-105476643D01*
X122820553Y-105220161D01*
X122935110Y-105334718D01*
X122969942Y-105299886D01*
X123102191Y-105497809D01*
X123312235Y-105638157D01*
X123560000Y-105687440D01*
X125360000Y-105687440D01*
X125607765Y-105638157D01*
X125817809Y-105497809D01*
X125958157Y-105287765D01*
X126007440Y-105040000D01*
X126007440Y-103899336D01*
X127993542Y-103899336D01*
X128019161Y-104509460D01*
X128203357Y-104954148D01*
X128459841Y-105040554D01*
X129360395Y-104140000D01*
X128459841Y-103239446D01*
X128203357Y-103325852D01*
X127993542Y-103899336D01*
X126007440Y-103899336D01*
X126007440Y-103240000D01*
X125971605Y-103059841D01*
X128639446Y-103059841D01*
X129540000Y-103960395D01*
X129554143Y-103946253D01*
X129733748Y-104125858D01*
X129719605Y-104140000D01*
X129733748Y-104154143D01*
X129554143Y-104333748D01*
X129540000Y-104319605D01*
X128639446Y-105220159D01*
X128725852Y-105476643D01*
X129299336Y-105686458D01*
X129909460Y-105660839D01*
X130354148Y-105476643D01*
X130440553Y-105220161D01*
X130555110Y-105334718D01*
X130589942Y-105299886D01*
X130722191Y-105497809D01*
X130932235Y-105638157D01*
X131180000Y-105687440D01*
X132980000Y-105687440D01*
X133227765Y-105638157D01*
X133437809Y-105497809D01*
X133578157Y-105287765D01*
X133627440Y-105040000D01*
X133627440Y-103899336D01*
X135613542Y-103899336D01*
X135639161Y-104509460D01*
X135823357Y-104954148D01*
X136079841Y-105040554D01*
X136980395Y-104140000D01*
X136079841Y-103239446D01*
X135823357Y-103325852D01*
X135613542Y-103899336D01*
X133627440Y-103899336D01*
X133627440Y-103240000D01*
X133591605Y-103059841D01*
X136259446Y-103059841D01*
X137160000Y-103960395D01*
X137174143Y-103946253D01*
X137353748Y-104125858D01*
X137339605Y-104140000D01*
X137353748Y-104154143D01*
X137174143Y-104333748D01*
X137160000Y-104319605D01*
X136259446Y-105220159D01*
X136345852Y-105476643D01*
X136919336Y-105686458D01*
X137529460Y-105660839D01*
X137974148Y-105476643D01*
X138060553Y-105220161D01*
X138175110Y-105334718D01*
X138209942Y-105299886D01*
X138342191Y-105497809D01*
X138552235Y-105638157D01*
X138800000Y-105687440D01*
X140600000Y-105687440D01*
X140847765Y-105638157D01*
X141057809Y-105497809D01*
X141198157Y-105287765D01*
X141247440Y-105040000D01*
X141247440Y-103899336D01*
X143233542Y-103899336D01*
X143259161Y-104509460D01*
X143443357Y-104954148D01*
X143699841Y-105040554D01*
X144600395Y-104140000D01*
X143699841Y-103239446D01*
X143443357Y-103325852D01*
X143233542Y-103899336D01*
X141247440Y-103899336D01*
X141247440Y-103240000D01*
X141211605Y-103059841D01*
X143879446Y-103059841D01*
X144780000Y-103960395D01*
X144794143Y-103946253D01*
X144973748Y-104125858D01*
X144959605Y-104140000D01*
X144973748Y-104154143D01*
X144794143Y-104333748D01*
X144780000Y-104319605D01*
X143879446Y-105220159D01*
X143965852Y-105476643D01*
X144539336Y-105686458D01*
X145149460Y-105660839D01*
X145594148Y-105476643D01*
X145680553Y-105220161D01*
X145795110Y-105334718D01*
X145829942Y-105299886D01*
X145962191Y-105497809D01*
X146172235Y-105638157D01*
X146420000Y-105687440D01*
X148220000Y-105687440D01*
X148467765Y-105638157D01*
X148677809Y-105497809D01*
X148818157Y-105287765D01*
X148867440Y-105040000D01*
X148867440Y-103240000D01*
X148818157Y-102992235D01*
X148677809Y-102782191D01*
X148467765Y-102641843D01*
X148220000Y-102592560D01*
X146420000Y-102592560D01*
X146172235Y-102641843D01*
X145962191Y-102782191D01*
X145829942Y-102980114D01*
X145795110Y-102945282D01*
X145680553Y-103059839D01*
X145594148Y-102803357D01*
X145020664Y-102593542D01*
X144410540Y-102619161D01*
X143965852Y-102803357D01*
X143879446Y-103059841D01*
X141211605Y-103059841D01*
X141198157Y-102992235D01*
X141057809Y-102782191D01*
X140847765Y-102641843D01*
X140600000Y-102592560D01*
X138800000Y-102592560D01*
X138552235Y-102641843D01*
X138342191Y-102782191D01*
X138209942Y-102980114D01*
X138175110Y-102945282D01*
X138060553Y-103059839D01*
X137974148Y-102803357D01*
X137400664Y-102593542D01*
X136790540Y-102619161D01*
X136345852Y-102803357D01*
X136259446Y-103059841D01*
X133591605Y-103059841D01*
X133578157Y-102992235D01*
X133437809Y-102782191D01*
X133227765Y-102641843D01*
X132980000Y-102592560D01*
X131180000Y-102592560D01*
X130932235Y-102641843D01*
X130722191Y-102782191D01*
X130589942Y-102980114D01*
X130555110Y-102945282D01*
X130440553Y-103059839D01*
X130354148Y-102803357D01*
X129780664Y-102593542D01*
X129170540Y-102619161D01*
X128725852Y-102803357D01*
X128639446Y-103059841D01*
X125971605Y-103059841D01*
X125958157Y-102992235D01*
X125817809Y-102782191D01*
X125607765Y-102641843D01*
X125360000Y-102592560D01*
X123560000Y-102592560D01*
X123312235Y-102641843D01*
X123102191Y-102782191D01*
X122969942Y-102980114D01*
X122935110Y-102945282D01*
X122820553Y-103059839D01*
X122734148Y-102803357D01*
X122160664Y-102593542D01*
X121550540Y-102619161D01*
X121105852Y-102803357D01*
X121019446Y-103059841D01*
X118351605Y-103059841D01*
X118338157Y-102992235D01*
X118197809Y-102782191D01*
X117987765Y-102641843D01*
X117740000Y-102592560D01*
X115940000Y-102592560D01*
X115692235Y-102641843D01*
X115482191Y-102782191D01*
X115349942Y-102980114D01*
X115315110Y-102945282D01*
X115200553Y-103059839D01*
X115114148Y-102803357D01*
X114540664Y-102593542D01*
X113930540Y-102619161D01*
X113485852Y-102803357D01*
X113399446Y-103059841D01*
X110731605Y-103059841D01*
X110718157Y-102992235D01*
X110577809Y-102782191D01*
X110367765Y-102641843D01*
X110120000Y-102592560D01*
X108320000Y-102592560D01*
X108072235Y-102641843D01*
X107862191Y-102782191D01*
X107729942Y-102980114D01*
X107695110Y-102945282D01*
X107580553Y-103059839D01*
X107494148Y-102803357D01*
X106920664Y-102593542D01*
X106310540Y-102619161D01*
X105865852Y-102803357D01*
X105779446Y-103059841D01*
X103111605Y-103059841D01*
X103098157Y-102992235D01*
X102957809Y-102782191D01*
X102747765Y-102641843D01*
X102500000Y-102592560D01*
X100700000Y-102592560D01*
X100452235Y-102641843D01*
X100242191Y-102782191D01*
X100109942Y-102980114D01*
X100075110Y-102945282D01*
X99960553Y-103059839D01*
X99874148Y-102803357D01*
X99300664Y-102593542D01*
X98690540Y-102619161D01*
X98245852Y-102803357D01*
X98159446Y-103059841D01*
X95491605Y-103059841D01*
X95478157Y-102992235D01*
X95337809Y-102782191D01*
X95127765Y-102641843D01*
X94880000Y-102592560D01*
X93080000Y-102592560D01*
X92832235Y-102641843D01*
X92622191Y-102782191D01*
X92489942Y-102980114D01*
X92455110Y-102945282D01*
X92340553Y-103059839D01*
X92254148Y-102803357D01*
X91680664Y-102593542D01*
X91070540Y-102619161D01*
X90625852Y-102803357D01*
X90539446Y-103059841D01*
X51510000Y-103059841D01*
X51510000Y-102310000D01*
X149150001Y-102310000D01*
X149150000Y-174550000D01*
X149150000Y-174550000D01*
G37*
X149150000Y-174550000D02*
X147389926Y-174550000D01*
X147320000Y-174536091D01*
X147250075Y-174550000D01*
X147250074Y-174550000D01*
X147042972Y-174591195D01*
X146808119Y-174748119D01*
X146651195Y-174982972D01*
X146596091Y-175260000D01*
X146610001Y-175329931D01*
X146610001Y-178308000D01*
X146252940Y-178308000D01*
X146252940Y-178220000D01*
X146203657Y-177972235D01*
X146063309Y-177762191D01*
X145853265Y-177621843D01*
X145615000Y-177574450D01*
X145615000Y-175888711D01*
X145657431Y-175846280D01*
X145815000Y-175465874D01*
X145815000Y-175054126D01*
X145657431Y-174673720D01*
X145366280Y-174382569D01*
X144985874Y-174225000D01*
X144574126Y-174225000D01*
X144193720Y-174382569D01*
X143902569Y-174673720D01*
X143745000Y-175054126D01*
X143745000Y-175465874D01*
X143902569Y-175846280D01*
X143945000Y-175888711D01*
X143945000Y-177574450D01*
X143706735Y-177621843D01*
X143510000Y-177753298D01*
X143313265Y-177621843D01*
X143075000Y-177574450D01*
X143075000Y-175888711D01*
X143117431Y-175846280D01*
X143275000Y-175465874D01*
X143275000Y-175054126D01*
X143117431Y-174673720D01*
X142826280Y-174382569D01*
X142445874Y-174225000D01*
X142034126Y-174225000D01*
X141653720Y-174382569D01*
X141362569Y-174673720D01*
X141205000Y-175054126D01*
X141205000Y-175465874D01*
X141362569Y-175846280D01*
X141405001Y-175888712D01*
X141405001Y-177574450D01*
X141166735Y-177621843D01*
X140970000Y-177753298D01*
X140773265Y-177621843D01*
X140535000Y-177574450D01*
X140535000Y-175888711D01*
X140577431Y-175846280D01*
X140735000Y-175465874D01*
X140735000Y-175054126D01*
X140577431Y-174673720D01*
X140286280Y-174382569D01*
X139905874Y-174225000D01*
X139494126Y-174225000D01*
X139113720Y-174382569D01*
X138822569Y-174673720D01*
X138665000Y-175054126D01*
X138665000Y-175465874D01*
X138822569Y-175846280D01*
X138865000Y-175888711D01*
X138865000Y-177574450D01*
X138626735Y-177621843D01*
X138430000Y-177753298D01*
X138233265Y-177621843D01*
X137995000Y-177574450D01*
X137995000Y-175888711D01*
X138037431Y-175846280D01*
X138195000Y-175465874D01*
X138195000Y-175054126D01*
X138037431Y-174673720D01*
X137746280Y-174382569D01*
X137365874Y-174225000D01*
X136954126Y-174225000D01*
X136573720Y-174382569D01*
X136282569Y-174673720D01*
X136125000Y-175054126D01*
X136125000Y-175465874D01*
X136282569Y-175846280D01*
X136325001Y-175888712D01*
X136325001Y-177574450D01*
X136086735Y-177621843D01*
X135890000Y-177753298D01*
X135693265Y-177621843D01*
X135455000Y-177574450D01*
X135455000Y-175888711D01*
X135497431Y-175846280D01*
X135655000Y-175465874D01*
X135655000Y-175054126D01*
X135497431Y-174673720D01*
X135206280Y-174382569D01*
X134825874Y-174225000D01*
X134414126Y-174225000D01*
X134033720Y-174382569D01*
X133742569Y-174673720D01*
X133585000Y-175054126D01*
X133585000Y-175465874D01*
X133742569Y-175846280D01*
X133785001Y-175888712D01*
X133785001Y-177574450D01*
X133546735Y-177621843D01*
X133350000Y-177753298D01*
X133153265Y-177621843D01*
X132915000Y-177574450D01*
X132915000Y-175888711D01*
X132957431Y-175846280D01*
X133115000Y-175465874D01*
X133115000Y-175054126D01*
X132957431Y-174673720D01*
X132666280Y-174382569D01*
X132285874Y-174225000D01*
X131874126Y-174225000D01*
X131493720Y-174382569D01*
X131202569Y-174673720D01*
X131045000Y-175054126D01*
X131045000Y-175465874D01*
X131202569Y-175846280D01*
X131245001Y-175888712D01*
X131245001Y-177574450D01*
X131006735Y-177621843D01*
X130810000Y-177753298D01*
X130613265Y-177621843D01*
X130375000Y-177574450D01*
X130375000Y-175888711D01*
X130417431Y-175846280D01*
X130575000Y-175465874D01*
X130575000Y-175054126D01*
X130417431Y-174673720D01*
X130126280Y-174382569D01*
X129745874Y-174225000D01*
X129334126Y-174225000D01*
X128953720Y-174382569D01*
X128662569Y-174673720D01*
X128505000Y-175054126D01*
X128505000Y-175465874D01*
X128662569Y-175846280D01*
X128705000Y-175888711D01*
X128705000Y-177574450D01*
X128466735Y-177621843D01*
X128270000Y-177753298D01*
X128073265Y-177621843D01*
X127835000Y-177574450D01*
X127835000Y-175888711D01*
X127877431Y-175846280D01*
X128035000Y-175465874D01*
X128035000Y-175054126D01*
X127877431Y-174673720D01*
X127586280Y-174382569D01*
X127205874Y-174225000D01*
X126794126Y-174225000D01*
X126413720Y-174382569D01*
X126122569Y-174673720D01*
X125965000Y-175054126D01*
X125965000Y-175465874D01*
X126122569Y-175846280D01*
X126165001Y-175888712D01*
X126165001Y-177574450D01*
X125926735Y-177621843D01*
X125730000Y-177753298D01*
X125533265Y-177621843D01*
X125295000Y-177574450D01*
X125295000Y-175888711D01*
X125337431Y-175846280D01*
X125495000Y-175465874D01*
X125495000Y-175054126D01*
X125337431Y-174673720D01*
X125046280Y-174382569D01*
X124665874Y-174225000D01*
X124254126Y-174225000D01*
X123873720Y-174382569D01*
X123582569Y-174673720D01*
X123425000Y-175054126D01*
X123425000Y-175465874D01*
X123582569Y-175846280D01*
X123625001Y-175888712D01*
X123625001Y-177574450D01*
X123386735Y-177621843D01*
X123190000Y-177753298D01*
X122993265Y-177621843D01*
X122755000Y-177574450D01*
X122755000Y-174575533D01*
X122917765Y-174543157D01*
X123127809Y-174402809D01*
X123268157Y-174192765D01*
X123317440Y-173945000D01*
X123317440Y-172945000D01*
X123304867Y-172818027D01*
X123290096Y-172782471D01*
X123317440Y-172645000D01*
X123317440Y-171495000D01*
X123268157Y-171247235D01*
X123127809Y-171037191D01*
X122917765Y-170896843D01*
X122670000Y-170847560D01*
X121170000Y-170847560D01*
X120922235Y-170896843D01*
X120712191Y-171037191D01*
X120650000Y-171130266D01*
X120587809Y-171037191D01*
X120377765Y-170896843D01*
X120130000Y-170847560D01*
X118630000Y-170847560D01*
X118382235Y-170896843D01*
X118172191Y-171037191D01*
X118110000Y-171130266D01*
X118047809Y-171037191D01*
X117837765Y-170896843D01*
X117590000Y-170847560D01*
X116090000Y-170847560D01*
X115842235Y-170896843D01*
X115632191Y-171037191D01*
X115570000Y-171130266D01*
X115507809Y-171037191D01*
X115297765Y-170896843D01*
X115050000Y-170847560D01*
X113550000Y-170847560D01*
X113302235Y-170896843D01*
X113092191Y-171037191D01*
X113030000Y-171130266D01*
X112967809Y-171037191D01*
X112757765Y-170896843D01*
X112510000Y-170847560D01*
X111010000Y-170847560D01*
X110762235Y-170896843D01*
X110552191Y-171037191D01*
X110490000Y-171130266D01*
X110427809Y-171037191D01*
X110217765Y-170896843D01*
X109970000Y-170847560D01*
X108470000Y-170847560D01*
X108222235Y-170896843D01*
X108012191Y-171037191D01*
X107950000Y-171130266D01*
X107887809Y-171037191D01*
X107677765Y-170896843D01*
X107430000Y-170847560D01*
X105930000Y-170847560D01*
X105682235Y-170896843D01*
X105472191Y-171037191D01*
X105410000Y-171130266D01*
X105347809Y-171037191D01*
X105137765Y-170896843D01*
X104890000Y-170847560D01*
X103390000Y-170847560D01*
X103142235Y-170896843D01*
X102932191Y-171037191D01*
X102870000Y-171130266D01*
X102807809Y-171037191D01*
X102597765Y-170896843D01*
X102350000Y-170847560D01*
X100850000Y-170847560D01*
X100602235Y-170896843D01*
X100392191Y-171037191D01*
X100330000Y-171130266D01*
X100267809Y-171037191D01*
X100057765Y-170896843D01*
X99810000Y-170847560D01*
X98310000Y-170847560D01*
X98062235Y-170896843D01*
X97852191Y-171037191D01*
X97790000Y-171130266D01*
X97727809Y-171037191D01*
X97517765Y-170896843D01*
X97270000Y-170847560D01*
X95770000Y-170847560D01*
X95522235Y-170896843D01*
X95312191Y-171037191D01*
X95250000Y-171130266D01*
X95187809Y-171037191D01*
X94977765Y-170896843D01*
X94815000Y-170864467D01*
X94815000Y-167722232D01*
X94831357Y-167639999D01*
X94815000Y-167557766D01*
X94815000Y-167557763D01*
X94766552Y-167314199D01*
X94661216Y-167156552D01*
X94628584Y-167107715D01*
X94628583Y-167107714D01*
X94582001Y-167037999D01*
X94512285Y-166991416D01*
X92275000Y-164754133D01*
X92275000Y-161460478D01*
X92487765Y-161418157D01*
X92697809Y-161277809D01*
X92838157Y-161067765D01*
X92864785Y-160933894D01*
X92945423Y-161054577D01*
X93420091Y-161371740D01*
X93838667Y-161455000D01*
X94121333Y-161455000D01*
X94539909Y-161371740D01*
X95014577Y-161054577D01*
X95250000Y-160702242D01*
X95485423Y-161054577D01*
X95960091Y-161371740D01*
X96378667Y-161455000D01*
X96661333Y-161455000D01*
X97079909Y-161371740D01*
X97554577Y-161054577D01*
X97790000Y-160702242D01*
X98025423Y-161054577D01*
X98500091Y-161371740D01*
X98918667Y-161455000D01*
X99201333Y-161455000D01*
X99619909Y-161371740D01*
X100094577Y-161054577D01*
X100330000Y-160702242D01*
X100565423Y-161054577D01*
X101040091Y-161371740D01*
X101458667Y-161455000D01*
X101741333Y-161455000D01*
X102159909Y-161371740D01*
X102634577Y-161054577D01*
X102870000Y-160702242D01*
X103105423Y-161054577D01*
X103580091Y-161371740D01*
X103998667Y-161455000D01*
X104281333Y-161455000D01*
X104699909Y-161371740D01*
X105174577Y-161054577D01*
X105410000Y-160702242D01*
X105645423Y-161054577D01*
X106120091Y-161371740D01*
X106538667Y-161455000D01*
X106821333Y-161455000D01*
X107239909Y-161371740D01*
X107714577Y-161054577D01*
X108031740Y-160579909D01*
X108143113Y-160020000D01*
X108031740Y-159460091D01*
X107714577Y-158985423D01*
X107239909Y-158668260D01*
X106821333Y-158585000D01*
X106538667Y-158585000D01*
X106120091Y-158668260D01*
X105645423Y-158985423D01*
X105410000Y-159337758D01*
X105174577Y-158985423D01*
X104699909Y-158668260D01*
X104281333Y-158585000D01*
X103998667Y-158585000D01*
X103580091Y-158668260D01*
X103105423Y-158985423D01*
X102870000Y-159337758D01*
X102634577Y-158985423D01*
X102159909Y-158668260D01*
X101741333Y-158585000D01*
X101458667Y-158585000D01*
X101040091Y-158668260D01*
X100565423Y-158985423D01*
X100330000Y-159337758D01*
X100094577Y-158985423D01*
X99895000Y-158852070D01*
X99895000Y-157562232D01*
X99911357Y-157479999D01*
X99895000Y-157397764D01*
X99895000Y-157397763D01*
X99846552Y-157154199D01*
X99662001Y-156877999D01*
X99592283Y-156831415D01*
X98438587Y-155677720D01*
X98392001Y-155607999D01*
X98115801Y-155423448D01*
X97872237Y-155375000D01*
X97872233Y-155375000D01*
X97790000Y-155358643D01*
X97707767Y-155375000D01*
X89245868Y-155375000D01*
X88465000Y-154594133D01*
X88465000Y-152749041D01*
X90048086Y-152749041D01*
X90287611Y-153255134D01*
X90702577Y-153631041D01*
X91090961Y-153791904D01*
X91313000Y-153669915D01*
X91313000Y-152527000D01*
X90169371Y-152527000D01*
X90048086Y-152749041D01*
X88465000Y-152749041D01*
X88465000Y-152050959D01*
X90048086Y-152050959D01*
X90169371Y-152273000D01*
X91313000Y-152273000D01*
X91313000Y-151130085D01*
X91567000Y-151130085D01*
X91567000Y-152273000D01*
X91587000Y-152273000D01*
X91587000Y-152527000D01*
X91567000Y-152527000D01*
X91567000Y-153669915D01*
X91789039Y-153791904D01*
X92177423Y-153631041D01*
X92592389Y-153255134D01*
X92689053Y-153050892D01*
X92945423Y-153434577D01*
X93420091Y-153751740D01*
X93838667Y-153835000D01*
X94121333Y-153835000D01*
X94539909Y-153751740D01*
X95014577Y-153434577D01*
X95250000Y-153082242D01*
X95485423Y-153434577D01*
X95960091Y-153751740D01*
X96378667Y-153835000D01*
X96661333Y-153835000D01*
X97079909Y-153751740D01*
X97554577Y-153434577D01*
X97790000Y-153082242D01*
X98025423Y-153434577D01*
X98500091Y-153751740D01*
X98918667Y-153835000D01*
X99201333Y-153835000D01*
X99619909Y-153751740D01*
X100094577Y-153434577D01*
X100330000Y-153082242D01*
X100565423Y-153434577D01*
X101040091Y-153751740D01*
X101458667Y-153835000D01*
X101741333Y-153835000D01*
X102159909Y-153751740D01*
X102634577Y-153434577D01*
X102870000Y-153082242D01*
X103105423Y-153434577D01*
X103580091Y-153751740D01*
X103998667Y-153835000D01*
X104281333Y-153835000D01*
X104699909Y-153751740D01*
X105174577Y-153434577D01*
X105410000Y-153082242D01*
X105645423Y-153434577D01*
X106120091Y-153751740D01*
X106538667Y-153835000D01*
X106821333Y-153835000D01*
X107239909Y-153751740D01*
X107714577Y-153434577D01*
X108031740Y-152959909D01*
X108143113Y-152400000D01*
X108031740Y-151840091D01*
X107714577Y-151365423D01*
X107239909Y-151048260D01*
X106821333Y-150965000D01*
X106538667Y-150965000D01*
X106120091Y-151048260D01*
X105645423Y-151365423D01*
X105410000Y-151717758D01*
X105174577Y-151365423D01*
X104699909Y-151048260D01*
X104281333Y-150965000D01*
X103998667Y-150965000D01*
X103580091Y-151048260D01*
X103105423Y-151365423D01*
X102870000Y-151717758D01*
X102634577Y-151365423D01*
X102159909Y-151048260D01*
X101741333Y-150965000D01*
X101458667Y-150965000D01*
X101040091Y-151048260D01*
X100565423Y-151365423D01*
X100330000Y-151717758D01*
X100094577Y-151365423D01*
X99619909Y-151048260D01*
X99201333Y-150965000D01*
X98918667Y-150965000D01*
X98500091Y-151048260D01*
X98025423Y-151365423D01*
X97790000Y-151717758D01*
X97554577Y-151365423D01*
X97079909Y-151048260D01*
X96661333Y-150965000D01*
X96378667Y-150965000D01*
X95960091Y-151048260D01*
X95485423Y-151365423D01*
X95250000Y-151717758D01*
X95014577Y-151365423D01*
X94539909Y-151048260D01*
X94121333Y-150965000D01*
X93838667Y-150965000D01*
X93420091Y-151048260D01*
X92945423Y-151365423D01*
X92689053Y-151749108D01*
X92592389Y-151544866D01*
X92177423Y-151168959D01*
X91789039Y-151008096D01*
X91567000Y-151130085D01*
X91313000Y-151130085D01*
X91090961Y-151008096D01*
X90702577Y-151168959D01*
X90287611Y-151544866D01*
X90048086Y-152050959D01*
X88465000Y-152050959D01*
X88465000Y-145125867D01*
X89245868Y-144345000D01*
X92081289Y-144345000D01*
X92123720Y-144387431D01*
X92504126Y-144545000D01*
X92915874Y-144545000D01*
X93296280Y-144387431D01*
X93587431Y-144096280D01*
X93745000Y-143715874D01*
X93745000Y-143304126D01*
X93587431Y-142923720D01*
X93296280Y-142632569D01*
X92915874Y-142475000D01*
X92504126Y-142475000D01*
X92123720Y-142632569D01*
X92081289Y-142675000D01*
X88982232Y-142675000D01*
X88899999Y-142658643D01*
X88817766Y-142675000D01*
X88817763Y-142675000D01*
X88574199Y-142723448D01*
X88297999Y-142907999D01*
X88251415Y-142977718D01*
X87195000Y-144034133D01*
X87195000Y-141315867D01*
X87454138Y-141056729D01*
X87548260Y-141529909D01*
X87865423Y-142004577D01*
X88340091Y-142321740D01*
X88758667Y-142405000D01*
X89041333Y-142405000D01*
X89459909Y-142321740D01*
X89934577Y-142004577D01*
X90251740Y-141529909D01*
X90363113Y-140970000D01*
X90276586Y-140535000D01*
X91729133Y-140535000D01*
X92696415Y-141502282D01*
X92742999Y-141572001D01*
X93019199Y-141756552D01*
X93262763Y-141805000D01*
X93262766Y-141805000D01*
X93344999Y-141821357D01*
X93427232Y-141805000D01*
X95352070Y-141805000D01*
X95485423Y-142004577D01*
X95960091Y-142321740D01*
X96378667Y-142405000D01*
X96661333Y-142405000D01*
X97079909Y-142321740D01*
X97554577Y-142004577D01*
X97871740Y-141529909D01*
X97983113Y-140970000D01*
X97896586Y-140535000D01*
X101929907Y-140535000D01*
X101835000Y-140764126D01*
X101835000Y-141175874D01*
X101992569Y-141556280D01*
X102283720Y-141847431D01*
X102664126Y-142005000D01*
X103075874Y-142005000D01*
X103456280Y-141847431D01*
X103505000Y-141798711D01*
X103553720Y-141847431D01*
X103934126Y-142005000D01*
X104345874Y-142005000D01*
X104726280Y-141847431D01*
X104775000Y-141798711D01*
X104823720Y-141847431D01*
X105204126Y-142005000D01*
X105615874Y-142005000D01*
X105996280Y-141847431D01*
X106045000Y-141798711D01*
X106093720Y-141847431D01*
X106474126Y-142005000D01*
X106885874Y-142005000D01*
X107266280Y-141847431D01*
X107315000Y-141798711D01*
X107363720Y-141847431D01*
X107744126Y-142005000D01*
X108155874Y-142005000D01*
X108536280Y-141847431D01*
X108585000Y-141798711D01*
X108633720Y-141847431D01*
X109014126Y-142005000D01*
X109425874Y-142005000D01*
X109806280Y-141847431D01*
X109855000Y-141798711D01*
X109903720Y-141847431D01*
X110284126Y-142005000D01*
X110695874Y-142005000D01*
X111076280Y-141847431D01*
X111367431Y-141556280D01*
X111525000Y-141175874D01*
X111525000Y-140764126D01*
X111430093Y-140535000D01*
X111862070Y-140535000D01*
X111995423Y-140734577D01*
X112347758Y-140970000D01*
X111995423Y-141205423D01*
X111678260Y-141680091D01*
X111566887Y-142240000D01*
X111678260Y-142799909D01*
X111995423Y-143274577D01*
X112470091Y-143591740D01*
X112888667Y-143675000D01*
X113171333Y-143675000D01*
X113589909Y-143591740D01*
X114064577Y-143274577D01*
X114381740Y-142799909D01*
X114493113Y-142240000D01*
X114381740Y-141680091D01*
X114064577Y-141205423D01*
X113712242Y-140970000D01*
X114064577Y-140734577D01*
X114381740Y-140259909D01*
X114493113Y-139700000D01*
X114381740Y-139140091D01*
X114064577Y-138665423D01*
X113712242Y-138430000D01*
X114064577Y-138194577D01*
X114381740Y-137719909D01*
X114493113Y-137160000D01*
X114381740Y-136600091D01*
X114064577Y-136125423D01*
X113712242Y-135890000D01*
X114064577Y-135654577D01*
X114381740Y-135179909D01*
X114493113Y-134620000D01*
X114381740Y-134060091D01*
X114064577Y-133585423D01*
X113712242Y-133350000D01*
X114064577Y-133114577D01*
X114381740Y-132639909D01*
X114493113Y-132080000D01*
X114381740Y-131520091D01*
X114064577Y-131045423D01*
X113712242Y-130810000D01*
X114064577Y-130574577D01*
X114381740Y-130099909D01*
X114493113Y-129540000D01*
X114381740Y-128980091D01*
X114064577Y-128505423D01*
X113712242Y-128270000D01*
X114064577Y-128034577D01*
X114381740Y-127559909D01*
X114493113Y-127000000D01*
X114381740Y-126440091D01*
X114064577Y-125965423D01*
X113712242Y-125730000D01*
X114064577Y-125494577D01*
X114381740Y-125019909D01*
X114493113Y-124460000D01*
X114381740Y-123900091D01*
X114064577Y-123425423D01*
X113943894Y-123344785D01*
X114077765Y-123318157D01*
X114287809Y-123177809D01*
X114428157Y-122967765D01*
X114477440Y-122720000D01*
X114477440Y-121920000D01*
X119186887Y-121920000D01*
X119298260Y-122479909D01*
X119615423Y-122954577D01*
X119967758Y-123190000D01*
X119615423Y-123425423D01*
X119298260Y-123900091D01*
X119186887Y-124460000D01*
X119298260Y-125019909D01*
X119615423Y-125494577D01*
X119967758Y-125730000D01*
X119615423Y-125965423D01*
X119298260Y-126440091D01*
X119186887Y-127000000D01*
X119298260Y-127559909D01*
X119615423Y-128034577D01*
X119967758Y-128270000D01*
X119615423Y-128505423D01*
X119298260Y-128980091D01*
X119186887Y-129540000D01*
X119298260Y-130099909D01*
X119615423Y-130574577D01*
X119967758Y-130810000D01*
X119615423Y-131045423D01*
X119298260Y-131520091D01*
X119186887Y-132080000D01*
X119298260Y-132639909D01*
X119615423Y-133114577D01*
X119967758Y-133350000D01*
X119615423Y-133585423D01*
X119298260Y-134060091D01*
X119186887Y-134620000D01*
X119298260Y-135179909D01*
X119615423Y-135654577D01*
X119967758Y-135890000D01*
X119615423Y-136125423D01*
X119298260Y-136600091D01*
X119186887Y-137160000D01*
X119298260Y-137719909D01*
X119615423Y-138194577D01*
X119967758Y-138430000D01*
X119615423Y-138665423D01*
X119298260Y-139140091D01*
X119186887Y-139700000D01*
X119298260Y-140259909D01*
X119615423Y-140734577D01*
X119967758Y-140970000D01*
X119615423Y-141205423D01*
X119298260Y-141680091D01*
X119186887Y-142240000D01*
X119298260Y-142799909D01*
X119615423Y-143274577D01*
X120090091Y-143591740D01*
X120508667Y-143675000D01*
X120791333Y-143675000D01*
X121209909Y-143591740D01*
X121684577Y-143274577D01*
X122001740Y-142799909D01*
X122113113Y-142240000D01*
X122001740Y-141680091D01*
X121684577Y-141205423D01*
X121332242Y-140970000D01*
X121684577Y-140734577D01*
X122001740Y-140259909D01*
X122113113Y-139700000D01*
X122001740Y-139140091D01*
X121684577Y-138665423D01*
X121332242Y-138430000D01*
X121684577Y-138194577D01*
X122001740Y-137719909D01*
X122113113Y-137160000D01*
X122001740Y-136600091D01*
X121684577Y-136125423D01*
X121332242Y-135890000D01*
X121684577Y-135654577D01*
X122001740Y-135179909D01*
X122113113Y-134620000D01*
X122001740Y-134060091D01*
X121684577Y-133585423D01*
X121332242Y-133350000D01*
X121684577Y-133114577D01*
X122001740Y-132639909D01*
X122113113Y-132080000D01*
X122001740Y-131520091D01*
X121684577Y-131045423D01*
X121332242Y-130810000D01*
X121684577Y-130574577D01*
X122001740Y-130099909D01*
X122113113Y-129540000D01*
X122001740Y-128980091D01*
X121684577Y-128505423D01*
X121332242Y-128270000D01*
X121684577Y-128034577D01*
X122001740Y-127559909D01*
X122113113Y-127000000D01*
X122001740Y-126440091D01*
X121684577Y-125965423D01*
X121332242Y-125730000D01*
X121684577Y-125494577D01*
X122001740Y-125019909D01*
X122113113Y-124460000D01*
X122001740Y-123900091D01*
X121684577Y-123425423D01*
X121332242Y-123190000D01*
X121684577Y-122954577D01*
X122001740Y-122479909D01*
X122113113Y-121920000D01*
X124368846Y-121920000D01*
X124472458Y-122440891D01*
X124767519Y-122882481D01*
X125209109Y-123177542D01*
X125598515Y-123255000D01*
X125861485Y-123255000D01*
X126250891Y-123177542D01*
X126692481Y-122882481D01*
X126987542Y-122440891D01*
X127000000Y-122378261D01*
X127012458Y-122440891D01*
X127307519Y-122882481D01*
X127749109Y-123177542D01*
X128138515Y-123255000D01*
X128401485Y-123255000D01*
X128790891Y-123177542D01*
X129232481Y-122882481D01*
X129527542Y-122440891D01*
X129540000Y-122378261D01*
X129552458Y-122440891D01*
X129847519Y-122882481D01*
X130289109Y-123177542D01*
X130678515Y-123255000D01*
X130941485Y-123255000D01*
X131330891Y-123177542D01*
X131772481Y-122882481D01*
X132067542Y-122440891D01*
X132080000Y-122378261D01*
X132092458Y-122440891D01*
X132387519Y-122882481D01*
X132829109Y-123177542D01*
X133218515Y-123255000D01*
X133481485Y-123255000D01*
X133870891Y-123177542D01*
X134312481Y-122882481D01*
X134607542Y-122440891D01*
X134620000Y-122378261D01*
X134632458Y-122440891D01*
X134927519Y-122882481D01*
X135369109Y-123177542D01*
X135758515Y-123255000D01*
X136021485Y-123255000D01*
X136410891Y-123177542D01*
X136852481Y-122882481D01*
X137147542Y-122440891D01*
X137160000Y-122378261D01*
X137172458Y-122440891D01*
X137467519Y-122882481D01*
X137909109Y-123177542D01*
X138298515Y-123255000D01*
X138561485Y-123255000D01*
X138950891Y-123177542D01*
X139392481Y-122882481D01*
X139687542Y-122440891D01*
X139707425Y-122340935D01*
X139712458Y-122366240D01*
X140007519Y-122807830D01*
X140449109Y-123102891D01*
X140838515Y-123180349D01*
X141101485Y-123180349D01*
X141490891Y-123102891D01*
X141932481Y-122807830D01*
X142227542Y-122366240D01*
X142240000Y-122303610D01*
X142252458Y-122366240D01*
X142547519Y-122807830D01*
X142989109Y-123102891D01*
X143378515Y-123180349D01*
X143641485Y-123180349D01*
X144030891Y-123102891D01*
X144472481Y-122807830D01*
X144767542Y-122366240D01*
X144871154Y-121845349D01*
X144767542Y-121324458D01*
X144472481Y-120882868D01*
X144030891Y-120587807D01*
X143641485Y-120510349D01*
X143378515Y-120510349D01*
X142989109Y-120587807D01*
X142547519Y-120882868D01*
X142252458Y-121324458D01*
X142240000Y-121387088D01*
X142227542Y-121324458D01*
X141932481Y-120882868D01*
X141490891Y-120587807D01*
X141101485Y-120510349D01*
X140838515Y-120510349D01*
X140449109Y-120587807D01*
X140007519Y-120882868D01*
X139712458Y-121324458D01*
X139692575Y-121424414D01*
X139687542Y-121399109D01*
X139392481Y-120957519D01*
X138950891Y-120662458D01*
X138561485Y-120585000D01*
X138298515Y-120585000D01*
X137909109Y-120662458D01*
X137467519Y-120957519D01*
X137172458Y-121399109D01*
X137160000Y-121461739D01*
X137147542Y-121399109D01*
X136852481Y-120957519D01*
X136410891Y-120662458D01*
X136021485Y-120585000D01*
X135758515Y-120585000D01*
X135369109Y-120662458D01*
X134927519Y-120957519D01*
X134632458Y-121399109D01*
X134620000Y-121461739D01*
X134607542Y-121399109D01*
X134312481Y-120957519D01*
X133870891Y-120662458D01*
X133481485Y-120585000D01*
X133218515Y-120585000D01*
X132829109Y-120662458D01*
X132387519Y-120957519D01*
X132092458Y-121399109D01*
X132080000Y-121461739D01*
X132067542Y-121399109D01*
X131772481Y-120957519D01*
X131330891Y-120662458D01*
X130941485Y-120585000D01*
X130678515Y-120585000D01*
X130289109Y-120662458D01*
X129847519Y-120957519D01*
X129552458Y-121399109D01*
X129540000Y-121461739D01*
X129527542Y-121399109D01*
X129232481Y-120957519D01*
X128790891Y-120662458D01*
X128401485Y-120585000D01*
X128138515Y-120585000D01*
X127749109Y-120662458D01*
X127307519Y-120957519D01*
X127012458Y-121399109D01*
X127000000Y-121461739D01*
X126987542Y-121399109D01*
X126692481Y-120957519D01*
X126250891Y-120662458D01*
X125861485Y-120585000D01*
X125598515Y-120585000D01*
X125209109Y-120662458D01*
X124767519Y-120957519D01*
X124472458Y-121399109D01*
X124368846Y-121920000D01*
X122113113Y-121920000D01*
X122001740Y-121360091D01*
X121684577Y-120885423D01*
X121209909Y-120568260D01*
X120791333Y-120485000D01*
X120508667Y-120485000D01*
X120090091Y-120568260D01*
X119615423Y-120885423D01*
X119298260Y-121360091D01*
X119186887Y-121920000D01*
X114477440Y-121920000D01*
X114477440Y-121120000D01*
X114428157Y-120872235D01*
X114287809Y-120662191D01*
X114077765Y-120521843D01*
X113830000Y-120472560D01*
X112230000Y-120472560D01*
X111982235Y-120521843D01*
X111772191Y-120662191D01*
X111631843Y-120872235D01*
X111589522Y-121085000D01*
X103498711Y-121085000D01*
X103456280Y-121042569D01*
X103075874Y-120885000D01*
X102664126Y-120885000D01*
X102283720Y-121042569D01*
X102241289Y-121085000D01*
X97896586Y-121085000D01*
X97983113Y-120650000D01*
X97871740Y-120090091D01*
X97554577Y-119615423D01*
X97170892Y-119359053D01*
X97375134Y-119262389D01*
X97751041Y-118847423D01*
X97911904Y-118459039D01*
X97789915Y-118237000D01*
X96647000Y-118237000D01*
X96647000Y-118257000D01*
X96393000Y-118257000D01*
X96393000Y-118237000D01*
X95250085Y-118237000D01*
X95128096Y-118459039D01*
X95288959Y-118847423D01*
X95664866Y-119262389D01*
X95869108Y-119359053D01*
X95485423Y-119615423D01*
X95352070Y-119815000D01*
X94608711Y-119815000D01*
X94566280Y-119772569D01*
X94185874Y-119615000D01*
X94125869Y-119615000D01*
X92271829Y-117760961D01*
X95128096Y-117760961D01*
X95250085Y-117983000D01*
X96393000Y-117983000D01*
X96393000Y-116839371D01*
X96647000Y-116839371D01*
X96647000Y-117983000D01*
X97789915Y-117983000D01*
X97911904Y-117760961D01*
X97751041Y-117372577D01*
X97375134Y-116957611D01*
X96869041Y-116718086D01*
X96647000Y-116839371D01*
X96393000Y-116839371D01*
X96170959Y-116718086D01*
X95664866Y-116957611D01*
X95288959Y-117372577D01*
X95128096Y-117760961D01*
X92271829Y-117760961D01*
X92088587Y-117577720D01*
X92042001Y-117507999D01*
X91765801Y-117323448D01*
X91522237Y-117275000D01*
X91522233Y-117275000D01*
X91440000Y-117258643D01*
X91357767Y-117275000D01*
X90340478Y-117275000D01*
X90298157Y-117062235D01*
X90157809Y-116852191D01*
X89947765Y-116711843D01*
X89700000Y-116662560D01*
X88100000Y-116662560D01*
X87852235Y-116711843D01*
X87642191Y-116852191D01*
X87501843Y-117062235D01*
X87452560Y-117310000D01*
X87452560Y-118910000D01*
X87501843Y-119157765D01*
X87642191Y-119367809D01*
X87852235Y-119508157D01*
X87986106Y-119534785D01*
X87865423Y-119615423D01*
X87732070Y-119815000D01*
X75036586Y-119815000D01*
X75123113Y-119380000D01*
X75011740Y-118820091D01*
X74694577Y-118345423D01*
X74310892Y-118089053D01*
X74515134Y-117992389D01*
X74891041Y-117577423D01*
X75051904Y-117189039D01*
X74929915Y-116967000D01*
X73787000Y-116967000D01*
X73787000Y-116987000D01*
X73533000Y-116987000D01*
X73533000Y-116967000D01*
X72390085Y-116967000D01*
X72268096Y-117189039D01*
X72428959Y-117577423D01*
X72804866Y-117992389D01*
X73009108Y-118089053D01*
X72625423Y-118345423D01*
X72308260Y-118820091D01*
X72196887Y-119380000D01*
X72283414Y-119815000D01*
X70567232Y-119815000D01*
X70484999Y-119798643D01*
X70402766Y-119815000D01*
X70402763Y-119815000D01*
X70159199Y-119863448D01*
X69882999Y-120047999D01*
X69836415Y-120117718D01*
X68869133Y-121085000D01*
X67207930Y-121085000D01*
X67074577Y-120885423D01*
X66722242Y-120650000D01*
X67074577Y-120414577D01*
X67391740Y-119939909D01*
X67503113Y-119380000D01*
X67391740Y-118820091D01*
X67074577Y-118345423D01*
X66953894Y-118264785D01*
X67087765Y-118238157D01*
X67297809Y-118097809D01*
X67438157Y-117887765D01*
X67487440Y-117640000D01*
X67487440Y-116490961D01*
X72268096Y-116490961D01*
X72390085Y-116713000D01*
X73533000Y-116713000D01*
X73533000Y-115569371D01*
X73787000Y-115569371D01*
X73787000Y-116713000D01*
X74929915Y-116713000D01*
X75051904Y-116490961D01*
X74891041Y-116102577D01*
X74515134Y-115687611D01*
X74009041Y-115448086D01*
X73787000Y-115569371D01*
X73533000Y-115569371D01*
X73310959Y-115448086D01*
X72804866Y-115687611D01*
X72428959Y-116102577D01*
X72268096Y-116490961D01*
X67487440Y-116490961D01*
X67487440Y-116040000D01*
X67438157Y-115792235D01*
X67297809Y-115582191D01*
X67087765Y-115441843D01*
X66840000Y-115392560D01*
X65240000Y-115392560D01*
X64992235Y-115441843D01*
X64782191Y-115582191D01*
X64641843Y-115792235D01*
X64592560Y-116040000D01*
X64592560Y-117640000D01*
X64641843Y-117887765D01*
X64782191Y-118097809D01*
X64992235Y-118238157D01*
X65126106Y-118264785D01*
X65005423Y-118345423D01*
X64688260Y-118820091D01*
X64576887Y-119380000D01*
X64688260Y-119939909D01*
X65005423Y-120414577D01*
X65357758Y-120650000D01*
X65005423Y-120885423D01*
X64688260Y-121360091D01*
X64576887Y-121920000D01*
X64663414Y-122355000D01*
X59772232Y-122355000D01*
X59689999Y-122338643D01*
X59607766Y-122355000D01*
X59607763Y-122355000D01*
X59364199Y-122403448D01*
X59087999Y-122587999D01*
X59041416Y-122657716D01*
X58274133Y-123425000D01*
X58214126Y-123425000D01*
X57833720Y-123582569D01*
X57542569Y-123873720D01*
X57385000Y-124254126D01*
X57385000Y-124665874D01*
X57542569Y-125046280D01*
X57833720Y-125337431D01*
X58214126Y-125495000D01*
X58625874Y-125495000D01*
X59006280Y-125337431D01*
X59297431Y-125046280D01*
X59455000Y-124665874D01*
X59455000Y-124605867D01*
X60035868Y-124025000D01*
X64663414Y-124025000D01*
X64576887Y-124460000D01*
X64663414Y-124895000D01*
X61042232Y-124895000D01*
X60959999Y-124878643D01*
X60877766Y-124895000D01*
X60877763Y-124895000D01*
X60634199Y-124943448D01*
X60357999Y-125127999D01*
X60311416Y-125197716D01*
X59544133Y-125965000D01*
X59484126Y-125965000D01*
X59103720Y-126122569D01*
X58812569Y-126413720D01*
X58655000Y-126794126D01*
X58655000Y-127205874D01*
X58812569Y-127586280D01*
X59103720Y-127877431D01*
X59484126Y-128035000D01*
X59895874Y-128035000D01*
X60276280Y-127877431D01*
X60567431Y-127586280D01*
X60725000Y-127205874D01*
X60725000Y-127145867D01*
X61305868Y-126565000D01*
X64663414Y-126565000D01*
X64576887Y-127000000D01*
X64663414Y-127435000D01*
X62312232Y-127435000D01*
X62229999Y-127418643D01*
X62147766Y-127435000D01*
X62147763Y-127435000D01*
X61904199Y-127483448D01*
X61627999Y-127667999D01*
X61581416Y-127737716D01*
X60814133Y-128505000D01*
X60754126Y-128505000D01*
X60373720Y-128662569D01*
X60082569Y-128953720D01*
X59925000Y-129334126D01*
X59925000Y-129745874D01*
X60082569Y-130126280D01*
X60373720Y-130417431D01*
X60754126Y-130575000D01*
X61165874Y-130575000D01*
X61546280Y-130417431D01*
X61837431Y-130126280D01*
X61995000Y-129745874D01*
X61995000Y-129685867D01*
X62575868Y-129105000D01*
X64663414Y-129105000D01*
X64576887Y-129540000D01*
X64663414Y-129975000D01*
X63582232Y-129975000D01*
X63499999Y-129958643D01*
X63417766Y-129975000D01*
X63417763Y-129975000D01*
X63174199Y-130023448D01*
X62897999Y-130207999D01*
X62851416Y-130277716D01*
X62084133Y-131045000D01*
X62024126Y-131045000D01*
X61643720Y-131202569D01*
X61352569Y-131493720D01*
X61195000Y-131874126D01*
X61195000Y-132285874D01*
X61352569Y-132666280D01*
X61643720Y-132957431D01*
X62024126Y-133115000D01*
X62435874Y-133115000D01*
X62816280Y-132957431D01*
X63107431Y-132666280D01*
X63265000Y-132285874D01*
X63265000Y-132225867D01*
X63845868Y-131645000D01*
X64663414Y-131645000D01*
X64576887Y-132080000D01*
X64688260Y-132639909D01*
X65005423Y-133114577D01*
X65357758Y-133350000D01*
X65005423Y-133585423D01*
X64688260Y-134060091D01*
X64576887Y-134620000D01*
X64688260Y-135179909D01*
X65005423Y-135654577D01*
X65480091Y-135971740D01*
X65898667Y-136055000D01*
X66181333Y-136055000D01*
X66599909Y-135971740D01*
X67074577Y-135654577D01*
X67391740Y-135179909D01*
X67503113Y-134620000D01*
X67391740Y-134060091D01*
X67074577Y-133585423D01*
X66722242Y-133350000D01*
X67074577Y-133114577D01*
X67391740Y-132639909D01*
X67503113Y-132080000D01*
X67416586Y-131645000D01*
X69132767Y-131645000D01*
X69215000Y-131661357D01*
X69297233Y-131645000D01*
X69297237Y-131645000D01*
X69540801Y-131596552D01*
X69817001Y-131412001D01*
X69863587Y-131342280D01*
X70830868Y-130375000D01*
X72492070Y-130375000D01*
X72625423Y-130574577D01*
X72977758Y-130810000D01*
X72625423Y-131045423D01*
X72308260Y-131520091D01*
X72196887Y-132080000D01*
X72308260Y-132639909D01*
X72625423Y-133114577D01*
X72977758Y-133350000D01*
X72625423Y-133585423D01*
X72308260Y-134060091D01*
X72196887Y-134620000D01*
X72308260Y-135179909D01*
X72625423Y-135654577D01*
X73100091Y-135971740D01*
X73518667Y-136055000D01*
X73801333Y-136055000D01*
X74219909Y-135971740D01*
X74694577Y-135654577D01*
X75011740Y-135179909D01*
X75123113Y-134620000D01*
X75011740Y-134060091D01*
X74694577Y-133585423D01*
X74342242Y-133350000D01*
X74694577Y-133114577D01*
X75011740Y-132639909D01*
X75123113Y-132080000D01*
X75011740Y-131520091D01*
X74694577Y-131045423D01*
X74342242Y-130810000D01*
X74694577Y-130574577D01*
X74827930Y-130375000D01*
X77994132Y-130375000D01*
X76937718Y-131431415D01*
X76868000Y-131477999D01*
X76821417Y-131547716D01*
X76821416Y-131547717D01*
X76683448Y-131754200D01*
X76618643Y-132080000D01*
X76635001Y-132162238D01*
X76635000Y-146974132D01*
X75854133Y-147755000D01*
X75036586Y-147755000D01*
X75123113Y-147320000D01*
X75011740Y-146760091D01*
X74694577Y-146285423D01*
X74310892Y-146029053D01*
X74515134Y-145932389D01*
X74891041Y-145517423D01*
X75051904Y-145129039D01*
X74929915Y-144907000D01*
X73787000Y-144907000D01*
X73787000Y-144927000D01*
X73533000Y-144927000D01*
X73533000Y-144907000D01*
X72390085Y-144907000D01*
X72268096Y-145129039D01*
X72428959Y-145517423D01*
X72804866Y-145932389D01*
X73009108Y-146029053D01*
X72625423Y-146285423D01*
X72308260Y-146760091D01*
X72196887Y-147320000D01*
X72283414Y-147755000D01*
X70567232Y-147755000D01*
X70484999Y-147738643D01*
X70402766Y-147755000D01*
X70402763Y-147755000D01*
X70159199Y-147803448D01*
X69882999Y-147987999D01*
X69836415Y-148057717D01*
X68869133Y-149025000D01*
X67207930Y-149025000D01*
X67074577Y-148825423D01*
X66722242Y-148590000D01*
X67074577Y-148354577D01*
X67391740Y-147879909D01*
X67503113Y-147320000D01*
X67391740Y-146760091D01*
X67074577Y-146285423D01*
X66953894Y-146204785D01*
X67087765Y-146178157D01*
X67297809Y-146037809D01*
X67438157Y-145827765D01*
X67487440Y-145580000D01*
X67487440Y-144430961D01*
X72268096Y-144430961D01*
X72390085Y-144653000D01*
X73533000Y-144653000D01*
X73533000Y-143509371D01*
X73787000Y-143509371D01*
X73787000Y-144653000D01*
X74929915Y-144653000D01*
X75051904Y-144430961D01*
X74891041Y-144042577D01*
X74515134Y-143627611D01*
X74009041Y-143388086D01*
X73787000Y-143509371D01*
X73533000Y-143509371D01*
X73310959Y-143388086D01*
X72804866Y-143627611D01*
X72428959Y-144042577D01*
X72268096Y-144430961D01*
X67487440Y-144430961D01*
X67487440Y-143980000D01*
X67438157Y-143732235D01*
X67297809Y-143522191D01*
X67087765Y-143381843D01*
X66840000Y-143332560D01*
X65240000Y-143332560D01*
X64992235Y-143381843D01*
X64782191Y-143522191D01*
X64641843Y-143732235D01*
X64592560Y-143980000D01*
X64592560Y-145580000D01*
X64641843Y-145827765D01*
X64782191Y-146037809D01*
X64992235Y-146178157D01*
X65126106Y-146204785D01*
X65005423Y-146285423D01*
X64688260Y-146760091D01*
X64576887Y-147320000D01*
X64688260Y-147879909D01*
X65005423Y-148354577D01*
X65357758Y-148590000D01*
X65005423Y-148825423D01*
X64688260Y-149300091D01*
X64576887Y-149860000D01*
X64663414Y-150295000D01*
X63170093Y-150295000D01*
X63265000Y-150065874D01*
X63265000Y-149654126D01*
X63107431Y-149273720D01*
X62816280Y-148982569D01*
X62435874Y-148825000D01*
X62024126Y-148825000D01*
X61643720Y-148982569D01*
X61595000Y-149031289D01*
X61546280Y-148982569D01*
X61165874Y-148825000D01*
X60754126Y-148825000D01*
X60373720Y-148982569D01*
X60325000Y-149031289D01*
X60276280Y-148982569D01*
X59895874Y-148825000D01*
X59484126Y-148825000D01*
X59103720Y-148982569D01*
X59055000Y-149031289D01*
X59006280Y-148982569D01*
X58625874Y-148825000D01*
X58214126Y-148825000D01*
X57833720Y-148982569D01*
X57542569Y-149273720D01*
X57385000Y-149654126D01*
X57385000Y-150065874D01*
X57542569Y-150446280D01*
X57585000Y-150488711D01*
X57585001Y-172002762D01*
X57568643Y-172085000D01*
X57633448Y-172410800D01*
X57633449Y-172410801D01*
X57818000Y-172687001D01*
X57887718Y-172733585D01*
X60007964Y-174853833D01*
X59925000Y-175054126D01*
X59925000Y-175465874D01*
X60082569Y-175846280D01*
X60125001Y-175888712D01*
X60125001Y-177574450D01*
X59886735Y-177621843D01*
X59682101Y-177758576D01*
X59605198Y-177681673D01*
X59371809Y-177585000D01*
X58705750Y-177585000D01*
X58547000Y-177743750D01*
X58547000Y-178308000D01*
X58293000Y-178308000D01*
X58293000Y-177743750D01*
X58134250Y-177585000D01*
X57468191Y-177585000D01*
X57234802Y-177681673D01*
X57150000Y-177766475D01*
X57065198Y-177681673D01*
X56831809Y-177585000D01*
X56165750Y-177585000D01*
X56007000Y-177743750D01*
X56007000Y-178308000D01*
X55753000Y-178308000D01*
X55753000Y-177743750D01*
X55594250Y-177585000D01*
X54928191Y-177585000D01*
X54694802Y-177681673D01*
X54516173Y-177860301D01*
X54419500Y-178093690D01*
X54419500Y-178308000D01*
X54050000Y-178308000D01*
X54050000Y-175329925D01*
X54063909Y-175260000D01*
X54008805Y-174982972D01*
X53851881Y-174748119D01*
X53617028Y-174591195D01*
X53409926Y-174550000D01*
X53409925Y-174550000D01*
X53340000Y-174536091D01*
X53270074Y-174550000D01*
X51510000Y-174550000D01*
X51510000Y-139414561D01*
X65875000Y-139414561D01*
X65875000Y-139985439D01*
X66093466Y-140512862D01*
X66497138Y-140916534D01*
X67024561Y-141135000D01*
X67595439Y-141135000D01*
X68122862Y-140916534D01*
X68331651Y-140707745D01*
X71481861Y-140707745D01*
X71555995Y-140953864D01*
X72093223Y-141146965D01*
X72663454Y-141119778D01*
X73064005Y-140953864D01*
X73138139Y-140707745D01*
X72310000Y-139879605D01*
X71481861Y-140707745D01*
X68331651Y-140707745D01*
X68526534Y-140512862D01*
X68745000Y-139985439D01*
X68745000Y-139483223D01*
X70863035Y-139483223D01*
X70890222Y-140053454D01*
X71056136Y-140454005D01*
X71302255Y-140528139D01*
X72130395Y-139700000D01*
X72489605Y-139700000D01*
X73317745Y-140528139D01*
X73563864Y-140454005D01*
X73756965Y-139916777D01*
X73729778Y-139346546D01*
X73563864Y-138945995D01*
X73317745Y-138871861D01*
X72489605Y-139700000D01*
X72130395Y-139700000D01*
X71302255Y-138871861D01*
X71056136Y-138945995D01*
X70863035Y-139483223D01*
X68745000Y-139483223D01*
X68745000Y-139414561D01*
X68526534Y-138887138D01*
X68331651Y-138692255D01*
X71481861Y-138692255D01*
X72310000Y-139520395D01*
X73138139Y-138692255D01*
X73064005Y-138446136D01*
X72526777Y-138253035D01*
X71956546Y-138280222D01*
X71555995Y-138446136D01*
X71481861Y-138692255D01*
X68331651Y-138692255D01*
X68122862Y-138483466D01*
X67595439Y-138265000D01*
X67024561Y-138265000D01*
X66497138Y-138483466D01*
X66093466Y-138887138D01*
X65875000Y-139414561D01*
X51510000Y-139414561D01*
X51510000Y-111474561D01*
X65875000Y-111474561D01*
X65875000Y-112045439D01*
X66093466Y-112572862D01*
X66497138Y-112976534D01*
X67024561Y-113195000D01*
X67595439Y-113195000D01*
X68122862Y-112976534D01*
X68331651Y-112767745D01*
X71481861Y-112767745D01*
X71555995Y-113013864D01*
X72093223Y-113206965D01*
X72663454Y-113179778D01*
X73064005Y-113013864D01*
X73138139Y-112767745D01*
X73114956Y-112744561D01*
X88735000Y-112744561D01*
X88735000Y-113315439D01*
X88953466Y-113842862D01*
X89357138Y-114246534D01*
X89884561Y-114465000D01*
X90455439Y-114465000D01*
X90982862Y-114246534D01*
X91191651Y-114037745D01*
X94341861Y-114037745D01*
X94415995Y-114283864D01*
X94953223Y-114476965D01*
X95523454Y-114449778D01*
X95924005Y-114283864D01*
X95998139Y-114037745D01*
X95994847Y-114034452D01*
X124395000Y-114034452D01*
X124395000Y-114565548D01*
X124598242Y-115056217D01*
X124973783Y-115431758D01*
X125464452Y-115635000D01*
X125995548Y-115635000D01*
X126486217Y-115431758D01*
X126861758Y-115056217D01*
X127000000Y-114722472D01*
X127138242Y-115056217D01*
X127513783Y-115431758D01*
X128004452Y-115635000D01*
X128535548Y-115635000D01*
X129026217Y-115431758D01*
X129401758Y-115056217D01*
X129540000Y-114722472D01*
X129678242Y-115056217D01*
X130053783Y-115431758D01*
X130544452Y-115635000D01*
X131075548Y-115635000D01*
X131566217Y-115431758D01*
X131941758Y-115056217D01*
X132080000Y-114722472D01*
X132218242Y-115056217D01*
X132593783Y-115431758D01*
X133084452Y-115635000D01*
X133615548Y-115635000D01*
X134106217Y-115431758D01*
X134481758Y-115056217D01*
X134620000Y-114722472D01*
X134758242Y-115056217D01*
X135133783Y-115431758D01*
X135624452Y-115635000D01*
X136155548Y-115635000D01*
X136646217Y-115431758D01*
X137021758Y-115056217D01*
X137160000Y-114722472D01*
X137298242Y-115056217D01*
X137673783Y-115431758D01*
X138164452Y-115635000D01*
X138695548Y-115635000D01*
X139186217Y-115431758D01*
X139561758Y-115056217D01*
X139715461Y-114685146D01*
X139838242Y-114981566D01*
X140213783Y-115357107D01*
X140704452Y-115560349D01*
X141235548Y-115560349D01*
X141726217Y-115357107D01*
X142101758Y-114981566D01*
X142240000Y-114647821D01*
X142378242Y-114981566D01*
X142753783Y-115357107D01*
X143244452Y-115560349D01*
X143775548Y-115560349D01*
X144266217Y-115357107D01*
X144641758Y-114981566D01*
X144845000Y-114490897D01*
X144845000Y-113959801D01*
X144641758Y-113469132D01*
X144266217Y-113093591D01*
X143775548Y-112890349D01*
X143244452Y-112890349D01*
X142753783Y-113093591D01*
X142378242Y-113469132D01*
X142240000Y-113802877D01*
X142101758Y-113469132D01*
X141726217Y-113093591D01*
X141235548Y-112890349D01*
X140704452Y-112890349D01*
X140213783Y-113093591D01*
X139838242Y-113469132D01*
X139684539Y-113840203D01*
X139561758Y-113543783D01*
X139186217Y-113168242D01*
X138695548Y-112965000D01*
X138164452Y-112965000D01*
X137673783Y-113168242D01*
X137298242Y-113543783D01*
X137160000Y-113877528D01*
X137021758Y-113543783D01*
X136646217Y-113168242D01*
X136155548Y-112965000D01*
X135624452Y-112965000D01*
X135133783Y-113168242D01*
X134758242Y-113543783D01*
X134620000Y-113877528D01*
X134481758Y-113543783D01*
X134106217Y-113168242D01*
X133615548Y-112965000D01*
X133084452Y-112965000D01*
X132593783Y-113168242D01*
X132218242Y-113543783D01*
X132080000Y-113877528D01*
X131941758Y-113543783D01*
X131566217Y-113168242D01*
X131075548Y-112965000D01*
X130544452Y-112965000D01*
X130053783Y-113168242D01*
X129678242Y-113543783D01*
X129540000Y-113877528D01*
X129401758Y-113543783D01*
X129026217Y-113168242D01*
X128535548Y-112965000D01*
X128004452Y-112965000D01*
X127513783Y-113168242D01*
X127138242Y-113543783D01*
X127000000Y-113877528D01*
X126861758Y-113543783D01*
X126486217Y-113168242D01*
X125995548Y-112965000D01*
X125464452Y-112965000D01*
X124973783Y-113168242D01*
X124598242Y-113543783D01*
X124395000Y-114034452D01*
X95994847Y-114034452D01*
X95170000Y-113209605D01*
X94341861Y-114037745D01*
X91191651Y-114037745D01*
X91386534Y-113842862D01*
X91605000Y-113315439D01*
X91605000Y-112813223D01*
X93723035Y-112813223D01*
X93750222Y-113383454D01*
X93916136Y-113784005D01*
X94162255Y-113858139D01*
X94990395Y-113030000D01*
X95349605Y-113030000D01*
X96177745Y-113858139D01*
X96423864Y-113784005D01*
X96616965Y-113246777D01*
X96589778Y-112676546D01*
X96423864Y-112275995D01*
X96177745Y-112201861D01*
X95349605Y-113030000D01*
X94990395Y-113030000D01*
X94162255Y-112201861D01*
X93916136Y-112275995D01*
X93723035Y-112813223D01*
X91605000Y-112813223D01*
X91605000Y-112744561D01*
X91386534Y-112217138D01*
X91191651Y-112022255D01*
X94341861Y-112022255D01*
X95170000Y-112850395D01*
X95998139Y-112022255D01*
X95924005Y-111776136D01*
X95386777Y-111583035D01*
X94816546Y-111610222D01*
X94415995Y-111776136D01*
X94341861Y-112022255D01*
X91191651Y-112022255D01*
X90982862Y-111813466D01*
X90455439Y-111595000D01*
X89884561Y-111595000D01*
X89357138Y-111813466D01*
X88953466Y-112217138D01*
X88735000Y-112744561D01*
X73114956Y-112744561D01*
X72310000Y-111939605D01*
X71481861Y-112767745D01*
X68331651Y-112767745D01*
X68526534Y-112572862D01*
X68745000Y-112045439D01*
X68745000Y-111543223D01*
X70863035Y-111543223D01*
X70890222Y-112113454D01*
X71056136Y-112514005D01*
X71302255Y-112588139D01*
X72130395Y-111760000D01*
X72489605Y-111760000D01*
X73317745Y-112588139D01*
X73563864Y-112514005D01*
X73756965Y-111976777D01*
X73729778Y-111406546D01*
X73563864Y-111005995D01*
X73317745Y-110931861D01*
X72489605Y-111760000D01*
X72130395Y-111760000D01*
X71302255Y-110931861D01*
X71056136Y-111005995D01*
X70863035Y-111543223D01*
X68745000Y-111543223D01*
X68745000Y-111474561D01*
X68526534Y-110947138D01*
X68331651Y-110752255D01*
X71481861Y-110752255D01*
X72310000Y-111580395D01*
X73138139Y-110752255D01*
X73064005Y-110506136D01*
X72526777Y-110313035D01*
X71956546Y-110340222D01*
X71555995Y-110506136D01*
X71481861Y-110752255D01*
X68331651Y-110752255D01*
X68122862Y-110543466D01*
X67595439Y-110325000D01*
X67024561Y-110325000D01*
X66497138Y-110543466D01*
X66093466Y-110947138D01*
X65875000Y-111474561D01*
X51510000Y-111474561D01*
X51510000Y-103899336D01*
X89893542Y-103899336D01*
X89919161Y-104509460D01*
X90103357Y-104954148D01*
X90359841Y-105040554D01*
X91260395Y-104140000D01*
X90359841Y-103239446D01*
X90103357Y-103325852D01*
X89893542Y-103899336D01*
X51510000Y-103899336D01*
X51510000Y-103059841D01*
X90539446Y-103059841D01*
X91440000Y-103960395D01*
X91454143Y-103946253D01*
X91633748Y-104125858D01*
X91619605Y-104140000D01*
X91633748Y-104154143D01*
X91454143Y-104333748D01*
X91440000Y-104319605D01*
X90539446Y-105220159D01*
X90625852Y-105476643D01*
X91199336Y-105686458D01*
X91809460Y-105660839D01*
X92254148Y-105476643D01*
X92340553Y-105220161D01*
X92455110Y-105334718D01*
X92489942Y-105299886D01*
X92622191Y-105497809D01*
X92832235Y-105638157D01*
X93080000Y-105687440D01*
X94880000Y-105687440D01*
X95127765Y-105638157D01*
X95337809Y-105497809D01*
X95478157Y-105287765D01*
X95527440Y-105040000D01*
X95527440Y-103899336D01*
X97513542Y-103899336D01*
X97539161Y-104509460D01*
X97723357Y-104954148D01*
X97979841Y-105040554D01*
X98880395Y-104140000D01*
X97979841Y-103239446D01*
X97723357Y-103325852D01*
X97513542Y-103899336D01*
X95527440Y-103899336D01*
X95527440Y-103240000D01*
X95491605Y-103059841D01*
X98159446Y-103059841D01*
X99060000Y-103960395D01*
X99074143Y-103946253D01*
X99253748Y-104125858D01*
X99239605Y-104140000D01*
X99253748Y-104154143D01*
X99074143Y-104333748D01*
X99060000Y-104319605D01*
X98159446Y-105220159D01*
X98245852Y-105476643D01*
X98819336Y-105686458D01*
X99429460Y-105660839D01*
X99874148Y-105476643D01*
X99960553Y-105220161D01*
X100075110Y-105334718D01*
X100109942Y-105299886D01*
X100242191Y-105497809D01*
X100452235Y-105638157D01*
X100700000Y-105687440D01*
X102500000Y-105687440D01*
X102747765Y-105638157D01*
X102957809Y-105497809D01*
X103098157Y-105287765D01*
X103147440Y-105040000D01*
X103147440Y-103899336D01*
X105133542Y-103899336D01*
X105159161Y-104509460D01*
X105343357Y-104954148D01*
X105599841Y-105040554D01*
X106500395Y-104140000D01*
X105599841Y-103239446D01*
X105343357Y-103325852D01*
X105133542Y-103899336D01*
X103147440Y-103899336D01*
X103147440Y-103240000D01*
X103111605Y-103059841D01*
X105779446Y-103059841D01*
X106680000Y-103960395D01*
X106694143Y-103946253D01*
X106873748Y-104125858D01*
X106859605Y-104140000D01*
X106873748Y-104154143D01*
X106694143Y-104333748D01*
X106680000Y-104319605D01*
X105779446Y-105220159D01*
X105865852Y-105476643D01*
X106439336Y-105686458D01*
X107049460Y-105660839D01*
X107494148Y-105476643D01*
X107580553Y-105220161D01*
X107695110Y-105334718D01*
X107729942Y-105299886D01*
X107862191Y-105497809D01*
X108072235Y-105638157D01*
X108320000Y-105687440D01*
X110120000Y-105687440D01*
X110367765Y-105638157D01*
X110577809Y-105497809D01*
X110718157Y-105287765D01*
X110767440Y-105040000D01*
X110767440Y-103899336D01*
X112753542Y-103899336D01*
X112779161Y-104509460D01*
X112963357Y-104954148D01*
X113219841Y-105040554D01*
X114120395Y-104140000D01*
X113219841Y-103239446D01*
X112963357Y-103325852D01*
X112753542Y-103899336D01*
X110767440Y-103899336D01*
X110767440Y-103240000D01*
X110731605Y-103059841D01*
X113399446Y-103059841D01*
X114300000Y-103960395D01*
X114314143Y-103946253D01*
X114493748Y-104125858D01*
X114479605Y-104140000D01*
X114493748Y-104154143D01*
X114314143Y-104333748D01*
X114300000Y-104319605D01*
X113399446Y-105220159D01*
X113485852Y-105476643D01*
X114059336Y-105686458D01*
X114669460Y-105660839D01*
X115114148Y-105476643D01*
X115200553Y-105220161D01*
X115315110Y-105334718D01*
X115349942Y-105299886D01*
X115482191Y-105497809D01*
X115692235Y-105638157D01*
X115940000Y-105687440D01*
X117740000Y-105687440D01*
X117987765Y-105638157D01*
X118197809Y-105497809D01*
X118338157Y-105287765D01*
X118387440Y-105040000D01*
X118387440Y-103899336D01*
X120373542Y-103899336D01*
X120399161Y-104509460D01*
X120583357Y-104954148D01*
X120839841Y-105040554D01*
X121740395Y-104140000D01*
X120839841Y-103239446D01*
X120583357Y-103325852D01*
X120373542Y-103899336D01*
X118387440Y-103899336D01*
X118387440Y-103240000D01*
X118351605Y-103059841D01*
X121019446Y-103059841D01*
X121920000Y-103960395D01*
X121934143Y-103946253D01*
X122113748Y-104125858D01*
X122099605Y-104140000D01*
X122113748Y-104154143D01*
X121934143Y-104333748D01*
X121920000Y-104319605D01*
X121019446Y-105220159D01*
X121105852Y-105476643D01*
X121679336Y-105686458D01*
X122289460Y-105660839D01*
X122734148Y-105476643D01*
X122820553Y-105220161D01*
X122935110Y-105334718D01*
X122969942Y-105299886D01*
X123102191Y-105497809D01*
X123312235Y-105638157D01*
X123560000Y-105687440D01*
X125360000Y-105687440D01*
X125607765Y-105638157D01*
X125817809Y-105497809D01*
X125958157Y-105287765D01*
X126007440Y-105040000D01*
X126007440Y-103899336D01*
X127993542Y-103899336D01*
X128019161Y-104509460D01*
X128203357Y-104954148D01*
X128459841Y-105040554D01*
X129360395Y-104140000D01*
X128459841Y-103239446D01*
X128203357Y-103325852D01*
X127993542Y-103899336D01*
X126007440Y-103899336D01*
X126007440Y-103240000D01*
X125971605Y-103059841D01*
X128639446Y-103059841D01*
X129540000Y-103960395D01*
X129554143Y-103946253D01*
X129733748Y-104125858D01*
X129719605Y-104140000D01*
X129733748Y-104154143D01*
X129554143Y-104333748D01*
X129540000Y-104319605D01*
X128639446Y-105220159D01*
X128725852Y-105476643D01*
X129299336Y-105686458D01*
X129909460Y-105660839D01*
X130354148Y-105476643D01*
X130440553Y-105220161D01*
X130555110Y-105334718D01*
X130589942Y-105299886D01*
X130722191Y-105497809D01*
X130932235Y-105638157D01*
X131180000Y-105687440D01*
X132980000Y-105687440D01*
X133227765Y-105638157D01*
X133437809Y-105497809D01*
X133578157Y-105287765D01*
X133627440Y-105040000D01*
X133627440Y-103899336D01*
X135613542Y-103899336D01*
X135639161Y-104509460D01*
X135823357Y-104954148D01*
X136079841Y-105040554D01*
X136980395Y-104140000D01*
X136079841Y-103239446D01*
X135823357Y-103325852D01*
X135613542Y-103899336D01*
X133627440Y-103899336D01*
X133627440Y-103240000D01*
X133591605Y-103059841D01*
X136259446Y-103059841D01*
X137160000Y-103960395D01*
X137174143Y-103946253D01*
X137353748Y-104125858D01*
X137339605Y-104140000D01*
X137353748Y-104154143D01*
X137174143Y-104333748D01*
X137160000Y-104319605D01*
X136259446Y-105220159D01*
X136345852Y-105476643D01*
X136919336Y-105686458D01*
X137529460Y-105660839D01*
X137974148Y-105476643D01*
X138060553Y-105220161D01*
X138175110Y-105334718D01*
X138209942Y-105299886D01*
X138342191Y-105497809D01*
X138552235Y-105638157D01*
X138800000Y-105687440D01*
X140600000Y-105687440D01*
X140847765Y-105638157D01*
X141057809Y-105497809D01*
X141198157Y-105287765D01*
X141247440Y-105040000D01*
X141247440Y-103899336D01*
X143233542Y-103899336D01*
X143259161Y-104509460D01*
X143443357Y-104954148D01*
X143699841Y-105040554D01*
X144600395Y-104140000D01*
X143699841Y-103239446D01*
X143443357Y-103325852D01*
X143233542Y-103899336D01*
X141247440Y-103899336D01*
X141247440Y-103240000D01*
X141211605Y-103059841D01*
X143879446Y-103059841D01*
X144780000Y-103960395D01*
X144794143Y-103946253D01*
X144973748Y-104125858D01*
X144959605Y-104140000D01*
X144973748Y-104154143D01*
X144794143Y-104333748D01*
X144780000Y-104319605D01*
X143879446Y-105220159D01*
X143965852Y-105476643D01*
X144539336Y-105686458D01*
X145149460Y-105660839D01*
X145594148Y-105476643D01*
X145680553Y-105220161D01*
X145795110Y-105334718D01*
X145829942Y-105299886D01*
X145962191Y-105497809D01*
X146172235Y-105638157D01*
X146420000Y-105687440D01*
X148220000Y-105687440D01*
X148467765Y-105638157D01*
X148677809Y-105497809D01*
X148818157Y-105287765D01*
X148867440Y-105040000D01*
X148867440Y-103240000D01*
X148818157Y-102992235D01*
X148677809Y-102782191D01*
X148467765Y-102641843D01*
X148220000Y-102592560D01*
X146420000Y-102592560D01*
X146172235Y-102641843D01*
X145962191Y-102782191D01*
X145829942Y-102980114D01*
X145795110Y-102945282D01*
X145680553Y-103059839D01*
X145594148Y-102803357D01*
X145020664Y-102593542D01*
X144410540Y-102619161D01*
X143965852Y-102803357D01*
X143879446Y-103059841D01*
X141211605Y-103059841D01*
X141198157Y-102992235D01*
X141057809Y-102782191D01*
X140847765Y-102641843D01*
X140600000Y-102592560D01*
X138800000Y-102592560D01*
X138552235Y-102641843D01*
X138342191Y-102782191D01*
X138209942Y-102980114D01*
X138175110Y-102945282D01*
X138060553Y-103059839D01*
X137974148Y-102803357D01*
X137400664Y-102593542D01*
X136790540Y-102619161D01*
X136345852Y-102803357D01*
X136259446Y-103059841D01*
X133591605Y-103059841D01*
X133578157Y-102992235D01*
X133437809Y-102782191D01*
X133227765Y-102641843D01*
X132980000Y-102592560D01*
X131180000Y-102592560D01*
X130932235Y-102641843D01*
X130722191Y-102782191D01*
X130589942Y-102980114D01*
X130555110Y-102945282D01*
X130440553Y-103059839D01*
X130354148Y-102803357D01*
X129780664Y-102593542D01*
X129170540Y-102619161D01*
X128725852Y-102803357D01*
X128639446Y-103059841D01*
X125971605Y-103059841D01*
X125958157Y-102992235D01*
X125817809Y-102782191D01*
X125607765Y-102641843D01*
X125360000Y-102592560D01*
X123560000Y-102592560D01*
X123312235Y-102641843D01*
X123102191Y-102782191D01*
X122969942Y-102980114D01*
X122935110Y-102945282D01*
X122820553Y-103059839D01*
X122734148Y-102803357D01*
X122160664Y-102593542D01*
X121550540Y-102619161D01*
X121105852Y-102803357D01*
X121019446Y-103059841D01*
X118351605Y-103059841D01*
X118338157Y-102992235D01*
X118197809Y-102782191D01*
X117987765Y-102641843D01*
X117740000Y-102592560D01*
X115940000Y-102592560D01*
X115692235Y-102641843D01*
X115482191Y-102782191D01*
X115349942Y-102980114D01*
X115315110Y-102945282D01*
X115200553Y-103059839D01*
X115114148Y-102803357D01*
X114540664Y-102593542D01*
X113930540Y-102619161D01*
X113485852Y-102803357D01*
X113399446Y-103059841D01*
X110731605Y-103059841D01*
X110718157Y-102992235D01*
X110577809Y-102782191D01*
X110367765Y-102641843D01*
X110120000Y-102592560D01*
X108320000Y-102592560D01*
X108072235Y-102641843D01*
X107862191Y-102782191D01*
X107729942Y-102980114D01*
X107695110Y-102945282D01*
X107580553Y-103059839D01*
X107494148Y-102803357D01*
X106920664Y-102593542D01*
X106310540Y-102619161D01*
X105865852Y-102803357D01*
X105779446Y-103059841D01*
X103111605Y-103059841D01*
X103098157Y-102992235D01*
X102957809Y-102782191D01*
X102747765Y-102641843D01*
X102500000Y-102592560D01*
X100700000Y-102592560D01*
X100452235Y-102641843D01*
X100242191Y-102782191D01*
X100109942Y-102980114D01*
X100075110Y-102945282D01*
X99960553Y-103059839D01*
X99874148Y-102803357D01*
X99300664Y-102593542D01*
X98690540Y-102619161D01*
X98245852Y-102803357D01*
X98159446Y-103059841D01*
X95491605Y-103059841D01*
X95478157Y-102992235D01*
X95337809Y-102782191D01*
X95127765Y-102641843D01*
X94880000Y-102592560D01*
X93080000Y-102592560D01*
X92832235Y-102641843D01*
X92622191Y-102782191D01*
X92489942Y-102980114D01*
X92455110Y-102945282D01*
X92340553Y-103059839D01*
X92254148Y-102803357D01*
X91680664Y-102593542D01*
X91070540Y-102619161D01*
X90625852Y-102803357D01*
X90539446Y-103059841D01*
X51510000Y-103059841D01*
X51510000Y-102310000D01*
X149150001Y-102310000D01*
X149150000Y-174550000D01*
G04 #@! TO.N,GND*
G36*
X72196887Y-160020000D02*
X72308260Y-160579909D01*
X72625423Y-161054577D01*
X72977758Y-161290000D01*
X72625423Y-161525423D01*
X72308260Y-162000091D01*
X72196887Y-162560000D01*
X72308260Y-163119909D01*
X72625423Y-163594577D01*
X73100091Y-163911740D01*
X73518667Y-163995000D01*
X73801333Y-163995000D01*
X74219909Y-163911740D01*
X74694577Y-163594577D01*
X75011740Y-163119909D01*
X75123113Y-162560000D01*
X75011740Y-162000091D01*
X74694577Y-161525423D01*
X74342242Y-161290000D01*
X74694577Y-161054577D01*
X74827930Y-160855000D01*
X76073000Y-160855000D01*
X76073000Y-161525000D01*
X75994126Y-161525000D01*
X75613720Y-161682569D01*
X75322569Y-161973720D01*
X75165000Y-162354126D01*
X75165000Y-162765874D01*
X75322569Y-163146280D01*
X75613720Y-163437431D01*
X75994126Y-163595000D01*
X76054133Y-163595000D01*
X76821415Y-164362282D01*
X76867999Y-164432001D01*
X77144199Y-164616552D01*
X77387763Y-164665000D01*
X77387766Y-164665000D01*
X77469999Y-164681357D01*
X77552232Y-164665000D01*
X87284133Y-164665000D01*
X88065001Y-165445869D01*
X88065000Y-174631289D01*
X88022569Y-174673720D01*
X87865000Y-175054126D01*
X87865000Y-175465874D01*
X88022569Y-175846280D01*
X88065000Y-175888711D01*
X88065000Y-177574450D01*
X87826735Y-177621843D01*
X87622101Y-177758576D01*
X87545198Y-177681673D01*
X87311809Y-177585000D01*
X86645750Y-177585000D01*
X86487000Y-177743750D01*
X86487000Y-178308000D01*
X86233000Y-178308000D01*
X86233000Y-177743750D01*
X86074250Y-177585000D01*
X85408191Y-177585000D01*
X85174802Y-177681673D01*
X85097899Y-177758576D01*
X84893265Y-177621843D01*
X84655000Y-177574450D01*
X84655000Y-175888711D01*
X84697431Y-175846280D01*
X84855000Y-175465874D01*
X84855000Y-175054126D01*
X84697431Y-174673720D01*
X84655000Y-174631289D01*
X84655000Y-167722232D01*
X84671357Y-167639999D01*
X84655000Y-167557766D01*
X84655000Y-167557763D01*
X84606552Y-167314199D01*
X84422001Y-167037999D01*
X84352282Y-166991415D01*
X83198587Y-165837720D01*
X83152001Y-165767999D01*
X82875801Y-165583448D01*
X82632237Y-165535000D01*
X82632233Y-165535000D01*
X82550000Y-165518643D01*
X82467767Y-165535000D01*
X70830868Y-165535000D01*
X70050000Y-164754133D01*
X70050000Y-160648711D01*
X70092431Y-160606280D01*
X70250000Y-160225874D01*
X70250000Y-159814126D01*
X70124856Y-159512000D01*
X72297935Y-159512000D01*
X72196887Y-160020000D01*
X72196887Y-160020000D01*
G37*
X72196887Y-160020000D02*
X72308260Y-160579909D01*
X72625423Y-161054577D01*
X72977758Y-161290000D01*
X72625423Y-161525423D01*
X72308260Y-162000091D01*
X72196887Y-162560000D01*
X72308260Y-163119909D01*
X72625423Y-163594577D01*
X73100091Y-163911740D01*
X73518667Y-163995000D01*
X73801333Y-163995000D01*
X74219909Y-163911740D01*
X74694577Y-163594577D01*
X75011740Y-163119909D01*
X75123113Y-162560000D01*
X75011740Y-162000091D01*
X74694577Y-161525423D01*
X74342242Y-161290000D01*
X74694577Y-161054577D01*
X74827930Y-160855000D01*
X76073000Y-160855000D01*
X76073000Y-161525000D01*
X75994126Y-161525000D01*
X75613720Y-161682569D01*
X75322569Y-161973720D01*
X75165000Y-162354126D01*
X75165000Y-162765874D01*
X75322569Y-163146280D01*
X75613720Y-163437431D01*
X75994126Y-163595000D01*
X76054133Y-163595000D01*
X76821415Y-164362282D01*
X76867999Y-164432001D01*
X77144199Y-164616552D01*
X77387763Y-164665000D01*
X77387766Y-164665000D01*
X77469999Y-164681357D01*
X77552232Y-164665000D01*
X87284133Y-164665000D01*
X88065001Y-165445869D01*
X88065000Y-174631289D01*
X88022569Y-174673720D01*
X87865000Y-175054126D01*
X87865000Y-175465874D01*
X88022569Y-175846280D01*
X88065000Y-175888711D01*
X88065000Y-177574450D01*
X87826735Y-177621843D01*
X87622101Y-177758576D01*
X87545198Y-177681673D01*
X87311809Y-177585000D01*
X86645750Y-177585000D01*
X86487000Y-177743750D01*
X86487000Y-178308000D01*
X86233000Y-178308000D01*
X86233000Y-177743750D01*
X86074250Y-177585000D01*
X85408191Y-177585000D01*
X85174802Y-177681673D01*
X85097899Y-177758576D01*
X84893265Y-177621843D01*
X84655000Y-177574450D01*
X84655000Y-175888711D01*
X84697431Y-175846280D01*
X84855000Y-175465874D01*
X84855000Y-175054126D01*
X84697431Y-174673720D01*
X84655000Y-174631289D01*
X84655000Y-167722232D01*
X84671357Y-167639999D01*
X84655000Y-167557766D01*
X84655000Y-167557763D01*
X84606552Y-167314199D01*
X84422001Y-167037999D01*
X84352282Y-166991415D01*
X83198587Y-165837720D01*
X83152001Y-165767999D01*
X82875801Y-165583448D01*
X82632237Y-165535000D01*
X82632233Y-165535000D01*
X82550000Y-165518643D01*
X82467767Y-165535000D01*
X70830868Y-165535000D01*
X70050000Y-164754133D01*
X70050000Y-160648711D01*
X70092431Y-160606280D01*
X70250000Y-160225874D01*
X70250000Y-159814126D01*
X70124856Y-159512000D01*
X72297935Y-159512000D01*
X72196887Y-160020000D01*
G36*
X64576887Y-160020000D02*
X64688260Y-160579909D01*
X65005423Y-161054577D01*
X65389108Y-161310947D01*
X65184866Y-161407611D01*
X64808959Y-161822577D01*
X64648096Y-162210961D01*
X64770085Y-162433000D01*
X65913000Y-162433000D01*
X65913000Y-162413000D01*
X66167000Y-162413000D01*
X66167000Y-162433000D01*
X67309915Y-162433000D01*
X67431904Y-162210961D01*
X67271041Y-161822577D01*
X66895134Y-161407611D01*
X66690892Y-161310947D01*
X67074577Y-161054577D01*
X67207930Y-160855000D01*
X68380001Y-160855000D01*
X68380000Y-165017767D01*
X68363643Y-165100000D01*
X68380000Y-165182233D01*
X68380000Y-165182236D01*
X68428448Y-165425800D01*
X68612999Y-165702001D01*
X68682720Y-165748587D01*
X69836415Y-166902282D01*
X69882999Y-166972001D01*
X70159199Y-167156552D01*
X70402763Y-167205000D01*
X70402766Y-167205000D01*
X70484999Y-167221357D01*
X70567232Y-167205000D01*
X82204133Y-167205000D01*
X82985001Y-167985869D01*
X82985000Y-174631289D01*
X82942569Y-174673720D01*
X82785000Y-175054126D01*
X82785000Y-175465874D01*
X82942569Y-175846280D01*
X82985000Y-175888711D01*
X82985000Y-177574450D01*
X82746735Y-177621843D01*
X82541202Y-177759177D01*
X82463698Y-177681673D01*
X82230309Y-177585000D01*
X81720750Y-177585000D01*
X81562000Y-177743750D01*
X81562000Y-178308000D01*
X81308000Y-178308000D01*
X81308000Y-177743750D01*
X81263960Y-177699710D01*
X81256358Y-177661491D01*
X81256358Y-177661486D01*
X81214492Y-177451011D01*
X81108478Y-177195070D01*
X81108476Y-177195068D01*
X80989253Y-177016636D01*
X80793364Y-176820748D01*
X80793363Y-176820747D01*
X80614931Y-176701522D01*
X80465004Y-176639421D01*
X80358989Y-176595508D01*
X80148513Y-176553642D01*
X79871486Y-176553642D01*
X79661011Y-176595508D01*
X79575000Y-176631135D01*
X79575000Y-175888711D01*
X79617431Y-175846280D01*
X79775000Y-175465874D01*
X79775000Y-175054126D01*
X79617431Y-174673720D01*
X79575000Y-174631289D01*
X79575000Y-170262232D01*
X79591357Y-170179999D01*
X79575000Y-170097766D01*
X79575000Y-170097763D01*
X79526552Y-169854199D01*
X79342001Y-169577999D01*
X79272282Y-169531415D01*
X78118587Y-168377720D01*
X78072001Y-168307999D01*
X77795801Y-168123448D01*
X77552237Y-168075000D01*
X77552233Y-168075000D01*
X77470000Y-168058643D01*
X77387767Y-168075000D01*
X64480868Y-168075000D01*
X63700000Y-167294133D01*
X63700000Y-162909039D01*
X64648096Y-162909039D01*
X64808959Y-163297423D01*
X65184866Y-163712389D01*
X65690959Y-163951914D01*
X65913000Y-163830629D01*
X65913000Y-162687000D01*
X66167000Y-162687000D01*
X66167000Y-163830629D01*
X66389041Y-163951914D01*
X66895134Y-163712389D01*
X67271041Y-163297423D01*
X67431904Y-162909039D01*
X67309915Y-162687000D01*
X66167000Y-162687000D01*
X65913000Y-162687000D01*
X64770085Y-162687000D01*
X64648096Y-162909039D01*
X63700000Y-162909039D01*
X63700000Y-160365867D01*
X64480868Y-159585000D01*
X64663414Y-159585000D01*
X64576887Y-160020000D01*
X64576887Y-160020000D01*
G37*
X64576887Y-160020000D02*
X64688260Y-160579909D01*
X65005423Y-161054577D01*
X65389108Y-161310947D01*
X65184866Y-161407611D01*
X64808959Y-161822577D01*
X64648096Y-162210961D01*
X64770085Y-162433000D01*
X65913000Y-162433000D01*
X65913000Y-162413000D01*
X66167000Y-162413000D01*
X66167000Y-162433000D01*
X67309915Y-162433000D01*
X67431904Y-162210961D01*
X67271041Y-161822577D01*
X66895134Y-161407611D01*
X66690892Y-161310947D01*
X67074577Y-161054577D01*
X67207930Y-160855000D01*
X68380001Y-160855000D01*
X68380000Y-165017767D01*
X68363643Y-165100000D01*
X68380000Y-165182233D01*
X68380000Y-165182236D01*
X68428448Y-165425800D01*
X68612999Y-165702001D01*
X68682720Y-165748587D01*
X69836415Y-166902282D01*
X69882999Y-166972001D01*
X70159199Y-167156552D01*
X70402763Y-167205000D01*
X70402766Y-167205000D01*
X70484999Y-167221357D01*
X70567232Y-167205000D01*
X82204133Y-167205000D01*
X82985001Y-167985869D01*
X82985000Y-174631289D01*
X82942569Y-174673720D01*
X82785000Y-175054126D01*
X82785000Y-175465874D01*
X82942569Y-175846280D01*
X82985000Y-175888711D01*
X82985000Y-177574450D01*
X82746735Y-177621843D01*
X82541202Y-177759177D01*
X82463698Y-177681673D01*
X82230309Y-177585000D01*
X81720750Y-177585000D01*
X81562000Y-177743750D01*
X81562000Y-178308000D01*
X81308000Y-178308000D01*
X81308000Y-177743750D01*
X81263960Y-177699710D01*
X81256358Y-177661491D01*
X81256358Y-177661486D01*
X81214492Y-177451011D01*
X81108478Y-177195070D01*
X81108476Y-177195068D01*
X80989253Y-177016636D01*
X80793364Y-176820748D01*
X80793363Y-176820747D01*
X80614931Y-176701522D01*
X80465004Y-176639421D01*
X80358989Y-176595508D01*
X80148513Y-176553642D01*
X79871486Y-176553642D01*
X79661011Y-176595508D01*
X79575000Y-176631135D01*
X79575000Y-175888711D01*
X79617431Y-175846280D01*
X79775000Y-175465874D01*
X79775000Y-175054126D01*
X79617431Y-174673720D01*
X79575000Y-174631289D01*
X79575000Y-170262232D01*
X79591357Y-170179999D01*
X79575000Y-170097766D01*
X79575000Y-170097763D01*
X79526552Y-169854199D01*
X79342001Y-169577999D01*
X79272282Y-169531415D01*
X78118587Y-168377720D01*
X78072001Y-168307999D01*
X77795801Y-168123448D01*
X77552237Y-168075000D01*
X77552233Y-168075000D01*
X77470000Y-168058643D01*
X77387767Y-168075000D01*
X64480868Y-168075000D01*
X63700000Y-167294133D01*
X63700000Y-162909039D01*
X64648096Y-162909039D01*
X64808959Y-163297423D01*
X65184866Y-163712389D01*
X65690959Y-163951914D01*
X65913000Y-163830629D01*
X65913000Y-162687000D01*
X66167000Y-162687000D01*
X66167000Y-163830629D01*
X66389041Y-163951914D01*
X66895134Y-163712389D01*
X67271041Y-163297423D01*
X67431904Y-162909039D01*
X67309915Y-162687000D01*
X66167000Y-162687000D01*
X65913000Y-162687000D01*
X64770085Y-162687000D01*
X64648096Y-162909039D01*
X63700000Y-162909039D01*
X63700000Y-160365867D01*
X64480868Y-159585000D01*
X64663414Y-159585000D01*
X64576887Y-160020000D01*
G04 #@! TD*
M02*
