M48
;DRILL file {KiCad (5.0.1)-3} date 11/12/2018 20:56:13
;FORMAT={-:-/ absolute / inch / decimal}
FMAT,2
INCH,TZ
T1C0.0157
T2C0.0276
T3C0.0315
T4C0.0354
%
G90
G05
M72
T1
X2.2Y-6.9
X2.3Y-4.9
X2.3Y-5.9
X2.3Y-6.9
X2.35Y-5.
X2.35Y-5.9
X2.4Y-5.1
X2.4Y-5.9
X2.4Y-6.9
X2.45Y-5.2
X2.45Y-5.9
X2.5Y-6.9
X2.6Y-6.9
X2.7Y-6.9
X2.725Y-6.3
X2.8Y-6.9
X2.9Y-6.9
X3.Y-6.4
X3.Y-6.9
X3.1Y-6.9
X3.2Y-6.9
X3.3Y-6.9
X3.4Y-6.9
X3.5Y-6.9
X3.65Y-5.65
X3.7Y-4.75
X4.05Y-4.8
X4.05Y-5.55
X4.1Y-4.9
X4.1Y-5.55
X4.15Y-5.
X4.15Y-5.55
X4.2Y-5.1
X4.2Y-5.55
X4.25Y-5.2
X4.25Y-5.55
X4.3Y-5.3
X4.3Y-5.55
X4.35Y-5.4
X4.35Y-5.55
X4.9Y-6.9
X5.Y-6.9
X5.1Y-6.9
X5.2Y-6.9
X5.3Y-6.9
X5.4Y-6.9
X5.5Y-6.9
X5.6Y-6.9
X5.7Y-6.9
T2
X5.15Y-4.5
X5.15Y-4.8
X5.45Y-4.5
X5.45Y-4.8
X5.05Y-4.5
X5.05Y-4.8
X5.65Y-4.4971
X5.65Y-4.7971
X5.25Y-4.5
X5.25Y-4.8
X5.35Y-4.5
X5.35Y-4.8
X4.95Y-4.5
X4.95Y-4.8
X5.55Y-4.4971
X5.55Y-4.7971
T3
X4.45Y-4.8
X4.45Y-4.9
X4.45Y-5.
X4.45Y-5.1
X4.45Y-5.2
X4.45Y-5.3
X4.45Y-5.4
X4.45Y-5.5
X4.45Y-5.6
X4.75Y-4.8
X4.75Y-4.9
X4.75Y-5.
X4.75Y-5.1
X4.75Y-5.2
X4.75Y-5.3
X4.75Y-5.4
X4.75Y-5.5
X4.75Y-5.6
X3.5Y-4.65
X3.5Y-4.75
X3.5Y-4.85
X3.5Y-4.95
X3.5Y-5.05
X3.5Y-5.15
X3.5Y-5.25
X3.5Y-5.35
X3.5Y-5.45
X3.5Y-5.55
X3.8Y-4.65
X3.8Y-4.75
X3.8Y-4.85
X3.8Y-4.95
X3.8Y-5.05
X3.8Y-5.15
X3.8Y-5.25
X3.8Y-5.35
X3.8Y-5.45
X3.8Y-5.55
X3.55Y-4.45
X3.7469Y-4.45
X2.6Y-4.6
X2.6Y-4.7
X2.6Y-4.8
X2.6Y-4.9
X2.6Y-5.
X2.6Y-5.1
X2.6Y-5.2
X2.6Y-5.3
X2.9Y-4.6
X2.9Y-4.7
X2.9Y-4.8
X2.9Y-4.9
X2.9Y-5.
X2.9Y-5.1
X2.9Y-5.2
X2.9Y-5.3
X2.6Y-5.7
X2.6Y-5.8
X2.6Y-5.9
X2.6Y-6.
X2.6Y-6.1
X2.6Y-6.2
X2.6Y-6.3
X2.6Y-6.4
X2.9Y-5.7
X2.9Y-5.8
X2.9Y-5.9
X2.9Y-6.
X2.9Y-6.1
X2.9Y-6.2
X2.9Y-6.3
X2.9Y-6.4
X2.65Y-4.4
X2.8469Y-4.4
X2.65Y-5.5
X2.8469Y-5.5
X3.6Y-6.
X3.6Y-6.3
X3.7Y-6.
X3.7Y-6.3
X3.8Y-6.
X3.8Y-6.3
X3.9Y-6.
X3.9Y-6.3
X4.Y-6.
X4.Y-6.3
X4.1Y-6.
X4.1Y-6.3
X4.2Y-6.
X4.2Y-6.3
T4
X4.5Y-4.1
X4.6Y-4.1
X4.8Y-4.1
X4.9Y-4.1
X4.2Y-4.1
X4.3Y-4.1
X3.6Y-4.1
X3.7Y-4.1
X5.4Y-4.1
X5.5Y-4.1
X5.7Y-4.1
X5.8Y-4.1
X3.9Y-4.1
X4.Y-4.1
X5.1Y-4.1
X5.2Y-4.1
T0
M30
